mtllib balinade_medusan.mtl
o nodes_7__meshes[2]
v 233.500000 -50.000000 -76.000000
v 177.214005 -98.776398 -184.684402
v 191.875198 -50.000000 -203.500000
v 192.408798 142.997589 -63.024399
v 120.349594 142.997589 -170.171188
v 99.321594 259.628387 -32.652481
v 0.000000 259.628387 -105.053200
v 0.000000 291.000000 0.000000
v 194.759201 142.997589 59.528004
v 275.124786 -50.000000 51.500000
v 249.422394 -98.776398 37.550358
v -249.422394 -98.776398 37.550358
v -226.408798 -98.776398 108.659599
v -275.124786 -50.000000 51.500000
v -233.500000 -50.000000 -76.000000
v -192.408798 142.997589 -63.024399
v -194.759201 142.997589 59.528004
v -99.321594 259.628021 -32.652481
v -61.387600 259.628387 84.616402
v -120.349594 142.997589 -170.171188
v -191.875198 -50.000000 -203.500000
v -177.214005 -98.776398 -184.684402
v -116.835594 -98.776398 -228.642792
v -177.214005 -98.776398 -184.684402
v -133.500000 -50.000000 -246.000000
v 0.000000 -50.000000 -246.000000
v 0.000000 142.997589 -202.675598
v 0.000000 259.628387 -105.053200
v -99.321594 259.628021 -32.652481
v 133.500000 -50.000000 -246.000000
v 116.835594 -98.776398 -228.642792
v 226.408798 -98.776398 108.659599
v 249.422394 -98.776398 37.550358
v 252.874786 -50.000000 120.250000
v 144.500000 -50.000000 199.000000
v 118.962395 142.997589 164.555603
v 61.387600 259.628387 84.616402
v 99.321594 259.628387 -32.652481
v 0.000000 142.997589 201.877197
v 36.125000 -50.000000 277.750000
v 37.364758 -98.776398 246.008392
v -37.364758 -98.776398 246.008392
v 37.364758 -98.776398 246.008392
v -36.125000 -50.000000 277.750000
v -144.500000 -50.000000 199.000000
v -118.962395 142.997589 164.555603
v 36.125000 -50.000000 277.750000
v 275.124786 -50.000000 51.500000
v -252.874786 -50.000000 120.250000
v -252.874786 -50.000000 120.250000
v -61.387600 259.628387 84.616402
v 61.387600 259.628387 84.616402
v -191.875198 -50.000000 -203.500000
v 116.835594 -98.776398 -228.642792
v 133.500000 -50.000000 -246.000000
v -226.408798 -98.776398 108.659599
vt 0.359388 0.109382
vt 0.093760 0.015622
vt 0.093760 0.109382
vt 0.359388 0.453118
vt 0.000000 0.453118
vt 0.187490 0.796885
vt -0.187490 0.796885
vt 0.000000 0.984375
vt 0.000000 0.453118
vt 0.093760 0.109382
vt 0.093760 0.015622
vt 0.093760 0.015622
vt -0.093760 0.015622
vt 0.093760 0.109382
vt 0.359388 0.109382
vt 0.359388 0.453118
vt 0.000000 0.453118
vt 0.187490 0.796885
vt -0.187490 0.796885
vt 0.000000 0.453118
vt 0.093760 0.109382
vt 0.093760 0.015622
vt 0.093760 0.015622
vt -0.093760 0.015622
vt 0.093760 0.109382
vt 0.359388 0.109382
vt 0.359388 0.453118
vt 0.187490 0.796885
vt -0.187490 0.796885
vt 0.093760 0.109382
vt 0.093760 0.015622
vt 0.093760 0.015622
vt -0.093760 0.015622
vt 0.093760 0.109382
vt 0.359388 0.109382
vt 0.359388 0.453118
vt 0.187490 0.796885
vt -0.187490 0.796885
vt 0.000000 0.453118
vt 0.093760 0.109382
vt 0.093760 0.015622
vt 0.093760 0.015622
vt -0.093760 0.015622
vt 0.093760 0.109382
vt 0.359388 0.109382
vt 0.359388 0.453118
vt -0.093760 0.109382
vt -0.093760 0.109382
vt -0.093760 0.109382
vt 0.093760 0.109382
vt 0.187490 0.796885
vt -0.187490 0.796885
vt -0.093760 0.109382
vt -0.093760 0.015622
vt -0.093760 0.109382
vt 0.093760 0.015622
vn 0.9464 0.0940 -0.3090
vn 0.7240 -0.4267 -0.5420
vn 0.7912 -0.0554 -0.6090
vn 0.8356 0.4806 -0.2661
vn 0.4957 0.5217 -0.6944
vn 0.5038 0.7819 -0.3672
vn 0.3228 0.8365 -0.4428
vn 0.0000 1.0000 0.0007
vn 0.8122 0.5261 0.2520
vn 0.9668 -0.0133 -0.2553
vn 0.8789 -0.3811 -0.2869
vn -0.8863 -0.4627 -0.0151
vn -0.8196 -0.5078 0.2652
vn -0.9965 -0.0732 0.0400
vn -0.9464 0.0940 -0.3090
vn -0.8356 0.4806 -0.2661
vn -0.8122 0.5261 0.2520
vn -0.6297 0.7768 0.0061
vn -0.5274 0.8323 0.1706
vn -0.4957 0.5217 -0.6944
vn -0.9323 -0.0262 -0.3608
vn -0.8809 -0.3757 -0.2876
vn -0.2805 -0.4054 -0.8700
vn -0.5288 -0.4391 -0.7263
vn -0.3409 -0.0476 -0.9389
vn 0.0000 0.1054 -0.9944
vn 0.0000 0.4773 -0.8787
vn -0.1980 0.7812 -0.5920
vn -0.3214 0.8380 -0.4409
vn 0.0505 -0.0021 -0.9987
vn 0.0000 -0.3352 -0.9421
vn 0.7091 -0.5023 0.4948
vn 0.8196 -0.5077 0.2652
vn 0.8235 -0.0871 0.5606
vn 0.5863 0.0731 0.8068
vn 0.5115 0.4862 0.7084
vn 0.5104 0.7778 0.3667
vn 0.5298 0.8306 0.1714
vn 0.0000 0.5276 0.8495
vn 0.5345 -0.0511 0.8436
vn 0.5233 -0.4554 0.7202
vn -0.2646 -0.5213 0.8113
vn 0.0000 -0.5454 0.8381
vn -0.2715 -0.0975 0.9575
vn -0.5863 0.0731 0.8068
vn -0.5115 0.4862 0.7084
vn 0.0000 -0.1341 0.9909
vn 0.9443 -0.1220 0.3056
vn -0.9460 -0.1063 0.3062
vn -0.6360 -0.0611 0.7692
vn -0.1914 0.7762 0.6006
vn 0.0000 0.8293 0.5587
vn -0.5867 -0.0798 -0.8058
vn 0.5288 -0.4391 -0.7263
vn 0.5864 -0.0866 -0.8054
vn -0.5234 -0.4552 0.7203
usemtl material0_002
s 1
f 1/1/1 2/2/2 3/3/3
f 3/3/3 4/4/4 1/1/1
f 5/5/5 4/4/4 3/3/3
f 5/5/5 6/6/6 4/4/4
f 6/6/6 5/5/5 7/7/7
f 6/6/6 7/7/7 8/8/8
f 4/4/4 6/6/6 9/9/9
f 10/10/10 4/4/4 9/9/9
f 1/1/1 4/4/4 10/10/10
f 11/11/11 1/1/1 10/10/10
f 12/12/12 13/13/13 14/14/14
f 15/15/15 12/12/12 14/14/14
f 14/14/14 16/16/16 15/15/15
f 17/17/17 16/16/16 14/14/14
f 17/17/17 18/18/18 16/16/16
f 17/17/17 19/19/19 18/18/18
f 18/18/18 19/19/19 8/8/8
f 16/16/16 18/18/18 20/20/20
f 16/16/16 20/20/20 21/21/21
f 15/15/15 16/16/16 21/21/21
f 22/22/22 15/15/15 21/21/21
f 23/23/23 24/24/24 25/25/25
f 26/26/26 23/23/23 25/25/25
f 25/25/25 27/27/27 26/26/26
f 20/20/20 27/27/27 25/25/25
f 20/20/20 28/28/28 27/27/27
f 20/20/20 29/29/29 28/28/28
f 28/28/28 29/29/29 8/8/8
f 28/28/28 5/5/5 27/27/27
f 27/27/27 5/5/5 30/30/30
f 26/26/26 27/27/27 30/30/30
f 31/31/31 26/26/26 30/30/30
f 32/32/32 33/33/33 34/34/34
f 35/35/35 32/32/32 34/34/34
f 34/34/34 36/36/36 35/35/35
f 9/9/9 36/36/36 34/34/34
f 9/9/9 37/37/37 36/36/36
f 9/9/9 38/38/38 37/37/37
f 37/37/37 38/38/38 8/8/8
f 37/37/37 39/39/39 36/36/36
f 40/40/40 36/36/36 39/39/39
f 35/35/35 36/36/36 40/40/40
f 41/41/41 35/35/35 40/40/40
f 42/42/42 43/43/43 44/44/44
f 45/45/45 42/42/42 44/44/44
f 44/44/44 46/46/46 45/45/45
f 44/44/44 39/39/39 46/46/46
f 44/44/44 47/47/47 39/39/39
f 47/47/47 44/44/44 43/43/43
f 33/33/33 48/48/48 34/34/34
f 34/34/34 48/48/48 9/9/9
f 49/49/49 14/14/14 13/13/13
f 14/14/14 49/49/49 17/17/17
f 46/46/46 17/17/17 50/50/50
f 46/46/46 51/51/51 17/17/17
f 39/39/39 51/51/51 46/46/46
f 51/51/51 39/39/39 52/52/52
f 51/51/51 52/52/52 8/8/8
f 53/53/53 25/25/25 24/24/24
f 53/53/53 20/20/20 25/25/25
f 54/54/54 55/55/55 3/3/3
f 2/2/2 54/54/54 3/3/3
f 3/3/3 55/55/55 5/5/5
f 45/45/45 46/46/46 50/50/50
f 56/56/56 45/45/45 50/50/50
o nodes_6__meshes[1]
v 131.468399 -3.547656 -178.928009
v 73.835602 -91.000000 -94.022797
v -131.468399 -3.547656 -178.928391
v 119.468399 -91.000000 46.420799
v 212.227600 -3.547652 69.922401
v 93.836006 115.217598 -124.988396
v -93.836006 115.217598 -124.988396
v 0.000000 172.217590 0.000000
v 151.830002 115.217598 53.498398
v -73.835602 -91.000000 -94.022797
v -212.227600 -3.547640 69.922401
v -119.468399 -91.000000 46.420799
v 0.000000 -131.000000 1.371164
v 0.000000 -91.000000 133.220001
v -119.468399 -91.000000 46.420799
v 0.000000 -3.547648 223.928009
v -212.227600 -3.547640 69.922401
v 0.000000 115.217598 163.809189
v -151.830002 115.217598 53.498398
v -151.830002 115.217598 53.498398
v 0.000000 -3.547648 223.928009
v 0.000000 -91.000000 133.220001
v 212.227600 -3.547652 69.922401
v 151.830002 115.217598 53.498398
v 0.000000 115.217598 163.809189
v 119.468399 -91.000000 46.420799
vt 1.609380 0.609381
vt 1.296856 0.796856
vt 0.390619 0.609381
vt 0.671856 0.796856
vt 0.390619 0.609381
vt 1.296856 0.796856
vt 0.671856 0.796856
vt 0.999999 0.999999
vt 0.671856 0.796856
vt 0.671856 0.796856
vt 1.609380 0.609381
vt 1.296856 0.796856
vt 0.999999 0.999999
vt 1.296856 0.796856
vt 0.671856 0.796856
vt 1.609380 0.609381
vt 0.390619 0.609381
vt 1.296856 0.796856
vt 0.671856 0.796856
vt 1.296856 0.796856
vt 0.390619 0.609381
vt 0.671856 0.796856
vt 1.609380 0.609381
vt 1.296856 0.796856
vt 0.671856 0.796856
vt 1.296856 0.796856
vn 0.5781 -0.1474 -0.8026
vn 0.3259 -0.8391 -0.4355
vn -0.5780 -0.1474 -0.8026
vn 0.6003 -0.7756 -0.1949
vn 0.9434 -0.1267 -0.3063
vn 0.4235 0.6982 -0.5772
vn -0.4234 0.6982 -0.5772
vn 0.0000 0.9999 -0.0106
vn 0.7490 0.6162 -0.2434
vn -0.3260 -0.8390 -0.4355
vn -0.9434 -0.1268 -0.3063
vn -0.6004 -0.7755 -0.1951
vn 0.0000 -0.9998 -0.0186
vn -0.3816 -0.7606 0.5253
vn -0.3803 -0.7622 0.5238
vn -0.5837 -0.1129 0.8041
vn -0.5843 -0.1043 0.8048
vn -0.4665 0.6079 0.6425
vn -0.4659 0.6095 0.6413
vn -0.7490 0.6164 -0.2432
vn 0.5837 -0.1127 0.8041
vn 0.3813 -0.7607 0.5252
vn 0.5842 -0.1041 0.8049
vn 0.4658 0.6093 0.6416
vn 0.4668 0.6077 0.6425
vn 0.3804 -0.7624 0.5235
usemtl material0_001
s 1
f 57/57/57 58/58/58 59/59/59
f 57/57/57 60/60/60 58/58/58
f 61/61/61 60/60/60 57/57/57
f 57/57/57 62/62/62 61/61/61
f 62/62/62 57/57/57 63/63/63
f 62/62/62 63/63/63 64/64/64
f 65/65/65 62/62/62 64/64/64
f 61/61/61 62/62/62 65/65/65
f 59/59/59 58/58/58 66/66/66
f 66/66/66 67/67/67 59/59/59
f 68/68/68 67/67/67 66/66/66
f 68/68/68 66/66/66 69/69/69
f 66/66/66 58/58/58 69/69/69
f 58/58/58 60/60/60 69/69/69
f 70/70/70 71/71/71 69/69/69
f 70/70/70 72/72/72 71/71/71
f 71/71/71 72/72/72 73/73/73
f 74/74/74 73/73/73 72/72/72
f 75/75/75 73/73/73 74/74/74
f 75/75/75 74/74/74 64/64/64
f 63/63/63 76/76/76 64/64/64
f 63/63/63 59/59/59 76/76/76
f 63/63/63 57/57/57 59/59/59
f 76/76/76 59/59/59 67/67/67
f 77/77/77 78/78/78 79/79/79
f 79/79/79 80/80/80 77/77/77
f 77/77/77 80/80/80 81/81/81
f 81/81/81 80/80/80 64/64/64
f 79/79/79 78/78/78 82/82/82
f 82/82/82 78/78/78 69/69/69
o nodes_5__meshes[0]
v -113.406799 -240.000000 -151.255600
v -212.227600 -3.547640 69.922401
v -131.468399 -3.547656 -178.928391
v -183.071198 -240.000000 63.407597
v 0.000000 -3.547644 223.928009
v 0.000000 -240.000000 196.255600
v 212.227600 -3.547652 69.922401
v 183.071198 -240.000000 63.407597
v 183.071198 -240.000000 63.407597
v 131.468399 -3.547652 -178.928391
v 212.227600 -3.547652 69.922401
v 113.406799 -240.000000 -151.255600
vt 0.390619 0.015619
vt 1.609380 0.609381
vt 0.390619 0.609381
vt 1.609380 0.015619
vt 0.390619 0.609381
vt 0.390619 0.015619
vt 1.609380 0.609381
vt 1.609380 0.015619
vt 0.390619 0.015619
vt 1.609380 0.609381
vt 0.390619 0.609381
vt 1.609380 0.015619
vn -0.5845 -0.1382 -0.7995
vn -0.9447 -0.1248 0.3031
vn -0.5803 -0.1382 -0.8025
vn -0.9420 -0.1247 0.3115
vn 0.0000 -0.1162 0.9932
vn 0.5847 -0.0943 0.8057
vn 0.9456 -0.1081 -0.3069
vn 0.5803 -0.1382 -0.8025
vn 0.5845 -0.1382 -0.7995
usemtl material0
s 1
f 83/83/83 84/84/84 85/85/85
f 83/83/83 86/86/86 84/84/84
f 86/86/86 87/87/87 84/84/84
f 86/86/86 88/88/87 87/87/87
f 88/88/87 89/89/88 87/87/87
f 88/88/87 90/90/88 89/89/88
f 91/91/89 92/92/90 93/93/89
f 91/91/89 94/94/91 92/92/90
f 94/94/91 85/85/85 92/92/90
f 94/94/91 83/83/83 85/85/85
