<?xml version="1.0" encoding="utf-8"?>
<COLLADA xmlns="http://www.collada.org/2005/11/COLLADASchema" version="1.4.1" xmlns:xsi="http://www.w3.org/2001/XMLSchema-instance">
  <asset>
    <contributor>
      <author>Blender User</author>
      <authoring_tool>Blender 2.79.0 commit date:2018-03-22, commit time:14:10, hash:f4dc9f9d68b</authoring_tool>
    </contributor>
    <created>2023-10-30T17:40:18</created>
    <modified>2023-10-30T17:40:18</modified>
    <unit name="meter" meter="1"/>
    <up_axis>Z_UP</up_axis>
  </asset>
  <library_images>
    <image id="balinade_01_png" name="balinade_01_png">
      <init_from>balinade_01.png</init_from>
    </image>
  </library_images>
  <library_effects>
    <effect id="balinade_01_png-effect">
      <profile_COMMON>
        <newparam sid="balinade_01_png-surface">
          <surface type="2D">
            <init_from>balinade_01_png</init_from>
          </surface>
        </newparam>
        <newparam sid="balinade_01_png-sampler">
          <sampler2D>
            <source>balinade_01_png-surface</source>
          </sampler2D>
        </newparam>
        <technique sid="common">
          <phong>
            <diffuse>
              <texture texture="balinade_01_png-sampler" texcoord="balinade_01_png"/>
            </diffuse>
            <specular>
              <color sid="specular">0 0 0 1</color>
            </specular>
          </phong>
        </technique>
      </profile_COMMON>
    </effect>
  </library_effects>
  <library_materials>
    <material id="balinade_01_png-material" name="balinade_01_png">
      <instance_effect url="#balinade_01_png-effect"/>
    </material>
  </library_materials>
  <library_geometries>
    <geometry id="meshes_0_-mesh" name="meshes[0]">
      <mesh>
        <source id="meshes_0_-mesh-positions">
          <float_array id="meshes_0_-mesh-positions-array" count="36">-113.4068 151.2556 -240 -212.2276 -69.9224 -3.54764 -131.4684 178.9284 -3.547656 -183.0712 -63.4076 -240 0 -223.928 -3.547644 0 -196.2556 -240 212.2276 -69.9224 -3.547652 183.0712 -63.4076 -240 183.0712 -63.4076 -240 131.4684 178.9284 -3.547652 212.2276 -69.9224 -3.547652 113.4068 151.2556 -240</float_array>
          <technique_common>
            <accessor source="#meshes_0_-mesh-positions-array" count="12" stride="3">
              <param name="X" type="float"/>
              <param name="Y" type="float"/>
              <param name="Z" type="float"/>
            </accessor>
          </technique_common>
        </source>
        <source id="meshes_0_-mesh-normals">
          <float_array id="meshes_0_-mesh-normals-array" count="27">-0.584533 0.7995099 -0.1382212 -0.9447441 -0.303114 -0.1248224 -0.580344 0.8025509 -0.1382498 -0.9420105 -0.3115416 -0.1247326 0 -0.9932239 -0.1162179 0.5846988 -0.805754 -0.09427571 0.9455909 0.3068653 -0.1081277 0.580344 0.8025509 -0.1382498 0.584533 0.7995099 -0.1382212</float_array>
          <technique_common>
            <accessor source="#meshes_0_-mesh-normals-array" count="9" stride="3">
              <param name="X" type="float"/>
              <param name="Y" type="float"/>
              <param name="Z" type="float"/>
            </accessor>
          </technique_common>
        </source>
        <source id="meshes_0_-mesh-map-0">
          <float_array id="meshes_0_-mesh-map-0-array" count="60">0.3906186 0.01561886 1.60938 0.6093807 0.3906186 0.6093807 0.3906186 0.01561886 1.60938 0.01561886 1.60938 0.6093807 1.60938 0.01561886 0.3906186 0.6093807 1.60938 0.6093807 1.60938 0.01561886 0.3906186 0.01561886 0.3906186 0.6093807 0.3906186 0.01561886 1.60938 0.6093807 0.3906186 0.6093807 0.3906186 0.01561886 1.60938 0.01561886 1.60938 0.6093807 0.3906186 0.01561886 1.60938 0.6093807 0.3906186 0.6093807 0.3906186 0.01561886 1.60938 0.01561886 1.60938 0.6093807 1.60938 0.01561886 0.3906186 0.6093807 1.60938 0.6093807 1.60938 0.01561886 0.3906186 0.01561886 0.3906186 0.6093807</float_array>
          <technique_common>
            <accessor source="#meshes_0_-mesh-map-0-array" count="30" stride="2">
              <param name="S" type="float"/>
              <param name="T" type="float"/>
            </accessor>
          </technique_common>
        </source>
        <source id="meshes_0_-mesh-colors-COLOR_0" name="COLOR_0">
          <float_array id="meshes_0_-mesh-colors-COLOR_0-array" count="90">1 1 1 1 1 1 1 1 1 1 1 1 1 1 1 1 1 1 1 1 1 1 1 1 1 1 1 1 1 1 1 1 1 1 1 1 1 1 1 1 1 1 1 1 1 1 1 1 1 1 1 1 1 1 1 1 1 1 1 1 1 1 1 1 1 1 1 1 1 1 1 1 1 1 1 1 1 1 1 1 1 1 1 1 1 1 1 1 1 1</float_array>
          <technique_common>
            <accessor source="#meshes_0_-mesh-colors-COLOR_0-array" count="30" stride="3">
              <param name="R" type="float"/>
              <param name="G" type="float"/>
              <param name="B" type="float"/>
            </accessor>
          </technique_common>
        </source>
        <vertices id="meshes_0_-mesh-vertices">
          <input semantic="POSITION" source="#meshes_0_-mesh-positions"/>
        </vertices>
        <triangles material="balinade_01_png-material" count="10">
          <input semantic="VERTEX" source="#meshes_0_-mesh-vertices" offset="0"/>
          <input semantic="NORMAL" source="#meshes_0_-mesh-normals" offset="1"/>
          <input semantic="TEXCOORD" source="#meshes_0_-mesh-map-0" offset="2" set="0"/>
          <input semantic="COLOR" source="#meshes_0_-mesh-colors-COLOR_0" offset="3" set="0"/>
          <p>0 0 0 0 1 1 1 1 2 2 2 2 0 0 3 3 3 3 4 4 1 1 5 5 3 3 6 6 4 4 7 7 1 1 8 8 3 3 9 9 5 4 10 10 4 4 11 11 5 4 12 12 6 5 13 13 4 4 14 14 5 4 15 15 7 5 16 16 6 5 17 17 8 6 18 18 9 7 19 19 10 6 20 20 8 6 21 21 11 8 22 22 9 7 23 23 11 8 24 24 2 2 25 25 9 7 26 26 11 8 27 27 0 0 28 28 2 2 29 29</p>
        </triangles>
      </mesh>
    </geometry>
    <geometry id="meshes_1_-mesh" name="meshes[1]">
      <mesh>
        <source id="meshes_1_-mesh-positions">
          <float_array id="meshes_1_-mesh-positions-array" count="78">131.4684 178.928 -3.547656 73.8356 94.0228 -91 -131.4684 178.9284 -3.547656 119.4684 -46.4208 -91 212.2276 -69.9224 -3.547652 93.83601 124.9884 115.2176 -93.83601 124.9884 115.2176 0 0 172.2176 151.83 -53.4984 115.2176 -73.8356 94.0228 -91 -212.2276 -69.9224 -3.54764 -119.4684 -46.4208 -91 0 -1.371164 -131 0 -133.22 -91 -119.4684 -46.4208 -91 0 -223.928 -3.547648 -212.2276 -69.9224 -3.54764 0 -163.8092 115.2176 -151.83 -53.4984 115.2176 -151.83 -53.4984 115.2176 0 -223.928 -3.547648 0 -133.22 -91 212.2276 -69.9224 -3.547652 151.83 -53.4984 115.2176 0 -163.8092 115.2176 119.4684 -46.4208 -91</float_array>
          <technique_common>
            <accessor source="#meshes_1_-mesh-positions-array" count="26" stride="3">
              <param name="X" type="float"/>
              <param name="Y" type="float"/>
              <param name="Z" type="float"/>
            </accessor>
          </technique_common>
        </source>
        <source id="meshes_1_-mesh-normals">
          <float_array id="meshes_1_-mesh-normals-array" count="78">0.5780541 0.8025799 -0.1473746 0.3259153 0.4355406 -0.8390969 -0.5780285 0.8025868 -0.1474369 0.6003472 0.1949274 -0.7756202 0.9434744 0.3062919 -0.1266552 0.4235146 0.5772091 0.6981871 -0.4233978 0.577247 0.6982265 0 0.01062047 0.9999436 0.7490079 0.2433619 0.6162484 -0.3260098 0.435514 -0.839074 -0.9434686 0.3062595 -0.1267765 -0.6004305 0.1950773 -0.775518 0 0.01864695 -0.9998262 -0.3816126 -0.5252667 -0.7605701 -0.3803082 -0.5238432 -0.7622034 -0.5836675 -0.8041031 -0.1129186 -0.5842877 -0.8048186 -0.1042836 -0.4664949 -0.642533 0.6078931 -0.4659448 -0.6413417 0.6095707 -0.7489715 0.2431769 0.6163657 0.5837361 -0.804083 -0.1127065 0.3813048 -0.5252326 -0.7607479 0.58423 -0.8048841 -0.1041011 0.4658425 -0.6416321 0.609343 0.4667942 -0.642525 0.6076718 0.3803592 -0.5235242 -0.7623971</float_array>
          <technique_common>
            <accessor source="#meshes_1_-mesh-normals-array" count="26" stride="3">
              <param name="X" type="float"/>
              <param name="Y" type="float"/>
              <param name="Z" type="float"/>
            </accessor>
          </technique_common>
        </source>
        <source id="meshes_1_-mesh-map-0">
          <float_array id="meshes_1_-mesh-map-0-array" count="180">1.60938 0.6093807 1.296856 0.7968561 0.3906186 0.6093807 1.60938 0.6093807 0.6718561 0.7968561 1.296856 0.7968561 0.3906186 0.6093807 0.6718561 0.7968561 1.60938 0.6093807 1.60938 0.6093807 1.296856 0.7968561 0.3906186 0.6093807 1.296856 0.7968561 1.60938 0.6093807 0.6718561 0.7968561 1.296856 0.7968561 0.6718561 0.7968561 0.9999993 0.9999993 0.6718561 0.7968561 1.296856 0.7968561 0.9999993 0.9999993 0.3906186 0.6093807 1.296856 0.7968561 0.6718561 0.7968561 0.3906186 0.6093807 1.296856 0.7968561 0.6718561 0.7968561 0.6718561 0.7968561 1.60938 0.6093807 0.3906186 0.6093807 1.296856 0.7968561 1.60938 0.6093807 0.6718561 0.7968561 1.296856 0.7968561 0.6718561 0.7968561 0.9999993 0.9999993 0.6718561 0.7968561 1.296856 0.7968561 0.9999993 0.9999993 1.296856 0.7968561 0.6718561 0.7968561 0.9999993 0.9999993 1.296856 0.7968561 0.6718561 0.7968561 0.9999993 0.9999993 1.296856 0.7968561 1.60938 0.6093807 0.6718561 0.7968561 0.6718561 0.7968561 1.60938 0.6093807 0.3906186 0.6093807 1.296856 0.7968561 0.3906186 0.6093807 1.60938 0.6093807 0.6718561 0.7968561 0.3906186 0.6093807 1.296856 0.7968561 0.6718561 0.7968561 1.296856 0.7968561 0.9999993 0.9999993 0.6718561 0.7968561 1.296856 0.7968561 0.9999993 0.9999993 0.6718561 0.7968561 0.3906186 0.6093807 1.296856 0.7968561 0.6718561 0.7968561 1.60938 0.6093807 0.3906186 0.6093807 1.296856 0.7968561 0.3906186 0.6093807 1.60938 0.6093807 0.3906186 0.6093807 0.6718561 0.7968561 1.60938 0.6093807 1.60938 0.6093807 1.296856 0.7968561 0.3906186 0.6093807 0.3906186 0.6093807 1.296856 0.7968561 0.6718561 0.7968561 0.6718561 0.7968561 1.296856 0.7968561 0.9999993 0.9999993 1.60938 0.6093807 0.6718561 0.7968561 1.296856 0.7968561 1.296856 0.7968561 0.6718561 0.7968561 0.9999993 0.9999993</float_array>
          <technique_common>
            <accessor source="#meshes_1_-mesh-map-0-array" count="90" stride="2">
              <param name="S" type="float"/>
              <param name="T" type="float"/>
            </accessor>
          </technique_common>
        </source>
        <source id="meshes_1_-mesh-colors-COLOR_0" name="COLOR_0">
          <float_array id="meshes_1_-mesh-colors-COLOR_0-array" count="270">1 1 1 1 1 1 1 1 1 1 1 1 1 1 1 1 1 1 1 1 1 1 1 1 1 1 1 1 1 1 1 1 1 1 1 1 1 1 1 1 1 1 1 1 1 1 1 1 1 1 1 1 1 1 1 1 1 1 1 1 1 1 1 1 1 1 1 1 1 1 1 1 1 1 1 1 1 1 1 1 1 1 1 1 1 1 1 1 1 1 1 1 1 1 1 1 1 1 1 1 1 1 1 1 1 1 1 1 1 1 1 1 1 1 1 1 1 1 1 1 1 1 1 1 1 1 1 1 1 1 1 1 1 1 1 1 1 1 1 1 1 1 1 1 1 1 1 1 1 1 1 1 1 1 1 1 1 1 1 1 1 1 1 1 1 1 1 1 1 1 1 1 1 1 1 1 1 1 1 1 1 1 1 1 1 1 1 1 1 1 1 1 1 1 1 1 1 1 1 1 1 1 1 1 1 1 1 1 1 1 1 1 1 1 1 1 1 1 1 1 1 1 1 1 1 1 1 1 1 1 1 1 1 1 1 1 1 1 1 1 1 1 1 1 1 1 1 1 1 1 1 1 1 1 1 1 1 1 1 1 1 1 1 1 1 1 1 1 1 1</float_array>
          <technique_common>
            <accessor source="#meshes_1_-mesh-colors-COLOR_0-array" count="90" stride="3">
              <param name="R" type="float"/>
              <param name="G" type="float"/>
              <param name="B" type="float"/>
            </accessor>
          </technique_common>
        </source>
        <vertices id="meshes_1_-mesh-vertices">
          <input semantic="POSITION" source="#meshes_1_-mesh-positions"/>
        </vertices>
        <triangles material="balinade_01_png-material" count="30">
          <input semantic="VERTEX" source="#meshes_1_-mesh-vertices" offset="0"/>
          <input semantic="NORMAL" source="#meshes_1_-mesh-normals" offset="1"/>
          <input semantic="TEXCOORD" source="#meshes_1_-mesh-map-0" offset="2" set="0"/>
          <input semantic="COLOR" source="#meshes_1_-mesh-colors-COLOR_0" offset="3" set="0"/>
          <p>0 0 0 0 1 1 1 1 2 2 2 2 0 0 3 3 3 3 4 4 1 1 5 5 4 4 6 6 3 3 7 7 0 0 8 8 0 0 9 9 5 5 10 10 4 4 11 11 5 5 12 12 0 0 13 13 6 6 14 14 5 5 15 15 6 6 16 16 7 7 17 17 8 8 18 18 5 5 19 19 7 7 20 20 4 4 21 21 5 5 22 22 8 8 23 23 2 2 24 24 1 1 25 25 9 9 26 26 9 9 27 27 10 10 28 28 2 2 29 29 11 11 30 30 10 10 31 31 9 9 32 32 11 11 33 33 9 9 34 34 12 12 35 35 9 9 36 36 1 1 37 37 12 12 38 38 1 1 39 39 3 3 40 40 12 12 41 41 13 13 42 42 14 14 43 43 12 12 44 44 13 13 45 45 15 15 46 46 14 14 47 47 14 14 48 48 15 15 49 49 16 16 50 50 17 17 51 51 16 16 52 52 15 15 53 53 18 18 54 54 16 16 55 55 17 17 56 56 18 18 57 57 17 17 58 58 7 7 59 59 6 6 60 60 19 19 61 61 7 7 62 62 6 6 63 63 2 2 64 64 19 19 65 65 6 6 66 66 0 0 67 67 2 2 68 68 19 19 69 69 2 2 70 70 10 10 71 71 20 20 72 72 21 21 73 73 22 22 74 74 22 22 75 75 23 23 76 76 20 20 77 77 20 20 78 78 23 23 79 79 24 24 80 80 24 24 81 81 23 23 82 82 7 7 83 83 22 22 84 84 21 21 85 85 25 25 86 86 25 25 87 87 21 21 88 88 12 12 89 89</p>
        </triangles>
      </mesh>
    </geometry>
    <geometry id="meshes_2_-mesh" name="meshes[2]">
      <mesh>
        <source id="meshes_2_-mesh-positions">
          <float_array id="meshes_2_-mesh-positions-array" count="168">233.5 76 -50 177.214 184.6844 -98.7764 191.8752 203.5 -50 192.4088 63.0244 142.9976 120.3496 170.1712 142.9976 99.3216 32.65248 259.6284 0 105.0532 259.6284 0 0 291 194.7592 -59.528 142.9976 275.1248 -51.5 -50 249.4224 -37.55036 -98.7764 -249.4224 -37.55036 -98.7764 -226.4088 -108.6596 -98.7764 -275.1248 -51.5 -50 -233.5 76 -50 -192.4088 63.0244 142.9976 -194.7592 -59.528 142.9976 -99.3216 32.65248 259.628 -61.3876 -84.6164 259.6284 -120.3496 170.1712 142.9976 -191.8752 203.5 -50 -177.214 184.6844 -98.7764 -116.8356 228.6428 -98.7764 -177.214 184.6844 -98.7764 -133.5 246 -50 0 246 -50 0 202.6756 142.9976 0 105.0532 259.6284 -99.3216 32.65248 259.628 133.5 246 -50 116.8356 228.6428 -98.7764 226.4088 -108.6596 -98.7764 249.4224 -37.55036 -98.7764 252.8748 -120.25 -50 144.5 -199 -50 118.9624 -164.5556 142.9976 61.3876 -84.6164 259.6284 99.3216 32.65248 259.6284 0 -201.8772 142.9976 36.125 -277.75 -50 37.36476 -246.0084 -98.7764 -37.36476 -246.0084 -98.7764 37.36476 -246.0084 -98.7764 -36.125 -277.75 -50 -144.5 -199 -50 -118.9624 -164.5556 142.9976 36.125 -277.75 -50 275.1248 -51.5 -50 -252.8748 -120.25 -50 -252.8748 -120.25 -50 -61.3876 -84.6164 259.6284 61.3876 -84.6164 259.6284 -191.8752 203.5 -50 116.8356 228.6428 -98.7764 133.5 246 -50 -226.4088 -108.6596 -98.7764</float_array>
          <technique_common>
            <accessor source="#meshes_2_-mesh-positions-array" count="56" stride="3">
              <param name="X" type="float"/>
              <param name="Y" type="float"/>
              <param name="Z" type="float"/>
            </accessor>
          </technique_common>
        </source>
        <source id="meshes_2_-mesh-normals">
          <float_array id="meshes_2_-mesh-normals-array" count="168">0.9464178 0.3089721 0.09396731 0.7239794 0.5420232 -0.4266906 0.791195 0.609053 -0.05536288 0.8355789 0.2660644 0.4806432 0.4956622 0.6943727 0.521695 0.5038137 0.367209 0.7818756 0.3227728 0.4428054 0.8365052 0 -7.32466e-4 0.9999998 0.8122428 -0.251968 0.526093 0.9667735 0.2552895 -0.01327562 0.8789018 0.2869142 -0.381067 -0.8863691 0.01513749 -0.4627321 -0.8196437 -0.265239 -0.507772 -0.9965111 -0.04001057 -0.07324594 -0.9464178 0.3089721 0.09396731 -0.8355789 0.2660644 0.4806432 -0.8122428 -0.251968 0.526093 -0.6296911 -0.006134212 0.7768215 -0.5273985 -0.1706011 0.8323137 -0.4956622 0.6943727 0.521695 -0.9322891 0.360763 -0.02621567 -0.880961 0.2876109 -0.3757497 -0.2805318 0.8700087 -0.4054465 -0.5288052 0.7263251 -0.4391095 -0.3409272 0.938885 -0.04757899 0 0.9944254 0.1054425 0 0.8787445 0.4772925 -0.1979775 0.5919793 0.7812589 -0.3213685 0.4408821 0.8380606 0.05047786 0.9987231 -0.002075254 0 0.9421281 -0.3352535 0.7090885 -0.4948421 -0.5023193 0.8196437 -0.265239 -0.507772 0.823468 -0.560637 -0.08710163 0.5862767 -0.8068094 0.07306331 0.5115382 -0.7084503 0.4862375 0.5104349 -0.3666892 0.7778144 0.5297827 -0.1713653 0.8306409 0 -0.8494799 0.5276212 0.5345372 -0.8436013 -0.05105799 0.5233493 -0.7202309 -0.4553822 -0.2645978 -0.8113417 -0.5212607 0 -0.83815 -0.5454399 -0.2715283 -0.9574751 -0.09753894 -0.5862767 -0.8068094 0.07306331 -0.5115382 -0.7084503 0.4862375 0 -0.9909635 -0.1341326 0.9443146 -0.3055854 -0.1220144 -0.9460282 -0.3061667 -0.1062672 -0.6360267 -0.7692444 -0.06110006 -0.1913878 -0.6006544 0.7762635 0 -0.5587362 0.8293455 -0.5867034 0.8058627 -0.07977747 0.5288052 0.7263251 -0.4391095 0.586369 0.8054067 -0.08655297 -0.52341 -0.720322 -0.4551683</float_array>
          <technique_common>
            <accessor source="#meshes_2_-mesh-normals-array" count="56" stride="3">
              <param name="X" type="float"/>
              <param name="Y" type="float"/>
              <param name="Z" type="float"/>
            </accessor>
          </technique_common>
        </source>
        <source id="meshes_2_-mesh-map-0">
          <float_array id="meshes_2_-mesh-map-0-array" count="390">0.3593884 0.1093816 0.09376001 0.01562166 0.09376001 0.1093816 0.09376001 0.1093816 0.3593884 0.4531183 0.3593884 0.1093816 0 0.4531183 0.3593884 0.4531183 0.09376001 0.1093816 0 0.4531183 0.18749 0.7968851 0.3593884 0.4531183 0.18749 0.7968851 0 0.4531183 -0.18749 0.7968851 0.18749 0.7968851 -0.18749 0.7968851 0 0.9843751 0.3593884 0.4531183 0.18749 0.7968851 0 0.4531183 0.09376001 0.1093816 0.3593884 0.4531183 0 0.4531183 0.3593884 0.1093816 0.3593884 0.4531183 0.09376001 0.1093816 0.09376001 0.01562166 0.3593884 0.1093816 0.09376001 0.1093816 0.09376001 0.01562166 -0.09376001 0.01562166 0.09376001 0.1093816 0.3593884 0.1093816 0.09376001 0.01562166 0.09376001 0.1093816 0.09376001 0.1093816 0.3593884 0.4531183 0.3593884 0.1093816 0 0.4531183 0.3593884 0.4531183 0.09376001 0.1093816 0 0.4531183 0.18749 0.7968851 0.3593884 0.4531183 0 0.4531183 -0.18749 0.7968851 0.18749 0.7968851 0.18749 0.7968851 -0.18749 0.7968851 0 0.9843751 0.3593884 0.4531183 0.18749 0.7968851 0 0.4531183 0.3593884 0.4531183 0 0.4531183 0.09376001 0.1093816 0.3593884 0.1093816 0.3593884 0.4531183 0.09376001 0.1093816 0.09376001 0.01562166 0.3593884 0.1093816 0.09376001 0.1093816 0.09376001 0.01562166 -0.09376001 0.01562166 0.09376001 0.1093816 0.3593884 0.1093816 0.09376001 0.01562166 0.09376001 0.1093816 0.09376001 0.1093816 0.3593884 0.4531183 0.3593884 0.1093816 0 0.4531183 0.3593884 0.4531183 0.09376001 0.1093816 0 0.4531183 0.18749 0.7968851 0.3593884 0.4531183 0 0.4531183 -0.18749 0.7968851 0.18749 0.7968851 0.18749 0.7968851 -0.18749 0.7968851 0 0.9843751 0.18749 0.7968851 0 0.4531183 0.3593884 0.4531183 0.3593884 0.4531183 0 0.4531183 0.09376001 0.1093816 0.3593884 0.1093816 0.3593884 0.4531183 0.09376001 0.1093816 0.09376001 0.01562166 0.3593884 0.1093816 0.09376001 0.1093816 0.09376001 0.01562166 -0.09376001 0.01562166 0.09376001 0.1093816 0.3593884 0.1093816 0.09376001 0.01562166 0.09376001 0.1093816 0.09376001 0.1093816 0.3593884 0.4531183 0.3593884 0.1093816 0 0.4531183 0.3593884 0.4531183 0.09376001 0.1093816 0 0.4531183 0.18749 0.7968851 0.3593884 0.4531183 0 0.4531183 -0.18749 0.7968851 0.18749 0.7968851 0.18749 0.7968851 -0.18749 0.7968851 0 0.9843751 0.18749 0.7968851 0 0.4531183 0.3593884 0.4531183 0.09376001 0.1093816 0.3593884 0.4531183 0 0.4531183 0.3593884 0.1093816 0.3593884 0.4531183 0.09376001 0.1093816 0.09376001 0.01562166 0.3593884 0.1093816 0.09376001 0.1093816 0.09376001 0.01562166 -0.09376001 0.01562166 0.09376001 0.1093816 0.3593884 0.1093816 0.09376001 0.01562166 0.09376001 0.1093816 0.09376001 0.1093816 0.3593884 0.4531183 0.3593884 0.1093816 0.09376001 0.1093816 0 0.4531183 0.3593884 0.4531183 0.09376001 0.1093816 -0.09376001 0.1093816 0 0.4531183 -0.09376001 0.1093816 0.09376001 0.1093816 -0.09376001 0.01562166 -0.09376001 0.01562166 -0.09376001 0.1093816 0.09376001 0.1093816 0.09376001 0.1093816 -0.09376001 0.1093816 0 0.4531183 -0.09376001 0.1093816 0.09376001 0.1093816 -0.09376001 0.01562166 0.09376001 0.1093816 -0.09376001 0.1093816 0 0.4531183 0.3593884 0.4531183 0 0.4531183 0.09376001 0.1093816 0.3593884 0.4531183 0.18749 0.7968851 0 0.4531183 0 0.4531183 0.18749 0.7968851 0.3593884 0.4531183 0.18749 0.7968851 0 0.4531183 -0.18749 0.7968851 0.18749 0.7968851 -0.18749 0.7968851 0 0.9843751 -0.09376001 0.1093816 0.09376001 0.1093816 -0.09376001 0.01562166 -0.09376001 0.1093816 0 0.4531183 0.09376001 0.1093816 -0.09376001 0.01562166 -0.09376001 0.1093816 0.09376001 0.1093816 0.09376001 0.01562166 -0.09376001 0.01562166 0.09376001 0.1093816 0.09376001 0.1093816 -0.09376001 0.1093816 0 0.4531183 0.3593884 0.1093816 0.3593884 0.4531183 0.09376001 0.1093816 0.09376001 0.01562166 0.3593884 0.1093816 0.09376001 0.1093816</float_array>
          <technique_common>
            <accessor source="#meshes_2_-mesh-map-0-array" count="195" stride="2">
              <param name="S" type="float"/>
              <param name="T" type="float"/>
            </accessor>
          </technique_common>
        </source>
        <source id="meshes_2_-mesh-colors-COLOR_0" name="COLOR_0">
          <float_array id="meshes_2_-mesh-colors-COLOR_0-array" count="585">1 1 1 1 1 1 1 1 1 1 1 1 1 1 1 1 1 1 1 1 1 1 1 1 1 1 1 1 1 1 1 1 1 1 1 1 1 1 1 1 1 1 1 1 1 1 1 1 1 1 1 1 1 1 1 1 1 1 1 1 1 1 1 1 1 1 1 1 1 1 1 1 1 1 1 1 1 1 1 1 1 1 1 1 1 1 1 1 1 1 1 1 1 1 1 1 1 1 1 1 1 1 1 1 1 1 1 1 1 1 1 1 1 1 1 1 1 1 1 1 1 1 1 1 1 1 1 1 1 1 1 1 1 1 1 1 1 1 1 1 1 1 1 1 1 1 1 1 1 1 1 1 1 1 1 1 1 1 1 1 1 1 1 1 1 1 1 1 1 1 1 1 1 1 1 1 1 1 1 1 1 1 1 1 1 1 1 1 1 1 1 1 1 1 1 1 1 1 1 1 1 1 1 1 1 1 1 1 1 1 1 1 1 1 1 1 1 1 1 1 1 1 1 1 1 1 1 1 1 1 1 1 1 1 1 1 1 1 1 1 1 1 1 1 1 1 1 1 1 1 1 1 1 1 1 1 1 1 1 1 1 1 1 1 1 1 1 1 1 1 1 1 1 1 1 1 1 1 1 1 1 1 1 1 1 1 1 1 1 1 1 1 1 1 1 1 1 1 1 1 1 1 1 1 1 1 1 1 1 1 1 1 1 1 1 1 1 1 1 1 1 1 1 1 1 1 1 1 1 1 1 1 1 1 1 1 1 1 1 1 1 1 1 1 1 1 1 1 1 1 1 1 1 1 1 1 1 1 1 1 1 1 1 1 1 1 1 1 1 1 1 1 1 1 1 1 1 1 1 1 1 1 1 1 1 1 1 1 1 1 1 1 1 1 1 1 1 1 1 1 1 1 1 1 1 1 1 1 1 1 1 1 1 1 1 1 1 1 1 1 1 1 1 1 1 1 1 1 1 1 1 1 1 1 1 1 1 1 1 1 1 1 1 1 1 1 1 1 1 1 1 1 1 1 1 1 1 1 1 1 1 1 1 1 1 1 1 1 1 1 1 1 1 1 1 1 1 1 1 1 1 1 1 1 1 1 1 1 1 1 1 1 1 1 1 1 1 1 1 1 1 1 1 1 1 1 1 1 1 1 1 1 1 1 1 1 1 1 1 1 1 1 1 1 1 1 1 1 1 1 1 1 1 1 1 1 1 1 1 1 1 1 1 1 1 1 1 1 1 1 1 1 1 1 1 1 1 1 1 1 1 1 1 1 1 1 1 1 1 1 1 1 1 1 1 1 1 1 1 1 1 1 1 1 1</float_array>
          <technique_common>
            <accessor source="#meshes_2_-mesh-colors-COLOR_0-array" count="195" stride="3">
              <param name="R" type="float"/>
              <param name="G" type="float"/>
              <param name="B" type="float"/>
            </accessor>
          </technique_common>
        </source>
        <vertices id="meshes_2_-mesh-vertices">
          <input semantic="POSITION" source="#meshes_2_-mesh-positions"/>
        </vertices>
        <triangles material="balinade_01_png-material" count="65">
          <input semantic="VERTEX" source="#meshes_2_-mesh-vertices" offset="0"/>
          <input semantic="NORMAL" source="#meshes_2_-mesh-normals" offset="1"/>
          <input semantic="TEXCOORD" source="#meshes_2_-mesh-map-0" offset="2" set="0"/>
          <input semantic="COLOR" source="#meshes_2_-mesh-colors-COLOR_0" offset="3" set="0"/>
          <p>0 0 0 0 1 1 1 1 2 2 2 2 2 2 3 3 3 3 4 4 0 0 5 5 4 4 6 6 3 3 7 7 2 2 8 8 4 4 9 9 5 5 10 10 3 3 11 11 5 5 12 12 4 4 13 13 6 6 14 14 5 5 15 15 6 6 16 16 7 7 17 17 3 3 18 18 5 5 19 19 8 8 20 20 9 9 21 21 3 3 22 22 8 8 23 23 0 0 24 24 3 3 25 25 9 9 26 26 10 10 27 27 0 0 28 28 9 9 29 29 11 11 30 30 12 12 31 31 13 13 32 32 14 14 33 33 11 11 34 34 13 13 35 35 13 13 36 36 15 15 37 37 14 14 38 38 16 16 39 39 15 15 40 40 13 13 41 41 16 16 42 42 17 17 43 43 15 15 44 44 16 16 45 45 18 18 46 46 17 17 47 47 17 17 48 48 18 18 49 49 7 7 50 50 15 15 51 51 17 17 52 52 19 19 53 53 15 15 54 54 19 19 55 55 20 20 56 56 14 14 57 57 15 15 58 58 20 20 59 59 21 21 60 60 14 14 61 61 20 20 62 62 22 22 63 63 23 23 64 64 24 24 65 65 25 25 66 66 22 22 67 67 24 24 68 68 24 24 69 69 26 26 70 70 25 25 71 71 19 19 72 72 26 26 73 73 24 24 74 74 19 19 75 75 27 27 76 76 26 26 77 77 19 19 78 78 28 28 79 79 27 27 80 80 27 27 81 81 28 28 82 82 7 7 83 83 27 27 84 84 4 4 85 85 26 26 86 86 26 26 87 87 4 4 88 88 29 29 89 89 25 25 90 90 26 26 91 91 29 29 92 92 30 30 93 93 25 25 94 94 29 29 95 95 31 31 96 96 32 32 97 97 33 33 98 98 34 34 99 99 31 31 100 100 33 33 101 101 33 33 102 102 35 35 103 103 34 34 104 104 8 8 105 105 35 35 106 106 33 33 107 107 8 8 108 108 36 36 109 109 35 35 110 110 8 8 111 111 37 37 112 112 36 36 113 113 36 36 114 114 37 37 115 115 7 7 116 116 36 36 117 117 38 38 118 118 35 35 119 119 39 39 120 120 35 35 121 121 38 38 122 122 34 34 123 123 35 35 124 124 39 39 125 125 40 40 126 126 34 34 127 127 39 39 128 128 41 41 129 129 42 42 130 130 43 43 131 131 44 44 132 132 41 41 133 133 43 43 134 134 43 43 135 135 45 45 136 136 44 44 137 137 43 43 138 138 38 38 139 139 45 45 140 140 43 43 141 141 46 46 142 142 38 38 143 143 46 46 144 144 43 43 145 145 42 42 146 146 32 32 147 147 47 47 148 148 33 33 149 149 33 33 150 150 47 47 151 151 8 8 152 152 48 48 153 153 13 13 154 154 12 12 155 155 13 13 156 156 48 48 157 157 16 16 158 158 45 45 159 159 16 16 160 160 49 49 161 161 45 45 162 162 50 50 163 163 16 16 164 164 38 38 165 165 50 50 166 166 45 45 167 167 50 50 168 168 38 38 169 169 51 51 170 170 50 50 171 171 51 51 172 172 7 7 173 173 52 52 174 174 24 24 175 175 23 23 176 176 52 52 177 177 19 19 178 178 24 24 179 179 53 53 180 180 54 54 181 181 2 2 182 182 1 1 183 183 53 53 184 184 2 2 185 185 2 2 186 186 54 54 187 187 4 4 188 188 44 44 189 189 45 45 190 190 49 49 191 191 55 55 192 192 44 44 193 193 49 49 194 194</p>
        </triangles>
      </mesh>
    </geometry>
  </library_geometries>
  <library_controllers>
    <controller id="Armature_nodes_5_-skin" name="Armature">
      <skin source="#meshes_0_-mesh">
        <bind_shape_matrix>1 0 0 0 0 1 0 0 0 0 1 0 0 0 0 1</bind_shape_matrix>
        <source id="Armature_nodes_5_-skin-joints">
          <Name_array id="Armature_nodes_5_-skin-joints-array" count="4">nodes_1_ nodes_2_ nodes_3_ nodes_4_</Name_array>
          <technique_common>
            <accessor source="#Armature_nodes_5_-skin-joints-array" count="4" stride="1">
              <param name="JOINT" type="name"/>
            </accessor>
          </technique_common>
        </source>
        <source id="Armature_nodes_5_-skin-bind_poses">
          <float_array id="Armature_nodes_5_-skin-bind_poses-array" count="64">1 0 0 0 0 1 0 0 0 0 1 0 0 0 0 1 1 0 0 0 0 1 0 0 0 0 1 0 0 0 0 1 1 0 0 0 0 1 0 0 0 0 1 0 0 0 0 1 1 0 0 0 0 1 0 0 0 0 1 0 0 0 0 1</float_array>
          <technique_common>
            <accessor source="#Armature_nodes_5_-skin-bind_poses-array" count="4" stride="16">
              <param name="TRANSFORM" type="float4x4"/>
            </accessor>
          </technique_common>
        </source>
        <source id="Armature_nodes_5_-skin-weights">
          <float_array id="Armature_nodes_5_-skin-weights-array" count="12">1 1 1 1 1 1 1 1 1 1 1 1</float_array>
          <technique_common>
            <accessor source="#Armature_nodes_5_-skin-weights-array" count="12" stride="1">
              <param name="WEIGHT" type="float"/>
            </accessor>
          </technique_common>
        </source>
        <joints>
          <input semantic="JOINT" source="#Armature_nodes_5_-skin-joints"/>
          <input semantic="INV_BIND_MATRIX" source="#Armature_nodes_5_-skin-bind_poses"/>
        </joints>
        <vertex_weights count="12">
          <input semantic="JOINT" source="#Armature_nodes_5_-skin-joints" offset="0"/>
          <input semantic="WEIGHT" source="#Armature_nodes_5_-skin-weights" offset="1"/>
          <vcount>1 1 1 1 1 1 1 1 1 1 1 1 </vcount>
          <v>1 0 2 1 2 2 1 3 2 4 1 5 2 6 1 7 1 8 2 9 2 10 1 11</v>
        </vertex_weights>
      </skin>
    </controller>
    <controller id="Armature_nodes_6_-skin" name="Armature">
      <skin source="#meshes_1_-mesh">
        <bind_shape_matrix>1 0 0 0 0 1 0 0 0 0 1 0 0 0 0 1</bind_shape_matrix>
        <source id="Armature_nodes_6_-skin-joints">
          <Name_array id="Armature_nodes_6_-skin-joints-array" count="4">nodes_1_ nodes_2_ nodes_3_ nodes_4_</Name_array>
          <technique_common>
            <accessor source="#Armature_nodes_6_-skin-joints-array" count="4" stride="1">
              <param name="JOINT" type="name"/>
            </accessor>
          </technique_common>
        </source>
        <source id="Armature_nodes_6_-skin-bind_poses">
          <float_array id="Armature_nodes_6_-skin-bind_poses-array" count="64">1 0 0 0 0 1 0 0 0 0 1 0 0 0 0 1 1 0 0 0 0 1 0 0 0 0 1 0 0 0 0 1 1 0 0 0 0 1 0 0 0 0 1 0 0 0 0 1 1 0 0 0 0 1 0 0 0 0 1 0 0 0 0 1</float_array>
          <technique_common>
            <accessor source="#Armature_nodes_6_-skin-bind_poses-array" count="4" stride="16">
              <param name="TRANSFORM" type="float4x4"/>
            </accessor>
          </technique_common>
        </source>
        <source id="Armature_nodes_6_-skin-weights">
          <float_array id="Armature_nodes_6_-skin-weights-array" count="26">1 1 1 1 1 1 1 1 1 1 1 1 1 1 1 1 1 1 1 1 1 1 1 1 1 1</float_array>
          <technique_common>
            <accessor source="#Armature_nodes_6_-skin-weights-array" count="26" stride="1">
              <param name="WEIGHT" type="float"/>
            </accessor>
          </technique_common>
        </source>
        <joints>
          <input semantic="JOINT" source="#Armature_nodes_6_-skin-joints"/>
          <input semantic="INV_BIND_MATRIX" source="#Armature_nodes_6_-skin-bind_poses"/>
        </joints>
        <vertex_weights count="26">
          <input semantic="JOINT" source="#Armature_nodes_6_-skin-joints" offset="0"/>
          <input semantic="WEIGHT" source="#Armature_nodes_6_-skin-weights" offset="1"/>
          <vcount>1 1 1 1 1 1 1 1 1 1 1 1 1 1 1 1 1 1 1 1 1 1 1 1 1 1 </vcount>
          <v>2 0 2 1 2 2 2 3 2 4 2 5 2 6 2 7 2 8 2 9 2 10 2 11 2 12 2 13 2 14 2 15 2 16 2 17 2 18 2 19 2 20 2 21 2 22 2 23 2 24 2 25</v>
        </vertex_weights>
      </skin>
    </controller>
    <controller id="Armature_nodes_7_-skin" name="Armature">
      <skin source="#meshes_2_-mesh">
        <bind_shape_matrix>1 0 0 0 0 1 0 0 0 0 1 0 0 0 0 1</bind_shape_matrix>
        <source id="Armature_nodes_7_-skin-joints">
          <Name_array id="Armature_nodes_7_-skin-joints-array" count="4">nodes_1_ nodes_2_ nodes_3_ nodes_4_</Name_array>
          <technique_common>
            <accessor source="#Armature_nodes_7_-skin-joints-array" count="4" stride="1">
              <param name="JOINT" type="name"/>
            </accessor>
          </technique_common>
        </source>
        <source id="Armature_nodes_7_-skin-bind_poses">
          <float_array id="Armature_nodes_7_-skin-bind_poses-array" count="64">1 0 0 0 0 1 0 0 0 0 1 0 0 0 0 1 1 0 0 0 0 1 0 0 0 0 1 0 0 0 0 1 1 0 0 0 0 1 0 0 0 0 1 0 0 0 0 1 1 0 0 0 0 1 0 0 0 0 1 0 0 0 0 1</float_array>
          <technique_common>
            <accessor source="#Armature_nodes_7_-skin-bind_poses-array" count="4" stride="16">
              <param name="TRANSFORM" type="float4x4"/>
            </accessor>
          </technique_common>
        </source>
        <source id="Armature_nodes_7_-skin-weights">
          <float_array id="Armature_nodes_7_-skin-weights-array" count="56">1 1 1 1 1 1 1 1 1 1 1 1 1 1 1 1 1 1 1 1 1 1 1 1 1 1 1 1 1 1 1 1 1 1 1 1 1 1 1 1 1 1 1 1 1 1 1 1 1 1 1 1 1 1 1 1</float_array>
          <technique_common>
            <accessor source="#Armature_nodes_7_-skin-weights-array" count="56" stride="1">
              <param name="WEIGHT" type="float"/>
            </accessor>
          </technique_common>
        </source>
        <joints>
          <input semantic="JOINT" source="#Armature_nodes_7_-skin-joints"/>
          <input semantic="INV_BIND_MATRIX" source="#Armature_nodes_7_-skin-bind_poses"/>
        </joints>
        <vertex_weights count="56">
          <input semantic="JOINT" source="#Armature_nodes_7_-skin-joints" offset="0"/>
          <input semantic="WEIGHT" source="#Armature_nodes_7_-skin-weights" offset="1"/>
          <vcount>1 1 1 1 1 1 1 1 1 1 1 1 1 1 1 1 1 1 1 1 1 1 1 1 1 1 1 1 1 1 1 1 1 1 1 1 1 1 1 1 1 1 1 1 1 1 1 1 1 1 1 1 1 1 1 1 </vcount>
          <v>3 0 3 1 3 2 3 3 3 4 3 5 3 6 3 7 3 8 3 9 3 10 3 11 3 12 3 13 3 14 3 15 3 16 3 17 3 18 3 19 3 20 3 21 3 22 3 23 3 24 3 25 3 26 3 27 3 28 3 29 3 30 3 31 3 32 3 33 3 34 3 35 3 36 3 37 3 38 3 39 3 40 3 41 3 42 3 43 3 44 3 45 3 46 3 47 3 48 3 49 3 50 3 51 3 52 3 53 3 54 3 55</v>
        </vertex_weights>
      </skin>
    </controller>
  </library_controllers>
  <library_visual_scenes>
    <visual_scene id="Scene" name="Scene">
      <node id="Armature" name="Armature" type="NODE">
        <matrix sid="transform">1 0 0 0 0 1 0 0 0 0 1 0 0 0 0 1</matrix>
        <node id="Armature_nodes_1_" name="nodes[1]" sid="nodes_1_" type="JOINT">
          <matrix sid="transform">1 0 0 0 0 1 0 0 0 0 1 0 0 0 0 1</matrix>
          <node id="Armature_nodes_2_" name="nodes[2]" sid="nodes_2_" type="JOINT">
            <matrix sid="transform">1 0 0 0 0 1 0 0 0 0 1 0 0 0 0 1</matrix>
            <extra>
              <technique profile="blender">
                <layer sid="layer" type="string">0</layer>
                <tip_x sid="tip_x" type="float">0</tip_x>
                <tip_y sid="tip_y" type="float">1</tip_y>
                <tip_z sid="tip_z" type="float">0</tip_z>
              </technique>
            </extra>
          </node>
          <node id="Armature_nodes_3_" name="nodes[3]" sid="nodes_3_" type="JOINT">
            <matrix sid="transform">1 0 0 0 0 1 0 0 0 0 1 0 0 0 0 1</matrix>
            <extra>
              <technique profile="blender">
                <layer sid="layer" type="string">0</layer>
                <tip_x sid="tip_x" type="float">0</tip_x>
                <tip_y sid="tip_y" type="float">1</tip_y>
                <tip_z sid="tip_z" type="float">0</tip_z>
              </technique>
            </extra>
          </node>
          <node id="Armature_nodes_4_" name="nodes[4]" sid="nodes_4_" type="JOINT">
            <matrix sid="transform">1 0 0 0 0 1 0 0 0 0 1 0 0 0 0 1</matrix>
            <extra>
              <technique profile="blender">
                <layer sid="layer" type="string">0</layer>
                <tip_x sid="tip_x" type="float">0</tip_x>
                <tip_y sid="tip_y" type="float">1</tip_y>
                <tip_z sid="tip_z" type="float">0</tip_z>
              </technique>
            </extra>
          </node>
          <extra>
            <technique profile="blender">
              <layer sid="layer" type="string">0</layer>
              <tip_x sid="tip_x" type="float">0</tip_x>
              <tip_y sid="tip_y" type="float">1</tip_y>
              <tip_z sid="tip_z" type="float">0</tip_z>
            </technique>
          </extra>
        </node>
      </node>
      <node id="nodes_5_" name="nodes_5_" type="NODE">
        <translate sid="location">0 0 0</translate>
        <rotate sid="rotationZ">0 0 1 0</rotate>
        <rotate sid="rotationY">0 1 0 0</rotate>
        <rotate sid="rotationX">1 0 0 0</rotate>
        <scale sid="scale">1 1 1</scale>
        <instance_controller url="#Armature_nodes_5_-skin">
          <skeleton>#Armature_nodes_1_</skeleton>
          <bind_material>
            <technique_common>
              <instance_material symbol="balinade_01_png-material" target="#balinade_01_png-material">
                <bind_vertex_input semantic="meshes_0_-mesh-map-0" input_semantic="TEXCOORD" input_set="0"/>
              </instance_material>
            </technique_common>
          </bind_material>
        </instance_controller>
      </node>
      <node id="nodes_6_" name="nodes_6_" type="NODE">
        <translate sid="location">0 0 0</translate>
        <rotate sid="rotationZ">0 0 1 0</rotate>
        <rotate sid="rotationY">0 1 0 0</rotate>
        <rotate sid="rotationX">1 0 0 0</rotate>
        <scale sid="scale">1 1 1</scale>
        <instance_controller url="#Armature_nodes_6_-skin">
          <skeleton>#Armature_nodes_1_</skeleton>
          <bind_material>
            <technique_common>
              <instance_material symbol="balinade_01_png-material" target="#balinade_01_png-material">
                <bind_vertex_input semantic="meshes_1_-mesh-map-0" input_semantic="TEXCOORD" input_set="0"/>
              </instance_material>
            </technique_common>
          </bind_material>
        </instance_controller>
      </node>
      <node id="nodes_7_" name="nodes_7_" type="NODE">
        <translate sid="location">0 0 0</translate>
        <rotate sid="rotationZ">0 0 1 0</rotate>
        <rotate sid="rotationY">0 1 0 0</rotate>
        <rotate sid="rotationX">1 0 0 0</rotate>
        <scale sid="scale">1 1 1</scale>
        <instance_controller url="#Armature_nodes_7_-skin">
          <skeleton>#Armature_nodes_1_</skeleton>
          <bind_material>
            <technique_common>
              <instance_material symbol="balinade_01_png-material" target="#balinade_01_png-material">
                <bind_vertex_input semantic="meshes_2_-mesh-map-0" input_semantic="TEXCOORD" input_set="0"/>
              </instance_material>
            </technique_common>
          </bind_material>
        </instance_controller>
      </node>
    </visual_scene>
  </library_visual_scenes>
  <scene>
    <instance_visual_scene url="#Scene"/>
  </scene>
</COLLADA>