mtllib bve_elec2_modelT.mtl
o nodes_2__meshes[0]
v -0.462144 -0.286045 0.000000
v 451.748016 -335.378387 -452.212036
v -111.008797 -92.930801 -343.356384
v -765.719971 -82.169998 0.000000
v -0.462144 -0.286045 0.000000
v -452.672028 251.436386 -452.212036
v 66.564011 -127.924797 765.260010
v 206.480392 214.179596 282.198792
v -0.462144 -0.286045 0.000000
v -0.462144 -0.286045 0.000000
v 772.979980 -81.412010 84.766396
v 451.748016 -335.378387 -452.212036
v -318.496796 -153.900009 215.255188
v -0.462144 -0.286045 0.000000
v -765.719971 -82.169998 0.000000
v 206.480392 214.179596 282.198792
v 772.979980 -81.412010 84.766396
v -0.462144 -0.286045 0.000000
v -0.462144 -0.286045 0.000000
v -111.008797 -92.930801 -343.356384
v -452.672028 251.436386 -452.212036
v 66.564011 -127.924797 765.260010
v -0.462144 -0.286045 0.000000
v -318.496796 -153.900009 215.255188
v -0.462144 -0.286045 0.000000
v 362.979187 37.921001 -63.754398
v 579.844055 538.264038 286.670807
v -541.580017 540.832031 -264.421204
v -0.462144 -0.286045 0.000000
v -87.222404 371.697205 118.092003
v -541.580017 -541.404053 329.980377
v -18.647640 -259.592804 -112.377197
v -0.462144 -0.286045 0.000000
v -0.462144 -0.286045 0.000000
v 540.656006 -541.404053 -264.421204
v 362.979187 37.921001 -63.754398
v -648.012024 73.322006 126.738396
v -0.462144 -0.286045 0.000000
v -541.580017 540.832031 -264.421204
v -18.647640 -259.592804 -112.377197
v 540.656006 -541.404053 -264.421204
v -0.462144 -0.286045 0.000000
v -0.462144 -0.286045 0.000000
v 579.844055 538.264038 286.670807
v -87.222404 371.697205 118.092003
v -541.580017 -541.404053 329.980377
v -0.462144 -0.286045 0.000000
v -648.012024 73.322006 126.738396
v -0.462144 -0.286045 0.000000
v -367.304382 -382.915588 -382.629181
v -0.462144 87.730797 -765.260010
v -77.122002 770.036011 -185.764801
v -0.462144 -0.286045 0.000000
v 183.190399 204.696014 -291.312378
v -61.016800 167.823196 765.260010
v 313.833588 -382.915588 382.629181
v -0.462144 -0.286045 0.000000
v -0.462144 -0.286045 0.000000
v -85.197601 -765.544006 41.704788
v -367.304382 -382.915588 -382.629181
v -434.016022 466.336029 452.212036
v -0.462144 -0.286045 0.000000
v -77.122002 770.036011 -185.764801
v 313.833588 -382.915588 382.629181
v -85.197601 -765.544006 41.704788
v -0.462144 -0.286045 0.000000
v -0.462144 -0.286045 0.000000
v -0.462144 87.730797 -765.260010
v 183.190399 204.696014 -291.312378
v -61.016800 167.823196 765.260010
v -0.462144 -0.286045 0.000000
v -434.016022 466.336029 452.212036
vt 1.000000 0.500015
vt 0.000000 0.500015
vt 0.000000 0.000000
vt 0.000000 1.000000
vt 1.000000 0.500015
vt 1.000000 1.000000
vt 0.000000 0.000000
vt 1.000000 0.000000
vt 1.000000 0.500015
vt 1.000000 0.500015
vt 0.000000 1.000000
vt 0.000000 0.500015
vt 0.000000 0.500015
vt 1.000000 0.500015
vt 0.000000 1.000000
vt 1.000000 1.000000
vt 0.000000 1.000000
vt 1.000000 0.500015
vt 1.000000 0.500015
vt 0.000000 0.000000
vt 1.000000 0.000000
vt 0.000000 0.000000
vt 1.000000 0.500015
vt 0.000000 0.500015
vt 1.000000 0.500015
vt 0.000000 0.500015
vt 0.000000 0.000000
vt 0.000000 1.000000
vt 1.000000 0.500015
vt 1.000000 1.000000
vt 0.000000 0.000000
vt 1.000000 0.000000
vt 1.000000 0.500015
vt 1.000000 0.500015
vt 0.000000 1.000000
vt 0.000000 0.500015
vt 0.000000 0.500015
vt 1.000000 0.500015
vt 0.000000 1.000000
vt 1.000000 1.000000
vt 0.000000 1.000000
vt 1.000000 0.500015
vt 1.000000 0.500015
vt 0.000000 0.000000
vt 1.000000 0.000000
vt 0.000000 0.000000
vt 1.000000 0.500015
vt 0.000000 0.500015
vt 1.000000 0.500015
vt 0.000000 0.500015
vt 0.000000 0.000000
vt 0.000000 1.000000
vt 1.000000 0.500015
vt 1.000000 1.000000
vt 0.000000 0.000000
vt 1.000000 0.000000
vt 1.000000 0.500015
vt 1.000000 0.500015
vt 0.000000 1.000000
vt 0.000000 0.500015
vt 0.000000 0.500015
vt 1.000000 0.500015
vt 0.000000 1.000000
vt 1.000000 1.000000
vt 0.000000 1.000000
vt 1.000000 0.500015
vt 1.000000 0.500015
vt 0.000000 0.000000
vt 1.000000 0.000000
vt 0.000000 0.000000
vt 1.000000 0.500015
vt 0.000000 0.500015
vn 0.3157 0.8856 -0.3406
vn -0.0888 0.8299 0.5508
vn -0.8092 0.5638 0.1649
vn 0.1440 0.8585 -0.4922
vn -0.0931 0.8704 0.4835
vn 0.1496 0.7313 -0.6655
vn 0.7128 0.5848 -0.3873
vn -0.3243 0.9281 0.1832
vn 0.1984 -0.6185 0.7603
vn -0.6756 -0.3616 0.6426
vn 0.7066 -0.3225 0.6298
vn 0.1937 -0.2675 0.9439
vn 0.2189 0.5963 0.7723
vn 0.0473 -0.4000 0.9153
vn -0.1526 -0.3312 0.9311
vn 0.2177 0.3402 0.9148
vn 0.7561 -0.6501 -0.0748
vn 0.7446 0.2256 0.6282
vn 0.8027 0.5927 -0.0667
vn 0.7737 -0.1196 -0.6222
vn 0.8058 0.2134 0.5524
vn 0.7073 -0.1163 -0.6973
vn 0.6801 -0.7284 -0.0838
vn 0.6745 0.7305 -0.1071
usemtl None
s off
f 1/1/1 2/2/1 3/3/1
f 4/4/2 5/5/2 6/6/2
f 7/7/3 8/8/3 9/9/3
f 10/10/4 11/11/4 12/12/4
f 13/13/5 14/14/5 15/15/5
f 16/16/6 17/17/6 18/18/6
f 19/19/7 20/20/7 21/21/7
f 22/22/8 23/23/8 24/24/8
f 25/25/9 26/26/9 27/27/9
f 28/28/10 29/29/10 30/30/10
f 31/31/11 32/32/11 33/33/11
f 34/34/12 35/35/12 36/36/12
f 37/37/13 38/38/13 39/39/13
f 40/40/14 41/41/14 42/42/14
f 43/43/15 44/44/15 45/45/15
f 46/46/16 47/47/16 48/48/16
f 49/49/17 50/50/17 51/51/17
f 52/52/18 53/53/18 54/54/18
f 55/55/19 56/56/19 57/57/19
f 58/58/20 59/59/20 60/60/20
f 61/61/21 62/62/21 63/63/21
f 64/64/22 65/65/22 66/66/22
f 67/67/23 68/68/23 69/69/23
f 70/70/24 71/71/24 72/72/24
