# Blender v2.78 (sub 0) OBJ File: ''
# www.blender.org
mtllib Master Sword Sheath.mtl
o Master_Sword_Sheath.mo_Master_Sword_Sheath.md
v 40.557487 3.224198 -56.371265
v 41.224216 -0.614906 -52.709953
v 41.224216 2.606258 -52.709953
v 40.557487 -1.232845 -56.371265
v 41.910004 3.145412 -56.099209
v 41.910004 -1.154060 -56.099209
v 45.229725 3.128302 -61.220230
v 45.229725 -1.136950 -61.220230
v 44.868080 3.147091 -63.089180
v 44.868080 -1.155739 -63.089180
v 46.199841 3.184671 -65.189896
v 46.199841 -1.193318 -65.189896
v 48.206745 3.036507 -65.967758
v 48.206745 -1.045155 -65.967758
v 50.163437 3.022627 -69.086182
v 50.163437 -1.031274 -69.086182
v 49.590500 3.200724 -71.763214
v 49.590500 -1.209372 -71.763214
v 4.508582 3.392768 3.462017
v 2.714245 3.642793 1.898186
v 3.029182 3.547238 3.424952
v 4.005704 3.631737 1.921160
v 8.306641 3.324652 -2.423162
v 5.131841 3.534719 0.203514
v 5.337362 3.918067 -7.951400
v 2.367825 3.942143 -1.608653
v 1.536303 3.942238 -2.153823
v -3.029198 3.975835 4.809727
v 0.704781 3.942143 -2.698991
v -4.127024 3.849826 4.646250
v 22.510056 3.588662 -32.422234
v 24.807770 -1.555578 -33.170708
v 24.807770 3.546931 -33.170708
v 22.510056 -1.597310 -32.422234
v 15.315232 3.542201 -21.167822
v 15.315232 -1.550849 -21.167822
v 16.246868 3.270645 -17.054377
v 16.246868 -1.279293 -17.054377
v 19.582542 3.253986 -22.201185
v 19.582542 -1.262634 -22.201185
v 20.384245 3.352982 -25.331347
v 20.384245 -1.361630 -25.331347
v 43.498932 -0.551769 -75.166252
v 53.033943 -0.214479 -82.681534
v 46.210732 -1.209372 -73.979088
v 42.920971 0.995676 -75.349457
v 32.073792 -0.614906 -58.709229
v 31.586836 0.995676 -59.538376
v 32.073792 2.606258 -58.709229
v 43.498932 2.543121 -75.166252
v 53.033943 2.205831 -82.681534
v 46.210732 3.200724 -73.979088
v -2.059234 3.534719 -4.511161
v -0.916362 3.324652 -8.470028
v -3.185371 3.631737 -2.793517
v -4.798953 3.392768 -2.640270
v -2.649336 3.642793 -1.618330
v -4.175053 3.547238 -1.298351
v 3.029182 -1.555886 3.424952
v 2.714245 3.642793 1.898186
v 2.714245 -1.651441 1.898186
v 3.029182 3.547238 3.424952
v 4.508582 -1.401416 3.462017
v 5.730281 0.995676 3.512266
v 9.104044 0.995676 -1.708724
v 5.689027 3.530331 2.242947
v 5.566972 4.047309 -1.271136
v 3.992353 4.046890 1.130557
v 7.263646 3.530744 -0.158749
v 6.565306 1.074596 2.817461
v 8.139926 1.075002 0.415766
v 5.689027 -1.785311 2.242947
v 7.263647 -1.784905 -0.158749
v 2.343287 -2.493067 -3.384676
v 41.224216 2.606258 -52.709953
v 52.159004 0.995676 -69.292740
v 51.760536 2.543121 -69.749710
v 42.178764 0.995676 -52.594002
v 41.224216 -0.614906 -52.709953
v 51.760536 -0.551769 -69.749710
v 54.850418 -0.214479 -81.490601
v 49.590500 -1.209372 -71.763214
v -2.441525 3.849826 5.751313
v -2.084645 3.728130 6.719026
v -3.271896 3.836647 8.357269
v 2.896684 3.321519 6.017789
v 1.850753 3.295122 7.711740
v 3.414873 0.995676 7.497468
v 47.914589 -1.316950 -72.892464
v 54.850418 -0.214479 -81.490601
v 49.590500 -1.209372 -71.763214
v 54.017799 -0.298224 -82.201401
v 53.033943 -0.214479 -82.681534
v 54.383617 0.995676 -82.759369
v 53.399849 0.995676 -83.239410
v 53.033943 2.205831 -82.681534
v 4.448436 0.995676 5.838468
v 2.896684 -1.330167 6.017789
v 1.850753 -1.303770 7.711740
v -2.084645 -1.736778 6.719026
v -3.271896 -1.845295 8.357269
v -3.029198 -1.984483 4.809727
v -2.441525 -1.858474 5.751313
v 2.367825 -1.950790 -1.608653
v 1.536303 -1.950886 -2.153823
v 5.337362 -1.926715 -7.951400
v 0.704781 -1.950790 -2.698991
v -2.059234 -1.543367 -4.511161
v 41.910004 3.145412 -56.099209
v 40.557487 3.224198 -56.371265
v 45.229725 3.128302 -61.220230
v 48.206745 3.036507 -65.967758
v 50.163437 3.022627 -69.086182
v 8.917753 1.595187 0.266812
v 8.078577 0.358223 -1.035359
v 8.078577 1.595411 -1.035142
v 8.917850 0.357998 0.266664
v 6.751431 1.594673 3.571002
v 6.751530 0.357485 3.570850
v 5.169997 0.357530 3.400965
v 7.263647 -1.784905 -0.158749
v 7.263646 3.530744 -0.158749
v 8.139926 1.075002 0.415766
v 5.566972 4.047309 -1.271136
v 2.343287 -2.493067 -3.384676
v 2.343287 4.453339 -3.384676
v -0.880399 4.047309 -5.498219
v 49.590500 3.200724 -71.763214
v 54.850418 2.205831 -81.490601
v 55.216122 0.995676 -82.048615
v -4.151693 -1.785311 -4.208912
v -4.151693 3.530331 -4.208912
v -5.027972 1.074596 -4.783426
v -2.455019 4.046890 -3.096523
v 0.768667 -2.493473 -0.982983
v 0.768667 4.452932 -0.982983
v 3.992353 4.046890 1.130557
v 5.395755 -1.118647 -17.536911
v 9.335180 -1.279293 -21.585876
v 6.834285 -1.240336 -17.844275
v 13.256186 -1.175113 -29.439690
v 3.729365 0.995676 -17.253799
v 12.321834 0.995676 -30.014811
v 13.256186 3.166466 -29.439690
v -6.185725 3.836647 6.446881
v -5.937283 2.714024 7.233927
v -5.937529 3.924716 7.234024
v -7.418620 1.951078 2.143544
v -7.636395 3.295122 1.491692
v -7.670445 0.995676 1.336710
v -8.063587 0.995676 -0.028141
v -4.151693 -1.785311 -4.208912
v -2.577073 -1.784905 -6.610606
v -3.453352 1.075002 -7.185120
v -5.027972 1.074596 -4.783426
v -2.577073 3.530744 -6.610606
v -4.151693 3.530331 -4.208912
v 38.281040 -1.136950 -65.775986
v 41.534622 -1.193318 -68.248535
v 40.139191 -1.155739 -66.189575
v 41.447720 -1.045155 -70.399162
v 43.527275 -1.031274 -73.437035
v -3.271896 -1.845295 8.357269
v -4.092728 -0.722672 8.443268
v -4.092719 -1.933363 8.443533
v 1.166127 0.040274 7.771952
v 1.850753 -1.303770 7.711740
v 2.006457 0.995676 7.681166
v 3.414873 0.995676 7.497468
v 50.941658 2.491089 -70.919479
v 7.846954 0.995676 -0.423038
v 52.263641 0.998948 -70.053017
v 6.685419 3.114270 -1.184573
v 47.919891 2.909811 -72.900551
v 2.639829 3.577424 -3.836977
v -1.405761 3.114270 -6.489384
v 14.104567 3.109999 -11.827164
v 16.246868 3.270645 -17.054377
v 13.812823 3.231689 -13.268946
v 21.885792 3.166466 -23.781874
v 14.509407 0.995676 -10.186092
v 22.785782 0.995676 -23.154345
v 21.885792 -1.175113 -23.781874
v 29.824116 3.023319 -53.182735
v 29.824116 -1.031966 -53.182735
v 28.045218 0.995676 -53.574265
v 33.538296 -1.309560 -53.260536
v 33.538296 3.300912 -53.260536
v 34.511982 -1.303037 -56.099289
v 34.511982 3.294389 -56.099289
v 1.559460 -1.195097 6.892440
v 7.846954 1.014597 -0.423038
v 3.277149 1.015871 6.740835
v 6.685419 -1.122918 -1.184573
v -4.219094 -1.686088 6.624620
v 2.639829 -1.586072 -3.836977
v -1.405761 -1.122918 -6.489384
v 24.506056 -1.605305 -37.188522
v 20.930992 -1.597310 -33.457520
v 20.701172 -1.555578 -35.863110
v 14.421750 -1.621508 -21.807400
v 22.510056 -1.597310 -32.422234
v 15.315232 -1.550849 -21.167822
v 12.725016 3.253986 -26.697178
v 15.275884 3.352982 -28.680536
v 9.335180 3.270645 -21.585876
v 5.395755 3.109999 -17.536911
v 6.834285 3.231689 -17.844275
v 24.506056 3.596658 -37.188522
v 22.510056 3.588662 -32.422234
v 24.807770 3.546931 -33.170708
v 14.421750 3.612860 -21.807400
v 20.930992 3.588662 -33.457520
v 13.478946 3.542201 -22.371742
v -6.500006 3.321519 -0.142951
v -7.636395 3.295122 1.491692
v -5.156781 3.728130 4.704846
v -8.063587 0.995676 -0.028141
v -6.954318 0.995676 -1.637504
v -6.500006 -1.330167 -0.142951
v 38.121536 0.995676 -46.967941
v 36.934391 0.995676 -45.125004
v 35.890232 -1.031649 -46.626705
v 35.890232 3.023001 -46.626705
v 37.053143 3.023319 -48.443176
v 35.643467 3.300912 -51.880333
v -6.500006 3.321519 -0.142951
v -6.500006 -1.330167 -0.142951
v -6.954318 0.995676 -1.637504
v -5.156781 -1.736778 4.704846
v -5.156781 3.728130 4.704846
v -4.127024 3.849826 4.646250
v 19.582542 -1.262634 -22.201185
v 20.384245 -1.361630 -25.331347
v 16.246868 -1.279293 -17.054377
v 14.104567 -1.118647 -11.827164
v 13.812823 -1.240336 -13.268946
v -6.185725 -1.845295 6.446881
v -5.156781 -1.736778 4.704846
v -7.636395 -1.303770 1.491692
v 44.898205 -0.499737 -74.881737
v -2.567297 1.014597 -7.250919
v 43.576466 0.998948 -75.748581
v -1.405761 -1.122918 -6.489384
v 47.919891 -0.918459 -72.900551
v 2.639829 -1.586072 -3.836977
v -6.768897 3.186450 1.432129
v -2.567297 0.995676 -7.250919
v -7.314792 0.995676 -0.203546
v -1.405761 3.114270 -6.489384
v -4.219094 3.677440 6.624620
v 2.639829 3.577424 -3.836977
v 8.306641 -1.333300 -2.423162
v 8.306641 3.324652 -2.423162
v 9.104044 0.995676 -1.708724
v 5.337362 3.918067 -7.951400
v 5.337362 -1.926715 -7.951400
v -0.916362 -1.333300 -8.470028
v 54.850418 2.205831 -81.490601
v 47.914589 3.308303 -72.892464
v 49.590500 3.200724 -71.763214
v 54.017799 2.289576 -82.201401
v 12.510000 3.615525 -18.891495
v 13.256186 3.166466 -29.439690
v 13.256186 -1.175113 -29.439690
v 12.321834 0.995676 -30.014811
v 15.275884 -1.361630 -28.680536
v 15.275884 3.352982 -28.680536
v 12.510000 -1.624173 -18.891495
v 35.643467 -1.309560 -51.880333
v 38.722214 -1.185284 -58.871761
v 37.858521 -1.303037 -53.905205
v 33.579994 -1.450139 -51.028572
v 33.538296 3.300912 -53.260536
v 38.722214 3.176636 -58.871761
v 34.511982 3.294389 -56.099289
v 33.579994 3.441491 -51.028572
v 28.622015 3.023001 -51.391953
v 28.622015 -1.031649 -51.391953
v 28.622015 3.023001 -51.391953
v 26.828506 0.995676 -51.750717
v 33.579994 3.441491 -51.028572
v 33.579994 -1.450139 -51.028572
v -4.798953 -1.401416 -2.640270
v -2.649336 -1.651441 -1.618330
v -4.175053 -1.555886 -1.298351
v -3.185371 -1.640385 -2.793517
v -0.916362 -1.333300 -8.470028
v -4.772202 0.995676 7.468258
v -4.092728 2.714024 8.443268
v -4.772324 2.751641 7.468445
v 1.166127 1.951078 7.771952
v 2.006457 0.995676 7.681166
v 43.527275 3.022627 -73.437035
v 41.447720 3.036507 -70.399162
v 38.281040 3.128302 -65.775986
v 1.850753 3.295122 7.711740
v 2.006457 0.995676 7.681166
v 1.166127 1.951078 7.771952
v -3.271896 3.836647 8.357269
v 34.908489 3.145412 -60.689602
v 35.697296 3.224198 -59.557747
v 5.395755 -1.118647 -17.536911
v 5.395755 3.109999 -17.536911
v 3.729365 0.995676 -17.253799
v 6.834285 3.231689 -17.844275
v 6.834285 -1.240336 -17.844275
v 55.216122 0.995676 -82.048615
v -2.441525 3.849826 5.751313
v 2.367825 -1.950790 -1.608653
v 2.367825 3.942143 -1.608653
v -2.441525 -1.858474 5.751313
v -2.084645 -1.736778 6.719026
v -6.185725 3.836647 6.446881
v 47.914589 3.308303 -72.892464
v 49.590500 -1.209372 -71.763214
v 49.590500 3.200724 -71.763214
v 47.914589 -1.316950 -72.892464
v 46.210732 -1.209372 -73.979088
v 28.622015 -1.031649 -51.391953
v 33.538296 -1.309560 -53.260536
v 29.824116 -1.031966 -53.182735
v 28.045218 0.995676 -53.574265
v -7.636395 -1.303770 1.491692
v -7.670445 0.995676 1.336710
v -7.418620 0.040274 2.143544
v -6.185725 -1.845295 6.446881
v 2.343287 4.453339 -3.384676
v 3.992353 4.046890 1.130557
v 5.566972 4.047309 -1.271136
v 0.768667 4.452932 -0.982983
v -2.455019 4.046890 -3.096523
v -5.793232 1.594673 -4.653640
v -5.006702 0.357530 -3.271171
v -5.006902 1.594718 -3.271083
v -5.793133 0.357485 -4.653791
v -3.626813 0.357998 -7.957978
v -4.127024 -1.858474 4.646250
v -4.772202 0.995676 7.468258
v -5.937283 -0.722672 7.233927
v -4.772324 -0.760289 7.468445
v -7.418620 0.040274 2.143544
v -7.670445 0.995676 1.336710
v -5.332185 0.995676 -3.740605
v -1.889507 0.995676 -8.916414
v 34.908489 -1.154060 -60.689602
v -5.937529 -1.933363 7.234024
v -4.772324 -0.760289 7.468445
v -5.937283 -0.722672 7.233927
v -4.772445 -2.566302 7.468630
v -5.937283 -0.722672 7.233927
v -5.937529 -1.933363 7.234024
v 13.478946 -1.550849 -22.371742
v 12.510000 -1.624173 -18.891495
v -4.772324 2.751641 7.468445
v -5.937529 3.924716 7.234024
v -5.937283 2.714024 7.233927
v -4.772445 4.557654 7.468630
v 12.725016 -1.262634 -26.697178
v 15.275884 -1.361630 -28.680536
v -5.937283 2.714024 7.233927
v -4.772202 0.995676 7.468258
v -4.772324 2.751641 7.468445
v -7.418620 1.951078 2.143544
v -4.092728 2.714024 8.443268
v -4.092719 3.924716 8.443533
v 38.722214 -1.185284 -58.871761
v 34.511982 -1.303037 -56.099289
v 41.534622 3.184671 -68.248535
v 40.139191 3.147091 -66.189575
v -0.916362 3.324652 -8.470028
v -1.889507 0.995676 -8.916414
v 46.199841 -1.193318 -65.189896
v 45.229725 -1.136950 -61.220230
v 44.868080 -1.155739 -63.089180
v 48.206745 -1.045155 -65.967758
v 41.910004 -1.154060 -56.099209
v 40.557487 -1.232845 -56.371265
v -2.577073 3.530744 -6.610606
v -2.577073 -1.784905 -6.610606
v -3.453352 1.075002 -7.185120
v -3.271896 -1.845295 8.357269
v -4.772445 -2.566302 7.468630
v -3.029198 -1.984483 4.809727
v -4.092719 -1.933363 8.443533
v -2.084645 3.728130 6.719026
v 2.896684 3.321519 6.017789
v 2.714245 -1.651441 1.898186
v 3.029182 -1.555886 3.424952
v 4.005704 -1.640385 1.921160
v -4.772445 4.557654 7.468630
v -3.271896 3.836647 8.357269
v -3.029198 3.975835 4.809727
v -4.092719 3.924716 8.443533
v 4.005704 3.631737 1.921160
v 2.714245 -1.651441 1.898186
v 2.714245 3.642793 1.898186
v 4.005704 -1.640385 1.921160
v 2.367825 3.942143 -1.608653
v 5.131841 -1.543367 0.203514
v 5.131841 3.534719 0.203514
v 2.367825 -1.950790 -1.608653
v 0.704781 -1.950790 -2.698991
v 0.704781 3.942143 -2.698991
v -4.127024 -1.858474 4.646250
v -4.772445 -2.566302 7.468630
v -6.185725 -1.845295 6.446881
v -3.029198 -1.984483 4.809727
v -5.937529 -1.933363 7.234024
v -6.185725 3.836647 6.446881
v -4.772445 4.557654 7.468630
v -3.029198 3.975835 4.809727
v -5.937529 3.924716 7.234024
v -2.649336 3.642793 -1.618330
v -4.175053 -1.555886 -1.298351
v -2.649336 -1.651441 -1.618330
v -4.175053 3.547238 -1.298351
v -3.185371 -1.640385 -2.793517
v -2.059234 3.534719 -4.511161
v -3.185371 3.631737 -2.793517
v -2.059234 -1.543367 -4.511161
v 46.199841 3.184671 -65.189896
v 44.868080 3.147091 -63.089180
v -2.059234 -1.543367 -4.511161
v 0.704781 3.942143 -2.698991
v -2.059234 3.534719 -4.511161
v 0.704781 -1.950790 -2.698991
v 7.846954 1.014597 -0.423038
v 50.941658 -0.499737 -70.919479
v 6.685419 -1.122918 -1.184573
v 14.104567 3.109999 -11.827164
v 14.104567 -1.118647 -11.827164
v 14.509407 0.995676 -10.186092
v 13.812823 3.231689 -13.268946
v 7.846954 0.995676 -0.423038
v 1.559460 3.186450 6.892440
v 3.277149 0.995676 6.740835
v 6.685419 3.114270 -1.184573
v 2.896684 -1.330167 6.017789
v 4.448436 0.995676 5.838468
v 15.315232 3.542201 -21.167822
v 12.510000 3.615525 -18.891495
v 37.053143 -1.031966 -48.443176
v -4.772324 -0.760289 7.468445
v -4.092719 -1.933363 8.443533
v -4.092728 -0.722672 8.443268
v -4.772445 -2.566302 7.468630
v 19.582542 3.253986 -22.201185
v 20.384245 3.352982 -25.331347
v 21.885792 -1.175113 -23.781874
v 21.885792 3.166466 -23.781874
v 22.785782 0.995676 -23.154345
v 20.384245 -1.361630 -25.331347
v 53.399849 0.995676 -83.239410
v -2.649336 -1.651441 -1.618330
v -3.185371 3.631737 -2.793517
v -2.649336 3.642793 -1.618330
v -3.185371 -1.640385 -2.793517
v 35.643467 -1.309560 -51.880333
v 35.643467 3.300912 -51.880333
v 37.053143 3.023319 -48.443176
v 37.858521 -1.303037 -53.905205
v 5.131841 -1.543367 0.203514
v 8.306641 -1.333300 -2.423162
v 50.163437 -1.031274 -69.086182
v 12.510000 3.615525 -18.891495
v 13.812823 -1.240336 -13.268946
v 13.812823 3.231689 -13.268946
v 12.510000 -1.624173 -18.891495
v -4.092728 -0.722672 8.443268
v -4.772202 0.995676 7.468258
v -4.772324 -0.760289 7.468445
v 1.166127 0.040274 7.771952
v 26.828506 0.995676 -51.750717
v 32.073792 -0.614906 -58.709229
v 35.697296 3.224198 -59.557747
v 32.073792 2.606258 -58.709229
v 35.697296 -1.232845 -59.557747
v 46.210732 3.200724 -73.979088
v 43.527275 -1.031274 -73.437035
v 46.210732 -1.209372 -73.979088
v 43.527275 3.022627 -73.437035
v 34.908489 3.145412 -60.689602
v 34.908489 -1.154060 -60.689602
v 24.506056 3.596658 -37.188522
v 24.807770 -1.555578 -33.170708
v 24.506056 -1.605305 -37.188522
v 24.807770 3.546931 -33.170708
v 41.447720 -1.045155 -70.399162
v 41.447720 3.036507 -70.399162
v 41.534622 -1.193318 -68.248535
v 41.534622 3.184671 -68.248535
v 40.139191 -1.155739 -66.189575
v 40.139191 3.147091 -66.189575
v 38.281040 -1.136950 -65.775986
v 38.281040 3.128302 -65.775986
v 0.768667 -2.493473 -0.982983
v -4.092719 3.924716 8.443533
v -4.772324 2.751641 7.468445
v -4.092728 2.714024 8.443268
v -4.772445 4.557654 7.468630
v 46.210732 3.200724 -73.979088
v -2.098120 0.358223 -7.707496
v -3.626909 1.595187 -7.957830
v -2.098319 1.595411 -7.707407
v -5.793232 1.594673 -4.653640
v -2.098319 1.595411 -7.707407
v -3.626909 1.595187 -7.957830
v -5.006902 1.594718 -3.271083
v 38.722214 3.176636 -58.871761
v 37.858521 3.294389 -53.905205
v -2.098120 0.358223 -7.707496
v -5.793133 0.357485 -4.653791
v -3.626813 0.357998 -7.957978
v -5.006702 0.357530 -3.271171
v 35.890232 3.023001 -46.626705
v 35.890232 -1.031649 -46.626705
v 36.934391 0.995676 -45.125004
v 33.579994 3.441491 -51.028572
v 6.834285 -1.240336 -17.844275
v 12.510000 3.615525 -18.891495
v 6.834285 3.231689 -17.844275
v 12.510000 -1.624173 -18.891495
v 20.701172 -1.555578 -35.863110
v 20.930992 3.588662 -33.457520
v 20.701172 3.546931 -35.863110
v 20.930992 -1.597310 -33.457520
v 20.701172 -1.555578 -35.863110
v 24.506056 3.596658 -37.188522
v 24.506056 -1.605305 -37.188522
v 20.701172 3.546931 -35.863110
v 13.478946 3.542201 -22.371742
v 13.478946 -1.550849 -22.371742
v 9.335180 3.270645 -21.585876
v 9.335180 -1.279293 -21.585876
v -2.567297 1.014597 -7.250919
v -6.768897 -1.195097 1.432129
v -7.314792 1.015871 -0.203546
v 15.275884 3.352982 -28.680536
v 12.725016 -1.262634 -26.697178
v 15.275884 -1.361630 -28.680536
v 12.725016 3.253986 -26.697178
v -2.567297 0.995676 -7.250919
v 44.898205 2.491089 -74.881737
v 37.053143 -1.031966 -48.443176
v 38.121536 0.995676 -46.967941
v 8.078577 1.595411 -1.035142
v 6.751431 1.594673 3.571002
v 8.917753 1.595187 0.266812
v 5.169995 1.594718 3.401184
v 29.824116 3.023319 -53.182735
v 6.751530 0.357485 3.570850
v 8.078577 0.358223 -1.035359
v 8.917850 0.357998 0.266664
v 5.169997 0.357530 3.400965
v -0.880399 4.047309 -5.498219
v -2.455019 4.046890 -3.096523
v 5.131841 3.534719 0.203514
v 4.005704 -1.640385 1.921160
v 4.005704 3.631737 1.921160
v 5.131841 -1.543367 0.203514
v 38.722214 -1.185284 -58.871761
v 38.722214 3.176636 -58.871761
v 38.722214 0.995676 -58.871761
v 34.511982 -1.303037 -56.099289
v 38.722214 3.176636 -58.871761
v 38.722214 -1.185284 -58.871761
v 38.722214 0.995676 -58.871761
v 37.858521 3.294389 -53.905205
v 5.689027 3.530331 2.242947
v 5.689027 -1.785311 2.242947
v 6.565306 1.074596 2.817461
v 2.006457 0.995676 7.681166
v 35.697296 -1.232845 -59.557747
v -7.670445 0.995676 1.336710
v 20.701172 3.546931 -35.863110
v 24.807770 -1.555578 -33.170708
v 46.210732 -1.209372 -73.979088
v 20.384245 3.352982 -25.331347
v 33.579994 -1.450139 -51.028572
v 37.858521 3.294389 -53.905205
v 46.210732 3.200724 -73.979088
v 5.169995 1.594718 3.401184
v 13.812823 -1.240336 -13.268946
v -0.880399 4.047309 -5.498219
v 34.511982 3.294389 -56.099289
v 37.858521 -1.303037 -53.905205
vt 0.9524 0.0381
vt 0.9524 0.0381
vt 0.8780 0.1899
vt 0.8780 0.1899
vt 0.8627 0.1142
vt 0.8627 0.1142
vt 0.6822 0.1161
vt 0.6822 0.1161
vt 0.6418 0.1946
vt 0.6418 0.1946
vt 0.5682 0.1968
vt 0.5682 0.1968
vt 0.5164 0.1228
vt 0.5164 0.1228
vt 0.4075 0.1271
vt 0.4075 0.1271
vt 0.3505 0.2424
vt 0.3505 0.2424
vt 0.2764 0.8099
vt 0.2437 0.7448
vt 0.2619 0.6703
vt 0.2869 0.7452
vt 0.4642 0.6733
vt 0.3477 0.7452
vt 0.5529 0.9996
vt 0.3477 0.9398
vt 0.3477 0.9996
vt 0.1467 0.9996
vt 0.3477 0.9398
vt 0.1446 0.9400
vt 0.8574 0.3293
vt 0.8574 0.3293
vt 0.8166 0.2637
vt 0.8166 0.2637
vt 0.5270 0.2704
vt 0.5270 0.2704
vt 0.4635 0.4020
vt 0.4635 0.4020
vt 0.5964 0.4006
vt 0.5964 0.4006
vt 0.6627 0.3552
vt 0.6627 0.3552
vt 0.0245 0.2977
vt 0.3505 0.2424
vt 0.3652 0.0696
vt 0.3700 -0.0004
vt 0.9524 0.0381
vt 0.9451 0.0000
vt 0.9524 0.0381
vt 0.3652 0.0696
vt 0.0245 0.2977
vt 0.3505 0.2424
vt 0.3477 0.7452
vt 0.4642 0.6733
vt 0.2869 0.7452
vt 0.2619 0.6703
vt 0.2764 0.8099
vt 0.2437 0.7448
vt 0.2764 0.8099
vt 0.2764 0.8099
vt 0.2437 0.7448
vt 0.2437 0.7448
vt 0.2619 0.6703
vt 0.2756 0.5639
vt 0.4595 0.5663
vt 0.8549 0.3514
vt 0.6915 0.3514
vt 0.6915 0.3476
vt 0.8549 0.3476
vt 0.6915 0.3420
vt 0.8549 0.3420
vt 0.6915 0.3514
vt 0.8549 0.3514
vt 0.8549 0.3420
vt 0.3700 -0.0004
vt 0.3652 0.0696
vt 0.9524 0.0381
vt 0.9451 0.0000
vt 0.9524 0.0381
vt 0.3652 0.0696
vt 0.0245 0.2977
vt 0.3505 0.2424
vt 0.1446 0.9400
vt 0.1061 0.8277
vt 0.0238 0.8275
vt 0.1648 0.6672
vt 0.0904 0.6639
vt 0.1211 0.5492
vt 0.0245 0.2977
vt 0.3505 0.2424
vt 0.3498 0.3619
vt 0.0204 0.3619
vt 0.0245 0.2977
vt 0.0000 0.3619
vt 0.0000 0.2562
vt 0.0245 0.2977
vt 0.1944 0.5519
vt 0.1648 0.6672
vt 0.0904 0.6639
vt 0.1061 0.8277
vt 0.0238 0.8275
vt 0.1467 0.9996
vt 0.1446 0.9400
vt 0.3477 0.9398
vt 0.3477 0.9996
vt 0.5529 0.9996
vt 0.3477 0.9398
vt 0.3477 0.7452
vt 0.8627 0.1142
vt 0.8780 0.1899
vt 0.6822 0.1161
vt 0.5164 0.1228
vt 0.4075 0.1271
vt 0.1354 0.4956
vt 0.1354 0.4028
vt 0.1740 0.4028
vt 0.1740 0.4956
vt 0.2552 0.4028
vt 0.2552 0.4956
vt 0.2938 0.4956
vt -0.0695 0.1528
vt -0.0819 0.0946
vt -0.0695 0.0269
vt -0.0455 0.1650
vt 0.0001 0.0101
vt 0.0001 0.1746
vt -0.0455 0.1650
vt 0.3505 0.2424
vt 0.0245 0.2977
vt 0.0000 0.2562
vt -0.0695 0.1528
vt -0.0819 0.0946
vt -0.0695 0.0269
vt -0.0455 0.1650
vt 0.0001 0.0101
vt 0.0001 0.1746
vt -0.0455 0.1650
vt 0.4635 0.4020
vt 0.3682 0.4037
vt 0.3455 0.4486
vt 0.6525 0.4465
vt 0.3123 0.5325
vt 0.6518 0.5243
vt 0.6525 0.4465
vt 0.7072 0.7772
vt 0.7072 0.8709
vt 0.6917 0.8572
vt 0.6269 0.7196
vt 0.5959 0.7734
vt 0.5986 0.6248
vt 0.5559 0.6248
vt 0.8549 0.3514
vt 0.6915 0.3514
vt 0.8549 0.3420
vt 0.6915 0.3420
vt 0.8549 0.3476
vt 0.6915 0.3476
vt 0.5682 0.1968
vt 0.6418 0.1946
vt 0.6822 0.1161
vt 0.5164 0.1228
vt 0.4075 0.1271
vt 0.7072 0.7772
vt 0.7072 0.8709
vt 0.6917 0.8572
vt 0.6269 0.7196
vt 0.5959 0.7734
vt 0.5986 0.6248
vt 0.5559 0.6248
vt 0.9980 1.2962
vt 0.9980 0.7021
vt 0.9634 0.7021
vt 0.9634 1.2894
vt 0.8990 0.7021
vt 0.8990 1.2720
vt 0.9634 1.2894
vt 0.4635 0.4020
vt 0.3682 0.4037
vt 0.3455 0.4486
vt 0.6525 0.4465
vt 0.3123 0.5325
vt 0.6518 0.5243
vt 0.6525 0.4465
vt 0.5804 0.7448
vt 0.5460 0.5854
vt 0.5804 0.7448
vt 0.6426 0.9288
vt 0.6426 0.9288
vt 0.7286 0.8821
vt 0.7286 0.8821
vt 0.8841 0.6570
vt 1.0013 0.6570
vt 1.0013 0.5550
vt 0.8790 0.5550
vt 1.0013 0.3370
vt 0.8662 0.3370
vt 0.8790 0.5550
vt 0.8166 0.2637
vt 0.8574 0.3293
vt 0.9267 0.2228
vt 0.5280 0.2228
vt 0.8166 0.2637
vt 0.5270 0.2704
vt 0.5964 0.4006
vt 0.6627 0.3552
vt 0.4635 0.4020
vt 0.3455 0.4486
vt 0.3682 0.4037
vt 0.8166 0.2637
vt 0.8574 0.3293
vt 0.9267 0.2228
vt 0.5280 0.2228
vt 0.8166 0.2637
vt 0.5270 0.2704
vt 0.0904 0.6639
vt 0.1061 0.8277
vt 0.1648 0.6672
vt 0.1211 0.5492
vt 0.1944 0.5519
vt 0.1648 0.6672
vt 0.4811 0.5844
vt 0.5166 0.7433
vt 0.5460 0.5854
vt 0.5166 0.7433
vt 0.5804 0.7448
vt 0.6426 0.9288
vt 0.1648 0.6672
vt 0.1944 0.5519
vt 0.1648 0.6672
vt 0.1061 0.8277
vt 0.1061 0.8277
vt 0.1446 0.9400
vt 0.5964 0.4006
vt 0.6627 0.3552
vt 0.4635 0.4020
vt 0.3455 0.4486
vt 0.3682 0.4037
vt 0.1061 0.8277
vt 0.0238 0.8275
vt 0.0904 0.6639
vt 0.9980 1.2962
vt 0.9980 0.7021
vt 0.9634 0.7021
vt 0.9634 1.2894
vt 0.8990 0.7021
vt 0.8990 1.2720
vt 0.8841 0.6570
vt 1.0013 0.6570
vt 1.0013 0.5550
vt 0.8790 0.5550
vt 1.0013 0.3370
vt 0.8662 0.3370
vt 0.4642 0.6733
vt 0.4595 0.5663
vt 0.4642 0.6733
vt 0.5529 0.9996
vt 0.5529 0.9996
vt 0.4642 0.6733
vt 0.3498 0.3619
vt 0.3505 0.2424
vt 0.0245 0.2977
vt 0.0204 0.3619
vt 0.4598 0.2228
vt 0.6525 0.4465
vt 0.6518 0.5243
vt 0.6525 0.4465
vt 0.6627 0.3552
vt 0.6627 0.3552
vt 0.4598 0.2228
vt 0.8656 1.0005
vt 0.7286 0.8821
vt 0.6426 0.9288
vt 0.5881 1.0005
vt 0.8656 1.0005
vt 0.7286 0.8821
vt 0.6426 0.9288
vt 0.5881 1.0005
vt 0.5166 0.7433
vt 0.5166 0.7433
vt 0.4811 0.5844
vt 0.5166 0.7433
vt 0.5881 1.0005
vt 0.5881 1.0005
vt 0.2764 0.8099
vt 0.2437 0.7448
vt 0.2619 0.6703
vt 0.2869 0.7452
vt 0.4642 0.6733
vt 0.0039 0.4355
vt 0.0175 0.4355
vt 0.0175 0.4047
vt -0.0116 0.4236
vt -0.0183 0.4047
vt 0.4075 0.1271
vt 0.5164 0.1228
vt 0.6822 0.1161
vt 0.5986 0.6248
vt 0.5959 0.7734
vt 0.6269 0.7196
vt 0.6917 0.8572
vt 0.8627 0.1142
vt 0.8780 0.1899
vt 0.3455 0.4486
vt 0.3123 0.5325
vt 0.3455 0.4486
vt 0.3682 0.4037
vt 0.3682 0.4037
vt 0.0000 0.2562
vt 0.3477 0.9398
vt 0.3477 0.9398
vt 0.1446 0.9400
vt 0.1446 0.9400
vt 0.1061 0.8277
vt 0.0238 0.8275
vt 0.3505 0.2424
vt 0.3505 0.2424
vt 0.3498 0.3619
vt 0.3498 0.3619
vt 0.3505 0.2424
vt 0.6426 0.9288
vt 0.5166 0.7433
vt 0.5804 0.7448
vt 0.5460 0.5854
vt 0.5986 0.6248
vt 0.5959 0.7734
vt 0.6269 0.7196
vt 0.6917 0.8572
vt 0.6912 0.3514
vt 0.8546 0.3514
vt 0.8546 0.5160
vt 0.6912 0.5160
vt 0.6912 0.3514
vt 0.2938 0.4956
vt 0.2938 0.4028
vt 0.2552 0.4028
vt 0.2552 0.4956
vt 0.1740 0.4956
vt 0.1446 0.9400
vt 0.0039 0.4355
vt 0.0175 0.4355
vt 0.0175 0.4047
vt -0.0116 0.4236
vt -0.0183 0.4047
vt 0.2756 0.5639
vt 0.4595 0.5663
vt 0.8627 0.1142
vt 0.7565 0.7772
vt 0.7072 0.7772
vt 0.7072 0.8709
vt 0.7565 0.8709
vt 0.7072 0.8709
vt 0.7072 0.7772
vt 0.5270 0.2704
vt 0.4598 0.2228
vt 0.7072 0.8709
vt 0.7072 0.7772
vt 0.7565 0.7772
vt 0.7565 0.8709
vt 0.6627 0.3552
vt 0.5964 0.4006
vt 0.0175 0.4047
vt 0.0175 0.4355
vt 0.0039 0.4355
vt -0.0116 0.4236
vt 0.7072 0.8709
vt 0.7072 0.7772
vt 0.7286 0.8821
vt 0.8656 1.0005
vt 0.6418 0.1946
vt 0.5682 0.1968
vt 0.4595 0.5663
vt 0.4642 0.6733
vt 0.6822 0.1161
vt 0.6418 0.1946
vt 0.5682 0.1968
vt 0.5164 0.1228
vt 0.8780 0.1899
vt 0.8627 0.1142
vt -0.0695 0.0269
vt -0.0819 0.0946
vt -0.0695 0.1528
vt 0.0173 0.9946
vt 0.1354 0.9946
vt 0.0204 0.8498
vt 0.0079 0.8787
vt 0.1061 0.8277
vt 0.1648 0.6672
vt 0.2437 0.7448
vt 0.2764 0.8099
vt 0.2869 0.7452
vt 0.0204 0.8498
vt 0.1354 0.9946
vt 0.0173 0.9946
vt 0.0079 0.8787
vt 0.2764 0.8099
vt 0.2764 0.8099
vt 0.2869 0.7452
vt 0.2869 0.7452
vt 0.3477 0.7452
vt 0.3477 0.7452
vt 0.3477 0.9398
vt 0.3477 0.9398
vt 0.3477 0.9398
vt 0.3477 0.9398
vt 0.1446 0.9400
vt 0.0204 0.8498
vt 0.1354 0.9946
vt 0.0173 0.9946
vt 0.0079 0.8787
vt 0.0173 0.9946
vt 0.1354 0.9946
vt 0.0204 0.8498
vt 0.0079 0.8787
vt 0.2437 0.7448
vt 0.2764 0.8099
vt 0.2764 0.8099
vt 0.2437 0.7448
vt 0.3477 0.7452
vt 0.2869 0.7452
vt 0.2869 0.7452
vt 0.3477 0.7452
vt 0.5682 0.1968
vt 0.6418 0.1946
vt 0.3477 0.9398
vt 0.3477 0.7452
vt 0.3477 0.7452
vt 0.3477 0.9398
vt 0.9634 0.7021
vt 0.9980 1.2962
vt 0.9634 1.2894
vt 0.3455 0.4486
vt 0.3123 0.5325
vt 0.3455 0.4486
vt 0.3682 0.4037
vt 1.0013 0.5550
vt 1.0013 0.6570
vt 0.8841 0.6570
vt 0.8790 0.5550
vt 0.1944 0.5519
vt 0.1648 0.6672
vt 0.5270 0.2704
vt 0.4598 0.2228
vt 0.5804 0.7448
vt 0.7072 0.8709
vt 0.7072 0.7772
vt 0.7565 0.7772
vt 0.7565 0.8709
vt 0.6627 0.3552
vt 0.5964 0.4006
vt 0.6525 0.4465
vt 0.6518 0.5243
vt 0.6525 0.4465
vt 0.6627 0.3552
vt 0.0000 0.2562
vt 0.2869 0.7452
vt 0.2764 0.8099
vt 0.2764 0.8099
vt 0.2869 0.7452
vt 0.6426 0.9288
vt 0.5804 0.7448
vt 0.6426 0.9288
vt 0.7286 0.8821
vt 0.4642 0.6733
vt 0.3477 0.7452
vt 0.4075 0.1271
vt 0.3682 0.4037
vt 0.3682 0.4037
vt 0.4598 0.2228
vt 0.4598 0.2228
vt 0.0175 0.4047
vt 0.0175 0.4355
vt 0.0039 0.4355
vt -0.0116 0.4236
vt 0.4811 0.5844
vt 0.8780 0.1899
vt 0.9524 0.0381
vt 0.9524 0.0381
vt 0.8780 0.1899
vt 0.4075 0.1271
vt 0.3505 0.2424
vt 0.3505 0.2424
vt 0.4075 0.1271
vt 0.8627 0.1142
vt 0.8627 0.1142
vt 0.8574 0.3293
vt 0.9267 0.2228
vt 0.9267 0.2228
vt 0.8574 0.3293
vt 0.5164 0.1228
vt 0.5164 0.1228
vt 0.5682 0.1968
vt 0.5682 0.1968
vt 0.6418 0.1946
vt 0.6418 0.1946
vt 0.6822 0.1161
vt 0.6822 0.1161
vt 0.6915 0.3420
vt 0.7565 0.7772
vt 0.7072 0.7772
vt 0.7072 0.8709
vt 0.7565 0.8709
vt 0.3505 0.2424
vt 0.1740 0.4028
vt 0.1354 0.4028
vt 0.1354 0.4956
vt 0.0746 0.4048
vt 0.0533 0.5011
vt -0.0580 0.5011
vt -0.0750 0.4048
vt 0.7286 0.8821
vt 0.8656 1.0005
vt -0.0580 0.5011
vt 0.0533 0.5011
vt 0.0746 0.4048
vt -0.0750 0.4048
vt 0.5166 0.7433
vt 0.4811 0.5844
vt 0.5166 0.7433
vt 0.5881 1.0005
vt 0.4598 0.2228
vt 0.3682 0.4037
vt 0.3682 0.4037
vt 0.4598 0.2228
vt 0.8166 0.2637
vt 0.8574 0.3293
vt 0.8574 0.3293
vt 0.8166 0.2637
vt 0.9267 0.2228
vt 0.9267 0.2228
vt 0.8574 0.3293
vt 0.8574 0.3293
vt 0.5270 0.2704
vt 0.5270 0.2704
vt 0.4635 0.4020
vt 0.4635 0.4020
vt 1.0013 0.5550
vt 1.0013 0.6570
vt 0.8841 0.6570
vt 0.5964 0.4006
vt 0.6627 0.3552
vt 0.6627 0.3552
vt 0.5964 0.4006
vt 0.9634 0.7021
vt 0.9980 1.2962
vt 0.5460 0.5854
vt 0.5804 0.7448
vt -0.0580 0.5011
vt 0.0533 0.5011
vt 0.0746 0.4048
vt -0.0750 0.4048
vt 0.5804 0.7448
vt 0.0746 0.4048
vt 0.0533 0.5011
vt -0.0580 0.5011
vt -0.0750 0.4048
vt 0.6915 0.3514
vt 0.8549 0.3514
vt 0.2869 0.7452
vt 0.2869 0.7452
vt 0.3477 0.7452
vt 0.3477 0.7452
vt 0.8656 1.0005
vt 0.8656 1.0005
vt 0.8656 1.0005
vt 0.7286 0.8821
vt 0.8656 1.0005
vt 0.8656 1.0005
vt 0.8656 1.0005
vt 0.7286 0.8821
vt -0.0695 0.0269
vt -0.0819 0.0946
vt -0.0695 0.1528
vt -0.0183 0.4047
vt 0.8780 0.1899
vt -0.0183 0.4047
vt 0.8574 0.3293
vt 0.8574 0.3293
vt 0.3505 0.2424
vt 0.6627 0.3552
vt 0.5881 1.0005
vt 0.7286 0.8821
vt 0.3505 0.2424
vt 0.2938 0.4028
vt 0.3682 0.4037
vt 0.8546 0.3514
vt 0.7286 0.8821
vt 0.7286 0.8821
vn -0.9838 0.0000 0.1791
vn -0.6609 0.0000 -0.7505
vn -0.3763 0.0000 -0.9265
vn -0.9818 0.0000 -0.1899
vn -0.9820 0.0000 -0.1889
vn -0.6392 0.0000 -0.7690
vn -0.6308 0.0000 -0.7759
vn -0.9861 0.0000 -0.1662
vn -0.9778 0.0000 0.2093
vn 0.0524 0.9937 0.0987
vn 0.1027 0.9938 0.0410
vn 0.2856 0.6322 0.7202
vn 0.0877 0.9893 0.1166
vn 0.4427 0.8544 0.2719
vn 0.0695 0.9976 0.0024
vn 0.0093 0.9998 -0.0141
vn 0.0451 0.9988 0.0180
vn 0.0020 1.0000 -0.0031
vn -0.0005 1.0000 0.0007
vn -0.0345 0.9988 -0.0342
vn -0.1134 0.9935 -0.0041
vn 0.3097 0.0000 0.9508
vn 0.6131 0.0000 0.7900
vn 0.9834 0.0000 0.1812
vn 0.2238 0.0000 -0.9746
vn -0.9165 0.0000 -0.3999
vn -0.9687 0.0000 -0.2481
vn -0.5745 -0.2890 -0.7657
vn -0.1328 -0.9640 -0.2305
vn -0.4926 -0.6993 -0.5180
vn -0.7343 0.0000 -0.6788
vn -0.7472 -0.6242 -0.2281
vn -0.9843 0.0000 -0.1766
vn -0.7472 0.6242 -0.2281
vn -0.4926 0.6993 -0.5180
vn -0.5745 0.2890 -0.7657
vn -0.1328 0.9640 -0.2305
vn -0.0299 0.9976 -0.0628
vn -0.4259 0.8544 -0.2975
vn -0.1419 0.9893 -0.0340
vn -0.7743 0.6322 0.0253
vn -0.1114 0.9937 -0.0087
vn -0.0786 0.9938 -0.0779
vn -0.9794 0.0000 0.2020
vn -0.6732 0.0000 0.7394
vn 0.2856 -0.6322 0.7202
vn 0.5599 0.0000 0.8286
vn 0.8399 0.0000 0.5427
vn 0.2062 0.9691 0.1354
vn 0.5441 0.7594 0.3568
vn 0.5440 0.7594 0.3568
vn 0.8360 0.0260 0.5481
vn 0.8360 0.0261 0.5481
vn 0.5192 -0.7840 0.3402
vn 0.5192 -0.7840 0.3403
vn 0.0001 -1.0000 -0.0001
vn 0.9153 0.0000 0.4027
vn 0.6715 0.6993 0.2452
vn 0.5071 0.6241 0.5943
vn 0.5544 0.0000 0.8322
vn 0.5071 -0.6241 0.5943
vn 0.6715 -0.6993 0.2452
vn 0.9313 -0.2890 0.2215
vn 0.2644 -0.9640 0.0299
vn 0.0490 0.9935 0.1024
vn 0.1149 0.9931 0.0211
vn 0.1184 0.9924 0.0319
vn 0.6060 0.7000 0.3778
vn 0.3752 0.8938 0.2456
vn 0.8481 0.0000 0.5297
vn 0.3879 -0.8440 -0.3705
vn 0.0970 -0.9940 -0.0492
vn 0.0517 -0.9955 -0.0788
vn 0.3144 -0.8192 -0.4796
vn 0.1851 -0.8440 -0.5034
vn 0.5483 0.0000 -0.8363
vn 0.4385 0.0000 -0.8987
vn 0.1851 0.8440 -0.5034
vn 0.8488 0.0000 0.5288
vn 0.6017 -0.7017 0.3816
vn 0.3622 -0.9034 0.2293
vn 0.1272 -0.9912 0.0363
vn 0.1278 -0.9914 0.0270
vn -0.0005 -1.0000 0.0007
vn 0.0490 -0.9935 0.1024
vn 0.0451 -0.9988 0.0180
vn 0.0020 -1.0000 -0.0031
vn 0.0093 -0.9998 -0.0141
vn -0.0345 -0.9988 -0.0342
vn -0.0299 -0.9976 -0.0628
vn 0.2238 0.9545 0.1971
vn 0.0249 0.9865 0.1620
vn 0.3231 0.9255 0.1976
vn 0.2918 0.9420 0.1655
vn 0.3392 0.9295 0.1448
vn 0.8405 0.0001 -0.5418
vn 1.0000 0.0001 0.0038
vn 1.0000 0.0001 0.0039
vn 0.4275 -0.0001 0.9040
vn -0.1068 -0.0002 0.9943
vn 0.2644 0.9640 0.0299
vn 0.9313 0.2890 0.2215
vn 0.9724 0.0000 0.2330
vn -0.5483 0.0000 0.8363
vn -0.0935 -0.9941 -0.0553
vn -0.0902 -0.9947 -0.0500
vn -0.5979 -0.7000 -0.3904
vn -0.4369 -0.8509 -0.2916
vn -0.8348 0.0000 -0.5505
vn -0.8295 0.0000 -0.5585
vn -0.4369 0.8509 -0.2916
vn -0.9574 -0.0095 0.2886
vn -0.9537 -0.0002 0.3007
vn -0.9575 -0.0104 0.2880
vn -0.9557 -0.0121 0.2939
vn -0.9579 -0.0122 0.2866
vn -0.9586 -0.0050 0.2848
vn -0.9609 0.0000 0.2768
vn -0.5191 -0.7840 -0.3404
vn -0.5190 -0.7840 -0.3404
vn -0.8360 0.0261 -0.5481
vn -0.8360 0.0260 -0.5481
vn -0.5441 0.7594 -0.3566
vn -0.5442 0.7594 -0.3566
vn -0.0595 -0.9967 -0.0556
vn -0.0071 -0.9999 0.0134
vn -0.3101 -0.9255 -0.2175
vn -0.2682 -0.9420 -0.2016
vn -0.2681 -0.9295 -0.2533
vn 0.1171 0.0095 0.9931
vn 0.1045 0.0002 0.9945
vn 0.1177 0.0104 0.9930
vn 0.1116 0.0121 0.9937
vn 0.1191 0.0122 0.9928
vn 0.1210 0.0050 0.9926
vn 0.1293 0.0000 0.9916
vn 0.7065 0.5514 0.4436
vn 0.8430 0.0010 0.5379
vn 0.3585 0.9063 0.2237
vn 0.4415 0.8547 0.2731
vn 0.0050 0.9999 -0.0077
vn 0.0044 0.9999 -0.0067
vn -0.4265 0.8547 -0.2959
vn 0.0880 0.9941 0.0637
vn 0.0818 0.9947 0.0628
vn 0.5965 0.7000 0.3927
vn 0.4416 0.8509 0.2844
vn 0.8377 0.0000 0.5461
vn 0.8430 0.0000 0.5379
vn 0.4416 -0.8509 0.2844
vn 0.0520 0.0000 -0.9986
vn 0.2149 0.0000 -0.9766
vn -0.6029 0.0000 -0.7978
vn -0.9459 0.0000 -0.3244
vn 0.7114 -0.5416 0.4478
vn 0.7171 -0.5257 0.4575
vn 0.3440 -0.9146 0.2124
vn 0.4391 -0.8564 0.2715
vn 0.0047 -0.9999 -0.0072
vn 0.0044 -0.9999 -0.0067
vn -0.4240 -0.8564 -0.2944
vn -0.0133 -0.9998 -0.0102
vn -0.0185 -0.9997 -0.0156
vn 0.0013 -1.0000 -0.0019
vn -0.0005 -1.0000 0.0008
vn 0.0146 -0.9998 0.0081
vn 0.0570 -0.9976 0.0402
vn -0.0637 0.9970 -0.0441
vn -0.0746 0.9961 -0.0462
vn -0.0935 0.9941 -0.0553
vn -0.5979 0.7000 -0.3904
vn -0.0902 0.9947 -0.0500
vn 0.0146 0.9998 0.0081
vn 0.0216 0.9997 0.0107
vn 0.0013 1.0000 -0.0019
vn -0.0005 1.0000 0.0008
vn -0.0133 0.9998 -0.0102
vn -0.0596 0.9976 -0.0363
vn -0.3547 0.9034 -0.2407
vn -0.0840 0.9912 -0.1021
vn -0.5898 0.7017 -0.3996
vn -0.8240 0.0000 -0.5666
vn -0.8234 0.0000 -0.5675
vn -0.5881 -0.7000 -0.4051
vn 0.8407 0.0000 0.5415
vn 0.4722 -0.8282 0.3019
vn 0.8413 0.0000 0.5406
vn 0.4722 0.8282 0.3019
vn 0.3139 0.9279 0.2011
vn 0.0690 0.9973 0.0230
vn 0.9619 0.0000 -0.2733
vn 0.9568 0.0000 -0.2908
vn 0.5410 0.0000 -0.8410
vn -0.5176 0.0000 -0.8556
vn 0.0659 -0.9970 0.0408
vn 0.0721 -0.9961 0.0500
vn 0.0880 -0.9941 0.0637
vn 0.5965 -0.7000 0.3927
vn 0.0818 -0.9947 0.0628
vn -0.0652 -0.9931 -0.0969
vn -0.0765 -0.9924 -0.0959
vn -0.3748 -0.8938 -0.2461
vn -0.6903 -0.5481 -0.4722
vn -0.8294 0.0010 -0.5586
vn -0.3490 -0.9058 -0.2401
vn -0.4279 -0.8536 -0.2969
vn 0.0050 -0.9999 -0.0077
vn -0.6925 0.5450 -0.4726
vn -0.7037 0.5293 -0.4740
vn -0.3306 0.9153 -0.2299
vn -0.4226 0.8575 -0.2934
vn 0.0047 0.9999 -0.0072
vn 0.8453 0.0000 -0.5342
vn 0.6673 0.0000 -0.7448
vn 0.1529 0.0000 -0.9882
vn 0.0517 0.9955 -0.0788
vn 0.0970 0.9940 -0.0492
vn 0.3879 0.8440 -0.3705
vn 0.3144 0.8192 -0.4796
vn -0.0711 0.9966 -0.0399
vn 0.3910 0.0000 -0.9203
vn 0.5242 0.0000 -0.8516
vn 0.3518 0.0000 -0.9360
vn 0.0650 -0.9966 0.0493
vn 0.0169 -0.9998 -0.0103
vn -0.0222 -0.9994 -0.0276
vn 0.0690 -0.9973 0.0230
vn 0.0074 -0.9999 -0.0114
vn 0.0027 0.9998 -0.0196
vn 0.0342 0.9994 0.0094
vn -0.0486 0.9973 -0.0541
vn 0.0074 0.9999 -0.0114
vn -0.4652 0.8282 -0.3127
vn -0.1111 0.0000 0.9938
vn -0.1961 0.0000 0.9806
vn -0.0731 0.0000 0.9973
vn -0.1114 -0.9937 -0.0087
vn -0.0786 -0.9938 -0.0779
vn -0.7743 -0.6322 0.0253
vn -0.1419 -0.9893 -0.0340
vn -0.4259 -0.8544 -0.2975
vn -0.3212 -0.3681 0.8725
vn -0.8203 -0.0001 0.5719
vn -0.2870 -0.3497 0.8918
vn -0.0217 -0.1776 0.9839
vn -0.0312 -0.1217 0.9921
vn -0.2681 0.9295 -0.2533
vn -0.2682 0.9420 -0.2016
vn -0.3101 0.9255 -0.2175
vn 0.1210 -0.0050 0.9926
vn 0.1191 -0.0122 0.9928
vn 0.1116 -0.0121 0.9937
vn 0.1177 -0.0104 0.9930
vn -0.2700 0.9545 -0.1266
vn -0.1585 0.9865 0.0417
vn 0.1970 0.0000 0.9804
vn 0.1675 0.0000 0.9859
vn 0.2089 0.0000 0.9779
vn 0.6493 0.0000 -0.7605
vn 0.8371 0.0000 0.5470
vn 0.9910 0.0000 0.1335
vn 0.5556 0.0000 -0.8314
vn -0.0757 0.9914 -0.1065
vn -0.5588 0.0000 0.8293
vn -0.5377 0.0000 0.8431
vn -0.0486 -0.9973 -0.0541
vn -0.4652 -0.8282 -0.3127
vn -0.3095 -0.9279 -0.2076
vn -0.8312 0.0000 -0.5559
vn -0.9586 0.0050 0.2848
vn -0.9579 0.0122 0.2866
vn -0.9557 0.0121 0.2939
vn -0.9575 0.0104 0.2880
vn 0.0875 0.9945 0.0575
vn -0.0001 1.0000 0.0001
vn -0.0877 0.9945 -0.0573
vn -0.8692 -0.0002 0.4944
vn -0.9995 -0.0001 -0.0316
vn -0.4023 0.0001 -0.9155
vn -0.1134 -0.9935 -0.0041
vn -0.6721 0.3681 0.6425
vn -0.1973 0.0001 0.9803
vn -0.7034 0.3497 0.6189
vn -0.8936 0.1776 0.4122
vn -0.8974 0.1217 0.4241
vn -0.9831 0.0000 -0.1830
vn -0.8326 0.0000 -0.5538
vn -0.2700 -0.9545 -0.1266
vn -0.9537 0.0002 0.3007
vn -0.9574 0.0095 0.2886
vn -0.0596 -0.9976 -0.0363
vn -0.0711 -0.9966 -0.0399
vn -0.1973 -0.0001 0.9803
vn -0.0746 -0.9961 -0.0462
vn -0.0637 -0.9970 -0.0441
vn -0.7034 -0.3497 0.6189
vn -0.6721 -0.3681 0.6425
vn -0.8936 -0.1776 0.4122
vn 0.1045 -0.0002 0.9945
vn 0.1171 -0.0095 0.9931
vn 0.0342 -0.9994 0.0094
vn 0.0027 -0.9998 -0.0196
vn -0.0071 0.9999 0.0134
vn -0.0595 0.9967 -0.0556
vn 0.4169 0.0000 -0.9089
vn 0.3231 -0.9255 0.1976
vn -0.0095 -0.9999 0.0119
vn 0.0747 -0.9967 0.0324
vn 0.2918 -0.9420 0.1655
vn 0.0249 -0.9865 0.1620
vn 0.2238 -0.9545 0.1971
vn 0.3530 -0.9230 0.1527
vn 0.4015 -0.9136 0.0633
vn 0.3127 -0.9237 0.2213
vn 0.1427 -0.8726 0.4670
vn -0.1329 0.0000 -0.9911
vn 0.1027 -0.9938 0.0410
vn 0.0524 -0.9937 0.0987
vn 0.0877 -0.9893 0.1166
vn 0.3127 0.9237 0.2213
vn 0.4015 0.9136 0.0633
vn 0.3530 0.9230 0.1527
vn 0.1427 0.8726 0.4670
vn 0.0178 0.0000 -0.9998
vn -0.8354 0.0000 -0.5495
vn -0.3277 -0.9237 -0.1985
vn -0.2181 -0.9136 -0.3429
vn -0.2808 -0.9230 -0.2629
vn -0.4852 -0.8726 0.0554
vn -0.2808 0.9230 -0.2629
vn -0.2181 0.9136 -0.3429
vn -0.3277 0.9237 -0.1985
vn -0.4852 0.8726 0.0553
vn -0.4097 0.0000 0.9122
vn 0.2052 0.0000 0.9787
vn 0.8363 0.0000 0.5483
vn 0.0747 0.9967 0.0324
vn -0.0095 0.9999 0.0119
vn 0.3593 -0.9058 0.2243
vn 0.7083 -0.5481 0.4448
vn 0.4429 -0.8536 0.2740
vn -0.9776 0.0000 0.2103
vn -0.9709 0.0000 0.2395
vn -0.9801 0.0000 0.1983
vn 0.3427 0.9153 0.2115
vn 0.7153 0.5293 0.4563
vn 0.7095 0.5450 0.4466
vn 0.4376 0.8575 0.2705
vn -0.1148 0.0000 -0.9934
vn 0.0570 0.9976 0.0402
vn 0.0650 0.9966 0.0493
vn 0.3139 -0.9279 0.2011
vn -0.8203 0.0001 0.5719
vn 0.0721 0.9961 0.0500
vn 0.0659 0.9970 0.0408
vn 0.6881 0.0000 -0.7256
vn 0.5719 0.0000 -0.8203
vn 0.7181 0.0000 -0.6959
vn -0.6015 0.0000 -0.7989
vn 0.9098 0.0000 -0.4150
vn 0.9720 0.0000 0.2348
vn 0.8951 0.0000 -0.4459
vn 0.6747 0.0000 0.7381
vn 0.4427 -0.8544 0.2719
vn 0.0695 -0.9976 0.0024
vn 0.3392 -0.9295 0.1448
vn -0.9742 0.0000 0.2257
vn -0.2870 0.3497 0.8918
vn -0.3212 0.3681 0.8725
vn -0.0217 0.1776 0.9839
vn -0.8318 0.0000 -0.5550
vn 0.9518 0.0000 0.3068
vn 0.2280 0.0000 0.9736
vn 0.5456 0.0000 0.8380
vn 0.1980 0.0000 0.9802
vn 0.9997 0.0000 -0.0243
vn 0.9972 0.0000 -0.0749
vn 0.9631 0.0000 0.2691
vn 0.9601 0.0000 0.2796
vn 0.5648 0.0000 0.8252
vn 0.5657 0.0000 0.8246
vn 0.0065 0.9940 -0.1086
vn 0.1617 0.0001 -0.9868
vn -0.0002 1.0000 0.0000
vn -0.0222 0.9994 -0.0276
vn 0.0169 0.9998 -0.0103
vn 0.0002 -1.0000 -0.0000
vn -0.8671 0.0000 0.4982
vn -0.8210 0.0000 0.5709
vn -0.8854 0.0000 0.4647
vn 0.1814 0.0000 0.9834
vn -0.9689 0.0000 -0.2473
vn -0.9955 0.0000 0.0951
vn -0.3289 0.0000 -0.9443
vn -0.3290 0.0000 -0.9443
vn -0.5583 0.0000 -0.8296
vn 0.8045 0.0000 -0.5939
vn -0.3319 -0.9146 -0.2308
vn -0.7055 -0.5257 -0.4752
vn -0.6944 -0.5416 -0.4738
vn 0.7322 0.0000 0.6810
vn 0.6138 0.0000 0.7894
vn -0.3481 0.9063 -0.2395
vn -0.6885 0.5514 -0.4710
vn 0.8099 0.0000 -0.5865
vn 0.0000 1.0000 0.0002
vn -0.3095 0.9279 -0.2076
vn 0.0000 -1.0000 -0.0002
vn -0.2064 0.9691 -0.1352
vn -0.8363 0.0000 -0.5483
vn -0.5500 0.0000 -0.8352
vn 0.0000 0.0000 1.0000
vn -0.5499 0.0000 -0.8352
vn 0.9852 0.0000 0.1713
vn -0.0312 0.1217 0.9921
vn -0.1584 -0.9865 0.0417
vn -0.8974 -0.1217 0.4241
vn -0.0185 0.9997 -0.0156
vn 0.0216 -0.9997 0.0107
vn 0.0065 -0.9940 -0.1086
usemtl PodE
s 1
f 2/1/1 3/2/1 1/3/2
f 4/4/2 2/1/1 1/3/2
f 4/4/2 1/3/2 5/5/3
f 6/6/3 4/4/2 5/5/3
f 6/6/3 5/5/3 7/7/4
f 8/8/4 6/6/3 7/7/4
f 8/8/4 7/7/4 9/9/5
f 10/10/5 8/8/4 9/9/5
f 10/10/5 9/9/5 11/11/6
f 12/12/6 10/10/5 11/11/6
f 12/12/6 11/11/6 13/13/7
f 14/14/7 12/12/6 13/13/7
f 14/14/7 13/13/7 15/15/8
f 16/16/8 14/14/7 15/15/8
f 16/16/8 15/15/8 17/17/9
f 18/18/9 16/16/8 17/17/9
f 20/19/10 21/20/11 19/21/12
f 22/22/13 20/19/10 19/21/12
f 22/22/13 19/21/12 23/23/14
f 24/24/15 22/22/13 23/23/14
f 24/24/15 23/23/14 25/25/16
f 26/26/17 24/24/15 25/25/16
f 26/26/17 25/25/16 27/27/18
f 28/28/19 26/26/17 27/27/18
f 28/28/19 27/27/18 29/29/20
f 30/30/21 28/28/19 29/29/20
f 32/31/22 33/32/22 31/33/23
f 34/34/23 32/31/22 31/33/23
f 34/34/23 31/33/23 35/35/24
f 36/36/24 34/34/23 35/35/24
f 36/36/24 35/35/24 37/37/25
f 38/38/25 36/36/24 37/37/25
f 38/38/25 37/37/25 39/39/26
f 40/40/26 38/38/25 39/39/26
f 40/40/26 39/39/26 41/41/27
f 42/42/27 40/40/26 41/41/27
f 44/43/28 45/44/29 43/45/30
f 46/46/31 44/43/28 43/45/30
f 46/46/31 43/45/30 47/47/32
f 48/48/33 46/46/31 47/47/32
f 48/48/33 47/47/32 49/49/34
f 46/46/31 48/48/33 49/49/34
f 46/46/31 49/49/34 50/50/35
f 51/51/36 46/46/31 50/50/35
f 51/51/36 50/50/35 52/52/37
f 29/29/20 27/27/18 25/25/16
f 53/53/38 29/29/20 25/25/16
f 53/53/38 25/25/16 54/54/39
f 55/55/40 53/53/38 54/54/39
f 55/55/40 54/54/39 56/56/41
f 57/57/42 55/55/40 56/56/41
f 57/57/42 56/56/41 58/58/43
f 60/59/44 61/60/44 59/61/45
f 62/62/45 60/59/44 59/61/45
f 62/62/45 59/61/45 63/63/46
f 19/21/12 62/62/45 63/63/46
f 19/21/12 63/63/46 64/64/47
f 23/23/14 19/21/12 64/64/47
f 23/23/14 64/64/47 65/65/48
f 67/66/49 68/67/49 66/68/50
f 69/69/51 67/66/49 66/68/50
f 69/69/51 66/68/50 70/70/52
f 71/71/53 69/69/51 70/70/52
f 71/71/53 70/70/52 72/72/54
f 73/73/55 71/71/53 72/72/54
f 73/73/55 72/72/54 74/74/56
f 76/75/57 77/76/58 75/77/59
f 78/78/60 76/75/57 75/77/59
f 78/78/60 75/77/59 79/79/61
f 76/75/57 78/78/60 79/79/61
f 76/75/57 79/79/61 80/80/62
f 81/81/63 76/75/57 80/80/62
f 81/81/63 80/80/62 82/82/64
f 83/83/65 26/26/17 28/28/19
f 84/84/66 83/83/65 28/28/19
f 84/84/66 28/28/19 85/85/67
f 86/86/68 84/84/66 85/85/67
f 86/86/68 85/85/67 87/87/69
f 88/88/70 86/86/68 87/87/69
f 90/89/71 91/90/72 89/91/73
f 92/92/74 90/89/71 89/91/73
f 92/92/74 89/91/73 93/93/75
f 94/94/76 92/92/74 93/93/75
f 94/94/76 93/93/75 95/95/77
f 96/96/78 94/94/76 95/95/77
f 97/97/79 86/86/68 88/88/70
f 98/98/80 97/97/79 88/88/70
f 98/98/80 88/88/70 99/99/81
f 100/100/82 98/98/80 99/99/81
f 100/100/82 99/99/81 101/101/83
f 102/102/84 100/100/82 101/101/83
f 103/103/85 100/100/82 102/102/84
f 104/104/86 103/103/85 102/102/84
f 104/104/86 102/102/84 105/105/87
f 106/106/88 104/104/86 105/105/87
f 106/106/88 105/105/87 107/107/89
f 108/108/90 106/106/88 107/107/89
f 109/109/91 110/110/92 75/77/59
f 111/111/93 109/109/91 75/77/59
f 111/111/93 75/77/59 77/76/58
f 112/112/94 111/111/93 77/76/58
f 112/112/94 77/76/58 113/113/95
f 115/114/96 116/115/96 114/116/97
f 117/117/98 115/114/96 114/116/97
f 117/117/98 114/116/97 118/118/99
f 119/119/99 117/117/98 118/118/99
f 119/119/99 118/118/99 120/120/100
f 122/121/76 123/122/76 121/123/76
f 124/124/76 122/121/76 121/123/76
f 124/124/76 121/123/76 125/125/76
f 126/126/76 124/124/76 125/125/76
f 126/126/76 125/125/76 127/127/76
f 128/128/101 113/113/95 77/76/58
f 129/129/102 128/128/101 77/76/58
f 129/129/102 77/76/58 76/75/57
f 130/130/103 129/129/102 76/75/57
f 130/130/103 76/75/57 81/81/63
f 132/131/104 133/132/104 131/133/104
f 134/134/104 132/131/104 131/133/104
f 134/134/104 131/133/104 135/135/104
f 136/136/104 134/134/104 135/135/104
f 136/136/104 135/135/104 137/137/104
f 139/138/105 140/139/106 138/140/107
f 141/141/108 139/138/105 138/140/107
f 141/141/108 138/140/107 142/142/109
f 143/143/110 141/141/108 142/142/109
f 143/143/110 142/142/109 144/144/111
f 146/145/112 147/146/113 145/147/114
f 148/148/115 146/145/112 145/147/114
f 148/148/115 145/147/114 149/149/116
f 150/150/117 148/148/115 149/149/116
f 150/150/117 149/149/116 151/151/118
f 153/152/119 74/74/56 152/153/120
f 154/154/121 153/152/119 152/153/120
f 154/154/121 152/153/120 155/155/122
f 156/156/123 154/154/121 155/155/122
f 156/156/123 155/155/122 157/157/124
f 159/158/125 160/159/126 158/160/127
f 161/161/128 159/158/125 158/160/127
f 161/161/128 158/160/127 43/45/30
f 162/162/129 161/161/128 43/45/30
f 162/162/129 43/45/30 45/44/29
f 164/163/130 165/164/131 163/165/132
f 166/166/133 164/163/130 163/165/132
f 166/166/133 163/165/132 167/167/134
f 168/168/135 166/166/133 167/167/134
f 168/168/135 167/167/134 169/169/136
f 171/170/137 172/171/138 170/172/139
f 173/173/140 171/170/137 170/172/139
f 173/173/140 170/172/139 174/174/141
f 175/175/142 173/173/140 174/174/141
f 175/175/142 174/174/141 176/176/143
f 178/177/144 179/178/145 177/179/146
f 180/180/147 178/177/144 177/179/146
f 180/180/147 177/179/146 181/181/148
f 182/182/149 180/180/147 181/181/148
f 182/182/149 181/181/148 183/183/150
f 185/184/151 186/185/152 184/186/151
f 187/187/153 185/184/151 184/186/151
f 187/187/153 184/186/151 188/188/153
f 189/189/154 187/187/153 188/188/153
f 189/189/154 188/188/153 190/190/154
f 192/191/155 193/192/156 191/193/157
f 194/194/158 192/191/155 191/193/157
f 194/194/158 191/193/157 195/195/159
f 196/196/160 194/194/158 195/195/159
f 196/196/160 195/195/159 197/197/161
f 199/198/162 200/199/163 198/200/164
f 201/201/165 199/198/162 198/200/164
f 201/201/165 198/200/164 202/202/166
f 203/203/167 201/201/165 202/202/166
f 204/204/168 205/205/169 144/144/111
f 206/206/170 204/204/168 144/144/111
f 206/206/170 144/144/111 207/207/171
f 208/208/172 206/206/170 207/207/171
f 210/209/173 211/210/174 209/211/175
f 212/212/176 210/209/173 209/211/175
f 212/212/176 209/211/175 213/213/177
f 214/214/178 212/212/176 213/213/177
f 216/215/179 217/216/180 215/217/181
f 218/218/182 216/215/179 215/217/181
f 218/218/182 215/217/181 219/219/183
f 220/220/184 218/218/182 219/219/183
f 222/221/185 223/222/186 221/223/187
f 224/224/188 222/221/185 221/223/187
f 224/224/188 221/223/187 225/225/189
f 226/226/190 224/224/188 225/225/189
f 228/227/191 229/228/192 227/229/191
f 230/230/193 228/227/191 227/229/191
f 230/230/193 227/229/191 231/231/193
f 232/232/194 230/230/193 231/231/193
f 233/233/195 234/234/196 183/183/150
f 235/235/197 233/233/195 183/183/150
f 235/235/197 183/183/150 236/236/198
f 237/237/199 235/235/197 236/236/198
f 239/238/200 102/102/84 238/239/201
f 220/220/184 239/238/200 238/239/201
f 220/220/184 238/239/201 240/240/202
f 218/218/182 220/220/184 240/240/202
f 242/241/203 243/242/204 241/243/205
f 244/244/206 242/241/203 241/243/205
f 244/244/206 241/243/205 245/245/207
f 246/246/160 244/244/206 245/245/207
f 248/247/208 249/248/209 247/249/210
f 250/250/211 248/247/208 247/249/210
f 250/250/211 247/249/210 251/251/212
f 252/252/142 250/250/211 251/251/212
f 254/253/213 255/254/214 253/255/213
f 256/256/76 254/253/213 253/255/213
f 256/256/76 253/255/213 257/257/76
f 258/258/215 256/256/76 257/257/76
f 260/259/216 261/260/217 259/261/218
f 262/262/219 260/259/216 259/261/218
f 262/262/219 259/261/218 94/94/76
f 96/96/78 262/262/219 94/94/76
f 206/206/170 208/208/172 263/263/220
f 214/214/178 206/206/170 263/263/220
f 214/214/178 263/263/220 212/212/176
f 265/264/221 266/265/222 264/266/221
f 267/267/223 265/264/221 264/266/221
f 267/267/223 264/266/221 268/268/223
f 235/235/197 237/237/199 269/269/224
f 203/203/167 235/235/197 269/269/224
f 203/203/167 269/269/224 201/201/165
f 271/270/225 272/271/226 270/272/227
f 273/273/228 271/270/225 270/272/227
f 273/273/228 270/272/227 223/222/186
f 275/274/229 276/275/230 274/276/231
f 277/277/232 275/274/229 274/276/231
f 277/277/232 274/276/231 278/278/233
f 280/279/234 281/280/235 279/281/234
f 282/282/236 280/279/234 279/281/234
f 282/282/236 279/281/234 283/283/236
f 285/284/237 286/285/238 284/286/239
f 287/287/240 285/284/237 284/286/239
f 287/287/240 284/286/239 288/288/241
f 290/289/242 291/290/243 289/291/244
f 292/292/245 290/289/242 289/291/244
f 292/292/245 289/291/244 293/293/246
f 294/294/247 52/52/37 50/50/35
f 295/295/248 294/294/247 50/50/35
f 295/295/248 50/50/35 296/296/249
f 298/297/250 169/169/136 297/298/251
f 299/299/252 298/297/250 297/298/251
f 299/299/252 297/298/251 300/300/253
f 296/296/249 50/50/35 49/49/34
f 301/301/254 296/296/249 49/49/34
f 301/301/254 49/49/34 302/302/255
f 304/303/256 305/304/257 303/305/256
f 306/306/258 304/303/256 303/305/256
f 306/306/258 303/305/256 307/307/258
f 90/89/71 92/92/74 94/94/76
f 308/308/259 90/89/71 94/94/76
f 308/308/259 94/94/76 259/261/218
f 310/309/260 311/310/260 309/311/261
f 312/312/261 310/309/260 309/311/261
f 312/312/261 309/311/261 313/313/262
f 28/28/19 30/30/21 217/216/180
f 314/314/263 28/28/19 217/216/180
f 314/314/263 217/216/180 216/215/179
f 316/315/264 317/316/264 315/317/104
f 318/318/104 316/315/264 315/317/104
f 318/318/104 315/317/104 319/319/265
f 321/320/266 273/273/228 320/321/267
f 322/322/268 321/320/266 320/321/267
f 322/322/268 320/321/267 323/323/269
f 325/324/270 151/151/118 324/325/271
f 326/326/272 325/324/270 324/325/271
f 326/326/272 324/325/271 327/327/273
f 329/328/274 330/329/274 328/330/275
f 331/331/275 329/328/274 328/330/275
f 331/331/275 328/330/275 332/332/276
f 334/333/277 335/334/277 333/335/278
f 336/336/278 334/333/277 333/335/278
f 336/336/278 333/335/278 337/337/279
f 107/107/89 105/105/87 102/102/84
f 338/338/280 107/107/89 102/102/84
f 338/338/280 102/102/84 239/238/200
f 340/339/281 341/340/282 339/341/283
f 342/342/284 340/339/281 339/341/283
f 342/342/284 339/341/283 343/343/285
f 284/286/239 56/56/41 344/344/286
f 288/288/241 284/286/239 344/344/286
f 288/288/241 344/344/286 345/345/287
f 47/47/32 43/45/30 158/160/127
f 346/346/288 47/47/32 158/160/127
f 348/347/282 349/348/282 347/349/282
f 350/350/282 348/347/282 347/349/282
f 327/327/273 352/351/289 351/352/290
f 326/326/272 327/327/273 351/352/290
f 353/353/291 199/198/162 201/201/165
f 354/354/292 353/353/291 201/201/165
f 356/355/293 357/356/293 355/357/293
f 358/358/293 356/355/293 355/357/293
f 141/141/108 360/359/294 359/360/295
f 139/138/105 141/141/108 359/360/295
f 362/361/296 363/362/293 361/363/297
f 364/364/298 362/361/296 361/363/297
f 139/138/105 353/353/291 354/354/292
f 140/139/106 139/138/105 354/354/292
f 300/300/253 366/365/299 365/366/300
f 299/299/252 300/300/253 365/366/300
f 321/320/266 368/367/301 367/368/302
f 273/273/228 321/320/266 367/368/302
f 296/296/249 370/369/303 369/370/304
f 295/295/248 296/296/249 369/370/304
f 258/258/215 372/371/305 371/372/215
f 256/256/76 258/258/215 371/372/215
f 374/373/306 375/374/307 373/375/308
f 376/376/309 374/373/306 373/375/308
f 79/79/61 378/377/310 377/378/311
f 374/373/306 79/79/61 377/378/311
f 380/379/76 381/380/76 379/381/76
f 127/127/76 380/379/76 379/381/76
f 383/382/312 384/383/313 382/384/314
f 385/385/315 383/382/312 382/384/314
f 386/386/262 387/387/316 313/313/262
f 309/311/261 386/386/262 313/313/262
f 63/63/46 389/388/317 388/389/318
f 390/390/319 63/63/46 388/389/318
f 392/391/320 393/392/321 391/393/322
f 394/394/323 392/391/320 391/393/322
f 396/395/324 397/396/324 395/397/324
f 398/398/324 396/395/324 395/397/324
f 400/399/104 401/400/104 399/401/104
f 402/402/104 400/399/104 399/401/104
f 232/232/194 404/403/325 403/404/325
f 405/405/194 232/232/194 403/404/325
f 407/406/326 408/407/327 406/408/328
f 409/409/329 407/406/326 406/408/328
f 411/410/330 412/411/331 410/412/332
f 413/413/333 411/410/330 410/412/332
f 415/414/334 416/415/335 414/416/335
f 417/417/334 415/414/334 414/416/335
f 419/418/336 420/419/336 418/420/336
f 421/421/336 419/418/336 418/420/336
f 284/286/239 415/414/334 417/417/334
f 56/56/41 284/286/239 417/417/334
f 422/422/337 423/423/338 111/111/93
f 112/112/94 422/422/337 111/111/93
f 425/424/104 426/425/104 424/426/104
f 427/427/104 425/424/104 424/426/104
f 429/428/339 172/171/138 428/429/340
f 430/430/341 429/428/339 428/429/340
f 245/245/207 429/428/339 430/430/341
f 246/246/160 245/245/207 430/430/341
f 432/431/342 433/432/343 431/433/342
f 434/434/344 432/431/342 431/433/342
f 288/288/241 106/106/88 108/108/90
f 287/287/240 288/288/241 108/108/90
f 436/435/345 437/436/346 435/437/347
f 438/438/348 436/435/345 435/437/347
f 251/251/212 436/435/345 438/438/348
f 252/252/142 251/251/212 438/438/348
f 387/387/316 440/439/349 439/440/316
f 313/313/262 387/387/316 439/440/316
f 441/441/350 210/209/173 212/212/176
f 442/442/351 441/441/350 212/212/176
f 223/222/186 270/272/227 443/443/352
f 221/223/187 223/222/186 443/443/352
f 445/444/353 446/445/353 444/446/353
f 447/447/353 445/444/353 444/446/353
f 180/180/147 449/448/354 448/449/355
f 178/177/144 180/180/147 448/449/355
f 451/450/356 452/451/357 450/452/356
f 453/453/358 451/450/356 450/452/356
f 454/454/359 44/43/28 46/46/31
f 51/51/36 454/454/359 46/46/31
f 456/455/360 457/456/360 455/457/360
f 458/458/360 456/455/360 455/457/360
f 460/459/361 461/460/362 459/461/361
f 462/462/363 460/459/361 459/461/361
f 106/106/88 464/463/364 463/464/365
f 104/104/86 106/106/88 463/464/365
f 80/80/62 79/79/61 374/373/306
f 376/376/309 80/80/62 374/373/306
f 80/80/62 376/376/309 465/465/366
f 82/82/64 80/80/62 465/465/366
f 467/466/367 468/467/367 466/468/367
f 469/469/367 467/466/367 466/468/367
f 471/470/368 472/471/353 470/472/369
f 473/473/370 471/470/368 470/472/369
f 323/323/269 320/321/267 474/474/371
f 278/278/233 323/323/269 474/474/371
f 476/475/372 477/476/373 475/477/373
f 478/478/372 476/475/372 475/477/373
f 464/463/364 63/63/46 390/390/319
f 463/464/365 464/463/364 390/390/319
f 480/479/374 481/480/375 479/481/375
f 482/482/374 480/479/374 479/481/375
f 483/483/376 476/475/372 478/478/372
f 484/484/376 483/483/376 478/478/372
f 486/485/377 487/486/377 485/487/377
f 488/488/377 486/485/377 485/487/377
f 178/177/144 441/441/350 442/442/351
f 179/178/145 178/177/144 442/442/351
f 464/463/364 65/65/48 64/64/47
f 63/63/46 464/463/364 64/64/47
f 489/489/378 480/479/374 482/482/374
f 490/490/378 489/489/378 482/482/374
f 491/491/379 489/489/378 490/490/378
f 492/492/379 491/491/379 490/490/378
f 493/493/380 491/491/379 492/492/379
f 494/494/380 493/493/380 492/492/379
f 495/495/381 493/493/380 494/494/380
f 496/496/381 495/495/381 494/494/380
f 496/496/381 483/483/376 484/484/376
f 495/495/381 496/496/381 484/484/376
f 74/74/56 72/72/54 497/497/56
f 152/153/120 74/74/56 497/497/56
f 499/498/243 500/499/243 498/500/243
f 501/501/243 499/498/243 498/500/243
f 96/96/78 502/502/382 260/259/216
f 262/262/219 96/96/78 260/259/216
f 504/503/279 505/504/383 503/505/383
f 337/337/279 504/503/279 503/505/383
f 507/506/384 508/507/384 506/508/384
f 509/509/384 507/506/384 506/508/384
f 226/226/190 511/510/385 510/511/386
f 277/277/232 226/226/190 510/511/386
f 513/512/387 514/513/387 512/514/387
f 515/515/387 513/512/387 512/514/387
f 517/516/388 518/517/389 516/518/388
f 519/519/390 517/516/388 516/518/388
f 521/520/391 522/521/391 520/522/391
f 523/523/391 521/520/391 520/522/391
f 525/524/392 526/525/393 524/526/393
f 527/527/392 525/524/392 524/526/393
f 529/528/394 530/529/394 528/530/394
f 531/531/395 529/528/394 528/530/394
f 532/532/396 525/524/392 527/527/392
f 533/533/396 532/532/396 527/527/392
f 534/534/397 532/532/396 533/533/396
f 535/535/397 534/534/397 533/533/396
f 537/536/398 538/537/399 536/538/400
f 197/197/161 537/536/398 536/538/400
f 540/539/401 541/540/402 539/541/402
f 542/542/401 540/539/401 539/541/402
f 542/542/401 534/534/397 535/535/397
f 540/539/401 542/542/401 535/535/397
f 544/543/403 243/242/204 543/544/404
f 176/176/143 544/543/403 543/544/404
f 461/460/362 546/545/405 545/546/362
f 459/461/361 461/460/362 545/546/362
f 548/547/406 549/548/406 547/549/406
f 550/550/406 548/547/406 547/549/406
f 278/278/233 274/276/231 551/551/407
f 323/323/269 278/278/233 551/551/407
f 553/552/408 554/553/408 552/554/408
f 555/555/408 553/552/408 552/554/408
f 157/157/124 557/556/409 556/557/409
f 156/156/123 157/157/124 556/557/409
f 559/558/410 560/559/410 558/560/410
f 561/561/410 559/558/410 558/560/410
f 563/562/411 564/563/412 562/564/413
f 565/565/411 563/562/411 562/564/413
f 567/566/414 568/567/412 566/568/414
f 569/569/414 567/566/414 566/568/414
f 571/570/104 572/571/104 570/572/104
f 137/137/104 571/570/104 570/572/104
f 344/344/286 56/56/41 54/54/39
f 345/345/287 344/344/286 54/54/39
f 573/573/415 471/470/368 473/473/370
f 47/47/32 346/346/288 574/574/416
f 575/575/417 362/361/296 364/364/298
f 213/213/177 209/211/175 576/576/418
f 202/202/166 198/200/164 577/577/419
f 230/230/193 232/232/194 405/405/194
f 236/236/198 183/183/150 181/181/148
f 93/93/75 89/91/73 578/578/420
f 451/450/356 453/453/358 579/579/358
f 580/580/390 517/516/388 519/519/390
f 460/459/361 462/462/363 581/581/363
f 224/224/188 226/226/190 277/277/232
f 319/319/265 315/317/104 582/582/265
f 137/137/104 135/135/104 571/570/104
f 504/503/279 337/337/279 333/335/278
f 197/197/161 195/195/159 537/536/398
f 207/207/171 144/144/111 142/142/109
f 544/543/403 176/176/143 174/174/141
f 583/583/100 120/120/100 118/118/99
f 584/584/344 432/431/342 434/434/344
f 380/379/76 127/127/76 125/125/76
f 332/332/276 328/330/275 585/585/276
f 586/586/411 563/562/411 565/565/411
f 587/587/414 567/566/414 569/569/414
