# Blender v2.78 (sub 0) OBJ File: ''
# www.blender.org
mtllib True Master Sword Sheath.mtl
o EquipPodMaster.mo_EquipPodMaster.md
v 40.420055 3.224198 -56.470547
v 41.096359 -0.606259 -52.810982
v 41.096359 2.606258 -52.810982
v 40.420055 -1.224198 -56.470547
v 41.773277 3.145412 -56.202042
v 41.773277 -1.145412 -56.202042
v 45.079571 3.128302 -61.331726
v 45.079571 -1.128302 -61.331726
v 44.713028 3.147091 -63.199722
v 44.713028 -1.147091 -63.199722
v 46.039291 3.184671 -65.303909
v 46.039291 -1.184671 -65.303909
v 48.044159 3.036507 -66.087036
v 48.044159 -1.036507 -66.087036
v 49.992680 3.022627 -69.210571
v 49.992680 -1.022627 -69.210571
v 49.412735 3.200724 -71.886093
v 49.412735 -1.200724 -71.886093
v 10.559731 3.588662 -14.497895
v 7.099442 3.596658 -10.689095
v 10.570617 3.546931 -12.239738
v 14.798067 3.612860 -22.498762
v 15.637348 3.542201 -22.005333
v 16.042885 3.615525 -24.408310
v 19.684361 3.270645 -22.416050
v 22.953888 3.109999 -25.463970
v 16.026514 3.166466 -14.924118
v 24.619526 1.000000 -25.751442
v 17.043255 1.000000 -14.475529
v 16.026514 -1.166466 -14.924118
v 9.187958 3.588662 -15.392143
v 7.117441 -1.546931 -14.490833
v 7.117441 3.546931 -14.490833
v 9.187958 -1.588662 -15.392143
v 14.007914 3.542201 -23.067551
v 14.007914 -1.542201 -23.067551
v 12.750549 3.270645 -26.936146
v 12.750549 -1.270645 -26.936146
v 9.751829 3.253986 -22.276825
v 9.751829 -1.253986 -22.276825
v 8.958324 3.352982 -19.144575
v 8.958324 -1.352982 -19.144575
v 31.261538 -1.588662 -46.254402
v 33.350052 -1.596658 -50.957451
v 33.332054 -1.546931 -47.155716
v 25.651428 -1.612860 -39.147785
v 26.441582 -1.542201 -38.578995
v 24.406609 -1.615525 -37.238235
v 27.698946 -1.270645 -34.710400
v 26.229626 -1.109999 -30.488945
v 33.077656 -1.166466 -41.080513
v 26.638760 1.000000 -28.848938
v 33.898396 1.000000 -40.331264
v 33.077656 3.166466 -41.080513
v 31.261538 3.588662 -46.254402
v 33.332054 -1.546931 -47.155716
v 33.332054 3.546931 -47.155716
v 31.261538 -1.588662 -46.254402
v 26.441582 3.542201 -38.578995
v 26.441582 -1.542201 -38.578995
v 27.698946 3.270645 -34.710400
v 27.698946 -1.270645 -34.710400
v 30.697666 3.253986 -39.369720
v 30.697666 -1.253986 -39.369720
v 31.491169 3.352982 -42.501968
v 31.491169 -1.352982 -42.501968
v 51.588036 2.543121 -69.878281
v 54.647163 2.205831 -81.627213
v 49.412735 3.200724 -71.886093
v 51.987690 1.000000 -69.422348
v 41.096359 2.606258 -52.810982
v 42.051208 1.000000 -52.697540
v 41.096359 -0.606259 -52.810982
v 51.588036 -0.543121 -69.878281
v 54.647163 -0.205831 -81.627213
v 49.412735 -1.200724 -71.886093
v 43.301994 -0.543121 -75.279877
v 52.817299 -0.205831 -82.820091
v 46.016891 -1.200724 -74.099815
v 42.723557 1.000000 -75.461563
v 31.919979 -0.606259 -58.792992
v 31.430855 1.000000 -59.620857
v 31.919979 2.606258 -58.792992
v 43.301994 2.543121 -75.279877
v 52.817299 2.205831 -82.820091
v 46.016891 3.200724 -74.099815
v -0.804272 3.942143 5.544833
v 1.021504 3.942143 6.466231
v 0.549425 3.942143 5.251041
v -1.553385 3.942143 6.800296
v -1.263017 3.942143 3.972831
v -2.472715 3.942214 3.997661
v 4.468133 3.918067 -6.652675
v -2.939191 3.942143 2.880147
v -0.155821 3.942143 -1.391509
v 4.289104 3.534719 1.506102
v 1.520353 3.942143 -0.298824
v 7.457017 3.324652 -1.128879
v 3.167468 3.631737 3.226688
v 3.674378 3.392768 4.766223
v 1.875954 3.642793 3.207097
v 2.194887 3.547238 4.733032
v 43.378006 1.000000 -75.862396
v 17.556919 1.000000 -37.315136
v 19.536795 2.831090 -37.618813
v 19.536795 -0.831090 -37.618813
v 44.702011 -0.491089 -74.999023
v 25.223286 -1.243043 -38.491016
v 47.734013 -0.909811 -73.022400
v 50.766090 -0.491089 -71.045898
v -2.586271 1.000000 -7.244174
v -12.332714 1.000000 6.057929
v -11.004402 3.186450 6.498490
v -11.004402 -1.186450 6.498490
v -1.422746 -1.114270 -6.485682
v -4.794800 -1.677440 7.556635
v 2.634916 -1.577424 -3.840525
v 6.692577 -1.114270 -1.195369
v -12.019274 3.295122 6.792759
v -7.323403 3.033822 8.807499
v -7.311547 3.836647 8.543051
v -11.859975 2.482215 7.133265
v -12.331075 2.448759 6.007294
v -11.993359 1.000000 6.835240
v -12.442829 1.000000 5.452017
v -12.331075 -0.448759 6.007294
v -2.924572 -1.534719 -3.196435
v 4.468133 -1.918067 -6.652675
v -0.155821 -1.942143 -1.391509
v -1.792067 -1.324652 -7.158279
v -4.046208 -1.631737 -1.475849
v -5.659383 -1.392768 -1.318378
v -3.507098 -1.642793 -0.302072
v -5.031972 -1.547238 0.021902
v 47.728733 -1.308303 -73.014297
v 54.647163 -0.205831 -81.627213
v 49.412735 -1.200724 -71.886093
v 53.807549 -0.289576 -82.339188
v 52.817299 -0.205831 -82.820091
v 54.171906 1.000000 -82.898102
v 53.181744 1.000000 -83.378922
v 52.817299 2.205831 -82.820091
v 45.079571 3.128302 -61.331726
v 46.039291 3.184671 -65.303909
v 44.713028 3.147091 -63.199722
v 48.044159 3.036507 -66.087036
v 49.992680 3.022627 -69.210571
v -4.562633 -1.942143 3.094784
v -6.141433 -1.942143 1.796777
v -4.839845 -1.942143 1.737820
v -5.408003 -1.942143 4.287506
v -2.939191 -1.942143 2.880147
v -2.472715 -1.942214 3.997661
v -4.151112 0.404813 -7.176123
v -2.621673 1.641777 -6.929791
v -2.621870 0.404589 -6.929703
v -4.151015 1.642002 -7.176270
v -6.308777 0.405327 -3.866272
v -6.308677 1.642515 -3.866423
v -5.518630 1.642470 -2.485867
v 8.425323 1.595187 1.022351
v 7.582741 0.358223 -0.277617
v 7.582740 1.595411 -0.277400
v 8.425419 0.357998 1.022203
v 6.267658 1.594673 4.332204
v 6.267757 0.357485 4.332051
v 4.685784 0.357530 4.166307
v -0.627481 3.405554 12.223224
v -3.017508 -1.685410 9.798834
v -3.017508 3.685410 9.798834
v -0.627481 -1.405554 12.223224
v 0.621451 2.457558 12.269816
v 0.621451 -0.457558 12.269816
v 1.102005 1.000000 12.264737
v -4.704154 -1.785311 -3.367435
v -4.704154 3.530331 -3.367435
v -5.581935 1.074596 -3.939654
v -3.004574 4.046890 -2.259493
v 0.229775 -2.493270 -0.151048
v 0.229775 4.452932 -0.151048
v 3.464124 4.046890 1.957397
v -1.555917 2.482215 13.850403
v -1.180480 3.295122 13.858479
v -4.918885 3.033822 10.374987
v -0.335985 2.448759 13.826792
v -1.228219 1.000000 13.852967
v 0.217168 1.000000 13.704967
v -0.335985 -0.448759 13.826792
v -1.555917 -0.482215 13.850403
v -1.180480 -1.295123 13.858479
v -4.918885 -1.033822 10.374987
v -4.681708 -1.836647 10.257421
v -4.989076 -2.428568 7.854655
v 38.108704 -1.128302 -65.875977
v 41.355804 -1.184671 -68.357040
v 39.965759 -1.147091 -66.294426
v 41.263275 -1.036507 -70.507439
v 43.334866 -1.022627 -73.550735
v 6.732031 -1.784905 0.659533
v 6.732031 3.530744 0.659533
v 7.609811 1.075002 1.231751
v 5.032451 4.047309 -0.448408
v 1.798102 -2.493270 -2.556856
v 1.798102 4.453339 -2.556856
v -1.436248 4.047309 -4.665301
v 0.217168 1.000000 13.704967
v 1.102005 1.000000 12.264737
v 0.621451 2.457558 12.269816
v 0.621451 -0.457558 12.269816
v -0.335985 -0.448759 13.826792
v -1.180480 -1.295123 13.858479
v -4.704154 -1.785311 -3.367435
v -1.436248 -2.087444 -4.665301
v -3.004574 -2.087025 -2.259493
v -3.135828 -1.784905 -5.773244
v -5.581935 1.074596 -3.939654
v -4.013608 1.075002 -6.345460
v 6.692577 3.114270 -1.195369
v -1.320784 3.186450 12.811163
v 7.856102 1.000000 -0.436876
v -4.794800 3.677440 7.556635
v 2.634916 3.577424 -3.840525
v -1.422746 3.114270 -6.485682
v 26.720016 2.831090 -32.936131
v 20.991325 2.912092 -23.856937
v 22.875992 1.000000 -24.119377
v 15.153515 3.392108 -23.044018
v 25.223286 3.243043 -38.491016
v 19.536795 2.831090 -37.618813
v 7.099442 -1.596658 -10.689095
v 10.559731 -1.588662 -14.497895
v 10.570617 -1.546931 -12.239738
v 14.798067 -1.612860 -22.498762
v 9.187958 -1.588662 -15.392143
v 14.007914 -1.542201 -23.067551
v 24.422981 3.166466 -46.722427
v 23.818104 3.253986 -43.854446
v 26.363773 3.352982 -45.844479
v 20.765135 3.270645 -39.230495
v 17.495609 3.109999 -36.182575
v 24.406609 3.615525 -37.238235
v 50.766090 2.491089 -71.045898
v 26.720016 2.831090 -32.936131
v 52.090343 1.000000 -70.182892
v 25.223286 3.243043 -38.491016
v 47.734013 2.909811 -73.022400
v 44.702011 2.491089 -74.999023
v 27.241127 1.000000 -31.002075
v 26.720016 -0.831090 -32.936131
v 20.991325 -0.912092 -23.856937
v 15.153515 -1.392108 -23.044018
v -3.017508 3.685410 9.798834
v -3.475761 4.163995 5.533234
v -3.017508 3.969462 9.798834
v -3.475761 -2.163996 5.533234
v -3.017508 -1.685410 9.798834
v -3.017508 -1.969462 9.798834
v 33.350052 3.596658 -50.957451
v 31.261538 3.588662 -46.254402
v 33.332054 3.546931 -47.155716
v 25.651428 3.612860 -39.147785
v 29.889763 3.588662 -47.148647
v 24.812147 3.542201 -39.641212
v -5.220389 1.000000 8.209488
v -4.918885 3.033822 10.374987
v -5.220511 3.019802 8.209676
v -1.228219 1.000000 13.852967
v -4.918885 -1.033822 10.374987
v -1.555917 -0.482215 13.850403
v 7.371841 -1.166466 -20.566029
v 9.751829 -1.253986 -22.276825
v 8.958324 -1.352982 -19.144575
v 12.750549 -1.270645 -26.936146
v 14.219871 -1.109999 -31.157604
v 16.042885 -1.615525 -24.408310
v 54.647163 2.205831 -81.627213
v 47.728733 3.308303 -73.014297
v 49.412735 3.200724 -71.886093
v 53.807549 2.289576 -82.339188
v 13.541484 2.912092 -28.713428
v 13.021057 1.000000 -30.543728
v 17.556919 1.000000 -37.315136
v 19.536795 -0.831090 -37.618813
v 5.163705 3.530331 3.065341
v 5.032451 4.047309 -0.448408
v 3.464124 4.046890 1.957397
v 6.732031 3.530744 0.659533
v 6.041486 1.074596 3.637559
v 7.609811 1.075002 1.231751
v 25.223286 -1.243043 -38.491016
v 13.541484 -0.912092 -28.713428
v 13.541484 2.912092 -28.713428
v -1.422746 3.114270 -6.485682
v 15.153515 3.392108 -23.044018
v -2.586271 1.000000 -7.244174
v 13.021057 1.000000 -30.543728
v 13.541484 -0.912092 -28.713428
v 6.692577 -1.114270 -1.195369
v 20.991325 -0.912092 -23.856937
v 7.856102 1.000000 -0.436876
v 15.153515 -1.392108 -23.044018
v 2.634916 -1.577424 -3.840525
v -1.422746 -1.114270 -6.485682
v -11.292872 -0.457558 4.502968
v -12.331075 -0.448759 6.007294
v -12.442829 1.000000 5.452017
v -12.019274 -1.295123 6.792759
v -10.746241 -1.405554 5.626886
v -7.563540 -1.685410 6.835314
v 26.229626 3.109999 -30.488945
v 26.229626 -1.109999 -30.488945
v 26.638760 1.000000 -28.848938
v 24.406609 -1.615525 -37.238235
v 24.406609 3.615525 -37.238235
v -0.627481 -1.405554 12.223224
v -3.017508 -1.685410 9.798834
v -4.681708 -1.836647 10.257421
v -7.323403 3.033822 8.807499
v -5.220389 1.000000 8.209488
v -5.220511 3.019802 8.209676
v -11.993359 1.000000 6.835240
v -11.859975 2.482215 7.133265
v 43.334866 3.022627 -73.550735
v 41.263275 3.036507 -70.507439
v 38.108704 3.128302 -65.875977
v 34.749485 3.145412 -60.780788
v 35.541252 3.224198 -59.651001
v -1.792067 3.324652 -7.158279
v -1.792067 -1.324652 -7.158279
v -2.766378 1.000000 -7.602117
v 4.468133 -1.918067 -6.652675
v 4.468133 3.918067 -6.652675
v -1.792067 3.324652 -7.158279
v -4.046208 3.631737 -1.475849
v -2.924572 3.534719 -3.196435
v -5.659383 3.392768 -1.318378
v -6.195493 1.000000 -2.417314
v 24.422981 3.166466 -46.722427
v 24.422981 -1.166466 -46.722427
v 23.406239 1.000000 -47.171017
v 26.363773 -1.352982 -45.844479
v 26.363773 3.352982 -45.844479
v -4.989076 4.428567 7.854655
v -5.220511 3.019802 8.209676
v -4.681708 3.836647 10.257421
v -4.989076 -2.428568 7.854655
v -3.017508 -1.969462 9.798834
v -4.681708 -2.172411 10.257421
v -3.475761 -2.163996 5.533234
v -7.563540 -1.969462 6.835314
v -11.292872 2.457558 4.502968
v -12.019274 3.295122 6.792759
v -10.746241 3.405554 5.626886
v -12.331075 2.448759 6.007294
v 4.896205 1.000000 4.813273
v 8.256288 1.000000 -0.416532
v 7.457017 -1.324652 -1.128879
v 16.026514 3.166466 -14.924118
v 16.026514 -1.166466 -14.924118
v 17.043255 1.000000 -14.475529
v 14.085723 -1.352982 -15.802067
v 14.085723 3.352982 -15.802067
v -1.180480 3.295122 13.858479
v -3.017508 3.685410 9.798834
v -4.681708 3.836647 10.257421
v -0.627481 3.405554 12.223224
v -6.308777 1.594673 -3.866272
v -5.518630 0.357530 -2.485867
v -5.518830 1.594718 -2.485778
v -6.308677 0.357485 -3.866423
v -4.151015 0.357998 -7.176270
v 6.267658 0.405327 4.332204
v 4.685784 1.642470 4.166307
v 4.685783 0.405282 4.166524
v 6.267757 1.642515 4.332051
v 8.425419 1.642002 1.022203
v 20.991325 2.912092 -23.856937
v 6.692577 3.114270 -1.195369
v 22.875992 1.000000 -24.119377
v 2.634916 3.577424 -3.840525
v 22.953888 -1.109999 -25.463970
v 22.953888 3.109999 -25.463970
v 24.619526 1.000000 -25.751442
v 16.042885 3.615525 -24.408310
v 16.042885 -1.615525 -24.408310
v 3.167468 -1.631737 3.226688
v 4.289104 -1.534719 1.506102
v 3.674378 -1.392768 4.766223
v 15.829968 1.000000 -35.895103
v 23.406239 1.000000 -47.171017
v 24.422981 -1.166466 -46.722427
v 55.011406 1.000000 -82.186188
v 17.495609 -1.109999 -36.182575
v 20.765135 -1.270645 -39.230495
v 7.371841 -1.166466 -20.566029
v 7.371841 3.166466 -20.566029
v 6.551098 1.000000 -21.315281
v 8.958324 -1.352982 -19.144575
v 9.187958 3.588662 -15.392143
v 7.117441 3.546931 -14.490833
v 14.007914 3.542201 -23.067551
v 16.042885 3.615525 -24.408310
v 9.751829 3.253986 -22.276825
v 7.371841 3.166466 -20.566029
v 8.958324 3.352982 -19.144575
v 12.750549 3.270645 -26.936146
v 14.219871 3.109999 -31.157604
v 13.810735 1.000000 -32.797607
v 46.039291 -1.184671 -65.303909
v 45.079571 -1.128302 -61.331726
v 44.713028 -1.147091 -63.199722
v 48.044159 -1.036507 -66.087036
v 41.773277 -1.145412 -56.202042
v 40.420055 -1.224198 -56.470547
v 34.749485 -1.145412 -60.780788
v 49.992680 -1.022627 -69.210571
v 41.773277 3.145412 -56.202042
v 41.355804 3.184671 -68.357040
v 39.965759 3.147091 -66.294426
v 14.085723 3.352982 -15.802067
v 16.631392 -1.253986 -17.792095
v 14.085723 -1.352982 -15.802067
v 16.631392 3.253986 -17.792095
v 33.350052 3.596658 -50.957451
v 33.332054 -1.546931 -47.155716
v 33.350052 -1.596658 -50.957451
v 33.332054 3.546931 -47.155716
v 1.798102 4.453339 -2.556856
v 3.464124 4.046890 1.957397
v 5.032451 4.047309 -0.448408
v 0.229775 4.452932 -0.151048
v -1.436248 4.047309 -4.665301
v -4.704154 3.530331 -3.367435
v -3.004574 4.046890 -2.259493
v -3.135828 3.530744 -5.773244
v -3.004574 4.046890 -2.259493
v 1.798102 4.453339 -2.556856
v -1.436248 4.047309 -4.665301
v 0.229775 4.452932 -0.151048
v -5.581935 1.074596 -3.939654
v -4.013608 1.075002 -6.345460
v 5.032451 -2.087444 -0.448408
v 5.163705 -1.785311 3.065341
v 3.464124 -2.087025 1.957397
v 6.732031 -1.784905 0.659533
v 3.464124 -2.087025 1.957397
v 1.798102 -2.493270 -2.556856
v 5.032451 -2.087444 -0.448408
v 0.229775 -2.493270 -0.151048
v 6.041486 1.074596 3.637559
v 7.609811 1.075002 1.231751
v 1.798102 -2.493270 -2.556856
v -3.004574 -2.087025 -2.259493
v -1.436248 -2.087444 -4.665301
v 0.229775 -2.493270 -0.151048
v -3.017508 3.969462 9.798834
v -4.681708 3.836647 10.257421
v -3.017508 3.685410 9.798834
v -4.681708 4.172411 10.257421
v 7.117441 3.546931 -14.490833
v 7.099442 -1.596658 -10.689095
v 7.099442 3.596658 -10.689095
v 7.117441 -1.546931 -14.490833
v -0.335985 2.448759 13.826792
v -3.017508 3.969462 9.798834
v -4.989076 4.428567 7.854655
v -4.681708 4.172411 10.257421
v -3.475761 4.163995 5.533234
v 6.551098 1.000000 -21.315281
v 3.674378 3.392768 4.766223
v 2.194887 -1.547238 4.733032
v 3.674378 -1.392768 4.766223
v 2.194887 3.547238 4.733032
v 29.878880 -1.546931 -49.406807
v 33.350052 3.596658 -50.957451
v 33.350052 -1.596658 -50.957451
v 29.878880 3.546931 -49.406807
v 29.878880 -1.546931 -49.406807
v 29.889763 3.588662 -47.148647
v 29.878880 3.546931 -49.406807
v 29.889763 -1.588662 -47.148647
v 24.812147 3.542201 -39.641212
v 24.812147 -1.542201 -39.641212
v 20.765135 3.270645 -39.230495
v 20.765135 -1.270645 -39.230495
v 23.818104 3.253986 -43.854446
v 23.818104 -1.253986 -43.854446
v 26.363773 3.352982 -45.844479
v 26.363773 -1.352982 -45.844479
v 2.194887 3.547238 4.733032
v 1.875954 -1.642793 3.207097
v 2.194887 -1.547238 4.733032
v 1.875954 3.642793 3.207097
v 1.875954 3.642793 3.207097
v 3.167468 -1.631737 3.226688
v 1.875954 -1.642793 3.207097
v 3.167468 3.631737 3.226688
v 3.167468 3.631737 3.226688
v 4.289104 -1.534719 1.506102
v 3.167468 -1.631737 3.226688
v 4.289104 3.534719 1.506102
v 4.289104 3.534719 1.506102
v 1.520353 -1.942143 -0.298824
v 4.289104 -1.534719 1.506102
v 1.520353 3.942143 -0.298824
v 1.520353 3.942143 -0.298824
v -1.263017 -1.942143 3.972831
v 1.520353 -1.942143 -0.298824
v -1.263017 3.942143 3.972831
v -1.263017 3.942143 3.972831
v -0.804272 -1.942143 5.544833
v -1.263017 -1.942143 3.972831
v -0.804272 3.942143 5.544833
v -0.804272 3.942143 5.544833
v 0.549425 -1.942143 5.251041
v -0.804272 -1.942143 5.544833
v 0.549425 3.942143 5.251041
v 0.549425 3.942143 5.251041
v 1.021504 -1.942143 6.466231
v 0.549425 -1.942143 5.251041
v 1.021504 3.942143 6.466231
v 1.021504 3.942143 6.466231
v -1.553385 -1.942143 6.800296
v 1.021504 -1.942143 6.466231
v -1.553385 3.942143 6.800296
v -1.553385 3.942143 6.800296
v -2.472715 -1.942214 3.997661
v -1.553385 -1.942143 6.800296
v -2.472715 3.942214 3.997661
v -4.681708 -1.836647 10.257421
v -3.017508 -1.969462 9.798834
v -3.017508 -1.685410 9.798834
v -4.681708 -2.172411 10.257421
v 1.021504 -1.942143 6.466231
v -0.804272 -1.942143 5.544833
v 0.549425 -1.942143 5.251041
v -1.553385 -1.942143 6.800296
v -1.263017 -1.942143 3.972831
v 1.520353 -1.942143 -0.298824
v 5.163705 3.530331 3.065341
v 5.163705 -1.785311 3.065341
v 6.041486 1.074596 3.637559
v 1.875954 -1.642793 3.207097
v 2.194887 -1.547238 4.733032
v -7.563540 -1.685410 6.835314
v -10.746241 3.405554 5.626886
v -7.563540 3.685410 6.835314
v -10.746241 -1.405554 5.626886
v -7.311547 3.836647 8.543051
v -7.563540 3.969462 6.835314
v -7.563540 3.685410 6.835314
v -7.311547 4.172411 8.543051
v -6.141433 3.942143 1.796777
v -4.562633 3.942143 3.094784
v -4.839845 3.942143 1.737820
v -5.408003 3.942143 4.287506
v -7.563540 3.685410 6.835314
v -7.311547 3.836647 8.543051
v 33.077656 -1.166466 -41.080513
v 33.077656 3.166466 -41.080513
v 33.898396 1.000000 -40.331264
v 31.491169 -1.352982 -42.501968
v -11.482151 1.000000 4.061229
v -3.135828 3.530744 -5.773244
v -3.135828 -1.784905 -5.773244
v -4.013608 1.075002 -6.345460
v -7.563540 3.969462 6.835314
v -7.311547 4.172411 8.543051
v -0.155821 3.942143 -1.391509
v 30.697666 -1.253986 -39.369720
v 31.491169 -1.352982 -42.501968
v 55.011406 1.000000 -82.186188
v 31.919979 -0.606259 -58.792992
v 35.541252 3.224198 -59.651001
v 31.919979 2.606258 -58.792992
v 35.541252 -1.224198 -59.651001
v 34.749485 3.145412 -60.780788
v 34.749485 -1.145412 -60.780788
v 38.108704 3.128302 -65.875977
v 38.108704 -1.128302 -65.875977
v 39.965759 3.147091 -66.294426
v 39.965759 -1.147091 -66.294426
v 41.355804 3.184671 -68.357040
v 41.355804 -1.184671 -68.357040
v 41.263275 3.036507 -70.507439
v 41.263275 -1.036507 -70.507439
v 43.334866 3.022627 -73.550735
v 43.334866 -1.022627 -73.550735
v 46.016891 3.200724 -74.099815
v 46.016891 -1.200724 -74.099815
v 46.016891 -1.200724 -74.099815
v 47.728733 3.308303 -73.014297
v 46.016891 3.200724 -74.099815
v 47.728733 -1.308303 -73.014297
v -4.989076 4.428567 7.854655
v -5.220511 3.019802 8.209676
v 30.697666 3.253986 -39.369720
v 31.491169 3.352982 -42.501968
v 27.698946 3.270645 -34.710400
v -11.859975 -0.482215 7.133265
v -12.019274 -1.295123 6.792759
v -7.323403 -1.033822 8.807499
v -7.311547 -1.836647 8.543051
v -2.766378 1.000000 -7.602117
v -3.507098 3.642793 -0.302072
v -5.031972 3.547238 0.021902
v -5.031972 -1.547238 0.021902
v -5.659383 3.392768 -1.318378
v -5.659383 -1.392768 -1.318378
v -5.031972 3.547238 0.021902
v -3.507098 -1.642793 -0.302072
v -5.031972 3.547238 0.021902
v -5.031972 -1.547238 0.021902
v -3.507098 3.642793 -0.302072
v -4.046208 -1.631737 -1.475849
v -3.507098 3.642793 -0.302072
v -3.507098 -1.642793 -0.302072
v -4.046208 3.631737 -1.475849
v -2.924572 -1.534719 -3.196435
v -4.046208 3.631737 -1.475849
v -4.046208 -1.631737 -1.475849
v -2.924572 3.534719 -3.196435
v 53.181744 1.000000 -83.378922
v 7.457017 -1.324652 -1.128879
v 7.457017 3.324652 -1.128879
v 8.256288 1.000000 -0.416532
v 4.468133 -1.918067 -6.652675
v 49.412735 -1.200724 -71.886093
v 49.412735 3.200724 -71.886093
v -0.155821 -1.942143 -1.391509
v -2.924572 3.534719 -3.196435
v -2.924572 -1.534719 -3.196435
v -0.155821 3.942143 -1.391509
v -2.939191 -1.942143 2.880147
v -0.155821 3.942143 -1.391509
v -0.155821 -1.942143 -1.391509
v -2.939191 3.942143 2.880147
v -4.562633 -1.942143 3.094784
v -2.939191 3.942143 2.880147
v -2.939191 -1.942143 2.880147
v -4.562633 3.942143 3.094784
v -4.839845 -1.942143 1.737820
v -4.562633 3.942143 3.094784
v -4.562633 -1.942143 3.094784
v -4.839845 3.942143 1.737820
v -6.141433 -1.942143 1.796777
v -4.839845 3.942143 1.737820
v -4.839845 -1.942143 1.737820
v -6.141433 3.942143 1.796777
v -5.408003 -1.942143 4.287506
v -6.141433 3.942143 1.796777
v -6.141433 -1.942143 1.796777
v -5.408003 3.942143 4.287506
v -5.408003 3.942143 4.287506
v -5.408003 -1.942143 4.287506
v -7.563540 -1.969462 6.835314
v -7.311547 -1.836647 8.543051
v -7.563540 -1.685410 6.835314
v -7.311547 -2.172411 8.543051
v -7.563540 -1.685410 6.835314
v -3.475761 -2.163996 5.533234
v -7.563540 -1.969462 6.835314
v -7.563540 3.685410 6.835314
v 15.637348 -1.542201 -22.005333
v 16.042885 -1.615525 -24.408310
v -4.989076 -2.428568 7.854655
v -5.220511 -1.019802 8.209676
v 46.016891 3.200724 -74.099815
v 7.099442 -1.596658 -10.689095
v 10.570617 3.546931 -12.239738
v 7.099442 3.596658 -10.689095
v 10.570617 -1.546931 -12.239738
v 18.115852 3.693050 -27.588234
v 18.294092 -1.693050 -30.879362
v 18.115852 -1.693050 -27.588234
v 18.294092 3.693050 -30.879362
v 21.055176 3.693050 -29.079439
v 18.115852 -1.693050 -27.588234
v 21.055176 -1.693050 -29.079439
v 18.115852 3.693050 -27.588234
v 18.294092 3.693050 -30.879362
v 21.055176 -1.693050 -29.079439
v 18.294092 -1.693050 -30.879362
v 21.055176 3.693050 -29.079439
v 10.570617 -1.546931 -12.239738
v 10.559731 3.588662 -14.497895
v 10.570617 3.546931 -12.239738
v 10.559731 -1.588662 -14.497895
v 15.637348 3.542201 -22.005333
v 15.637348 -1.542201 -22.005333
v 18.294094 3.693050 -30.879366
v 18.472336 -1.693050 -34.170494
v 18.294094 -1.693050 -30.879366
v 18.472336 3.693050 -34.170494
v 21.233418 3.693050 -32.370571
v 18.294094 -1.693050 -30.879366
v 21.233418 -1.693050 -32.370571
v 18.294094 3.693050 -30.879366
v 18.472336 3.693050 -34.170494
v 21.233418 -1.693050 -32.370571
v 18.472336 -1.693050 -34.170494
v 21.233418 3.693050 -32.370571
v 19.684361 3.270645 -22.416050
v 19.684361 -1.270645 -22.416050
v 21.055176 3.693050 -29.079439
v 21.233416 -1.693050 -32.370567
v 21.055176 -1.693050 -29.079439
v 21.233416 3.693050 -32.370567
v 23.994499 3.693050 -30.570644
v 21.055176 -1.693050 -29.079439
v 23.994499 -1.693050 -30.570644
v 21.055176 3.693050 -29.079439
v 21.233416 3.693050 -32.370567
v 23.994499 -1.693050 -30.570644
v 21.233416 -1.693050 -32.370567
v 23.994499 3.693050 -30.570644
v -7.323403 -1.033822 8.807499
v -5.220511 -1.019802 8.209676
v -2.621870 0.404589 -6.929703
v -6.308777 0.405327 -3.866272
v -4.151112 0.404813 -7.176123
v -5.518830 0.405282 -2.485778
v -6.308677 1.642515 -3.866423
v -2.621673 1.641777 -6.929791
v -4.151015 1.642002 -7.176270
v -5.518630 1.642470 -2.485867
v -2.621673 0.358223 -6.929791
v -4.151112 1.595187 -7.176123
v -2.621870 1.595411 -6.929703
v -6.308777 1.594673 -3.866272
v -2.621870 1.595411 -6.929703
v -4.151112 1.595187 -7.176123
v -5.518830 1.594718 -2.485778
v 16.631392 -1.253986 -17.792095
v 14.085723 -1.352982 -15.802067
v 19.684361 -1.270645 -22.416050
v -2.621673 0.358223 -6.929791
v -6.308677 0.357485 -3.866423
v -4.151015 0.357998 -7.176270
v -5.518630 0.357530 -2.485867
v 7.582741 1.641777 -0.277617
v 8.425323 0.404813 1.022351
v 7.582740 0.404589 -0.277400
v 6.267658 0.405327 4.332204
v 7.582740 0.404589 -0.277400
v 8.425323 0.404813 1.022351
v 4.685783 0.405282 4.166524
v 1.520353 -1.942143 -0.298824
v 7.582741 1.641777 -0.277617
v 6.267757 1.642515 4.332051
v 8.425419 1.642002 1.022203
v 4.685784 1.642470 4.166307
v 26.441582 3.542201 -38.578995
v 24.406609 3.615525 -37.238235
v 7.582740 1.595411 -0.277400
v 6.267658 1.594673 4.332204
v 8.425323 1.595187 1.022351
v 4.685783 1.594718 4.166524
v 6.267757 0.357485 4.332051
v 7.582741 0.358223 -0.277617
v 8.425419 0.357998 1.022203
v 4.685784 0.357530 4.166307
v -11.292872 2.457558 4.502968
v -11.292872 -0.457558 4.502968
v -11.482151 1.000000 4.061229
v 27.241127 1.000000 -31.002075
v 26.720016 -0.831090 -32.936131
v 26.229626 3.109999 -30.488945
v -3.475761 4.163995 5.533234
v -7.563540 3.969462 6.835314
v 22.953888 -1.109999 -25.463970
v 16.631392 3.253986 -17.792095
v 14.085723 3.352982 -15.802067
v 14.219871 3.109999 -31.157604
v 14.219871 -1.109999 -31.157604
v 13.810735 1.000000 -32.797607
v 16.042885 3.615525 -24.408310
v 17.495609 -1.109999 -36.182575
v 17.495609 3.109999 -36.182575
v 15.829968 1.000000 -35.895103
v 24.406609 -1.615525 -37.238235
v 29.889763 -1.588662 -47.148647
v 29.878880 -1.546931 -49.406807
v 24.812147 -1.542201 -39.641212
v 24.406609 -1.615525 -37.238235
v -0.381654 1.000000 13.848726
v -1.320784 -1.186450 12.811163
v 23.818104 -1.253986 -43.854446
v 26.363773 -1.352982 -45.844479
v 3.674378 -1.392768 4.766223
v 4.896205 1.000000 4.813273
v 3.674378 3.392768 4.766223
v -4.681708 3.836647 10.257421
v -4.681708 4.172411 10.257421
v -4.989076 4.428567 7.854655
v -7.311547 -1.836647 8.543051
v -7.311547 -2.172411 8.543051
v -4.989076 -2.428568 7.854655
v -4.681708 -1.836647 10.257421
v -4.989076 -2.428568 7.854655
v -4.681708 -2.172411 10.257421
v -5.220511 -1.019802 8.209676
v -5.659383 -1.392768 -1.318378
v -5.659383 3.392768 -1.318378
v -6.195493 1.000000 -2.417314
v -7.311547 3.836647 8.543051
v -4.989076 4.428567 7.854655
v -7.311547 4.172411 8.543051
v 7.117441 -1.546931 -14.490833
v 29.878880 3.546931 -49.406807
v 35.541252 -1.224198 -59.651001
v 40.420055 3.224198 -56.470547
v 18.115852 3.693050 -27.588234
v 21.055176 3.693050 -29.079439
v 18.294092 3.693050 -30.879362
v 18.294092 -1.693050 -30.879362
v 21.055176 -1.693050 -29.079439
v 18.115852 -1.693050 -27.588234
v 18.294094 3.693050 -30.879366
v 21.233418 3.693050 -32.370571
v 18.472336 3.693050 -34.170494
v 18.472336 -1.693050 -34.170494
v 21.233418 -1.693050 -32.370571
v 18.294094 -1.693050 -30.879366
v 21.055176 3.693050 -29.079439
v 23.994499 3.693050 -30.570644
v 21.233416 3.693050 -32.370567
v 21.233416 -1.693050 -32.370567
v 23.994499 -1.693050 -30.570644
v 21.055176 -1.693050 -29.079439
v 31.491169 3.352982 -42.501968
v 8.958324 3.352982 -19.144575
v 24.406609 3.615525 -37.238235
v 1.520353 3.942143 -0.298824
v -1.555917 2.482215 13.850403
v 4.468133 3.918067 -6.652675
v 16.042885 -1.615525 -24.408310
v -5.220511 -1.019802 8.209676
v 46.016891 -1.200724 -74.099815
v -0.155821 -1.942143 -1.391509
v -7.311547 -1.836647 8.543051
v -7.311547 -2.172411 8.543051
v -11.859975 -0.482215 7.133265
v -5.518830 0.405282 -2.485778
v 4.685783 1.594718 4.166524
vt 0.9524 0.0381
vt 0.9524 0.0381
vt 0.8780 0.1899
vt 0.8780 0.1899
vt 0.8627 0.1142
vt 0.8627 0.1142
vt 0.6822 0.1161
vt 0.6822 0.1161
vt 0.6418 0.1946
vt 0.6418 0.1946
vt 0.5682 0.1968
vt 0.5682 0.1968
vt 0.5164 0.1228
vt 0.5164 0.1228
vt 0.4075 0.1271
vt 0.4075 0.1271
vt 0.3505 0.2424
vt 0.3505 0.2424
vt 0.9805 0.2228
vt 0.8574 0.3293
vt 0.8166 0.2637
vt 0.5314 0.2228
vt 0.5270 0.2704
vt 0.4598 0.2228
vt 0.4635 0.4020
vt 0.3528 0.4486
vt 0.6556 0.4465
vt 0.3123 0.5325
vt 0.6550 0.5243
vt 0.6556 0.4465
vt 0.8574 0.3293
vt 0.8574 0.3293
vt 0.8166 0.2637
vt 0.8166 0.2637
vt 0.5270 0.2704
vt 0.5270 0.2704
vt 0.4635 0.4020
vt 0.4635 0.4020
vt 0.5964 0.4006
vt 0.5964 0.4006
vt 0.6572 0.3552
vt 0.6572 0.3552
vt 0.9805 0.2228
vt 0.8574 0.3293
vt 0.8166 0.2637
vt 0.5314 0.2228
vt 0.5270 0.2704
vt 0.4598 0.2228
vt 0.4635 0.4020
vt 0.3528 0.4486
vt 0.6556 0.4465
vt 0.3123 0.5325
vt 0.6550 0.5243
vt 0.6556 0.4465
vt 0.8574 0.3293
vt 0.8574 0.3293
vt 0.8166 0.2637
vt 0.8166 0.2637
vt 0.5270 0.2704
vt 0.5270 0.2704
vt 0.4635 0.4020
vt 0.4635 0.4020
vt 0.5964 0.4006
vt 0.5964 0.4006
vt 0.6572 0.3552
vt 0.6572 0.3552
vt 0.0245 0.2977
vt 0.3505 0.2424
vt 0.3652 0.0696
vt 0.3700 -0.0004
vt 0.9524 0.0381
vt 0.9451 0.0000
vt 0.9524 0.0381
vt 0.3652 0.0696
vt 0.0245 0.2977
vt 0.3505 0.2424
vt 0.0245 0.2977
vt 0.3505 0.2424
vt 0.3652 0.0696
vt 0.3700 -0.0004
vt 0.9524 0.0381
vt 0.9451 0.0000
vt 0.9524 0.0381
vt 0.3652 0.0696
vt 0.0245 0.2977
vt 0.3505 0.2424
vt 0.1405 0.7471
vt 0.1682 0.8097
vt 0.1408 0.8672
vt 0.0908 0.8638
vt 0.1723 0.9406
vt 0.1453 0.9996
vt 0.5529 0.9996
vt 0.1723 0.9406
vt 0.3481 0.9406
vt 0.3477 0.9398
vt 0.3477 0.7452
vt 0.4642 0.6733
vt 0.2869 0.7452
vt 0.2619 0.6703
vt 0.2764 0.8099
vt 0.2437 0.7448
vt 0.9980 1.0359
vt 0.9634 1.0225
vt 0.9980 0.7021
vt 0.9634 1.0225
vt 0.9634 0.7021
vt 0.9066 0.9866
vt 0.9066 0.7021
vt 0.9634 0.7021
vt 1.0013 0.6570
vt 1.0013 0.5550
vt 0.8841 0.6570
vt 1.0013 0.5550
vt 0.8790 0.5550
vt 1.0013 0.3439
vt 0.8662 0.3439
vt 0.8790 0.5550
vt 0.1309 0.0762
vt 0.1264 0.0220
vt 0.0379 0.0460
vt 0.0529 0.1047
vt 0.0146 0.1031
vt 0.0461 0.1946
vt 0.0042 0.2005
vt 0.0146 0.1031
vt 0.5529 0.9996
vt 0.3477 0.9398
vt 0.3477 0.7452
vt 0.4642 0.6733
vt 0.2869 0.7452
vt 0.2619 0.6703
vt 0.2764 0.8099
vt 0.2437 0.7448
vt 0.0245 0.2977
vt 0.3505 0.2424
vt 0.3498 0.3619
vt 0.0204 0.3619
vt 0.0245 0.2977
vt 0.0000 0.3619
vt 0.0000 0.2562
vt 0.0245 0.2977
vt 0.5682 0.1968
vt 0.6418 0.1946
vt 0.6822 0.1161
vt 0.5164 0.1228
vt 0.4075 0.1271
vt 0.1405 0.7471
vt 0.1682 0.8097
vt 0.1408 0.8672
vt 0.0908 0.8638
vt 0.1723 0.9406
vt 0.1453 0.9996
vt 0.1354 0.4956
vt 0.1354 0.4028
vt 0.1740 0.4028
vt 0.1740 0.4956
vt 0.2552 0.4028
vt 0.2552 0.4956
vt 0.2938 0.4956
vt 0.1354 0.4956
vt 0.1354 0.4028
vt 0.1740 0.4028
vt 0.1740 0.4956
vt 0.2552 0.4028
vt 0.2552 0.4956
vt 0.2938 0.4956
vt 0.0776 0.6611
vt 0.0776 0.6611
vt 0.0574 0.8260
vt 0.0574 0.8260
vt 0.0750 0.9237
vt 0.0750 0.9237
vt 0.0895 0.9986
vt 0.6645 0.7143
vt 0.6769 0.6562
vt 0.6645 0.5885
vt 0.6404 0.7266
vt 0.5948 0.5717
vt 0.5948 0.7361
vt 0.6404 0.7266
vt 0.0379 0.0460
vt 0.1309 0.0762
vt 0.0529 0.1047
vt 0.0146 0.1031
vt 0.0461 0.1946
vt 0.0042 0.2005
vt 0.0146 0.1031
vt 0.0529 0.1047
vt 0.0379 0.0460
vt 0.1309 0.0762
vt 0.1264 0.0220
vt 0.1971 0.0118
vt 0.5682 0.1968
vt 0.6418 0.1946
vt 0.6822 0.1161
vt 0.5164 0.1228
vt 0.4075 0.1271
vt 0.6645 0.7143
vt 0.6769 0.6562
vt 0.6645 0.5885
vt 0.6404 0.7266
vt 0.5948 0.5717
vt 0.5948 0.7361
vt 0.6404 0.7266
vt 0.0895 0.9986
vt 0.0750 0.9237
vt 0.0450 0.9986
vt 0.0750 0.9237
vt 0.0301 0.9261
vt 0.0135 0.8507
vt 0.8549 0.4346
vt 0.6915 0.4346
vt 0.6915 0.4355
vt 0.8549 0.4355
vt 0.6915 0.4366
vt 0.8549 0.4366
vt 1.0013 0.5550
vt 0.8841 0.6570
vt 0.8790 0.5550
vt 1.0013 0.3439
vt 0.8662 0.3439
vt 0.8790 0.5550
vt 0.5925 0.9719
vt 0.6178 1.0266
vt 0.8096 0.9654
vt 0.5143 0.8068
vt 0.8871 0.8068
vt 0.8096 0.9654
vt 0.8166 0.2637
vt 0.8574 0.3293
vt 0.9805 0.2228
vt 0.5314 0.2228
vt 0.8166 0.2637
vt 0.5270 0.2704
vt 0.5964 0.4006
vt 0.6572 0.3552
vt 0.6556 0.4465
vt 0.4635 0.4020
vt 0.3528 0.4486
vt 0.4598 0.2228
vt 0.9634 1.0225
vt 0.9980 0.7021
vt 0.9634 0.7021
vt 0.9066 0.9866
vt 0.9066 0.7021
vt 0.9634 0.7021
vt 0.7825 1.0266
vt 0.8096 0.9654
vt 0.5925 0.9719
vt 0.5143 0.8068
vt 0.1578 0.5242
vt 0.0869 0.6455
vt 0.0776 0.6611
vt 0.1578 0.5242
vt 0.0776 0.6611
vt 0.0869 0.6455
vt 0.8166 0.2637
vt 0.8574 0.3293
vt 0.9805 0.2228
vt 0.5314 0.2228
vt 0.8166 0.2637
vt 0.5270 0.2704
vt 0.0039 0.4432
vt 0.0175 0.4432
vt 0.0175 0.4125
vt -0.0183 0.4125
vt 0.0039 0.4432
vt -0.0116 0.4314
vt 0.5964 0.4006
vt 0.6572 0.3552
vt 0.6556 0.4465
vt 0.4635 0.4020
vt 0.3528 0.4486
vt 0.4598 0.2228
vt 0.3498 0.3619
vt 0.3505 0.2424
vt 0.0245 0.2977
vt 0.0204 0.3619
vt 0.5925 0.9719
vt 0.6178 1.0266
vt 0.7825 1.0266
vt 0.8096 0.9654
vt 0.8549 0.3514
vt 0.6915 0.3514
vt 0.6915 0.3476
vt 0.8549 0.3476
vt 0.6915 0.3420
vt 0.8549 0.3420
vt 0.8871 0.8068
vt 0.5925 0.9719
vt 0.9634 1.2894
vt 0.8990 1.1138
vt 0.9634 1.0988
vt 0.9980 1.2962
vt 0.9980 1.0945
vt 0.9634 1.0988
vt 0.9634 1.0988
vt 0.9980 1.2962
vt 0.9634 1.2894
vt 0.8990 1.1138
vt 0.8990 1.2720
vt 0.9634 1.2894
vt 0.0301 0.9261
vt 0.0450 0.9986
vt 0.0750 0.9237
vt 0.0135 0.8507
vt 0.0574 0.8260
vt 0.0776 0.6611
vt 0.3528 0.4486
vt 0.3123 0.5325
vt 0.3528 0.4486
vt 0.4598 0.2228
vt 0.4598 0.2228
vt 0.0574 0.8260
vt 0.0776 0.6611
vt 0.0413 0.6035
vt 0.0175 0.4125
vt 0.0175 0.4432
vt 0.0039 0.4432
vt -0.0183 0.4125
vt -0.0116 0.4314
vt 0.4075 0.1271
vt 0.5164 0.1228
vt 0.6822 0.1161
vt 0.8627 0.1142
vt 0.8780 0.1899
vt 0.4642 0.6733
vt 0.4595 0.5663
vt 0.4642 0.6733
vt 0.5529 0.9996
vt 0.5529 0.9996
vt 0.2869 0.7452
vt 0.3477 0.7452
vt 0.4642 0.6733
vt 0.2619 0.6703
vt 0.2756 0.5639
vt 0.6556 0.4465
vt 0.6556 0.4465
vt 0.6556 0.4465
vt 0.6572 0.3552
vt 0.6572 0.3552
vt 0.1971 0.0118
vt 0.1949 0.0697
vt 0.1264 0.0220
vt 0.0869 0.6455
vt 0.0506 0.5878
vt 0.0879 0.5242
vt 0.1578 0.5242
vt 0.0869 0.6455
vt 0.0135 0.8507
vt 0.0574 0.8260
vt 0.0750 0.9237
vt 0.0301 0.9261
vt 0.2756 0.5639
vt 0.4595 0.5663
vt 0.4642 0.6733
vt 0.6556 0.4465
vt 0.6556 0.4465
vt 0.6556 0.4465
vt 0.6572 0.3552
vt 0.6572 0.3552
vt 0.0776 0.6611
vt 0.0413 0.6035
vt 0.0135 0.8507
vt 0.0574 0.8260
vt 0.2938 0.4956
vt 0.2938 0.4028
vt 0.2552 0.4028
vt 0.2552 0.4956
vt 0.1740 0.4956
vt 0.2938 0.4956
vt 0.2938 0.4028
vt 0.2552 0.4028
vt 0.2552 0.4956
vt 0.1740 0.4956
vt 0.9634 1.0988
vt 0.9634 1.2894
vt 0.9980 1.0945
vt 0.8990 1.2720
vt 0.3528 0.4486
vt 0.3123 0.5325
vt 0.3528 0.4486
vt 0.4598 0.2228
vt 0.4598 0.2228
vt 0.2869 0.7452
vt 0.3477 0.7452
vt 0.2619 0.6703
vt 0.6550 0.5243
vt 0.6556 0.4465
vt 0.3123 0.5325
vt 0.0000 0.2562
vt 0.4635 0.4020
vt 0.3528 0.4486
vt 0.6556 0.4465
vt 0.6556 0.4465
vt 0.6556 0.4465
vt 0.6572 0.3552
vt 0.8166 0.2637
vt 0.8574 0.3293
vt 0.5270 0.2704
vt 0.4598 0.2228
vt 0.6556 0.4465
vt 0.6572 0.3552
vt 0.5964 0.4006
vt 0.4635 0.4020
vt 0.3528 0.4486
vt 0.3123 0.5325
vt 0.6822 0.1161
vt 0.6418 0.1946
vt 0.5682 0.1968
vt 0.5164 0.1228
vt 0.8780 0.1899
vt 0.8627 0.1142
vt 0.8627 0.1142
vt 0.4075 0.1271
vt 0.8627 0.1142
vt 0.6418 0.1946
vt 0.5682 0.1968
vt 0.5964 0.4006
vt 0.6572 0.3552
vt 0.6572 0.3552
vt 0.5964 0.4006
vt 0.8574 0.3293
vt 0.9805 0.2228
vt 0.9805 0.2228
vt 0.8574 0.3293
vt 0.6912 0.3514
vt 0.8546 0.3514
vt 0.8546 0.5160
vt 0.6912 0.5160
vt 0.6915 0.6846
vt 0.6915 0.6808
vt 0.8549 0.6808
vt 0.8549 0.6846
vt 0.8546 0.5162
vt 0.8546 0.6808
vt 0.6912 0.6808
vt 0.6912 0.5162
vt 0.8549 0.6902
vt 0.6915 0.6902
vt 0.6915 0.3654
vt 0.6915 0.3662
vt 0.8549 0.3662
vt 0.8549 0.3654
vt 0.8546 0.4005
vt 0.8546 0.3662
vt 0.6912 0.3662
vt 0.6912 0.4005
vt 0.8549 0.3643
vt 0.6915 0.3643
vt 0.6912 0.4347
vt 0.8546 0.4347
vt 0.8546 0.4005
vt 0.6912 0.4005
vt 0.0413 0.6035
vt 0.0776 0.6611
vt 0.0869 0.6455
vt 0.0506 0.5878
vt 0.9805 0.2228
vt 0.9805 0.2228
vt 0.8574 0.3293
vt 0.8574 0.3293
vt 0.0301 0.9261
vt 0.0879 0.5242
vt 0.0506 0.5878
vt 0.0869 0.6455
vt 0.1578 0.5242
vt 0.6550 0.5243
vt 0.2437 0.7448
vt 0.2619 0.6703
vt 0.2619 0.6703
vt 0.2437 0.7448
vt 0.9805 0.2228
vt 0.9805 0.2228
vt 0.8574 0.3293
vt 0.8574 0.3293
vt 0.8166 0.2637
vt 0.8574 0.3293
vt 0.8574 0.3293
vt 0.8166 0.2637
vt 0.5270 0.2704
vt 0.5270 0.2704
vt 0.4635 0.4020
vt 0.4635 0.4020
vt 0.5964 0.4006
vt 0.5964 0.4006
vt 0.6572 0.3552
vt 0.6572 0.3552
vt 0.2764 0.8099
vt 0.2437 0.7448
vt 0.2437 0.7448
vt 0.2764 0.8099
vt 0.2869 0.7452
vt 0.2764 0.8099
vt 0.2764 0.8099
vt 0.2869 0.7452
vt 0.3477 0.7452
vt 0.2869 0.7452
vt 0.2869 0.7452
vt 0.3477 0.7452
vt 0.3477 0.9398
vt 0.3477 0.7452
vt 0.3477 0.7452
vt 0.3477 0.9398
vt 0.1723 0.9406
vt 0.3481 0.9406
vt 0.3481 0.9406
vt 0.1723 0.9406
vt 0.1408 0.8672
vt 0.1723 0.9406
vt 0.1723 0.9406
vt 0.1408 0.8672
vt 0.1682 0.8097
vt 0.1408 0.8672
vt 0.1408 0.8672
vt 0.1682 0.8097
vt 0.1405 0.7471
vt 0.1682 0.8097
vt 0.1682 0.8097
vt 0.1405 0.7471
vt 0.0908 0.8638
vt 0.1405 0.7471
vt 0.1405 0.7471
vt 0.0908 0.8638
vt 0.1453 0.9996
vt 0.0908 0.8638
vt 0.0908 0.8638
vt 0.1453 0.9996
vt 0.0869 0.6455
vt 0.0776 0.6611
vt 0.0413 0.6035
vt 0.0506 0.5878
vt 0.1408 0.8672
vt 0.1682 0.8097
vt 0.1405 0.7471
vt 0.0908 0.8638
vt 0.1723 0.9406
vt 0.3481 0.9406
vt 0.6645 0.5885
vt 0.6769 0.6562
vt 0.6645 0.7143
vt 0.2437 0.7448
vt 0.2764 0.8099
vt 0.0574 0.8260
vt 0.0776 0.6611
vt 0.0776 0.6611
vt 0.0574 0.8260
vt 0.0869 0.6455
vt 0.0776 0.6611
vt 0.0413 0.6035
vt 0.0506 0.5878
vt 0.1408 0.8672
vt 0.1682 0.8097
vt 0.1405 0.7471
vt 0.0908 0.8638
vt 0.0413 0.6035
vt 0.0776 0.6611
vt 0.6556 0.4465
vt 0.6556 0.4465
vt 0.6556 0.4465
vt 0.6572 0.3552
vt 0.0895 0.9986
vt 0.6645 0.5885
vt 0.6769 0.6562
vt 0.6645 0.7143
vt 0.0869 0.6455
vt 0.0506 0.5878
vt 0.3477 0.9398
vt 0.5964 0.4006
vt 0.6572 0.3552
vt 0.0000 0.2562
vt 0.8780 0.1899
vt 0.9524 0.0381
vt 0.9524 0.0381
vt 0.8780 0.1899
vt 0.8627 0.1142
vt 0.8627 0.1142
vt 0.6822 0.1161
vt 0.6822 0.1161
vt 0.6418 0.1946
vt 0.6418 0.1946
vt 0.5682 0.1968
vt 0.5682 0.1968
vt 0.5164 0.1228
vt 0.5164 0.1228
vt 0.4075 0.1271
vt 0.4075 0.1271
vt 0.3505 0.2424
vt 0.3505 0.2424
vt 0.3498 0.3619
vt 0.3505 0.2424
vt 0.3505 0.2424
vt 0.3498 0.3619
vt 0.1949 0.0697
vt 0.1971 0.0118
vt 0.6572 0.3552
vt 0.5964 0.4006
vt 0.4635 0.4020
vt 0.0529 0.1047
vt 0.0379 0.0460
vt 0.1309 0.0762
vt 0.1264 0.0220
vt 0.4595 0.5663
vt 0.2437 0.7448
vt 0.2764 0.8099
vt 0.2619 0.6703
vt 0.2619 0.6703
vt 0.2437 0.7448
vt 0.2437 0.7448
vt 0.2437 0.7448
vt 0.2437 0.7448
vt 0.2764 0.8099
vt 0.2764 0.8099
vt 0.2764 0.8099
vt 0.2764 0.8099
vt 0.2869 0.7452
vt 0.2869 0.7452
vt 0.2869 0.7452
vt 0.2869 0.7452
vt 0.3477 0.7452
vt 0.3477 0.7452
vt 0.0000 0.2562
vt 0.4642 0.6733
vt 0.4595 0.5663
vt 0.4642 0.6733
vt 0.5529 0.9996
vt 0.3505 0.2424
vt 0.3505 0.2424
vt 0.3477 0.7452
vt 0.3477 0.7452
vt 0.3477 0.9398
vt 0.3477 0.9398
vt 0.3481 0.9406
vt 0.3481 0.9406
vt 0.1723 0.9406
vt 0.1723 0.9406
vt 0.1723 0.9406
vt 0.1723 0.9406
vt 0.1408 0.8672
vt 0.1408 0.8672
vt 0.1408 0.8672
vt 0.1408 0.8672
vt 0.1682 0.8097
vt 0.1682 0.8097
vt 0.1682 0.8097
vt 0.1682 0.8097
vt 0.1405 0.7471
vt 0.1405 0.7471
vt 0.1405 0.7471
vt 0.1405 0.7471
vt 0.0908 0.8638
vt 0.0908 0.8638
vt 0.0908 0.8638
vt 0.0908 0.8638
vt 0.0413 0.6035
vt 0.0776 0.6611
vt 0.0869 0.6455
vt 0.0506 0.5878
vt 0.1578 0.5242
vt 0.0869 0.6455
vt 0.0776 0.6611
vt 0.0776 0.6611
vt 0.5270 0.2704
vt 0.4598 0.2228
vt 0.1971 0.0118
vt 0.1949 0.0697
vt 0.3505 0.2424
vt 0.8574 0.3293
vt 0.9805 0.2228
vt 0.9805 0.2228
vt 0.8574 0.3293
vt 0.5673 0.7459
vt 0.4800 0.6586
vt 0.4800 0.6586
vt 0.5673 0.7459
vt 0.4800 0.6586
vt 0.5673 0.5714
vt 0.5673 0.5714
vt 0.4800 0.6586
vt 0.5673 0.5714
vt 0.5673 0.7459
vt 0.5673 0.7459
vt 0.5673 0.5714
vt 0.8166 0.2637
vt 0.8574 0.3293
vt 0.8574 0.3293
vt 0.8166 0.2637
vt 0.5270 0.2704
vt 0.5270 0.2704
vt 0.5673 0.7459
vt 0.4800 0.6586
vt 0.4800 0.6586
vt 0.5673 0.7459
vt 0.4800 0.6586
vt 0.5673 0.5714
vt 0.5673 0.5714
vt 0.4800 0.6586
vt 0.5673 0.5714
vt 0.5673 0.7459
vt 0.5673 0.7459
vt 0.5673 0.5714
vt 0.4635 0.4020
vt 0.4635 0.4020
vt 0.5673 0.7459
vt 0.4800 0.6586
vt 0.4800 0.6586
vt 0.5673 0.7459
vt 0.4800 0.6586
vt 0.5673 0.5714
vt 0.5673 0.5714
vt 0.4800 0.6586
vt 0.5673 0.5714
vt 0.5673 0.7459
vt 0.5673 0.7459
vt 0.5673 0.5714
vt 0.0039 0.4432
vt 0.0175 0.4432
vt -0.0580 0.5089
vt 0.0533 0.5089
vt 0.0746 0.4126
vt -0.0750 0.4126
vt 0.0746 0.4126
vt 0.0533 0.5089
vt -0.0580 0.5089
vt -0.0750 0.4126
vt 0.1740 0.4028
vt 0.1354 0.4028
vt 0.1354 0.4956
vt 0.0746 0.4126
vt 0.0533 0.5089
vt -0.0580 0.5089
vt -0.0750 0.4126
vt 0.6572 0.3552
vt 0.5964 0.4006
vt 0.4635 0.4020
vt -0.0580 0.5089
vt 0.0533 0.5089
vt 0.0746 0.4126
vt -0.0750 0.4126
vt 0.1740 0.4028
vt 0.1354 0.4028
vt 0.1354 0.4956
vt 0.0746 0.4126
vt 0.0533 0.5089
vt -0.0580 0.5089
vt -0.0750 0.4126
vt 0.3477 0.9398
vt -0.0580 0.5089
vt 0.0533 0.5089
vt 0.0746 0.4126
vt -0.0750 0.4126
vt 0.5270 0.2704
vt 0.4598 0.2228
vt -0.0580 0.5089
vt 0.0533 0.5089
vt 0.0746 0.4126
vt -0.0750 0.4126
vt 0.0746 0.4126
vt 0.0533 0.5089
vt -0.0580 0.5089
vt -0.0750 0.4126
vt 0.0750 0.9237
vt 0.0895 0.9986
vt 0.0750 0.9237
vt 0.9980 1.0359
vt 0.9634 1.0225
vt 0.3528 0.4486
vt 0.0869 0.6455
vt 0.1578 0.5242
vt 0.3528 0.4486
vt 0.5964 0.4006
vt 0.6572 0.3552
vt 0.3528 0.4486
vt 0.3123 0.5325
vt 0.3528 0.4486
vt 0.4598 0.2228
vt 0.3528 0.4486
vt 0.3123 0.5325
vt 0.3528 0.4486
vt 0.4598 0.2228
vt 0.8166 0.2637
vt 0.8574 0.3293
vt 0.5270 0.2704
vt 0.4598 0.2228
vt 1.0013 0.6570
vt 1.0013 0.5550
vt 0.6572 0.3552
vt 0.5964 0.4006
vt 0.2756 0.5639
vt 0.2619 0.6703
vt 0.2619 0.6703
vt 0.0506 0.5878
vt 0.0879 0.5242
vt 0.0413 0.6035
vt 0.0506 0.5878
vt 0.0879 0.5242
vt 0.0413 0.6035
vt 0.0879 0.5242
vt 0.0506 0.5878
vt 0.0413 0.6035
vt 0.0175 0.4432
vt 0.2619 0.6703
vt 0.2756 0.5639
vt 0.2619 0.6703
vt 0.0879 0.5242
vt 0.0506 0.5878
vt 0.0413 0.6035
vt 0.8574 0.3293
vt 0.8574 0.3293
vt 0.8780 0.1899
vt 0.8780 0.1899
vt 0.5673 0.5714
vt 0.5673 0.7459
vt 0.4800 0.6586
vt 0.5673 0.5714
vt 0.4800 0.6586
vt 0.5673 0.7459
vt 0.5673 0.5714
vt 0.5673 0.7459
vt 0.4800 0.6586
vt 0.5673 0.5714
vt 0.4800 0.6586
vt 0.5673 0.7459
vt 0.5673 0.5714
vt 0.5673 0.7459
vt 0.4800 0.6586
vt 0.5673 0.5714
vt 0.4800 0.6586
vt 0.5673 0.7459
vt 0.6572 0.3552
vt 0.6572 0.3552
vt 0.4598 0.2228
vt 0.3481 0.9406
vt -0.0116 0.4314
vt 0.5529 0.9996
vt 0.4598 0.2228
vt 0.1949 0.0697
vt 0.3505 0.2424
vt 0.3481 0.9406
vt 0.0413 0.6035
vt 0.0506 0.5878
vt -0.0116 0.4314
vt 0.2938 0.4028
vt 0.2938 0.4028
vn -0.9833 0.0000 0.1817
vn 0.1946 0.0000 -0.9809
vn -0.8405 0.0000 -0.5418
vn -0.9813 0.0000 0.1926
vn -0.8460 0.0000 -0.5332
vn -0.3638 0.0000 -0.9315
vn -0.8484 0.0000 -0.5293
vn -0.9773 0.0000 0.2118
vn 0.0225 0.9996 0.0184
vn 0.0135 0.9999 0.0102
vn 0.0627 0.9974 0.0362
vn 0.0601 0.9974 0.0406
vn 0.0712 0.9966 0.0424
vn 0.0776 0.9965 0.0307
vn 0.1130 0.9912 0.0689
vn 0.7221 0.5058 0.4719
vn 0.7409 0.4508 0.4978
vn 0.7409 -0.4508 0.4978
vn -0.3991 0.0000 -0.9169
vn -0.8469 0.0000 -0.5318
vn -0.9510 0.0000 0.3091
vn 0.8409 0.0000 0.5412
vn 0.9694 0.0000 0.2456
vn 0.0259 -0.9996 0.0132
vn 0.0148 -0.9999 0.0083
vn 0.0584 -0.9974 0.0427
vn 0.0614 -0.9974 0.0386
vn 0.0675 -0.9966 0.0480
vn 0.0594 -0.9965 0.0586
vn 0.1087 -0.9912 0.0755
vn 0.7232 -0.5058 0.4703
vn 0.7545 -0.4508 0.4770
vn 0.7545 0.4508 0.4770
vn 0.3991 0.0000 0.9169
vn 0.8469 0.0000 0.5318
vn 0.9510 0.0000 -0.3091
vn -0.8409 0.0000 -0.5412
vn -0.9694 0.0000 -0.2456
vn 0.2560 0.9659 0.0389
vn 0.9230 0.3074 0.2315
vn 0.7982 0.3513 0.4894
vn 0.7542 0.4800 0.4481
vn -0.1180 0.0000 0.9930
vn 0.7542 -0.4800 0.4481
vn 0.7982 -0.3513 0.4894
vn 0.9230 -0.3074 0.2315
vn 0.2560 -0.9659 0.0389
vn -0.1390 -0.9659 -0.2186
vn -0.5843 -0.3074 -0.7511
vn -0.7699 -0.3513 -0.5328
vn -0.7143 -0.4800 -0.5092
vn -0.8610 0.0000 0.5087
vn -0.7143 0.4800 -0.5092
vn -0.7699 0.3513 -0.5328
vn -0.5843 0.3074 -0.7511
vn -0.1390 0.9659 -0.2186
vn 0.0000 1.0000 0.0000
vn 0.0001 1.0000 0.0000
vn 0.0000 1.0000 -0.0023
vn 0.0021 1.0000 -0.0009
vn 0.0201 0.9997 0.0131
vn 0.1140 0.9923 0.0491
vn 0.1066 0.9931 0.0490
vn 0.0423 0.9987 -0.0287
vn 0.1685 0.9809 0.0968
vn 0.0062 0.9885 0.1514
vn 0.1029 0.9939 0.0407
vn -0.6469 0.6276 -0.4333
vn -0.6469 -0.6276 -0.4333
vn -0.5662 -0.7273 -0.3878
vn -0.0819 -0.9946 -0.0642
vn -0.0919 -0.9933 -0.0695
vn 0.1007 -0.9933 0.0560
vn -0.6889 0.5202 -0.5048
vn -0.6889 -0.5202 -0.5048
vn -0.6714 -0.5483 -0.4985
vn -0.0691 -0.9960 -0.0565
vn -0.0757 -0.9954 -0.0581
vn 0.0837 -0.9954 0.0458
vn -0.3626 0.2964 0.8836
vn -0.3622 0.2989 0.8829
vn -0.9221 -0.0189 0.3864
vn -0.9226 0.0054 0.3858
vn -0.9501 -0.0450 0.3087
vn -0.9501 0.0450 0.3087
vn -0.0909 -0.9923 -0.0845
vn -0.0879 -0.9931 -0.0778
vn 0.0092 -0.9987 -0.0503
vn -0.1565 -0.9809 -0.1151
vn -0.1410 -0.9885 0.0555
vn -0.0788 -0.9939 -0.0777
vn 0.0967 -0.9941 -0.0496
vn 0.1229 -0.9920 -0.0283
vn -0.0237 -0.9920 -0.1239
vn 0.3577 -0.4546 -0.8157
vn 0.3829 -0.4812 -0.7886
vn 0.3829 0.4812 -0.7886
vn -0.0094 0.9999 0.0119
vn 0.0873 0.9956 0.0352
vn 0.3294 0.9254 0.1875
vn 0.3653 0.9036 0.2238
vn 0.2883 0.9575 0.0012
vn 0.0000 -1.0000 0.0000
vn -0.0000 -1.0000 -0.0001
vn 0.0021 -1.0000 -0.0009
vn 0.1591 -0.0001 -0.9873
vn -0.8377 0.0000 -0.5461
vn -0.8679 0.0001 0.4967
vn 0.8391 0.0001 -0.5440
vn 0.8377 0.0000 0.5461
vn -0.1042 -0.0001 0.9946
vn 0.7121 0.0000 -0.7020
vn 0.0373 0.0000 -0.9993
vn -0.0106 0.0000 -0.9999
vn -0.5461 0.0000 0.8377
vn -0.6617 0.2988 0.6877
vn 0.0188 -0.0186 0.9996
vn 0.0195 0.0060 0.9998
vn 0.1018 -0.0447 0.9938
vn 0.1018 0.0447 0.9938
vn 0.0195 -0.0060 0.9998
vn 0.0188 0.0186 0.9996
vn -0.6617 -0.2988 0.6877
vn -0.6621 -0.2964 0.6883
vn -0.9327 -0.3040 0.1942
vn -0.0071 -0.9999 0.0134
vn -0.0675 -0.9956 -0.0657
vn -0.3045 -0.9254 -0.2258
vn -0.3522 -0.9036 -0.2439
vn -0.1175 -0.9575 -0.2633
vn 0.5461 0.0000 -0.8377
vn 0.8207 0.2688 0.5042
vn 0.8207 -0.2688 0.5042
vn 0.8194 -0.2704 0.5054
vn 0.6545 -0.6378 0.4061
vn -0.1233 -0.9891 -0.0802
vn -0.1235 -0.9891 -0.0807
vn -0.7866 -0.3440 -0.5128
vn 0.7271 0.5483 0.4131
vn 0.0796 0.9960 0.0404
vn 0.0837 0.9954 0.0458
vn -0.0757 0.9954 -0.0581
vn 0.6745 0.6071 0.4201
vn 0.0883 0.9950 0.0469
vn 0.0905 0.9947 0.0494
vn -0.0817 0.9947 -0.0629
vn 0.0225 -0.9996 0.0184
vn 0.0135 -0.9999 0.0102
vn -0.0148 -0.9999 -0.0083
vn -0.0584 -0.9974 -0.0427
vn -0.0748 0.9961 -0.0462
vn -0.0597 0.9973 -0.0430
vn -0.1130 0.9912 -0.0689
vn -0.0776 0.9965 -0.0307
vn 0.5833 0.7273 0.3616
vn 0.0918 0.9946 0.0490
vn 0.1007 0.9933 0.0560
vn -0.0919 0.9933 -0.0695
vn 0.6575 0.6276 0.4170
vn 0.6575 -0.6276 0.4170
vn 0.6745 -0.6071 0.4201
vn 0.0883 -0.9950 0.0469
vn 0.9943 0.0000 -0.1068
vn 0.0259 0.9996 0.0132
vn 0.0148 0.9999 0.0083
vn -0.0135 0.9999 -0.0102
vn -0.0627 0.9974 -0.0362
vn -0.9904 -0.0001 0.1380
vn -0.7320 -0.4428 0.5178
vn -0.7320 0.4428 0.5178
vn -0.7220 0.1585 0.6735
vn -0.0725 -0.9961 -0.0498
vn -0.0635 -0.9973 -0.0373
vn -0.1087 -0.9912 -0.0755
vn -0.0594 -0.9965 -0.0586
vn 0.0967 0.9941 -0.0496
vn 0.1229 0.9920 -0.0283
vn 0.6020 0.4546 -0.6565
vn 0.3577 0.4546 -0.8157
vn -0.0785 0.9950 -0.0619
vn -0.6566 0.6071 -0.4476
vn 0.2066 0.9691 0.1349
vn 0.7705 0.3925 0.5023
vn 0.0905 -0.9947 0.0494
vn -0.0817 -0.9947 -0.0629
vn -0.0785 -0.9950 -0.0619
vn -0.6566 -0.6071 -0.4476
vn -0.6910 0.5490 -0.4702
vn -0.6618 0.6045 -0.4433
vn -0.6618 -0.6045 -0.4433
vn 0.7091 -0.5490 0.4425
vn 0.0841 -0.9954 0.0452
vn -0.0753 -0.9954 -0.0587
vn -0.7931 -0.2704 -0.5458
vn -0.6356 -0.6378 -0.4349
vn -0.4613 -0.7760 -0.4302
vn -0.0872 -0.9962 -0.0009
vn -0.9703 0.0000 0.2421
vn -0.9654 0.0000 0.2608
vn 0.5797 -0.7760 0.2485
vn 0.0360 -0.9962 0.0795
vn 0.1037 -0.9934 0.0486
vn 0.2735 -0.0001 0.9619
vn -0.1783 -0.4427 0.8787
vn -0.3249 -0.1582 0.9324
vn -0.1175 0.9575 -0.2633
vn -0.3522 0.9036 -0.2439
vn -0.3045 0.9254 -0.2258
vn -0.3757 0.8887 -0.2628
vn -0.3298 0.9179 -0.2205
vn -0.1583 0.9865 0.0422
vn 0.4146 0.0000 -0.9100
vn 0.0805 0.0000 -0.9968
vn 0.0092 0.9987 -0.0503
vn -0.1565 0.9809 -0.1151
vn -0.7606 0.4039 -0.5084
vn 0.4037 0.0000 -0.9149
vn 0.4122 0.0000 -0.9111
vn -0.9719 0.1935 0.1341
vn -0.9327 0.3040 0.1942
vn -0.6621 0.2964 0.6883
vn 0.1441 -0.9858 0.0867
vn 0.2056 -0.9784 0.0225
vn -0.1036 -0.9784 -0.1790
vn -0.4613 0.7760 -0.4302
vn -0.6356 0.6378 -0.4349
vn -0.7931 0.2704 -0.5458
vn 0.7721 0.4039 0.4907
vn 0.7658 0.4141 0.4920
vn 0.7658 -0.4141 0.4920
vn -0.4037 0.0000 0.9149
vn -0.4122 0.0000 0.9111
vn 0.1037 0.9934 0.0486
vn 0.0360 0.9962 0.0795
vn 0.5797 0.7760 0.2485
vn -0.8679 -0.0002 0.4967
vn -0.8679 -0.0001 0.4967
vn -0.1042 0.0002 0.9946
vn -0.1042 0.0001 0.9946
vn 0.7091 0.5490 0.4425
vn 0.6727 0.6045 0.4266
vn 0.6727 -0.6045 0.4266
vn 0.0841 0.9954 0.0452
vn -0.0753 0.9954 -0.0587
vn -0.1701 0.0000 -0.9854
vn -0.1510 0.0000 -0.9885
vn 0.0423 -0.9987 -0.0287
vn 0.1685 -0.9809 0.0968
vn 0.7721 -0.4039 0.4907
vn -0.7409 -0.4508 -0.4978
vn -0.7409 0.4508 -0.4978
vn -0.7221 0.5058 -0.4719
vn 0.6020 -0.4546 -0.6565
vn 0.5670 -0.4812 -0.6686
vn 0.5670 0.4812 -0.6686
vn -0.1130 -0.9912 -0.0689
vn -0.7221 -0.5058 -0.4719
vn -0.6742 0.0000 0.7385
vn -0.6673 0.0000 0.7448
vn -0.0614 -0.9974 -0.0386
vn -0.0675 -0.9966 -0.0480
vn -0.0601 0.9974 -0.0406
vn -0.0712 0.9966 -0.0424
vn -0.0259 0.9996 -0.0132
vn -0.0148 0.9999 -0.0083
vn -0.0584 0.9974 -0.0427
vn -0.0614 0.9974 -0.0386
vn -0.0725 0.9961 -0.0498
vn -0.0635 0.9973 -0.0373
vn -0.0675 0.9966 -0.0480
vn -0.0594 0.9965 -0.0586
vn -0.1087 0.9912 -0.0755
vn -0.7232 0.5058 -0.4703
vn -0.0094 -0.9999 0.0119
vn 0.0873 -0.9956 0.0352
vn 0.0253 -0.9865 0.1619
vn 0.3349 -0.9179 0.2128
vn -0.3757 -0.8887 -0.2628
vn -0.3298 -0.9179 -0.2205
vn 0.3921 -0.8887 0.2377
vn 0.3294 -0.9254 0.1875
vn 0.3653 -0.9036 0.2238
vn 0.2883 -0.9575 0.0012
vn 0.3921 0.8887 0.2377
vn 0.3349 0.9179 0.2128
vn -0.0071 0.9999 0.0134
vn -0.0675 0.9956 -0.0657
vn -0.6159 0.0000 -0.7878
vn 1.0000 0.0000 0.0047
vn 0.0875 0.9945 0.0572
vn -0.2068 0.9691 -0.1346
vn -0.0877 0.9945 -0.0570
vn -0.7705 0.3925 -0.5022
vn 0.1231 -0.9891 0.0805
vn 0.1236 -0.9891 0.0804
vn 0.0875 -0.9945 0.0572
vn 0.0877 -0.9945 0.0571
vn 0.7866 -0.3440 0.5127
vn -0.0877 -0.9945 -0.0570
vn -0.0877 -0.9945 -0.0571
vn 0.2657 0.0000 0.9641
vn -1.0000 0.0000 -0.0047
vn 0.6545 0.6378 0.4061
vn 0.8194 0.2704 0.5054
vn 0.1441 0.9858 0.0867
vn 0.2056 0.9784 0.0225
vn -0.7232 -0.5058 -0.4703
vn -0.7545 -0.4508 -0.4770
vn -0.0224 0.0000 0.9997
vn -0.4079 0.0000 -0.9130
vn -1.0000 0.0000 0.0048
vn -0.8283 0.0000 -0.5602
vn -0.1010 0.0000 -0.9949
vn 0.8345 0.0000 0.5510
vn 0.6159 0.0000 0.7878
vn -0.9788 0.0000 0.2046
vn 0.0152 0.0000 -0.9999
vn 0.8378 0.0000 0.5459
vn 0.9600 0.0000 -0.2801
vn -0.2121 0.0000 -0.9772
vn 0.9321 0.0000 -0.3621
vn 0.1287 0.0000 0.9917
vn -0.9502 0.0000 0.3117
vn 0.0001 -1.0000 0.0000
vn -0.0202 -0.9997 -0.0132
vn 0.0000 -1.0000 -0.0023
vn 0.1029 -0.9939 0.0407
vn 0.0062 -0.9885 0.1514
vn 0.3550 0.0000 -0.9349
vn -0.9893 0.0000 0.1460
vn -0.0000 1.0000 -0.0001
vn -0.0863 0.9934 -0.0752
vn -0.0872 0.9962 -0.0009
vn 0.6742 0.0000 -0.7385
vn 0.6673 0.0000 -0.7448
vn -0.7925 0.2688 -0.5474
vn -0.7925 -0.2688 -0.5474
vn -0.1374 0.9858 -0.0969
vn -0.1036 0.9784 -0.1790
vn -0.0909 0.9923 -0.0845
vn -0.0879 0.9931 -0.0778
vn 0.0635 -0.9973 0.0373
vn 0.0725 -0.9961 0.0498
vn 0.9565 -0.1839 0.2266
vn 0.9565 0.1839 0.2266
vn 0.2306 0.0000 0.9731
vn 0.8189 0.0000 -0.5739
vn 0.8349 0.0000 0.5504
vn 0.2198 0.0000 0.9755
vn 0.8293 0.0000 0.5589
vn 0.9991 0.0000 -0.0430
vn 0.8267 0.0000 0.5627
vn 0.2006 0.0000 0.9797
vn -0.5355 0.0000 0.8445
vn 0.2695 0.1935 0.9434
vn 0.1987 0.3040 0.9317
vn 0.0725 0.9961 0.0498
vn 0.0635 0.9973 0.0373
vn -0.9226 -0.0054 0.3858
vn -0.9221 0.0189 0.3864
vn -0.3622 -0.2989 0.8829
vn -0.3626 -0.2964 0.8836
vn -0.7592 0.4141 -0.5021
vn -0.7592 -0.4141 -0.5021
vn -0.0788 0.9939 -0.0777
vn -0.1410 0.9885 0.0555
vn -0.9057 0.0000 0.4240
vn 0.2078 0.0000 0.9782
vn 0.9087 0.0000 -0.4174
vn -0.5933 -0.1839 -0.7837
vn -0.5933 0.1839 -0.7837
vn 0.6653 0.0000 -0.7465
vn 0.8795 0.0000 -0.4759
vn -0.5566 0.0000 0.8308
vn -0.8378 0.0000 -0.5459
vn -0.1311 0.0000 -0.9914
vn 0.9798 0.0000 -0.2002
vn -0.0452 0.0000 -0.9990
vn -0.0453 0.0000 -0.9990
vn -0.9593 0.0000 0.2825
vn 0.0983 0.0000 0.9952
vn -0.3035 0.0000 -0.9528
vn 0.0627 -0.9974 0.0362
vn 0.0601 -0.9974 0.0406
vn 0.2695 -0.1935 0.9434
vn 0.1987 -0.3040 0.9317
vn 0.0063 0.9941 -0.1085
vn -0.0237 0.9920 -0.1239
vn 0.4079 0.0000 0.9130
vn -0.9985 0.0000 -0.0541
vn 0.4524 0.0000 0.8918
vn 1.0000 0.0000 -0.0048
vn 0.8283 0.0000 0.5602
vn 0.1010 0.0000 0.9949
vn -0.8345 0.0000 -0.5510
vn 0.2735 0.0001 0.9619
vn -0.1783 0.4427 0.8787
vn -0.0002 -1.0000 0.0001
vn 0.0002 1.0000 -0.0001
vn 0.1591 0.0001 -0.9873
vn -0.0002 1.0000 0.0001
vn 0.0748 -0.9961 0.0462
vn 0.0597 -0.9973 0.0430
vn 0.0002 -1.0000 -0.0001
vn 0.8391 -0.0001 -0.5440
vn 0.0000 -1.0000 0.0002
vn 0.1140 -0.9923 0.0491
vn 0.1066 -0.9931 0.0490
vn -0.0000 1.0000 -0.0002
vn 0.0584 0.9974 0.0427
vn 0.0614 0.9974 0.0386
vn 0.0000 1.0000 0.0002
vn -0.0000 -1.0000 -0.0002
vn 0.9192 0.0000 -0.3939
vn 0.8993 0.0000 -0.4374
vn 0.0675 0.9966 0.0480
vn 0.0594 0.9965 0.0586
vn -0.0819 0.9946 -0.0642
vn -0.5662 0.7273 -0.3878
vn 0.1087 0.9912 0.0755
vn 0.7232 0.5058 0.4703
vn 0.5833 -0.7273 0.3616
vn 0.0918 -0.9946 0.0490
vn 0.0712 -0.9966 0.0424
vn 0.0776 -0.9965 0.0307
vn 0.1130 -0.9912 0.0689
vn 0.7221 -0.5058 0.4719
vn 0.0597 0.9973 0.0430
vn 0.0748 0.9961 0.0462
vn 0.9703 0.0000 -0.2421
vn 0.9654 0.0000 -0.2608
vn 0.1701 0.0000 0.9854
vn 0.1510 0.0000 0.9885
vn -0.0225 -0.9996 -0.0184
vn -0.0135 -0.9999 -0.0102
vn -0.0627 -0.9974 -0.0362
vn -0.0601 -0.9974 -0.0406
vn -0.6910 -0.5490 -0.4702
vn 0.7398 0.5202 0.4266
vn 0.7398 -0.5202 0.4266
vn -0.0748 -0.9961 -0.0462
vn -0.0597 -0.9973 -0.0430
vn -0.0691 0.9960 -0.0565
vn -0.6714 0.5483 -0.4985
vn -0.0712 -0.9966 -0.0424
vn -0.0776 -0.9965 -0.0307
vn 0.7271 -0.5483 0.4131
vn 0.0796 -0.9960 0.0404
vn -0.0385 0.0000 0.9993
vn -0.9919 0.0000 0.1269
vn 0.2842 0.0000 0.9588
vn -0.9904 0.0001 0.1380
vn -0.8988 0.0000 0.4385
vn -0.0259 -0.9996 -0.0132
vn -0.0225 0.9996 -0.0184
vn -0.1583 -0.9865 0.0422
vn 0.0253 0.9865 0.1619
vn -0.0202 0.9997 -0.0132
vn -0.7220 -0.1585 0.6735
vn -0.7545 0.4508 -0.4770
vn -0.9719 -0.1935 0.1341
vn 0.0063 -0.9941 -0.1085
vn 0.0201 -0.9997 0.0131
vn -0.0863 -0.9934 -0.0752
vn -0.1374 -0.9858 -0.0969
vn -0.3249 0.1582 0.9324
vn -0.7606 -0.4039 -0.5084
vn -0.8679 0.0002 0.4967
vn -0.1042 -0.0002 0.9946
usemtl PodMaster
s off
f 2/1/1 3/2/1 1/3/1
f 4/4/1 2/1/1 1/3/1
f 4/4/2 1/3/2 5/5/2
f 6/6/2 4/4/2 5/5/2
f 6/6/3 5/5/3 7/7/3
f 8/8/3 6/6/3 7/7/3
f 8/8/4 7/7/4 9/9/4
f 10/10/4 8/8/4 9/9/4
f 10/10/5 9/9/5 11/11/5
f 12/12/5 10/10/5 11/11/5
f 12/12/6 11/11/6 13/13/6
f 14/14/6 12/12/6 13/13/6
f 14/14/7 13/13/7 15/15/7
f 16/16/7 14/14/7 15/15/7
f 16/16/8 15/15/8 17/17/8
f 18/18/8 16/16/8 17/17/8
f 20/19/9 21/20/9 19/21/9
f 22/22/10 20/19/10 19/21/10
f 22/22/11 19/21/11 23/23/11
f 24/24/12 22/22/12 23/23/12
f 24/24/13 23/23/13 25/25/13
f 26/26/14 24/24/14 25/25/14
f 26/26/15 25/25/15 27/27/15
f 28/28/16 26/26/16 27/27/16
f 28/28/17 27/27/17 29/29/17
f 30/30/18 28/28/18 29/29/18
f 32/31/19 33/32/19 31/33/19
f 34/34/19 32/31/19 31/33/19
f 34/34/20 31/33/20 35/35/20
f 36/36/20 34/34/20 35/35/20
f 36/36/21 35/35/21 37/37/21
f 38/38/21 36/36/21 37/37/21
f 38/38/22 37/37/22 39/39/22
f 40/40/22 38/38/22 39/39/22
f 40/40/23 39/39/23 41/41/23
f 42/42/23 40/40/23 41/41/23
f 44/43/24 45/44/24 43/45/24
f 46/46/25 44/43/25 43/45/25
f 46/46/26 43/45/26 47/47/26
f 48/48/27 46/46/27 47/47/27
f 48/48/28 47/47/28 49/49/28
f 50/50/29 48/48/29 49/49/29
f 50/50/30 49/49/30 51/51/30
f 52/52/31 50/50/31 51/51/31
f 52/52/32 51/51/32 53/53/32
f 54/54/33 52/52/33 53/53/33
f 56/55/34 57/56/34 55/57/34
f 58/58/34 56/55/34 55/57/34
f 58/58/35 55/57/35 59/59/35
f 60/60/35 58/58/35 59/59/35
f 60/60/36 59/59/36 61/61/36
f 62/62/36 60/60/36 61/61/36
f 62/62/37 61/61/37 63/63/37
f 64/64/37 62/62/37 63/63/37
f 64/64/38 63/63/38 65/65/38
f 66/66/38 64/64/38 65/65/38
f 68/67/39 69/68/39 67/69/39
f 70/70/40 68/67/40 67/69/40
f 70/70/41 67/69/41 71/71/41
f 72/72/42 70/70/42 71/71/42
f 72/72/43 71/71/43 73/73/43
f 70/70/44 72/72/44 73/73/44
f 70/70/45 73/73/45 74/74/45
f 75/75/46 70/70/46 74/74/46
f 75/75/47 74/74/47 76/76/47
f 78/77/48 79/78/48 77/79/48
f 80/80/49 78/77/49 77/79/49
f 80/80/50 77/79/50 81/81/50
f 82/82/51 80/80/51 81/81/51
f 82/82/52 81/81/52 83/83/52
f 80/80/53 82/82/53 83/83/53
f 80/80/54 83/83/54 84/84/54
f 85/85/55 80/80/55 84/84/55
f 85/85/56 84/84/56 86/86/56
f 88/87/57 89/88/57 87/89/57
f 90/90/57 88/87/57 87/89/57
f 90/90/57 87/89/57 91/91/57
f 92/92/58 90/90/58 91/91/58
f 92/92/59 91/91/59 93/93/59
f 94/94/60 92/92/60 93/93/60
f 94/94/61 93/93/61 95/95/61
f 93/93/62 97/96/62 96/97/62
f 98/98/63 93/93/63 96/97/63
f 98/98/64 96/97/64 99/99/64
f 100/100/65 98/98/65 99/99/65
f 100/100/66 99/99/66 101/101/66
f 102/102/67 100/100/67 101/101/67
f 104/103/68 105/104/68 103/105/68
f 106/106/69 104/103/69 103/105/69
f 106/106/70 103/105/70 107/107/70
f 108/108/71 106/106/71 107/107/71
f 108/108/72 107/107/72 109/109/72
f 110/110/73 108/108/73 109/109/73
f 112/111/74 113/112/74 111/113/74
f 114/114/75 112/111/75 111/113/75
f 114/114/76 111/113/76 115/115/76
f 116/116/77 114/114/77 115/115/77
f 116/116/78 115/115/78 117/117/78
f 118/118/79 116/116/79 117/117/79
f 120/119/80 121/120/80 119/121/80
f 122/122/81 120/119/81 119/121/81
f 122/122/82 119/121/82 123/123/82
f 124/124/83 122/122/83 123/123/83
f 124/124/84 123/123/84 125/125/84
f 126/126/85 124/124/85 125/125/85
f 128/127/86 129/128/86 127/129/86
f 130/130/87 128/127/87 127/129/87
f 130/130/88 127/129/88 131/131/88
f 132/132/89 130/130/89 131/131/89
f 132/132/90 131/131/90 133/133/90
f 134/134/91 132/132/91 133/133/91
f 136/135/92 137/136/92 135/137/92
f 138/138/93 136/135/93 135/137/93
f 138/138/94 135/137/94 139/139/94
f 140/140/95 138/138/95 139/139/95
f 140/140/96 139/139/96 141/141/96
f 142/142/97 140/140/97 141/141/97
f 144/143/98 145/144/98 143/145/98
f 146/146/99 144/143/99 143/145/99
f 146/146/100 143/145/100 67/69/100
f 147/147/101 146/146/101 67/69/101
f 147/147/102 67/69/102 69/68/102
f 149/148/103 150/149/103 148/150/103
f 151/151/103 149/148/103 148/150/103
f 151/151/103 148/150/103 152/152/103
f 153/153/104 151/151/104 152/152/104
f 153/153/105 152/152/105 128/127/105
f 155/154/106 156/155/106 154/156/106
f 157/157/106 155/154/106 154/156/106
f 157/157/107 154/156/107 158/158/107
f 159/159/107 157/157/107 158/158/107
f 159/159/108 158/158/108 160/160/108
f 162/161/109 163/162/109 161/163/109
f 164/164/109 162/161/109 161/163/109
f 164/164/110 161/163/110 165/165/110
f 166/166/110 164/164/110 165/165/110
f 166/166/111 165/165/111 167/167/111
f 169/168/112 170/169/112 168/170/112
f 171/171/112 169/168/112 168/170/112
f 171/171/113 168/170/113 172/172/113
f 173/173/113 171/171/113 172/172/113
f 173/173/114 172/172/114 174/174/114
f 176/175/115 177/176/115 175/177/115
f 178/178/115 176/175/115 175/177/115
f 178/178/115 175/177/115 179/179/115
f 180/180/115 178/178/115 179/179/115
f 180/180/115 179/179/115 181/181/115
f 183/182/116 184/183/116 182/184/116
f 185/185/117 183/182/117 182/184/117
f 185/185/118 182/184/118 186/186/118
f 187/187/119 185/185/119 186/186/119
f 187/187/120 186/186/120 188/188/120
f 188/188/121 186/186/121 189/189/121
f 190/190/122 188/188/122 189/189/122
f 190/190/123 189/189/123 191/191/123
f 192/192/124 190/190/124 191/191/124
f 192/192/125 191/191/125 193/193/125
f 195/194/126 196/195/126 194/196/126
f 197/197/127 195/194/127 194/196/127
f 197/197/128 194/196/128 77/79/128
f 198/198/129 197/197/129 77/79/129
f 198/198/130 77/79/130 79/78/130
f 200/199/131 201/200/131 199/201/131
f 202/202/131 200/199/131 199/201/131
f 202/202/131 199/201/131 203/203/131
f 204/204/131 202/202/131 203/203/131
f 204/204/131 203/203/131 205/205/131
f 207/206/132 208/207/132 206/208/132
f 209/209/133 207/206/133 206/208/133
f 209/209/134 206/208/134 210/210/134
f 211/211/135 209/209/135 210/210/135
f 213/212/136 214/213/136 212/214/136
f 215/215/137 213/212/137 212/214/137
f 215/215/138 212/214/138 216/216/138
f 217/217/138 215/215/138 216/216/138
f 219/218/139 220/219/139 218/220/139
f 221/221/140 219/218/140 218/220/140
f 221/221/141 218/220/141 222/222/141
f 223/223/142 221/221/142 222/222/142
f 225/224/143 226/225/143 224/226/143
f 227/227/144 225/224/144 224/226/144
f 227/227/145 224/226/145 228/228/145
f 229/229/146 227/227/146 228/228/146
f 231/230/147 232/231/147 230/232/147
f 233/233/148 231/230/148 230/232/148
f 233/233/149 230/232/149 234/234/149
f 235/235/150 233/233/150 234/234/150
f 237/236/151 238/237/151 236/238/151
f 239/239/152 237/236/152 236/238/152
f 239/239/153 236/238/153 240/240/153
f 241/241/154 239/239/154 240/240/154
f 243/242/155 244/243/155 242/244/155
f 245/245/156 243/242/156 242/244/156
f 245/245/157 242/244/157 246/246/157
f 247/247/158 245/245/158 246/246/158
f 248/248/159 224/226/159 226/225/159
f 249/249/160 248/248/160 226/225/160
f 249/249/161 226/225/161 250/250/161
f 251/251/162 249/249/162 250/250/162
f 253/252/163 254/253/163 252/254/163
f 255/255/163 253/252/163 252/254/163
f 255/255/163 252/254/163 256/256/163
f 257/257/163 255/255/163 256/256/163
f 259/258/164 260/259/164 258/260/164
f 261/261/165 259/258/165 258/260/165
f 261/261/166 258/260/166 262/262/166
f 263/263/167 261/261/167 262/262/167
f 265/264/168 266/265/168 264/266/168
f 267/267/169 265/264/169 264/266/169
f 267/267/170 264/266/170 268/268/170
f 269/269/171 267/267/171 268/268/171
f 271/270/172 272/271/172 270/272/172
f 273/273/173 271/270/173 270/272/173
f 273/273/174 270/272/174 274/274/174
f 275/275/175 273/273/175 274/274/175
f 277/276/176 278/277/176 276/278/176
f 279/279/177 277/276/177 276/278/177
f 279/279/178 276/278/178 140/140/178
f 142/142/179 279/279/179 140/140/179
f 280/280/180 227/227/180 229/229/180
f 281/281/181 280/280/181 229/229/181
f 281/281/68 229/229/68 282/282/68
f 283/283/69 281/281/69 282/282/69
f 285/284/182 286/285/182 284/286/182
f 287/287/182 285/284/182 284/286/182
f 287/287/183 284/286/183 288/288/183
f 289/289/183 287/287/183 288/288/183
f 290/290/184 249/249/184 251/251/184
f 283/283/185 290/290/185 251/251/185
f 283/283/186 251/251/186 291/291/186
f 281/281/187 283/283/187 291/291/187
f 293/292/180 294/293/180 292/294/180
f 295/295/188 293/292/188 292/294/188
f 295/295/189 292/294/189 296/296/189
f 297/297/190 295/295/190 296/296/190
f 299/298/191 300/299/191 298/300/191
f 301/301/162 299/298/162 298/300/162
f 301/301/192 298/300/192 302/302/192
f 303/303/193 301/301/193 302/302/193
f 305/304/194 306/305/194 304/306/194
f 307/307/195 305/304/195 304/306/195
f 307/307/196 304/306/196 308/308/196
f 309/309/197 307/307/197 308/308/197
f 311/310/198 312/311/198 310/312/198
f 313/313/199 311/310/199 310/312/199
f 313/313/199 310/312/199 314/314/199
f 315/315/200 209/209/200 211/211/200
f 316/316/201 315/315/201 211/211/201
f 316/316/202 211/211/202 317/317/202
f 319/318/203 320/319/203 318/320/203
f 321/321/204 319/318/204 318/320/204
f 321/321/205 318/320/205 322/322/205
f 323/323/206 86/86/206 84/84/206
f 324/324/207 323/323/207 84/84/207
f 324/324/208 84/84/208 325/325/208
f 325/325/209 84/84/209 83/83/209
f 326/326/210 325/325/210 83/83/210
f 326/326/211 83/83/211 327/327/211
f 329/328/212 330/329/212 328/330/212
f 331/331/213 329/328/213 328/330/213
f 331/331/213 328/330/213 332/332/213
f 334/333/214 335/334/214 333/335/214
f 336/336/215 334/333/215 333/335/215
f 336/336/216 333/335/216 337/337/216
f 339/338/217 340/339/217 338/340/217
f 341/341/218 339/338/218 338/340/218
f 341/341/218 338/340/218 342/342/218
f 343/343/219 344/344/219 184/183/219
f 345/345/220 343/343/220 184/183/220
f 345/345/221 184/183/221 183/182/221
f 347/346/222 348/347/222 346/348/222
f 349/349/223 347/346/223 346/348/223
f 349/349/224 346/348/224 350/350/224
f 352/351/225 353/352/225 351/353/225
f 354/354/226 352/351/226 351/353/226
f 354/354/227 351/353/227 306/305/227
f 98/98/228 100/100/228 355/355/228
f 356/356/229 98/98/229 355/355/229
f 356/356/230 355/355/230 357/357/230
f 359/358/231 360/359/231 358/360/231
f 361/361/232 359/358/232 358/360/232
f 361/361/232 358/360/232 362/362/232
f 364/363/233 365/364/233 363/365/233
f 366/366/234 364/363/234 363/365/234
f 366/366/235 363/365/235 208/207/235
f 368/367/236 369/368/236 367/369/236
f 370/370/237 368/367/237 367/369/237
f 370/370/107 367/369/107 371/371/107
f 373/372/238 374/373/238 372/374/238
f 375/375/239 373/372/239 372/374/239
f 375/375/110 372/374/110 376/376/110
f 377/377/240 378/378/240 300/299/240
f 379/379/241 377/377/241 300/299/241
f 379/379/242 300/299/242 299/298/242
f 378/378/144 377/377/144 294/293/144
f 380/380/243 378/378/243 294/293/243
f 380/380/244 294/293/244 293/292/244
f 382/381/245 383/382/245 381/383/245
f 384/384/246 382/381/246 381/383/246
f 384/384/246 381/383/246 385/385/246
f 386/386/247 387/387/247 357/357/247
f 388/388/248 386/386/248 357/357/248
f 388/388/249 357/357/249 355/355/249
f 390/389/250 391/390/250 389/391/250
f 236/238/251 390/389/251 389/391/251
f 236/238/252 389/391/252 240/240/252
f 136/135/253 138/138/253 140/140/253
f 392/392/254 136/135/254 140/140/254
f 392/392/255 140/140/255 276/278/255
f 391/390/256 394/393/256 393/394/256
f 389/391/257 391/390/257 393/394/257
f 396/395/258 397/396/258 395/397/258
f 398/398/259 396/395/259 395/397/259
f 275/275/260 233/233/260 235/235/260
f 273/273/261 275/275/261 235/235/261
f 241/241/262 261/261/262 263/263/262
f 239/239/263 241/241/263 263/263/263
f 399/399/264 400/400/264 20/19/264
f 22/22/265 399/399/265 20/19/265
f 401/401/266 399/399/266 22/22/266
f 402/402/267 401/401/267 22/22/267
f 404/403/268 405/404/268 403/405/268
f 406/406/269 404/403/269 403/405/269
f 406/406/270 401/401/270 402/402/270
f 407/407/271 406/406/271 402/402/271
f 404/403/272 406/406/272 407/407/272
f 408/408/273 404/403/273 407/407/273
f 410/409/274 411/410/274 409/411/274
f 412/412/275 410/409/275 409/411/275
f 73/73/276 414/413/276 413/414/276
f 410/409/277 73/73/277 413/414/277
f 81/81/278 77/79/278 194/196/278
f 415/415/279 81/81/279 194/196/279
f 74/74/280 73/73/280 410/409/280
f 412/412/281 74/74/281 410/409/281
f 74/74/282 412/412/282 416/416/282
f 76/76/283 74/74/283 416/416/283
f 71/71/284 67/69/284 143/145/284
f 417/417/285 71/71/285 143/145/285
f 325/325/286 419/418/286 418/419/286
f 324/324/287 325/325/287 418/419/287
f 421/420/288 422/421/288 420/422/288
f 423/423/288 421/420/288 420/422/288
f 425/424/289 426/425/289 424/426/289
f 427/427/289 425/424/289 424/426/289
f 429/428/290 430/429/290 428/430/290
f 431/431/290 429/428/290 428/430/290
f 433/432/291 434/433/291 432/434/291
f 435/435/291 433/432/291 432/434/291
f 437/436/292 438/437/292 436/438/292
f 439/439/292 437/436/292 436/438/292
f 435/435/293 441/440/293 440/441/293
f 433/432/293 435/435/293 440/441/293
f 443/442/294 444/443/294 442/444/294
f 445/445/295 443/442/295 442/444/295
f 447/446/296 448/447/296 446/448/296
f 449/449/297 447/446/297 446/448/297
f 445/445/298 451/450/298 450/451/298
f 443/442/298 445/445/298 450/451/298
f 453/452/299 454/453/299 452/454/299
f 455/455/300 453/452/300 452/454/300
f 457/456/301 458/457/301 456/458/301
f 459/459/301 457/456/301 456/458/301
f 461/460/302 462/461/302 460/462/302
f 463/463/302 461/460/302 460/462/302
f 208/207/303 363/365/303 464/464/303
f 206/208/304 208/207/304 464/464/304
f 466/465/305 467/466/305 465/467/305
f 468/468/306 466/465/306 465/467/306
f 408/408/307 274/274/307 270/272/307
f 469/469/308 408/408/308 270/272/308
f 471/470/309 472/471/309 470/472/309
f 473/473/309 471/470/309 470/472/309
f 475/474/310 476/475/310 474/476/310
f 477/477/310 475/474/310 474/476/310
f 479/478/311 480/479/311 478/480/311
f 481/481/311 479/478/311 478/480/311
f 482/482/312 479/478/312 481/481/312
f 483/483/312 482/482/312 481/481/312
f 484/484/313 482/482/313 483/483/313
f 485/485/313 484/484/313 483/483/313
f 486/486/314 484/484/314 485/485/314
f 487/487/314 486/486/314 485/485/314
f 488/488/315 486/486/315 487/487/315
f 489/489/315 488/488/315 487/487/315
f 491/490/316 492/491/316 490/492/316
f 493/493/316 491/490/316 490/492/316
f 495/494/317 496/495/317 494/496/317
f 497/497/317 495/494/317 494/496/317
f 499/498/107 500/499/107 498/500/107
f 501/501/107 499/498/107 498/500/107
f 503/502/115 504/503/115 502/504/115
f 505/505/115 503/502/115 502/504/115
f 507/506/318 508/507/318 506/508/318
f 509/509/318 507/506/318 506/508/318
f 511/510/319 512/511/319 510/512/319
f 513/513/319 511/510/319 510/512/319
f 515/514/320 516/515/320 514/516/320
f 517/517/320 515/514/320 514/516/320
f 519/518/321 520/519/321 518/520/321
f 521/521/321 519/518/321 518/520/321
f 523/522/322 524/523/322 522/524/322
f 525/525/322 523/522/322 522/524/322
f 527/526/323 528/527/323 526/528/323
f 529/529/323 527/526/323 526/528/323
f 531/530/301 532/531/301 530/532/301
f 533/533/301 531/530/301 530/532/301
f 535/534/103 536/535/103 534/536/103
f 537/537/103 535/534/103 534/536/103
f 538/538/103 535/534/103 537/537/103
f 153/153/324 538/538/324 537/537/324
f 128/127/325 539/539/325 538/538/325
f 153/153/326 128/127/326 538/538/326
f 541/540/115 542/541/115 540/542/115
f 181/181/115 541/540/115 540/542/115
f 388/388/327 544/543/327 543/544/327
f 386/386/328 388/388/328 543/544/328
f 546/545/329 547/546/329 545/547/329
f 548/548/329 546/545/329 545/547/329
f 550/549/330 551/550/330 549/551/330
f 552/552/330 550/549/330 549/551/330
f 554/553/57 555/554/57 553/555/57
f 556/556/57 554/553/57 553/555/57
f 556/556/331 92/92/331 94/94/331
f 554/553/57 556/556/57 94/94/57
f 352/351/332 558/557/332 557/558/332
f 353/352/333 352/351/333 557/558/333
f 560/559/334 561/560/334 559/561/334
f 562/562/335 560/559/335 559/561/335
f 306/305/336 351/353/336 563/563/336
f 304/306/337 306/305/337 563/563/337
f 565/564/131 566/565/131 564/566/131
f 205/205/131 565/564/131 564/566/131
f 567/567/338 568/568/338 466/465/338
f 468/468/339 567/567/339 466/465/339
f 335/334/340 569/569/340 93/93/340
f 333/335/341 335/334/341 93/93/341
f 51/51/342 49/49/342 570/570/342
f 571/571/343 51/51/343 570/570/343
f 70/70/344 75/75/344 572/572/344
f 68/67/345 70/70/345 572/572/345
f 574/573/346 575/574/346 573/575/346
f 576/576/346 574/573/346 573/575/346
f 577/577/347 574/573/347 576/576/347
f 578/578/347 577/577/347 576/576/347
f 579/579/348 577/577/348 578/578/348
f 580/580/348 579/579/348 578/578/348
f 581/581/349 579/579/349 580/580/349
f 582/582/349 581/581/349 580/580/349
f 583/583/350 581/581/350 582/582/350
f 584/584/350 583/583/350 582/582/350
f 585/585/351 583/583/351 584/584/351
f 586/586/351 585/585/351 584/584/351
f 587/587/352 585/585/352 586/586/352
f 588/588/352 587/587/352 586/586/352
f 589/589/353 587/587/353 588/588/353
f 590/590/353 589/589/353 588/588/353
f 592/591/354 593/592/354 591/593/354
f 594/594/354 592/591/354 591/593/354
f 120/119/355 596/595/355 595/596/355
f 121/120/356 120/119/356 595/596/356
f 54/54/357 598/597/357 597/598/357
f 599/599/358 54/54/358 597/598/358
f 600/600/359 124/124/359 126/126/359
f 601/601/360 600/600/360 126/126/360
f 602/602/361 600/600/361 601/601/361
f 603/603/362 602/602/362 601/601/362
f 337/337/363 333/335/363 604/604/363
f 130/130/364 337/337/364 604/604/364
f 336/336/365 606/605/365 605/606/365
f 334/333/366 336/336/366 605/606/366
f 608/607/367 609/608/367 607/609/367
f 610/610/367 608/607/367 607/609/367
f 612/611/368 613/612/368 611/613/368
f 614/614/368 612/611/368 611/613/368
f 616/615/369 617/616/369 615/617/369
f 618/618/369 616/615/369 615/617/369
f 620/619/110 621/620/110 619/621/110
f 622/622/110 620/619/110 619/621/110
f 623/623/370 78/77/370 80/80/370
f 85/85/371 623/623/371 80/80/371
f 625/624/372 626/625/372 624/626/372
f 627/627/373 625/624/373 624/626/373
f 628/628/374 629/629/374 592/591/374
f 594/594/374 628/628/374 592/591/374
f 631/630/115 632/631/115 630/632/115
f 633/633/115 631/630/115 630/632/115
f 635/634/375 636/635/375 634/636/375
f 637/637/375 635/634/375 634/636/375
f 639/638/376 640/639/376 638/640/376
f 641/641/376 639/638/376 638/640/376
f 643/642/377 644/643/377 642/644/377
f 645/645/377 643/642/377 642/644/377
f 647/646/378 648/647/378 646/648/378
f 649/649/379 647/646/379 646/648/379
f 651/650/380 652/651/380 650/652/380
f 653/653/380 651/650/380 650/652/380
f 654/654/381 655/655/381 527/526/381
f 529/529/381 654/654/381 527/526/381
f 657/656/330 658/657/330 656/658/330
f 659/659/330 657/656/330 656/658/330
f 661/660/382 662/661/382 660/662/382
f 663/663/382 661/660/382 660/662/382
f 664/664/383 231/230/383 233/233/383
f 665/665/384 664/664/384 233/233/384
f 666/666/385 667/667/385 602/602/385
f 603/603/386 666/666/386 602/602/386
f 142/142/387 668/668/387 277/276/387
f 279/279/388 142/142/388 277/276/388
f 670/669/389 671/670/389 669/671/389
f 672/672/389 670/669/389 669/671/389
f 674/673/390 675/674/390 673/675/390
f 676/676/390 674/673/390 673/675/390
f 678/677/391 679/678/391 677/679/391
f 680/680/391 678/677/391 677/679/391
f 682/681/131 683/682/131 681/683/131
f 684/684/131 682/681/131 681/683/131
f 686/685/392 687/686/392 685/687/392
f 688/688/392 686/685/392 685/687/392
f 689/689/393 686/685/393 688/688/393
f 690/690/393 689/689/393 688/688/393
f 692/691/390 693/692/390 691/693/390
f 694/694/390 692/691/390 691/693/390
f 696/695/391 697/696/391 695/697/391
f 698/698/391 696/695/391 695/697/391
f 700/699/131 701/700/131 699/701/131
f 702/702/131 700/699/131 699/701/131
f 703/703/394 689/689/394 690/690/394
f 704/704/394 703/703/394 690/690/394
f 423/423/395 703/703/395 704/704/395
f 421/420/395 423/423/395 704/704/395
f 706/705/390 707/706/390 705/707/390
f 708/708/390 706/705/390 705/707/390
f 710/709/391 711/710/391 709/711/391
f 712/712/391 710/709/391 709/711/391
f 714/713/131 715/714/131 713/715/131
f 716/716/131 714/713/131 713/715/131
f 717/717/396 718/718/396 319/318/396
f 321/321/397 717/717/397 319/318/397
f 720/719/398 721/720/398 719/721/398
f 722/722/398 720/719/398 719/721/398
f 724/723/399 725/724/399 723/725/399
f 726/726/399 724/723/399 723/725/399
f 728/727/400 729/728/400 727/729/400
f 371/371/400 728/727/400 727/729/400
f 731/730/401 732/731/401 730/732/401
f 733/733/401 731/730/401 730/732/401
f 30/30/402 735/734/402 734/735/402
f 736/736/403 30/30/403 734/735/403
f 738/737/404 739/738/404 737/739/404
f 740/740/404 738/737/404 737/739/404
f 742/741/405 743/742/405 741/743/405
f 376/376/405 742/741/405 741/743/405
f 745/744/406 746/745/406 744/746/406
f 747/747/406 745/744/406 744/746/406
f 387/387/407 748/748/407 128/127/407
f 357/357/408 387/387/408 128/127/408
f 750/749/409 751/750/409 749/751/409
f 752/752/409 750/749/409 749/751/409
f 753/753/410 259/258/410 261/261/410
f 754/754/411 753/753/411 261/261/411
f 756/755/412 757/756/412 755/757/412
f 758/758/412 756/755/412 755/757/412
f 760/759/413 761/760/413 759/761/413
f 762/762/413 760/759/413 759/761/413
f 764/763/414 765/764/414 763/765/414
f 546/545/415 764/763/415 763/765/415
f 244/243/159 243/242/159 766/766/159
f 767/767/160 244/243/160 766/766/160
f 599/599/416 753/753/416 754/754/416
f 768/768/417 599/599/417 754/754/417
f 105/104/418 245/245/418 247/247/418
f 103/105/419 105/104/419 247/247/419
f 54/54/420 599/599/420 768/768/420
f 52/52/421 54/54/421 768/768/421
f 110/110/422 244/243/422 767/767/422
f 108/108/423 110/110/423 767/767/423
f 663/663/382 770/769/382 769/770/382
f 661/660/382 663/663/382 769/770/382
f 736/736/424 664/664/424 665/665/424
f 771/771/425 736/736/425 665/665/425
f 30/30/426 736/736/426 771/771/426
f 28/28/427 30/30/427 771/771/427
f 27/27/428 25/25/428 772/772/428
f 773/773/429 27/27/429 772/772/429
f 775/774/430 776/775/430 774/776/430
f 777/777/431 775/774/431 774/776/431
f 779/778/432 780/779/432 778/780/432
f 781/781/433 779/778/433 778/780/433
f 782/782/434 783/783/434 44/43/434
f 46/46/435 782/782/435 44/43/435
f 784/784/436 782/782/436 46/46/436
f 785/785/437 784/784/437 46/46/437
f 303/303/438 295/295/438 297/297/438
f 301/301/186 303/303/186 297/297/186
f 220/219/439 219/218/439 786/786/439
f 787/787/440 220/219/440 786/786/440
f 391/390/441 789/788/441 788/789/441
f 394/393/442 391/390/442 788/789/442
f 113/112/443 221/221/443 223/223/443
f 111/113/444 113/112/444 223/223/444
f 394/393/445 784/784/445 785/785/445
f 393/394/446 394/393/446 785/785/446
f 118/118/447 220/219/447 787/787/447
f 116/116/448 118/118/448 787/787/448
f 791/790/449 792/791/449 790/792/449
f 794/793/450 795/794/450 793/795/450
f 797/796/451 798/797/451 796/798/451
f 800/799/450 801/800/450 799/801/450
f 802/802/452 268/268/452 264/266/452
f 804/803/453 805/804/453 803/805/453
f 807/806/451 808/807/451 806/808/451
f 234/234/454 230/232/454 809/809/454
f 262/262/455 258/260/455 810/810/455
f 81/81/456 415/415/456 811/811/456
f 71/71/457 417/417/457 812/812/457
f 814/813/57 815/814/57 813/815/57
f 817/816/103 818/817/103 816/818/103
f 820/819/57 821/820/57 819/821/57
f 823/822/103 824/823/103 822/824/103
f 826/825/57 827/826/57 825/827/57
f 829/828/103 830/829/103 828/830/103
f 560/559/335 562/562/335 831/831/335
f 181/181/115 179/179/115 541/540/115
f 565/564/131 205/205/131 203/203/131
f 396/395/259 398/398/259 832/832/259
f 779/778/433 781/781/433 833/833/433
f 93/93/458 91/91/458 834/834/458
f 835/835/459 265/264/459 267/267/459
f 836/836/373 625/624/373 627/627/373
f 775/774/431 777/777/431 837/837/431
f 404/403/460 408/408/460 469/469/460
f 193/193/461 191/191/461 838/838/461
f 139/139/462 135/137/462 839/839/462
f 128/127/463 152/152/463 840/840/463
f 307/307/464 309/309/464 841/841/464
f 350/350/465 346/348/465 842/842/465
f 843/843/466 717/717/466 321/321/466
f 337/337/467 130/130/467 132/132/467
f 844/844/468 160/160/468 158/158/468
f 728/727/107 371/371/107 367/369/107
f 742/741/110 376/376/110 372/374/110
f 845/845/469 167/167/469 165/165/469
f 548/548/415 764/763/415 546/545/415
