mtllib efc_bari_modelT.mtl
o nodes_2__meshes[0]
v 164.925201 182.931595 6.900320
v 35.493198 235.336395 9.750520
v 3.598172 -1.188824 111.142006
v -187.098389 183.972794 8.194761
v -228.709991 -55.190800 8.568881
v -173.926788 -178.713593 8.573600
v -173.926788 -178.713593 8.573600
v 49.764004 -245.942017 12.125120
v 187.840393 -188.666794 8.416601
v 278.250397 -2.876260 10.986400
v 278.250397 -2.876260 10.986400
v -14.027160 573.947998 -0.874128
v -253.768799 563.300110 10.198680
v 271.861206 376.697205 -9.768321
v 85.190811 443.516022 -8.267720
v 595.968018 155.183594 -1.379528
v 485.472015 456.048035 11.361360
v 519.924011 -328.374786 4.857880
v 541.080017 -92.079201 -9.008800
v 211.141190 -501.600006 20.519760
v 395.875183 -417.916016 12.593240
v -293.644806 -418.268005 16.791399
v -77.755196 -605.588013 4.201360
v -433.208008 -118.500793 19.980600
v -389.605591 -256.213196 11.556120
v -521.768005 207.664795 14.293880
v -585.844055 -13.994000 -3.792416
vt 1.000000 0.500015
vt 0.000000 0.500015
vt 0.500015 0.000000
vt 1.000000 0.500015
vt 0.000000 0.500015
vt 1.000000 0.500015
vt 0.000000 0.500015
vt 1.000000 0.500015
vt 0.000000 0.500015
vt 1.000000 0.500015
vt 0.000000 0.500015
vt 0.000000 1.000000
vt 1.000000 1.000000
vt 1.000000 1.000000
vt 0.000000 1.000000
vt 0.000000 1.000000
vt 1.000000 1.000000
vt 0.000000 1.000000
vt 1.000000 1.000000
vt 1.000000 1.000000
vt 0.000000 1.000000
vt 0.000000 1.000000
vt 1.000000 1.000000
vt 0.000000 1.000000
vt 1.000000 1.000000
vt 1.000000 1.000000
vt 0.000000 1.000000
vn 0.1160 0.1518 0.9816
vn 0.0366 0.1952 0.9801
vn -0.0150 0.0074 0.9998
vn -0.1144 0.0909 0.9893
vn -0.1759 -0.0248 0.9841
vn -0.1625 -0.0720 0.9841
vn -0.0454 -0.1611 0.9859
vn 0.0139 -0.1679 0.9857
vn 0.1252 -0.0995 0.9871
vn 0.1748 -0.0986 0.9796
vn 0.1387 0.0866 0.9865
vn 0.0444 0.0378 0.9983
vn 0.0254 0.0210 0.9995
vn 0.0323 0.0679 0.9972
vn 0.0394 0.0701 0.9967
vn 0.0506 -0.0237 0.9984
vn 0.0245 -0.0119 0.9996
vn 0.0340 0.0555 0.9979
vn 0.0430 0.0230 0.9988
vn 0.0218 0.0465 0.9987
vn 0.0195 0.0419 0.9989
vn 0.0613 0.0036 0.9981
vn 0.0230 -0.0050 0.9997
vn 0.0678 -0.0395 0.9969
vn 0.0478 -0.0234 0.9986
vn 0.0121 -0.0848 0.9963
vn -0.0067 -0.0471 0.9988
usemtl material0
s 1
f 1/1/1 2/2/2 3/3/3
f 2/2/2 4/4/4 3/3/3
f 4/4/4 5/5/5 3/3/3
f 5/5/5 6/6/6 3/3/3
f 7/7/7 8/8/8 3/3/3
f 8/8/8 9/9/9 3/3/3
f 9/9/9 10/10/10 3/3/3
f 11/11/11 1/1/1 3/3/3
f 12/12/12 13/13/13 2/2/2
f 13/13/13 4/4/4 2/2/2
f 14/14/14 15/15/15 1/1/1
f 15/15/15 2/2/2 1/1/1
f 16/16/16 17/17/17 11/11/11
f 17/17/17 1/1/1 11/11/11
f 18/18/18 19/19/19 9/9/9
f 19/19/19 10/10/10 9/9/9
f 20/20/20 21/21/21 8/8/8
f 21/21/21 9/9/9 8/8/8
f 22/22/22 23/23/23 7/7/7
f 23/23/23 8/8/8 7/7/7
f 24/24/24 25/25/25 5/5/5
f 25/25/25 6/6/6 5/5/5
f 26/26/26 27/27/27 4/4/4
f 27/27/27 5/5/5 4/4/4
