mtllib balinadearm1.mtl
o nodes_7__meshes[0]
v 59.653599 1241.152100 0.000000
v -0.000000 1470.979980 74.867210
v -0.000000 1241.152100 61.548798
v 73.497200 1470.979980 0.000000
v -0.000000 1470.979980 -74.867210
v -0.000000 1241.152100 -61.548798
v 67.613205 1014.400024 0.000000
v -0.000000 1014.400024 68.318802
v -0.000000 1014.400024 -68.318802
v -59.653599 1241.152100 0.000000
v -0.000000 1241.152100 61.548798
v -0.000000 1470.979980 74.867210
v -73.497200 1470.979980 0.000000
v -0.000000 1470.979980 -74.867210
v -0.000000 1241.152100 -61.548798
v -67.613205 1014.400024 0.000000
v -0.000000 1014.400024 68.318802
v -0.000000 1014.400024 -68.318802
v -0.000000 1750.324097 108.217194
v 102.470398 1750.324097 0.000000
v -0.000000 1750.324097 -108.217194
v -0.000000 2087.912109 -193.821198
v 187.851593 2087.912109 -0.000000
v -0.000000 2087.912109 193.821198
v 234.904388 2536.884033 261.902802
v -0.000000 2536.884033 359.999603
v 353.402008 2536.884033 -0.000000
v 234.904388 2536.884033 -261.902802
v -0.000000 2536.884033 -359.999603
v -0.000000 1750.324097 108.217194
v -102.470398 1750.324097 0.000000
v -0.000000 1750.324097 -108.217194
v -0.000000 2087.912109 -193.821198
v -187.851593 2087.912109 -0.000000
v -0.000000 2087.912109 193.821198
v -234.904388 2536.884033 261.902802
v -0.000000 2536.884033 359.999603
v -353.402008 2536.884033 -0.000000
v -234.904388 2536.884033 -261.902802
v -0.000000 2536.884033 -359.999603
v 101.430794 801.388062 -0.000000
v -0.000000 801.388062 107.102798
v -0.000000 801.388062 -107.102798
v 122.315598 539.400024 0.000000
v 0.000000 539.400024 126.204002
v 156.111603 351.435577 90.131195
v 0.000000 351.435181 180.262009
v 0.000000 184.665588 151.478012
v 131.183594 184.665588 75.739197
v 0.000000 73.935600 0.000000
v 131.183594 184.665588 -75.739197
v 0.000000 184.665588 -151.478012
v 156.111603 351.435577 -90.131195
v 0.000000 539.400024 -126.204002
v 0.000000 351.435181 -180.262009
v -101.430794 801.388062 -0.000000
v -0.000000 801.388062 107.102798
v -0.000000 801.388062 -107.102798
v -122.315598 539.400024 0.000000
v 0.000000 539.400024 126.204002
v -156.111603 351.435181 90.131195
v 0.000000 351.435181 180.262009
v 0.000000 184.665588 151.478012
v -131.183594 184.665588 75.739197
v -131.183594 184.665588 -75.739197
v 0.000000 184.665588 -151.478012
v -156.111603 351.435577 -90.131195
v 0.000000 539.400024 -126.204002
v 0.000000 351.435181 -180.262009
vt 0.499985 0.007812
vt 0.265617 0.249992
vt 0.265617 0.007812
vt 0.499985 0.249992
vt 0.734383 0.249992
vt 0.734383 0.007812
vt 0.499985 0.187494
vt 0.265617 0.187494
vt 0.734383 0.187494
vt 0.499985 0.007812
vt 0.734383 0.007812
vt 0.734383 0.249992
vt 0.499985 0.249992
vt 0.265617 0.249992
vt 0.265617 0.007812
vt 0.499985 0.187494
vt 0.734383 0.187494
vt 0.265617 0.187494
vt 0.265617 0.484361
vt 0.499985 0.484361
vt 0.734383 0.484361
vt 0.828130 0.687510
vt 0.499985 0.687510
vt 0.171870 0.687510
vt 0.249993 0.992188
vt 0.015625 0.992188
vt 0.499985 0.992188
vt 0.750008 0.992188
vt 0.984376 0.992188
vt 0.734383 0.484361
vt 0.499985 0.484361
vt 0.265617 0.484361
vt 0.171870 0.687510
vt 0.499985 0.687510
vt 0.828130 0.687510
vt 0.750008 0.992188
vt 0.984376 0.992188
vt 0.499985 0.992188
vt 0.249993 0.992188
vt 0.015625 0.992188
vt 0.499985 0.374989
vt 0.265617 0.374989
vt 0.734383 0.374989
vt 0.499985 0.562513
vt 0.234368 0.562513
vt 0.343740 0.750008
vt 0.093747 0.750008
vt 0.203119 0.906253
vt 0.374989 0.906253
vt 0.499985 0.992188
vt 0.625012 0.906253
vt 0.796881 0.906253
vt 0.656261 0.750008
vt 0.765632 0.562513
vt 0.906253 0.750008
vt 0.499985 0.374989
vt 0.734383 0.374989
vt 0.265617 0.374989
vt 0.499985 0.562513
vt 0.765632 0.562513
vt 0.656261 0.750008
vt 0.906253 0.750008
vt 0.796881 0.906253
vt 0.625012 0.906253
vt 0.374989 0.906253
vt 0.203119 0.906253
vt 0.343740 0.750008
vt 0.234368 0.562513
vt 0.093747 0.750008
vn 0.9999 -0.0113 0.0000
vn 0.7126 -0.0637 0.6986
vn 0.7171 -0.0083 0.6969
vn 0.9962 -0.0873 0.0000
vn 0.7126 -0.0637 -0.6986
vn 0.7171 -0.0083 -0.6969
vn 0.9953 0.0967 0.0000
vn 0.7120 0.0711 0.6986
vn 0.7120 0.0711 -0.6986
vn -0.9999 -0.0113 0.0000
vn -0.7171 -0.0083 0.6969
vn -0.7126 -0.0637 0.6986
vn -0.9962 -0.0873 0.0000
vn -0.7126 -0.0637 -0.6986
vn -0.7171 -0.0083 -0.6969
vn -0.9953 0.0967 0.0000
vn -0.7120 0.0711 0.6986
vn -0.7120 0.0711 -0.6986
vn 0.7188 -0.1284 0.6832
vn 0.9843 -0.1764 0.0000
vn 0.7188 -0.1284 -0.6832
vn 0.6400 -0.3116 -0.7023
vn 0.9199 -0.3922 0.0000
vn 0.6400 -0.3116 0.7023
vn 0.6491 -0.3603 0.6699
vn 0.3647 -0.3232 0.8732
vn 0.9382 -0.3460 0.0000
vn 0.6491 -0.3603 -0.6699
vn 0.3647 -0.3232 -0.8732
vn -0.7188 -0.1284 0.6832
vn -0.9843 -0.1764 0.0000
vn -0.7188 -0.1284 -0.6832
vn -0.6400 -0.3116 -0.7023
vn -0.9199 -0.3922 0.0000
vn -0.6400 -0.3116 0.7023
vn -0.6491 -0.3603 0.6699
vn -0.3647 -0.3232 0.8732
vn -0.9382 -0.3460 0.0000
vn -0.6491 -0.3603 -0.6699
vn -0.3647 -0.3232 -0.8732
vn 0.9927 0.1207 0.0000
vn 0.7217 0.0876 0.6866
vn 0.7217 0.0876 -0.6866
vn 0.9568 0.2908 0.0000
vn 0.6542 0.2120 0.7259
vn 0.8591 0.0611 0.5081
vn 0.4995 0.0442 0.8652
vn 0.4519 -0.4277 0.7828
vn 0.7599 -0.4795 0.4388
vn 0.0000 -1.0000 0.0000
vn 0.7599 -0.4795 -0.4388
vn 0.4519 -0.4277 -0.7828
vn 0.8591 0.0611 -0.5081
vn 0.6542 0.2120 -0.7259
vn 0.4995 0.0442 -0.8652
vn -0.9927 0.1207 0.0000
vn -0.7217 0.0876 0.6866
vn -0.7217 0.0876 -0.6866
vn -0.9568 0.2908 0.0000
vn -0.6542 0.2120 0.7259
vn -0.8591 0.0611 0.5081
vn -0.4995 0.0442 0.8652
vn -0.4519 -0.4277 0.7828
vn -0.7599 -0.4795 0.4388
vn -0.7599 -0.4795 -0.4388
vn -0.4519 -0.4277 -0.7828
vn -0.8591 0.0611 -0.5081
vn -0.6542 0.2120 -0.7259
vn -0.4995 0.0442 -0.8652
usemtl material0
s 1
f 1/1/1 2/2/2 3/3/3
f 1/1/1 4/4/4 2/2/2
f 1/1/1 5/5/5 4/4/4
f 1/1/1 6/6/6 5/5/5
f 7/7/7 6/6/6 1/1/1
f 7/7/7 1/1/1 3/3/3
f 7/7/7 3/3/3 8/8/8
f 7/7/7 9/9/9 6/6/6
f 10/10/10 11/11/11 12/12/12
f 10/10/10 12/12/12 13/13/13
f 10/10/10 13/13/13 14/14/14
f 10/10/10 14/14/14 15/15/15
f 16/16/16 10/10/10 15/15/15
f 16/16/16 11/11/11 10/10/10
f 16/16/16 17/17/17 11/11/11
f 16/16/16 15/15/15 18/18/18
f 4/4/4 19/19/19 2/2/2
f 4/4/4 20/20/20 19/19/19
f 4/4/4 21/21/21 20/20/20
f 4/4/4 5/5/5 21/21/21
f 20/20/20 21/21/21 22/22/22
f 20/20/20 22/22/22 23/23/23
f 20/20/20 23/23/23 24/24/24
f 20/20/20 24/24/24 19/19/19
f 25/25/25 24/24/24 23/23/23
f 26/26/26 24/24/24 25/25/25
f 25/25/25 23/23/23 27/27/27
f 28/28/28 27/27/27 23/23/23
f 28/28/28 23/23/23 22/22/22
f 29/29/29 28/28/28 22/22/22
f 13/13/13 12/12/12 30/30/30
f 13/13/13 30/30/30 31/31/31
f 13/13/13 31/31/31 32/32/32
f 13/13/13 32/32/32 14/14/14
f 31/31/31 33/33/33 32/32/32
f 31/31/31 34/34/34 33/33/33
f 31/31/31 35/35/35 34/34/34
f 31/31/31 30/30/30 35/35/35
f 36/36/36 34/34/34 35/35/35
f 37/37/37 36/36/36 35/35/35
f 36/36/36 38/38/38 34/34/34
f 39/39/39 34/34/34 38/38/38
f 39/39/39 33/33/33 34/34/34
f 40/40/40 33/33/33 39/39/39
f 41/41/41 8/8/8 42/42/42
f 41/41/41 7/7/7 8/8/8
f 41/41/41 9/9/9 7/7/7
f 41/41/41 43/43/43 9/9/9
f 44/44/44 43/43/43 41/41/41
f 44/44/44 41/41/41 42/42/42
f 44/44/44 42/42/42 45/45/45
f 46/46/46 44/44/44 45/45/45
f 46/46/46 45/45/45 47/47/47
f 48/48/48 46/46/46 47/47/47
f 49/49/49 46/46/46 48/48/48
f 50/50/50 49/49/49 48/48/48
f 50/50/50 51/51/51 49/49/49
f 50/50/50 52/52/52 51/51/51
f 51/51/51 52/52/52 53/53/53
f 46/46/46 51/51/51 53/53/53
f 46/46/46 53/53/53 44/44/44
f 53/53/53 54/54/54 44/44/44
f 53/53/53 55/55/55 54/54/54
f 53/53/53 52/52/52 55/55/55
f 56/56/56 57/57/57 17/17/17
f 56/56/56 17/17/17 16/16/16
f 56/56/56 16/16/16 18/18/18
f 56/56/56 18/18/18 58/58/58
f 59/59/59 56/56/56 58/58/58
f 59/59/59 57/57/57 56/56/56
f 59/59/59 60/60/60 57/57/57
f 61/61/61 60/60/60 59/59/59
f 61/61/61 62/62/62 60/60/60
f 63/63/63 62/62/62 61/61/61
f 64/64/64 63/63/63 61/61/61
f 50/50/50 63/63/63 64/64/64
f 50/50/50 64/64/64 65/65/65
f 50/50/50 65/65/65 66/66/66
f 65/65/65 67/67/67 66/66/66
f 61/61/61 67/67/67 65/65/65
f 61/61/61 59/59/59 67/67/67
f 67/67/67 59/59/59 68/68/68
f 67/67/67 68/68/68 69/69/69
f 67/67/67 69/69/69 66/66/66
f 44/44/44 54/54/54 43/43/43
f 49/49/49 51/51/51 46/46/46
f 59/59/59 58/58/58 68/68/68
f 64/64/64 61/61/61 65/65/65
