<?xml version="1.0" encoding="utf-8"?>
<COLLADA xmlns="http://www.collada.org/2005/11/COLLADASchema" version="1.4.1" xmlns:xsi="http://www.w3.org/2001/XMLSchema-instance">
  <asset>
    <contributor>
      <author>Blender User</author>
      <authoring_tool>Blender 2.79.0 commit date:2018-03-22, commit time:14:10, hash:f4dc9f9d68b</authoring_tool>
    </contributor>
    <created>2023-10-30T17:49:33</created>
    <modified>2023-10-30T17:49:33</modified>
    <unit name="meter" meter="1"/>
    <up_axis>Z_UP</up_axis>
  </asset>
  <library_images>
    <image id="balinade_03r_png" name="balinade_03r_png">
      <init_from>balinade_03r.png</init_from>
    </image>
  </library_images>
  <library_effects>
    <effect id="balinade_03r_png-effect">
      <profile_COMMON>
        <newparam sid="balinade_03r_png-surface">
          <surface type="2D">
            <init_from>balinade_03r_png</init_from>
          </surface>
        </newparam>
        <newparam sid="balinade_03r_png-sampler">
          <sampler2D>
            <source>balinade_03r_png-surface</source>
          </sampler2D>
        </newparam>
        <technique sid="common">
          <phong>
            <diffuse>
              <texture texture="balinade_03r_png-sampler" texcoord="balinade_03r_png"/>
            </diffuse>
            <specular>
              <color sid="specular">0 0 0 1</color>
            </specular>
          </phong>
        </technique>
      </profile_COMMON>
    </effect>
  </library_effects>
  <library_materials>
    <material id="balinade_03r_png-material" name="balinade_03r_png">
      <instance_effect url="#balinade_03r_png-effect"/>
    </material>
  </library_materials>
  <library_geometries>
    <geometry id="meshes_0_-mesh" name="meshes[0]">
      <mesh>
        <source id="meshes_0_-mesh-positions">
          <float_array id="meshes_0_-mesh-positions-array" count="207">59.6536 0 1241.152 0 -74.86721 1470.98 0 -61.5488 1241.152 73.4972 0 1470.98 0 74.86721 1470.98 0 61.5488 1241.152 67.61321 0 1014.4 0 -68.3188 1014.4 0 68.3188 1014.4 -59.6536 0 1241.152 0 -61.5488 1241.152 0 -74.86721 1470.98 -73.4972 0 1470.98 0 74.86721 1470.98 0 61.5488 1241.152 -67.61321 0 1014.4 0 -68.3188 1014.4 0 68.3188 1014.4 0 -108.2172 1750.324 102.4704 0 1750.324 0 108.2172 1750.324 0 193.8212 2087.912 187.8516 0 2087.912 0 -193.8212 2087.912 234.9044 -261.9028 2536.884 0 -359.9996 2536.884 353.402 0 2536.884 234.9044 261.9028 2536.884 0 359.9996 2536.884 0 -108.2172 1750.324 -102.4704 0 1750.324 0 108.2172 1750.324 0 193.8212 2087.912 -187.8516 0 2087.912 0 -193.8212 2087.912 -234.9044 -261.9028 2536.884 0 -359.9996 2536.884 -353.402 0 2536.884 -234.9044 261.9028 2536.884 0 359.9996 2536.884 101.4308 0 801.3881 0 -107.1028 801.3881 0 107.1028 801.3881 122.3156 0 539.4 0 -126.204 539.4 156.1116 -90.1312 351.4356 0 -180.262 351.4352 0 -151.478 184.6656 131.1836 -75.7392 184.6656 0 0 73.9356 131.1836 75.7392 184.6656 0 151.478 184.6656 156.1116 90.1312 351.4356 0 126.204 539.4 0 180.262 351.4352 -101.4308 0 801.3881 0 -107.1028 801.3881 0 107.1028 801.3881 -122.3156 0 539.4 0 -126.204 539.4 -156.1116 -90.1312 351.4352 0 -180.262 351.4352 0 -151.478 184.6656 -131.1836 -75.7392 184.6656 -131.1836 75.7392 184.6656 0 151.478 184.6656 -156.1116 90.1312 351.4356 0 126.204 539.4 0 180.262 351.4352</float_array>
          <technique_common>
            <accessor source="#meshes_0_-mesh-positions-array" count="69" stride="3">
              <param name="X" type="float"/>
              <param name="Y" type="float"/>
              <param name="Z" type="float"/>
            </accessor>
          </technique_common>
        </source>
        <source id="meshes_0_-mesh-normals">
          <float_array id="meshes_0_-mesh-normals-array" count="207">0.9999366 0 -0.01126164 0.7126569 -0.6986181 -0.0636633 0.7171424 -0.6968776 -0.00827068 0.9961834 0 -0.08728545 0.7126569 0.6986181 -0.0636633 0.7171424 0.6968776 -0.00827068 0.9953093 0 0.09674453 0.7119839 -0.6985859 0.07110989 0.7119839 0.6985859 0.07110989 -0.9999366 0 -0.01126164 -0.7171424 -0.6968776 -0.00827068 -0.7126569 -0.6986181 -0.0636633 -0.9961834 0 -0.08728545 -0.7126569 0.6986181 -0.0636633 -0.7171424 0.6968776 -0.00827068 -0.9953093 0 0.09674453 -0.7119839 -0.6985859 0.07110989 -0.7119839 0.6985859 0.07110989 0.7187886 -0.6832643 -0.1284248 0.9843243 0 -0.1763684 0.7187886 0.6832643 -0.1284248 0.6399949 0.7023463 -0.311635 0.9198901 0 -0.3921763 0.6399949 -0.7023463 -0.311635 0.6491466 -0.6699302 -0.3602809 0.3646734 -0.8732448 -0.3231979 0.9382477 0 -0.3459641 0.6491466 0.6699302 -0.3602809 0.3646734 0.8732448 -0.3231979 -0.7187886 -0.6832643 -0.1284248 -0.9843243 0 -0.1763684 -0.7187886 0.6832643 -0.1284248 -0.6399949 0.7023463 -0.311635 -0.9198901 0 -0.3921763 -0.6399949 -0.7023463 -0.311635 -0.6491466 -0.6699302 -0.3602809 -0.3646734 -0.8732448 -0.3231979 -0.9382477 0 -0.3459641 -0.6491466 0.6699302 -0.3602809 -0.3646734 0.8732448 -0.3231979 0.9926851 0 0.1207324 0.7217152 -0.6866182 0.08765077 0.7217152 0.6866182 0.08765077 0.9567784 0 0.2908179 0.6542403 -0.7259604 0.2120169 0.8590959 -0.5081511 0.0611307 0.4995046 -0.8651834 0.04419147 0.4519543 -0.7828097 -0.4277223 0.7599707 -0.4387816 -0.4794948 0 0 -1 0.7599707 0.4387816 -0.4794948 0.4519543 0.7828097 -0.4277223 0.8590959 0.5081511 0.0611307 0.6542403 0.7259604 0.2120169 0.4995046 0.8651834 0.04419147 -0.9926851 0 0.1207324 -0.7217152 -0.6866182 0.08765077 -0.7217152 0.6866182 0.08765077 -0.9567784 0 0.2908179 -0.6542403 -0.7259604 0.2120169 -0.8590959 -0.5081511 0.0611307 -0.4995046 -0.8651834 0.04419147 -0.4519543 -0.7828097 -0.4277223 -0.7599707 -0.4387816 -0.4794948 -0.7599707 0.4387816 -0.4794948 -0.4519543 0.7828097 -0.4277223 -0.8590959 0.5081511 0.0611307 -0.6542403 0.7259604 0.2120169 -0.4995046 0.8651834 0.04419147</float_array>
          <technique_common>
            <accessor source="#meshes_0_-mesh-normals-array" count="69" stride="3">
              <param name="X" type="float"/>
              <param name="Y" type="float"/>
              <param name="Z" type="float"/>
            </accessor>
          </technique_common>
        </source>
        <source id="meshes_0_-mesh-map-0">
          <float_array id="meshes_0_-mesh-map-0-array" count="528">0.499985 0.007812201 0.265617 0.2499924 0.265617 0.007812201 0.499985 0.007812201 0.499985 0.2499924 0.265617 0.2499924 0.499985 0.007812201 0.7343833 0.2499924 0.499985 0.2499924 0.499985 0.007812201 0.7343833 0.007812201 0.7343833 0.2499924 0.499985 0.1874943 0.7343833 0.007812201 0.499985 0.007812201 0.499985 0.1874943 0.499985 0.007812201 0.265617 0.007812201 0.499985 0.1874943 0.265617 0.007812201 0.265617 0.1874943 0.499985 0.1874943 0.7343833 0.1874943 0.7343833 0.007812201 0.499985 0.007812201 0.7343833 0.007812201 0.7343833 0.2499924 0.499985 0.007812201 0.7343833 0.2499924 0.499985 0.2499924 0.499985 0.007812201 0.499985 0.2499924 0.265617 0.2499924 0.499985 0.007812201 0.265617 0.2499924 0.265617 0.007812201 0.499985 0.1874943 0.499985 0.007812201 0.265617 0.007812201 0.499985 0.1874943 0.7343833 0.007812201 0.499985 0.007812201 0.499985 0.1874943 0.7343833 0.1874943 0.7343833 0.007812201 0.499985 0.1874943 0.265617 0.007812201 0.265617 0.1874943 0.499985 0.2499924 0.265617 0.4843605 0.265617 0.2499924 0.499985 0.2499924 0.499985 0.4843605 0.265617 0.4843605 0.499985 0.2499924 0.7343833 0.4843605 0.499985 0.4843605 0.499985 0.2499924 0.7343833 0.2499924 0.7343833 0.4843605 0.499985 0.4843605 0.7343833 0.4843605 0.8281305 0.6875097 0.499985 0.4843605 0.8281305 0.6875097 0.499985 0.6875097 0.499985 0.4843605 0.499985 0.6875097 0.1718698 0.6875097 0.499985 0.4843605 0.1718698 0.6875097 0.265617 0.4843605 0.2499925 0.992188 0.1718698 0.6875097 0.499985 0.6875097 0.01562452 0.992188 0.1718698 0.6875097 0.2499925 0.992188 0.2499925 0.992188 0.499985 0.6875097 0.499985 0.992188 0.7500078 0.992188 0.499985 0.992188 0.499985 0.6875097 0.7500078 0.992188 0.499985 0.6875097 0.8281305 0.6875097 0.9843758 0.992188 0.7500078 0.992188 0.8281305 0.6875097 0.499985 0.2499924 0.7343833 0.2499924 0.7343833 0.4843605 0.499985 0.2499924 0.7343833 0.4843605 0.499985 0.4843605 0.499985 0.2499924 0.499985 0.4843605 0.265617 0.4843605 0.499985 0.2499924 0.265617 0.4843605 0.265617 0.2499924 0.499985 0.4843605 0.1718698 0.6875097 0.265617 0.4843605 0.499985 0.4843605 0.499985 0.6875097 0.1718698 0.6875097 0.499985 0.4843605 0.8281305 0.6875097 0.499985 0.6875097 0.499985 0.4843605 0.7343833 0.4843605 0.8281305 0.6875097 0.7500078 0.992188 0.499985 0.6875097 0.8281305 0.6875097 0.9843758 0.992188 0.7500078 0.992188 0.8281305 0.6875097 0.7500078 0.992188 0.499985 0.992188 0.499985 0.6875097 0.2499925 0.992188 0.499985 0.6875097 0.499985 0.992188 0.2499925 0.992188 0.1718698 0.6875097 0.499985 0.6875097 0.01562452 0.992188 0.1718698 0.6875097 0.2499925 0.992188 0.499985 0.3749888 0.265617 0.1874943 0.265617 0.3749888 0.499985 0.3749888 0.499985 0.1874943 0.265617 0.1874943 0.499985 0.3749888 0.7343833 0.1874943 0.499985 0.1874943 0.499985 0.3749888 0.7343833 0.3749888 0.7343833 0.1874943 0.499985 0.5625134 0.7343833 0.3749888 0.499985 0.3749888 0.499985 0.5625134 0.499985 0.3749888 0.265617 0.3749888 0.499985 0.5625134 0.265617 0.3749888 0.2343679 0.5625134 0.3437397 0.7500078 0.499985 0.5625134 0.2343679 0.5625134 0.3437397 0.7500078 0.2343679 0.5625134 0.09374719 0.7500078 0.2031189 0.9062531 0.3437397 0.7500078 0.09374719 0.7500078 0.3749887 0.9062531 0.3437397 0.7500078 0.2031189 0.9062531 0.499985 0.992188 0.3749887 0.9062531 0.2031189 0.9062531 0.499985 0.992188 0.6250116 0.9062531 0.3749887 0.9062531 0.499985 0.992188 0.7968814 0.9062531 0.6250116 0.9062531 0.6250116 0.9062531 0.7968814 0.9062531 0.6562606 0.7500078 0.3437397 0.7500078 0.6250116 0.9062531 0.6562606 0.7500078 0.3437397 0.7500078 0.6562606 0.7500078 0.499985 0.5625134 0.6562606 0.7500078 0.7656323 0.5625134 0.499985 0.5625134 0.6562606 0.7500078 0.9062531 0.7500078 0.7656323 0.5625134 0.6562606 0.7500078 0.7968814 0.9062531 0.9062531 0.7500078 0.499985 0.3749888 0.7343833 0.3749888 0.7343833 0.1874943 0.499985 0.3749888 0.7343833 0.1874943 0.499985 0.1874943 0.499985 0.3749888 0.499985 0.1874943 0.265617 0.1874943 0.499985 0.3749888 0.265617 0.1874943 0.265617 0.3749888 0.499985 0.5625134 0.499985 0.3749888 0.265617 0.3749888 0.499985 0.5625134 0.7343833 0.3749888 0.499985 0.3749888 0.499985 0.5625134 0.7656323 0.5625134 0.7343833 0.3749888 0.6562606 0.7500078 0.7656323 0.5625134 0.499985 0.5625134 0.6562606 0.7500078 0.9062531 0.7500078 0.7656323 0.5625134 0.7968814 0.9062531 0.9062531 0.7500078 0.6562606 0.7500078 0.6250116 0.9062531 0.7968814 0.9062531 0.6562606 0.7500078 0.499985 0.992188 0.7968814 0.9062531 0.6250116 0.9062531 0.499985 0.992188 0.6250116 0.9062531 0.3749887 0.9062531 0.499985 0.992188 0.3749887 0.9062531 0.2031189 0.9062531 0.3749887 0.9062531 0.3437397 0.7500078 0.2031189 0.9062531 0.6562606 0.7500078 0.3437397 0.7500078 0.3749887 0.9062531 0.6562606 0.7500078 0.499985 0.5625134 0.3437397 0.7500078 0.3437397 0.7500078 0.499985 0.5625134 0.2343679 0.5625134 0.3437397 0.7500078 0.2343679 0.5625134 0.09374719 0.7500078 0.3437397 0.7500078 0.09374719 0.7500078 0.2031189 0.9062531 0.499985 0.5625134 0.7656323 0.5625134 0.7343833 0.3749888 0.3749887 0.9062531 0.6250116 0.9062531 0.3437397 0.7500078 0.499985 0.5625134 0.265617 0.3749888 0.2343679 0.5625134 0.6250116 0.9062531 0.6562606 0.7500078 0.3749887 0.9062531</float_array>
          <technique_common>
            <accessor source="#meshes_0_-mesh-map-0-array" count="264" stride="2">
              <param name="S" type="float"/>
              <param name="T" type="float"/>
            </accessor>
          </technique_common>
        </source>
        <source id="meshes_0_-mesh-colors-COLOR_0" name="COLOR_0">
          <float_array id="meshes_0_-mesh-colors-COLOR_0-array" count="792">1 1 1 1 1 1 1 1 1 1 1 1 1 1 1 1 1 1 1 1 1 1 1 1 1 1 1 1 1 1 1 1 1 1 1 1 1 1 1 1 1 1 1 1 1 1 1 1 1 1 1 1 1 1 1 1 1 1 1 1 1 1 1 1 1 1 1 1 1 1 1 1 1 1 1 1 1 1 1 1 1 1 1 1 1 1 1 1 1 1 1 1 1 1 1 1 1 1 1 1 1 1 1 1 1 1 1 1 1 1 1 1 1 1 1 1 1 1 1 1 1 1 1 1 1 1 1 1 1 1 1 1 1 1 1 1 1 1 1 1 1 1 1 1 1 1 1 1 1 1 1 1 1 1 1 1 1 1 1 1 1 1 1 1 1 1 1 1 1 1 1 1 1 1 1 1 1 1 1 1 1 1 1 1 1 1 1 1 1 1 1 1 1 1 1 1 1 1 1 1 1 1 1 1 1 1 1 1 1 1 1 1 1 1 1 1 1 1 1 1 1 1 1 1 1 1 1 1 1 1 1 1 1 1 1 1 1 1 1 1 1 1 1 1 1 1 1 1 1 1 1 1 1 1 1 1 1 1 1 1 1 1 1 1 1 1 1 1 1 1 1 1 1 1 1 1 1 1 1 1 1 1 1 1 1 1 1 1 1 1 1 1 1 1 1 1 1 1 1 1 1 1 1 1 1 1 1 1 1 1 1 1 1 1 1 1 1 1 1 1 1 1 1 1 1 1 1 1 1 1 1 1 1 1 1 1 1 1 1 1 1 1 1 1 1 1 1 1 1 1 1 1 1 1 1 1 1 1 1 1 1 1 1 1 1 1 1 1 1 1 1 1 1 1 1 1 1 1 1 1 1 1 1 1 1 1 1 1 1 1 1 1 1 1 1 1 1 1 1 1 1 1 1 1 1 1 1 1 1 1 1 1 1 1 1 1 1 1 1 1 1 1 1 1 1 1 1 1 1 1 1 1 1 1 1 1 1 1 1 1 1 1 1 1 1 1 1 1 1 1 1 1 1 1 1 1 1 1 1 1 1 1 1 1 1 1 1 1 1 1 1 1 1 1 1 1 1 1 1 1 1 1 1 1 1 1 1 1 1 1 1 1 1 1 1 1 1 1 1 1 1 1 1 1 1 1 1 1 1 1 1 1 1 1 1 1 1 1 1 1 1 1 1 1 1 1 1 1 1 1 1 1 1 1 1 1 1 1 1 1 1 1 1 1 1 1 1 1 1 1 1 1 1 1 1 1 1 1 1 1 1 1 1 1 1 1 1 1 1 1 1 1 1 1 1 1 1 1 1 1 1 1 1 1 1 1 1 1 1 1 1 1 1 1 1 1 1 1 1 1 1 1 1 1 1 1 1 1 1 1 1 1 1 1 1 1 1 1 1 1 1 1 1 1 1 1 1 1 1 1 1 1 1 1 1 1 1 1 1 1 1 1 1 1 1 1 1 1 1 1 1 1 1 1 1 1 1 1 1 1 1 1 1 1 1 1 1 1 1 1 1 1 1 1 1 1 1 1 1 1 1 1 1 1 1 1 1 1 1 1 1 1 1 1 1 1 1 1 1 1 1 1 1 1 1 1 1 1 1 1 1 1 1 1 1 1 1 1 1 1 1 1 1 1 1 1 1 1 1 1 1 1 1 1 1 1 1 1 1 1 1 1 1 1 1 1 1 1 1 1 1 1 1 1 1 1 1 1 1 1 1 1 1 1 1 1 1 1 1 1 1 1 1 1 1 1 1 1 1 1 1 1 1 1 1 1 1 1 1 1 1 1</float_array>
          <technique_common>
            <accessor source="#meshes_0_-mesh-colors-COLOR_0-array" count="264" stride="3">
              <param name="R" type="float"/>
              <param name="G" type="float"/>
              <param name="B" type="float"/>
            </accessor>
          </technique_common>
        </source>
        <vertices id="meshes_0_-mesh-vertices">
          <input semantic="POSITION" source="#meshes_0_-mesh-positions"/>
        </vertices>
        <triangles material="balinade_03r_png-material" count="88">
          <input semantic="VERTEX" source="#meshes_0_-mesh-vertices" offset="0"/>
          <input semantic="NORMAL" source="#meshes_0_-mesh-normals" offset="1"/>
          <input semantic="TEXCOORD" source="#meshes_0_-mesh-map-0" offset="2" set="0"/>
          <input semantic="COLOR" source="#meshes_0_-mesh-colors-COLOR_0" offset="3" set="0"/>
          <p>0 0 0 0 1 1 1 1 2 2 2 2 0 0 3 3 3 3 4 4 1 1 5 5 0 0 6 6 4 4 7 7 3 3 8 8 0 0 9 9 5 5 10 10 4 4 11 11 6 6 12 12 5 5 13 13 0 0 14 14 6 6 15 15 0 0 16 16 2 2 17 17 6 6 18 18 2 2 19 19 7 7 20 20 6 6 21 21 8 8 22 22 5 5 23 23 9 9 24 24 10 10 25 25 11 11 26 26 9 9 27 27 11 11 28 28 12 12 29 29 9 9 30 30 12 12 31 31 13 13 32 32 9 9 33 33 13 13 34 34 14 14 35 35 15 15 36 36 9 9 37 37 14 14 38 38 15 15 39 39 10 10 40 40 9 9 41 41 15 15 42 42 16 16 43 43 10 10 44 44 15 15 45 45 14 14 46 46 17 17 47 47 3 3 48 48 18 18 49 49 1 1 50 50 3 3 51 51 19 19 52 52 18 18 53 53 3 3 54 54 20 20 55 55 19 19 56 56 3 3 57 57 4 4 58 58 20 20 59 59 19 19 60 60 20 20 61 61 21 21 62 62 19 19 63 63 21 21 64 64 22 22 65 65 19 19 66 66 22 22 67 67 23 23 68 68 19 19 69 69 23 23 70 70 18 18 71 71 24 24 72 72 23 23 73 73 22 22 74 74 25 25 75 75 23 23 76 76 24 24 77 77 24 24 78 78 22 22 79 79 26 26 80 80 27 27 81 81 26 26 82 82 22 22 83 83 27 27 84 84 22 22 85 85 21 21 86 86 28 28 87 87 27 27 88 88 21 21 89 89 12 12 90 90 11 11 91 91 29 29 92 92 12 12 93 93 29 29 94 94 30 30 95 95 12 12 96 96 30 30 97 97 31 31 98 98 12 12 99 99 31 31 100 100 13 13 101 101 30 30 102 102 32 32 103 103 31 31 104 104 30 30 105 105 33 33 106 106 32 32 107 107 30 30 108 108 34 34 109 109 33 33 110 110 30 30 111 111 29 29 112 112 34 34 113 113 35 35 114 114 33 33 115 115 34 34 116 116 36 36 117 117 35 35 118 118 34 34 119 119 35 35 120 120 37 37 121 121 33 33 122 122 38 38 123 123 33 33 124 124 37 37 125 125 38 38 126 126 32 32 127 127 33 33 128 128 39 39 129 129 32 32 130 130 38 38 131 131 40 40 132 132 7 7 133 133 41 41 134 134 40 40 135 135 6 6 136 136 7 7 137 137 40 40 138 138 8 8 139 139 6 6 140 140 40 40 141 141 42 42 142 142 8 8 143 143 43 43 144 144 42 42 145 145 40 40 146 146 43 43 147 147 40 40 148 148 41 41 149 149 43 43 150 150 41 41 151 151 44 44 152 152 45 45 153 153 43 43 154 154 44 44 155 155 45 45 156 156 44 44 157 157 46 46 158 158 47 47 159 159 45 45 160 160 46 46 161 161 48 48 162 162 45 45 163 163 47 47 164 164 49 49 165 165 48 48 166 166 47 47 167 167 49 49 168 168 50 50 169 169 48 48 170 170 49 49 171 171 51 51 172 172 50 50 173 173 50 50 174 174 51 51 175 175 52 52 176 176 45 45 177 177 50 50 178 178 52 52 179 179 45 45 180 180 52 52 181 181 43 43 182 182 52 52 183 183 53 53 184 184 43 43 185 185 52 52 186 186 54 54 187 187 53 53 188 188 52 52 189 189 51 51 190 190 54 54 191 191 55 55 192 192 56 56 193 193 16 16 194 194 55 55 195 195 16 16 196 196 15 15 197 197 55 55 198 198 15 15 199 199 17 17 200 200 55 55 201 201 17 17 202 202 57 57 203 203 58 58 204 204 55 55 205 205 57 57 206 206 58 58 207 207 56 56 208 208 55 55 209 209 58 58 210 210 59 59 211 211 56 56 212 212 60 60 213 213 59 59 214 214 58 58 215 215 60 60 216 216 61 61 217 217 59 59 218 218 62 62 219 219 61 61 220 220 60 60 221 221 63 63 222 222 62 62 223 223 60 60 224 224 49 49 225 225 62 62 226 226 63 63 227 227 49 49 228 228 63 63 229 229 64 64 230 230 49 49 231 231 64 64 232 232 65 65 233 233 64 64 234 234 66 66 235 235 65 65 236 236 60 60 237 237 66 66 238 238 64 64 239 239 60 60 240 240 58 58 241 241 66 66 242 242 66 66 243 243 58 58 244 244 67 67 245 245 66 66 246 246 67 67 247 247 68 68 248 248 66 66 249 249 68 68 250 250 65 65 251 251 43 43 252 252 53 53 253 253 42 42 254 254 48 48 255 255 50 50 256 256 45 45 257 257 58 58 258 258 57 57 259 259 67 67 260 260 63 63 261 261 60 60 262 262 64 64 263 263</p>
        </triangles>
      </mesh>
    </geometry>
  </library_geometries>
  <library_controllers>
    <controller id="Armature_nodes_7_-skin" name="Armature">
      <skin source="#meshes_0_-mesh">
        <bind_shape_matrix>1 0 0 0 0 1 0 0 0 0 1 0 0 0 0 1</bind_shape_matrix>
        <source id="Armature_nodes_7_-skin-joints">
          <Name_array id="Armature_nodes_7_-skin-joints-array" count="6">nodes_1_ nodes_2_ nodes_3_ nodes_4_ nodes_5_ nodes_6_</Name_array>
          <technique_common>
            <accessor source="#Armature_nodes_7_-skin-joints-array" count="6" stride="1">
              <param name="JOINT" type="name"/>
            </accessor>
          </technique_common>
        </source>
        <source id="Armature_nodes_7_-skin-bind_poses">
          <float_array id="Armature_nodes_7_-skin-bind_poses-array" count="96">1 4.36642e-5 3.54033e-6 -2.69065e-4 -3.54033e-6 0 1 -76 4.36642e-5 -1 0 -2.57078e-6 0 0 0 1 1 4.36641e-5 3.54033e-6 -2.69066e-4 -3.54033e-6 0 1 -540 4.36641e-5 -1 0 -2.57078e-6 0 0 0 1 1 4.36642e-5 3.54033e-6 -2.69066e-4 -3.54033e-6 0 1 -1016 4.36642e-5 -1 0 -2.57078e-6 0 0 0 1 1 4.36641e-5 3.54033e-6 -2.69065e-4 -3.54033e-6 0 1 -1490 4.36641e-5 -1 0 -2.57078e-6 0 0 0 1 1 4.36641e-5 3.54033e-6 -2.69067e-4 -3.54034e-6 0 1 -1966 4.36641e-5 -1 0 -2.57079e-6 0 0 0 1 1 4.36642e-5 3.54033e-6 -2.69071e-4 -3.54023e-6 0 1 -2911.316 4.36642e-5 -1 0 92.32638 0 0 0 1</float_array>
          <technique_common>
            <accessor source="#Armature_nodes_7_-skin-bind_poses-array" count="6" stride="16">
              <param name="TRANSFORM" type="float4x4"/>
            </accessor>
          </technique_common>
        </source>
        <source id="Armature_nodes_7_-skin-weights">
          <float_array id="Armature_nodes_7_-skin-weights-array" count="111">0.2 0.8 0.5 0.5 0.2 0.8 0.5 0.5 0.5 0.5 0.2 0.8 0.5 0.5 0.5 0.5 0.5 0.5 0.2 0.8 0.2 0.8 0.5 0.5 0.5 0.5 0.5 0.5 0.2 0.8 0.5 0.5 0.5 0.5 0.5 0.5 0.2 0.8 0.2 0.8 0.2 0.8 0.4 0.6 0.4 0.6 0.4 0.6 1 1 1 1 1 0.2 0.8 0.2 0.8 0.2 0.8 0.4 0.6 0.4 0.6 0.4 0.6 1 1 1 1 1 0.2 0.8 0.2 0.8 0.2 0.8 0.5 0.5 0.5 0.5 1 1 1 1 1 1 1 1 0.5 0.5 1 0.2 0.8 0.2 0.8 0.2 0.8 0.5 0.5 0.5 0.5 1 1 1 1 1 1 1 0.5 0.5 1</float_array>
          <technique_common>
            <accessor source="#Armature_nodes_7_-skin-weights-array" count="111" stride="1">
              <param name="WEIGHT" type="float"/>
            </accessor>
          </technique_common>
        </source>
        <joints>
          <input semantic="JOINT" source="#Armature_nodes_7_-skin-joints"/>
          <input semantic="INV_BIND_MATRIX" source="#Armature_nodes_7_-skin-bind_poses"/>
        </joints>
        <vertex_weights count="69">
          <input semantic="JOINT" source="#Armature_nodes_7_-skin-joints" offset="0"/>
          <input semantic="WEIGHT" source="#Armature_nodes_7_-skin-weights" offset="1"/>
          <vcount>2 2 2 2 2 2 2 2 2 2 2 2 2 2 2 2 2 2 2 2 2 2 2 2 1 1 1 1 1 2 2 2 2 2 2 1 1 1 1 1 2 2 2 2 2 1 1 1 1 1 1 1 1 2 1 2 2 2 2 2 1 1 1 1 1 1 1 2 1 </vcount>
          <v>1 0 2 1 2 2 3 3 1 4 2 5 2 6 3 7 2 8 3 9 1 10 2 11 1 12 2 13 1 14 2 15 1 16 2 17 1 18 2 19 1 20 2 21 2 22 3 23 2 24 3 25 2 26 3 27 1 28 2 29 1 30 2 31 1 32 2 33 1 34 2 35 2 36 3 37 2 38 3 39 2 40 3 41 3 42 4 43 3 44 4 45 3 46 4 47 4 48 4 49 4 50 4 51 4 52 2 53 3 54 2 55 3 56 2 57 3 58 3 59 4 60 3 61 4 62 3 63 4 64 4 65 4 66 4 67 4 68 4 69 0 70 1 71 0 72 1 73 0 74 1 75 0 76 1 77 0 78 1 79 0 80 0 81 0 82 0 83 0 84 0 85 0 86 0 87 0 88 1 89 0 90 0 91 1 92 0 93 1 94 0 95 1 96 0 97 1 98 0 99 1 100 0 101 0 102 0 103 0 104 0 105 0 106 0 107 0 108 1 109 0 110</v>
        </vertex_weights>
      </skin>
    </controller>
  </library_controllers>
  <library_visual_scenes>
    <visual_scene id="Scene" name="Scene">
      <node id="Armature" name="Armature" type="NODE">
        <matrix sid="transform">1 0 0 0 0 1 0 0 0 0 1 0 0 0 0 1</matrix>
        <node id="Armature_nodes_1_" name="nodes[1]" sid="nodes_1_" type="JOINT">
          <matrix sid="transform">1 -3.54034e-6 4.36642e-5 0 4.36642e-5 3.36715e-8 -1 0 3.54033e-6 1 1.42052e-10 76 0 0 0 1</matrix>
          <node id="Armature_nodes_2_" name="nodes[2]" sid="nodes_2_" type="JOINT">
            <matrix sid="transform">1 -2.27374e-13 -7.27545e-12 1.16415e-10 2.27374e-13 1 7.64666e-15 463.9999 7.39571e-12 -7.10543e-15 1 -1.13687e-12 0 0 0 1</matrix>
            <node id="Armature_nodes_3_" name="nodes[3]" sid="nodes_3_" type="JOINT">
              <matrix sid="transform">1 2.27374e-13 6.91221e-11 2.91038e-11 -2.27374e-13 0.9999999 -7.67442e-15 475.9999 -6.90018e-11 7.10543e-15 1 1.36424e-12 0 0 0 1</matrix>
              <node id="Armature_nodes_4_" name="nodes[4]" sid="nodes_4_" type="JOINT">
                <matrix sid="transform">1 4.54747e-13 -6.91211e-11 8.73115e-11 -4.54747e-13 1 7.63278e-15 474 6.92414e-11 -3.55271e-15 1 6.82121e-13 0 0 0 1</matrix>
                <node id="Armature_nodes_5_" name="nodes[5]" sid="nodes_5_" type="JOINT">
                  <matrix sid="transform">1 -1.13687e-12 5.02951e-16 3.49246e-10 1.36424e-12 0.9999999 3.83027e-15 476 1.19756e-13 -3.55271e-15 1 2.04636e-12 0 0 0 1</matrix>
                  <node id="Armature_nodes_6_" name="nodes[6]" sid="nodes_6_" type="JOINT">
                    <matrix sid="transform">1 1.13687e-12 6.91221e-11 2.85218e-9 -1.13687e-12 1 0 945.3162 -6.90018e-11 0 1 -92.32638 0 0 0 1</matrix>
                    <extra>
                      <technique profile="blender">
                        <layer sid="layer" type="string">0</layer>
                        <roll sid="roll" type="float">4.01239e-5</roll>
                        <tip_x sid="tip_x" type="float">-0.003362596</tip_x>
                        <tip_y sid="tip_y" type="float">3.05176e-5</tip_y>
                        <tip_z sid="tip_z" type="float">949.814</tip_z>
                      </technique>
                    </extra>
                  </node>
                  <extra>
                    <technique profile="blender">
                      <layer sid="layer" type="string">0</layer>
                      <roll sid="roll" type="float">4.01238e-5</roll>
                      <tip_x sid="tip_x" type="float">-0.003362655</tip_x>
                      <tip_y sid="tip_y" type="float">3.19816e-5</tip_y>
                      <tip_z sid="tip_z" type="float">949.814</tip_z>
                    </technique>
                  </extra>
                </node>
                <extra>
                  <technique profile="blender">
                    <layer sid="layer" type="string">0</layer>
                    <roll sid="roll" type="float">4.01238e-5</roll>
                    <tip_x sid="tip_x" type="float">-0.001685142</tip_x>
                    <tip_y sid="tip_y" type="float">1.60276e-5</tip_y>
                    <tip_z sid="tip_z" type="float">476</tip_z>
                  </technique>
                </extra>
              </node>
              <extra>
                <technique profile="blender">
                  <layer sid="layer" type="string">0</layer>
                  <roll sid="roll" type="float">4.01239e-5</roll>
                  <tip_x sid="tip_x" type="float">-0.001678109</tip_x>
                  <tip_y sid="tip_y" type="float">1.59603e-5</tip_y>
                  <tip_z sid="tip_z" type="float">474</tip_z>
                </technique>
              </extra>
            </node>
            <extra>
              <technique profile="blender">
                <layer sid="layer" type="string">0</layer>
                <roll sid="roll" type="float">4.01238e-5</roll>
                <tip_x sid="tip_x" type="float">-0.001685142</tip_x>
                <tip_y sid="tip_y" type="float">1.60276e-5</tip_y>
                <tip_z sid="tip_z" type="float">476</tip_z>
              </technique>
            </extra>
          </node>
          <extra>
            <technique profile="blender">
              <layer sid="layer" type="string">0</layer>
              <roll sid="roll" type="float">4.01238e-5</roll>
              <tip_x sid="tip_x" type="float">-0.001642704</tip_x>
              <tip_y sid="tip_y" type="float">1.56236e-5</tip_y>
              <tip_z sid="tip_z" type="float">464</tip_z>
            </technique>
          </extra>
        </node>
      </node>
      <node id="nodes_7_" name="nodes_7_" type="NODE">
        <translate sid="location">0 0 0</translate>
        <rotate sid="rotationZ">0 0 1 0</rotate>
        <rotate sid="rotationY">0 1 0 0</rotate>
        <rotate sid="rotationX">1 0 0 0</rotate>
        <scale sid="scale">1 1 1</scale>
        <instance_controller url="#Armature_nodes_7_-skin">
          <skeleton>#Armature_nodes_1_</skeleton>
          <bind_material>
            <technique_common>
              <instance_material symbol="balinade_03r_png-material" target="#balinade_03r_png-material">
                <bind_vertex_input semantic="meshes_0_-mesh-map-0" input_semantic="TEXCOORD" input_set="0"/>
              </instance_material>
            </technique_common>
          </bind_material>
        </instance_controller>
      </node>
    </visual_scene>
  </library_visual_scenes>
  <scene>
    <instance_visual_scene url="#Scene"/>
  </scene>
</COLLADA>