mtllib balinadearm2.mtl
o nodes_4__meshes[0]
v 90.006004 1470.979980 -0.000000
v -0.000000 1750.324097 121.586006
v -0.000000 1470.979980 91.683601
v 115.129601 1750.324097 -0.000000
v -0.000000 1750.324097 -121.586006
v -0.000000 1470.979980 -91.683601
v 81.714798 1241.152100 -0.000000
v -0.000000 1241.152100 75.373611
v -0.000000 1082.352051 100.289597
v 101.430794 1013.316040 0.000000
v -0.000000 1048.524048 82.416801
v 0.042792 1019.628052 -77.915611
v -0.000000 1241.152100 -75.373611
v -90.006004 1470.979980 -0.000000
v -0.000000 1470.979980 91.683601
v -0.000000 1750.324097 121.586006
v -115.129601 1750.324097 -0.000000
v -0.000000 1750.324097 -121.586006
v -0.000000 1470.979980 -91.683601
v -81.714798 1241.152100 -0.000000
v -0.000000 1241.152100 75.373611
v -0.000000 1082.352051 100.289597
v -101.430794 1013.316040 0.000000
v -0.000000 1241.152100 -75.373611
v 0.042792 1019.628052 -77.915611
v -0.000000 1048.524048 82.416801
v 79.299194 851.308044 -10.881001
v -1.440800 845.936035 -73.153198
v 0.042792 1019.628052 -77.915611
v 101.430794 1013.316040 0.000000
v -101.430794 1013.316040 0.000000
v 0.042792 1019.628052 -77.915611
v -97.625595 910.779968 -5.724680
v -21.247320 905.484070 -71.164398
v 234.904388 2536.884033 261.902802
v -0.000000 2087.912109 193.821198
v 187.851593 2087.912109 -0.000000
v -0.000000 2536.884033 359.999603
v -0.000000 2087.912109 -193.821198
v 234.904388 2536.884033 -261.902802
v -0.000000 2536.884033 -359.999603
v 353.402008 2536.884033 0.000000
v -234.904388 2536.884033 261.902802
v -187.851593 2087.912109 -0.000000
v -0.000000 2087.912109 193.821198
v -0.000000 2536.884033 359.999603
v -353.402008 2536.884033 0.000000
v -234.904388 2536.884033 -261.902802
v -0.000000 2087.912109 -193.821198
v -0.000000 2536.884033 -359.999603
v 0.042792 1019.628052 -77.915611
v -0.000000 1241.152100 -0.000000
v -101.430794 1013.316040 0.000000
v 101.430794 1013.316040 0.000000
v -0.000000 1048.524048 82.416801
v 79.299194 851.308044 -10.881001
v 0.042792 1019.628052 -77.915611
v -1.440804 845.936035 -73.153198
v 101.430794 1013.316040 0.000000
v -101.430794 1013.316040 0.000000
v -97.625595 910.779968 -5.724680
v 0.042792 1019.628052 -77.915611
v -21.247320 905.484070 -71.164398
vt 0.781257 0.031249
vt 0.984376 0.007812
vt 0.984376 0.249992
vt 0.750008 0.249992
vt 0.781257 0.031249
vt 0.984376 0.249992
vt 0.984376 0.007812
vt 0.750008 0.249992
vt 0.499985 0.249992
vt 0.265617 0.484361
vt 0.265617 0.249992
vt 0.499985 0.484361
vt 0.734383 0.484361
vt 0.734383 0.249992
vt 0.499985 0.007812
vt 0.265617 0.007812
vt 0.265617 0.179682
vt 0.499985 0.249992
vt 0.265617 0.249992
vt 0.734383 0.249992
vt 0.734383 0.007812
vt 0.499985 0.249992
vt 0.734383 0.249992
vt 0.734383 0.484361
vt 0.499985 0.484361
vt 0.265617 0.484361
vt 0.265617 0.249992
vt 0.499985 0.007812
vt 0.734383 0.007812
vt 0.734383 0.179682
vt 0.499985 0.249992
vt 0.265617 0.007812
vt 0.265617 0.249992
vt 0.734383 0.249992
vt 0.015625 0.249992
vt 0.249993 0.249992
vt 0.031249 0.023437
vt 0.203119 0.007812
vt 0.249993 0.992188
vt 0.171870 0.687510
vt 0.499985 0.687510
vt 0.015625 0.992188
vt 0.828130 0.687510
vt 0.750008 0.992188
vt 0.984376 0.992188
vt 0.499985 0.992188
vt 0.750008 0.992188
vt 0.499985 0.687510
vt 0.828130 0.687510
vt 0.984376 0.992188
vt 0.499985 0.992188
vt 0.249993 0.992188
vt 0.171870 0.687510
vt 0.015625 0.992188
vt 0.984376 0.265617
vt 0.875004 0.492203
vt 0.765632 0.265617
vt 0.765632 0.265617
vt 0.984376 0.265617
vt 0.015625 0.249992
vt 0.031249 0.023437
vt 0.249993 0.249992
vt 0.203119 0.007812
vn 0.6116 -0.0269 -0.7907
vn 0.6079 -0.0298 -0.7935
vn -0.6116 0.0269 0.7907
vn -0.6079 0.0298 0.7935
vn 0.9976 -0.0688 0.0000
vn 0.7201 -0.1095 0.6851
vn 0.7077 -0.0549 0.7044
vn 0.9886 -0.1506 0.0000
vn 0.7201 -0.1095 -0.6851
vn 0.7077 -0.0549 -0.7044
vn 0.9997 0.0237 -0.0080
vn 0.6776 0.0328 0.7346
vn 0.6623 -0.0704 0.7459
vn 0.9912 0.0090 -0.1317
vn 0.4861 -0.4082 0.7727
vn 0.6097 0.0092 -0.7926
vn 0.6674 -0.0053 -0.7447
vn -0.9976 -0.0688 0.0000
vn -0.7077 -0.0549 0.7044
vn -0.7201 -0.1095 0.6851
vn -0.9886 -0.1506 0.0000
vn -0.7201 -0.1095 -0.6851
vn -0.7077 -0.0549 -0.7044
vn -0.9997 0.0237 -0.0080
vn -0.6776 0.0328 0.7346
vn -0.6623 -0.0704 0.7459
vn -0.9912 0.0089 -0.1319
vn -0.6673 -0.0054 -0.7447
vn -0.6093 0.0090 -0.7928
vn -0.4861 -0.4082 0.7727
vn -0.6097 0.0216 -0.7923
vn -0.6278 0.0481 -0.7768
vn -0.6269 0.0467 -0.7777
vn -0.6457 0.0755 -0.7598
vn 0.6491 -0.3603 0.6699
vn 0.6432 -0.2995 0.7046
vn 0.9257 -0.3781 0.0000
vn 0.3647 -0.3232 0.8732
vn 0.6432 -0.2995 -0.7046
vn 0.6491 -0.3603 -0.6699
vn 0.3647 -0.3232 -0.8732
vn 0.9382 -0.3460 0.0000
vn -0.6491 -0.3603 0.6699
vn -0.9257 -0.3781 0.0000
vn -0.6432 -0.2995 0.7046
vn -0.3647 -0.3232 0.8732
vn -0.9382 -0.3460 0.0000
vn -0.6491 -0.3603 -0.6699
vn -0.6432 -0.2995 -0.7046
vn -0.3647 -0.3232 -0.8732
vn -0.0002 -0.3318 0.9433
vn 0.0000 -0.9997 0.0229
vn 0.9042 -0.4025 0.1425
vn -0.9042 -0.4025 0.1423
vn 0.0000 -0.3934 -0.9194
vn 0.6097 -0.0216 0.7923
vn 0.6269 -0.0467 0.7777
vn 0.6278 -0.0481 0.7768
vn 0.6457 -0.0755 0.7598
usemtl material0
s off
f 27/1/1 28/2/1 29/3/1
f 30/4/2 27/1/2 29/3/2
f 56/5/3 57/6/3 58/7/3
f 59/8/4 57/6/4 56/5/4
s 1
f 1/9/5 2/10/6 3/11/7
f 1/9/5 4/12/8 2/10/6
f 1/9/5 5/13/9 4/12/8
f 1/9/5 6/14/10 5/13/9
f 7/15/11 6/14/10 1/9/5
f 7/15/11 1/9/5 3/11/7
f 7/15/11 3/11/7 8/16/12
f 9/17/13 7/15/11 8/16/12
f 9/17/13 10/18/14 7/15/11
f 10/18/14 9/17/13 11/19/15
f 10/18/14 12/20/16 13/21/17
f 10/18/14 13/21/17 7/15/11
f 7/15/11 13/21/17 6/14/10
f 14/22/18 15/23/19 16/24/20
f 14/22/18 16/24/20 17/25/21
f 14/22/18 17/25/21 18/26/22
f 14/22/18 18/26/22 19/27/23
f 20/28/24 14/22/18 19/27/23
f 20/28/24 15/23/19 14/22/18
f 20/28/24 21/29/25 15/23/19
f 20/28/24 22/30/26 21/29/25
f 20/28/24 23/31/27 22/30/26
f 23/31/27 20/28/24 24/32/28
f 23/31/27 24/32/28 25/33/29
f 23/31/27 26/34/30 22/30/26
f 20/28/24 19/27/23 24/32/28
f 31/35/31 32/36/32 33/37/33
f 33/37/33 32/36/32 34/38/34
f 35/39/35 36/40/36 37/41/37
f 38/42/38 36/40/36 35/39/35
f 4/12/8 36/40/36 2/10/6
f 4/12/8 37/41/37 36/40/36
f 4/12/8 39/43/39 37/41/37
f 4/12/8 5/13/9 39/43/39
f 40/44/40 37/41/37 39/43/39
f 41/45/41 40/44/40 39/43/39
f 40/44/40 42/46/42 37/41/37
f 35/39/35 37/41/37 42/46/42
f 43/47/43 44/48/44 45/49/45
f 46/50/46 43/47/43 45/49/45
f 43/47/43 47/51/47 44/48/44
f 48/52/48 44/48/44 47/51/47
f 48/52/48 49/53/49 44/48/44
f 50/54/50 49/53/49 48/52/48
f 17/25/21 49/53/49 18/26/22
f 17/25/21 44/48/44 49/53/49
f 17/25/21 45/49/45 44/48/44
f 17/25/21 16/24/20 45/49/45
f 51/55/51 52/56/52 53/57/53
f 51/55/51 54/58/54 52/56/52
f 55/59/55 52/56/52 54/58/54
f 53/57/53 52/56/52 55/59/55
f 60/60/56 61/61/57 62/62/58
f 61/61/57 63/63/59 62/62/58
