<?xml version="1.0" encoding="utf-8"?>
<COLLADA xmlns="http://www.collada.org/2005/11/COLLADASchema" version="1.4.1" xmlns:xsi="http://www.w3.org/2001/XMLSchema-instance">
  <asset>
    <contributor>
      <author>Blender User</author>
      <authoring_tool>Blender 2.79.0 commit date:2018-03-22, commit time:14:10, hash:f4dc9f9d68b</authoring_tool>
    </contributor>
    <created>2023-10-30T17:53:58</created>
    <modified>2023-10-30T17:53:58</modified>
    <unit name="meter" meter="1"/>
    <up_axis>Z_UP</up_axis>
  </asset>
  <library_images>
    <image id="balinade_03r_png" name="balinade_03r_png">
      <init_from>balinade_03r.png</init_from>
    </image>
  </library_images>
  <library_effects>
    <effect id="balinade_03r_png-effect">
      <profile_COMMON>
        <newparam sid="balinade_03r_png-surface">
          <surface type="2D">
            <init_from>balinade_03r_png</init_from>
          </surface>
        </newparam>
        <newparam sid="balinade_03r_png-sampler">
          <sampler2D>
            <source>balinade_03r_png-surface</source>
          </sampler2D>
        </newparam>
        <technique sid="common">
          <phong>
            <diffuse>
              <texture texture="balinade_03r_png-sampler" texcoord="balinade_03r_png"/>
            </diffuse>
            <specular>
              <color sid="specular">0 0 0 1</color>
            </specular>
          </phong>
        </technique>
      </profile_COMMON>
    </effect>
  </library_effects>
  <library_materials>
    <material id="balinade_03r_png-material" name="balinade_03r_png">
      <instance_effect url="#balinade_03r_png-effect"/>
    </material>
  </library_materials>
  <library_geometries>
    <geometry id="meshes_0_-mesh" name="meshes[0]">
      <mesh>
        <source id="meshes_0_-mesh-positions">
          <float_array id="meshes_0_-mesh-positions-array" count="189">90.00601 0 1470.98 0 -121.586 1750.324 0 -91.6836 1470.98 115.1296 0 1750.324 0 121.586 1750.324 0 91.6836 1470.98 81.7148 0 1241.152 0 -75.37361 1241.152 0 -100.2896 1082.352 101.4308 0 1013.316 0 -82.4168 1048.524 0.04279196 77.91561 1019.628 0 75.37361 1241.152 -90.00601 0 1470.98 0 -91.6836 1470.98 0 -121.586 1750.324 -115.1296 0 1750.324 0 121.586 1750.324 0 91.6836 1470.98 -81.7148 0 1241.152 0 -75.37361 1241.152 0 -100.2896 1082.352 -101.4308 0 1013.316 0 75.37361 1241.152 0.04279196 77.91561 1019.628 0 -82.4168 1048.524 79.2992 10.881 851.3081 -1.4408 73.1532 845.936 0.04279196 77.91561 1019.628 101.4308 0 1013.316 -101.4308 0 1013.316 0.04279196 77.91561 1019.628 -97.6256 5.72468 910.78 -21.24732 71.1644 905.4841 234.9044 -261.9028 2536.884 0 -193.8212 2087.912 187.8516 0 2087.912 0 -359.9996 2536.884 0 193.8212 2087.912 234.9044 261.9028 2536.884 0 359.9996 2536.884 353.402 0 2536.884 -234.9044 -261.9028 2536.884 -187.8516 0 2087.912 0 -193.8212 2087.912 0 -359.9996 2536.884 -353.402 0 2536.884 -234.9044 261.9028 2536.884 0 193.8212 2087.912 0 359.9996 2536.884 0.04279196 77.91561 1019.628 0 0 1241.152 -101.4308 0 1013.316 101.4308 0 1013.316 0 -82.4168 1048.524 79.2992 10.881 851.3081 0.04279196 77.91561 1019.628 -1.440804 73.1532 845.936 101.4308 0 1013.316 -101.4308 0 1013.316 -97.6256 5.72468 910.78 0.04279196 77.91561 1019.628 -21.24732 71.1644 905.4841</float_array>
          <technique_common>
            <accessor source="#meshes_0_-mesh-positions-array" count="63" stride="3">
              <param name="X" type="float"/>
              <param name="Y" type="float"/>
              <param name="Z" type="float"/>
            </accessor>
          </technique_common>
        </source>
        <source id="meshes_0_-mesh-normals">
          <float_array id="meshes_0_-mesh-normals-array" count="177">0.9976333 0 -0.06875914 0.7201518 -0.6851162 -0.1095319 0.7076863 -0.7043902 -0.05490458 0.9885979 0 -0.1505801 0.7201518 0.6851162 -0.1095319 0.7076863 0.7043902 -0.05490458 0.999688 0.00802654 0.02365237 0.6776469 -0.7346566 0.03277754 0.6623508 -0.745881 -0.07037645 0.9912415 0.1317525 0.009033739 0.4861117 -0.772688 -0.4082263 0.6096718 0.7926008 0.009186089 0.6673874 0.7446917 -0.005340754 -0.9976333 0 -0.06875914 -0.7076863 -0.7043902 -0.05490458 -0.7201518 -0.6851162 -0.1095319 -0.9885979 0 -0.1505801 -0.7201518 0.6851162 -0.1095319 -0.7076863 0.7043902 -0.05490458 -0.999688 0.00802654 0.02365237 -0.6776469 -0.7346566 0.03277754 -0.6623508 -0.745881 -0.07037645 -0.9912189 0.1319326 0.008880913 -0.6673382 0.7447355 -0.005371391 -0.6093441 0.7928553 0.008972585 -0.4861117 -0.772688 -0.4082263 0.611624 0.7906911 -0.02690392 0.6079069 0.7934507 -0.02975404 -0.6097218 0.792321 0.02160787 -0.6278491 0.7768458 0.04812937 -0.6269013 0.7776982 0.04669481 -0.6457538 0.7598036 0.07550424 0.6491466 -0.6699302 -0.3602809 0.6432029 -0.7046696 -0.299551 0.925754 0 -0.3781266 0.3646734 -0.8732448 -0.3231979 0.6432029 0.7046696 -0.299551 0.6491466 0.6699302 -0.3602809 0.3646734 0.8732448 -0.3231979 0.9382477 0 -0.3459641 -0.6491466 -0.6699302 -0.3602809 -0.925754 0 -0.3781266 -0.6432029 -0.7046696 -0.299551 -0.3646734 -0.8732448 -0.3231979 -0.9382477 0 -0.3459641 -0.6491466 0.6699302 -0.3602809 -0.6432029 0.7046696 -0.299551 -0.3646734 0.8732448 -0.3231979 -2.13634e-4 -0.9433482 -0.3318046 0 -0.02295017 -0.9997367 0.9042331 -0.1425263 -0.4025528 -0.9042662 -0.142313 -0.402554 0 0.9193848 -0.3933594 -0.611624 -0.7906911 0.02690392 -0.6079069 -0.7934507 0.02975404 0.6097218 -0.792321 -0.02160787 0.6269013 -0.7776982 -0.04669481 0.6278491 -0.7768458 -0.04812937 0.6457538 -0.7598036 -0.07550424</float_array>
          <technique_common>
            <accessor source="#meshes_0_-mesh-normals-array" count="59" stride="3">
              <param name="X" type="float"/>
              <param name="Y" type="float"/>
              <param name="Z" type="float"/>
            </accessor>
          </technique_common>
        </source>
        <source id="meshes_0_-mesh-map-0">
          <float_array id="meshes_0_-mesh-map-0-array" count="348">0.499985 0.2499924 0.265617 0.4843605 0.265617 0.2499924 0.499985 0.2499924 0.499985 0.4843605 0.265617 0.4843605 0.499985 0.2499924 0.7343833 0.4843605 0.499985 0.4843605 0.499985 0.2499924 0.7343833 0.2499924 0.7343833 0.4843605 0.499985 0.007812201 0.7343833 0.2499924 0.499985 0.2499924 0.499985 0.007812201 0.499985 0.2499924 0.265617 0.2499924 0.499985 0.007812201 0.265617 0.2499924 0.265617 0.007812201 0.265617 0.1796821 0.499985 0.007812201 0.265617 0.007812201 0.265617 0.1796821 0.499985 0.2499924 0.499985 0.007812201 0.499985 0.2499924 0.265617 0.1796821 0.265617 0.2499924 0.499985 0.2499924 0.7343833 0.2499924 0.7343833 0.007812201 0.499985 0.2499924 0.7343833 0.007812201 0.499985 0.007812201 0.499985 0.007812201 0.7343833 0.007812201 0.7343833 0.2499924 0.499985 0.2499924 0.7343833 0.2499924 0.7343833 0.4843605 0.499985 0.2499924 0.7343833 0.4843605 0.499985 0.4843605 0.499985 0.2499924 0.499985 0.4843605 0.265617 0.4843605 0.499985 0.2499924 0.265617 0.4843605 0.265617 0.2499924 0.499985 0.007812201 0.499985 0.2499924 0.265617 0.2499924 0.499985 0.007812201 0.7343833 0.2499924 0.499985 0.2499924 0.499985 0.007812201 0.7343833 0.007812201 0.7343833 0.2499924 0.499985 0.007812201 0.7343833 0.1796821 0.7343833 0.007812201 0.499985 0.007812201 0.499985 0.2499924 0.7343833 0.1796821 0.499985 0.2499924 0.499985 0.007812201 0.265617 0.007812201 0.499985 0.2499924 0.265617 0.007812201 0.265617 0.2499924 0.499985 0.2499924 0.7343833 0.2499924 0.7343833 0.1796821 0.499985 0.007812201 0.265617 0.2499924 0.265617 0.007812201 0.7812569 0.03124904 0.9843758 0.007812201 0.9843758 0.2499924 0.7500078 0.2499924 0.7812569 0.03124904 0.9843758 0.2499924 0.01562452 0.2499924 0.2499925 0.2499924 0.03124904 0.02343678 0.03124904 0.02343678 0.2499925 0.2499924 0.2031189 0.007812201 0.2499925 0.992188 0.1718698 0.6875097 0.499985 0.6875097 0.01562452 0.992188 0.1718698 0.6875097 0.2499925 0.992188 0.499985 0.4843605 0.1718698 0.6875097 0.265617 0.4843605 0.499985 0.4843605 0.499985 0.6875097 0.1718698 0.6875097 0.499985 0.4843605 0.8281305 0.6875097 0.499985 0.6875097 0.499985 0.4843605 0.7343833 0.4843605 0.8281305 0.6875097 0.7500078 0.992188 0.499985 0.6875097 0.8281305 0.6875097 0.9843758 0.992188 0.7500078 0.992188 0.8281305 0.6875097 0.7500078 0.992188 0.499985 0.992188 0.499985 0.6875097 0.2499925 0.992188 0.499985 0.6875097 0.499985 0.992188 0.7500078 0.992188 0.499985 0.6875097 0.8281305 0.6875097 0.9843758 0.992188 0.7500078 0.992188 0.8281305 0.6875097 0.7500078 0.992188 0.499985 0.992188 0.499985 0.6875097 0.2499925 0.992188 0.499985 0.6875097 0.499985 0.992188 0.2499925 0.992188 0.1718698 0.6875097 0.499985 0.6875097 0.01562452 0.992188 0.1718698 0.6875097 0.2499925 0.992188 0.499985 0.4843605 0.1718698 0.6875097 0.265617 0.4843605 0.499985 0.4843605 0.499985 0.6875097 0.1718698 0.6875097 0.499985 0.4843605 0.8281305 0.6875097 0.499985 0.6875097 0.499985 0.4843605 0.7343833 0.4843605 0.8281305 0.6875097 0.9843758 0.265617 0.8750041 0.492203 0.7656323 0.265617 0.9843758 0.265617 0.7656323 0.265617 0.8750041 0.492203 0.9843758 0.265617 0.8750041 0.492203 0.7656323 0.265617 0.7656323 0.265617 0.8750041 0.492203 0.9843758 0.265617 0.7812569 0.03124904 0.9843758 0.2499924 0.9843758 0.007812201 0.7500078 0.2499924 0.9843758 0.2499924 0.7812569 0.03124904 0.01562452 0.2499924 0.03124904 0.02343678 0.2499925 0.2499924 0.03124904 0.02343678 0.2031189 0.007812201 0.2499925 0.2499924</float_array>
          <technique_common>
            <accessor source="#meshes_0_-mesh-map-0-array" count="174" stride="2">
              <param name="S" type="float"/>
              <param name="T" type="float"/>
            </accessor>
          </technique_common>
        </source>
        <source id="meshes_0_-mesh-colors-COLOR_0" name="COLOR_0">
          <float_array id="meshes_0_-mesh-colors-COLOR_0-array" count="522">1 1 1 1 1 1 1 1 1 1 1 1 1 1 1 1 1 1 1 1 1 1 1 1 1 1 1 1 1 1 1 1 1 1 1 1 1 1 1 1 1 1 1 1 1 1 1 1 1 1 1 1 1 1 1 1 1 1 1 1 1 1 1 1 1 1 1 1 1 1 1 1 1 1 1 1 1 1 1 1 1 1 1 1 1 1 1 1 1 1 1 1 1 1 1 1 1 1 1 1 1 1 1 1 1 1 1 1 1 1 1 1 1 1 1 1 1 1 1 1 1 1 1 1 1 1 1 1 1 1 1 1 1 1 1 1 1 1 1 1 1 1 1 1 1 1 1 1 1 1 1 1 1 1 1 1 1 1 1 1 1 1 1 1 1 1 1 1 1 1 1 1 1 1 1 1 1 1 1 1 1 1 1 1 1 1 1 1 1 1 1 1 1 1 1 1 1 1 1 1 1 1 1 1 1 1 1 1 1 1 1 1 1 1 1 1 1 1 1 1 1 1 1 1 1 1 1 1 1 1 1 1 1 1 1 1 1 1 1 1 1 1 1 1 1 1 1 1 1 1 1 1 1 1 1 1 1 1 1 1 1 1 1 1 1 1 1 1 1 1 1 1 1 1 1 1 1 1 1 1 1 1 1 1 1 1 1 1 1 1 1 1 1 1 1 1 1 1 1 1 1 1 1 1 1 1 1 1 1 1 1 1 1 1 1 1 1 1 1 1 1 1 1 1 1 1 1 1 1 1 1 1 1 1 1 1 1 1 1 1 1 1 1 1 1 1 1 1 1 1 1 1 1 1 1 1 1 1 1 1 1 1 1 1 1 1 1 1 1 1 1 1 1 1 1 1 1 1 1 1 1 1 1 1 1 1 1 1 1 1 1 1 1 1 1 1 1 1 1 1 1 1 1 1 1 1 1 1 1 1 1 1 1 1 1 1 1 1 1 1 1 1 1 1 1 1 1 1 1 1 1 1 1 1 1 1 1 1 1 1 1 1 1 1 1 1 1 1 1 1 1 1 1 1 1 1 1 1 1 1 1 1 1 1 1 1 1 1 1 1 1 1 1 1 1 1 1 1 1 1 1 1 1 1 1 1 1 1 1 1 1 1 1 1 1 1 1 1 1 1 1 1 1 1 1 1 1 1 1 1 1 1 1 1 1 1 1 1 1 1 1 1</float_array>
          <technique_common>
            <accessor source="#meshes_0_-mesh-colors-COLOR_0-array" count="174" stride="3">
              <param name="R" type="float"/>
              <param name="G" type="float"/>
              <param name="B" type="float"/>
            </accessor>
          </technique_common>
        </source>
        <vertices id="meshes_0_-mesh-vertices">
          <input semantic="POSITION" source="#meshes_0_-mesh-positions"/>
        </vertices>
        <triangles material="balinade_03r_png-material" count="58">
          <input semantic="VERTEX" source="#meshes_0_-mesh-vertices" offset="0"/>
          <input semantic="NORMAL" source="#meshes_0_-mesh-normals" offset="1"/>
          <input semantic="TEXCOORD" source="#meshes_0_-mesh-map-0" offset="2" set="0"/>
          <input semantic="COLOR" source="#meshes_0_-mesh-colors-COLOR_0" offset="3" set="0"/>
          <p>0 0 0 0 1 1 1 1 2 2 2 2 0 0 3 3 3 3 4 4 1 1 5 5 0 0 6 6 4 4 7 7 3 3 8 8 0 0 9 9 5 5 10 10 4 4 11 11 6 6 12 12 5 5 13 13 0 0 14 14 6 6 15 15 0 0 16 16 2 2 17 17 6 6 18 18 2 2 19 19 7 7 20 20 8 8 21 21 6 6 22 22 7 7 23 23 8 8 24 24 9 9 25 25 6 6 26 26 9 9 27 27 8 8 28 28 10 10 29 29 9 9 30 30 11 11 31 31 12 12 32 32 9 9 33 33 12 12 34 34 6 6 35 35 6 6 36 36 12 12 37 37 5 5 38 38 13 13 39 39 14 14 40 40 15 15 41 41 13 13 42 42 15 15 43 43 16 16 44 44 13 13 45 45 16 16 46 46 17 17 47 47 13 13 48 48 17 17 49 49 18 18 50 50 19 19 51 51 13 13 52 52 18 18 53 53 19 19 54 54 14 14 55 55 13 13 56 56 19 19 57 57 20 20 58 58 14 14 59 59 19 19 60 60 21 21 61 61 20 20 62 62 19 19 63 63 22 22 64 64 21 21 65 65 22 22 66 66 19 19 67 67 23 23 68 68 22 22 69 69 23 23 70 70 24 24 71 71 22 22 72 72 25 25 73 73 21 21 74 74 19 19 75 75 18 18 76 76 23 23 77 77 26 26 78 78 27 26 79 79 28 26 80 80 29 27 81 81 26 27 82 82 28 27 83 83 30 28 84 84 31 29 85 85 32 30 86 86 32 30 87 87 31 29 88 88 33 31 89 89 34 32 90 90 35 33 91 91 36 34 92 92 37 35 93 93 35 33 94 94 34 32 95 95 3 3 96 96 35 33 97 97 1 1 98 98 3 3 99 99 36 34 100 100 35 33 101 101 3 3 102 102 38 36 103 103 36 34 104 104 3 3 105 105 4 4 106 106 38 36 107 107 39 37 108 108 36 34 109 109 38 36 110 110 40 38 111 111 39 37 112 112 38 36 113 113 39 37 114 114 41 39 115 115 36 34 116 116 34 32 117 117 36 34 118 118 41 39 119 119 42 40 120 120 43 41 121 121 44 42 122 122 45 43 123 123 42 40 124 124 44 42 125 125 42 40 126 126 46 44 127 127 43 41 128 128 47 45 129 129 43 41 130 130 46 44 131 131 47 45 132 132 48 46 133 133 43 41 134 134 49 47 135 135 48 46 136 136 47 45 137 137 16 16 138 138 48 46 139 139 17 17 140 140 16 16 141 141 43 41 142 142 48 46 143 143 16 16 144 144 44 42 145 145 43 41 146 146 16 16 147 147 15 15 148 148 44 42 149 149 50 48 150 150 51 49 151 151 52 50 152 152 50 48 153 153 53 51 154 154 51 49 155 155 54 52 156 156 51 49 157 157 53 51 158 158 52 50 159 159 51 49 160 160 54 52 161 161 55 53 162 162 56 53 163 163 57 53 164 164 58 54 165 165 56 54 166 166 55 54 167 167 59 55 168 168 60 56 169 169 61 57 170 170 60 56 171 171 62 58 172 172 61 57 173 173</p>
        </triangles>
      </mesh>
    </geometry>
  </library_geometries>
  <library_controllers>
    <controller id="Armature_nodes_4_-skin" name="Armature">
      <skin source="#meshes_0_-mesh">
        <bind_shape_matrix>1 0 0 0 0 1 0 0 0 0 1 0 0 0 0 1</bind_shape_matrix>
        <source id="Armature_nodes_4_-skin-joints">
          <Name_array id="Armature_nodes_4_-skin-joints-array" count="3">nodes_1_ nodes_2_ nodes_3_</Name_array>
          <technique_common>
            <accessor source="#Armature_nodes_4_-skin-joints-array" count="3" stride="1">
              <param name="JOINT" type="name"/>
            </accessor>
          </technique_common>
        </source>
        <source id="Armature_nodes_4_-skin-bind_poses">
          <float_array id="Armature_nodes_4_-skin-bind_poses-array" count="48">-1 4.35791e-5 3.54034e-6 -0.007668316 -3.54033e-6 0 -1 2166 -4.35791e-5 -1 0 7.29331e-5 0 0 0 1 -1 4.35791e-5 3.54034e-6 -0.007668256 -3.54033e-6 0 -1 1966 -4.35791e-5 -1 0 7.29331e-5 0 0 0 1 -1 4.35791e-5 3.54034e-6 -0.007668316 -3.54033e-6 0 -1 1490 -4.35791e-5 -1 0 7.2933e-5 0 0 0 1</float_array>
          <technique_common>
            <accessor source="#Armature_nodes_4_-skin-bind_poses-array" count="3" stride="16">
              <param name="TRANSFORM" type="float4x4"/>
            </accessor>
          </technique_common>
        </source>
        <source id="Armature_nodes_4_-skin-weights">
          <float_array id="Armature_nodes_4_-skin-weights-array" count="88">0.5 0.5 0.2 0.8 0.5 0.5 0.2 0.8 0.2 0.8 0.5 0.5 0.2 0.8 0.2 0.8 1 1 1 1 0.2 0.8 0.5 0.5 0.5 0.5 0.2 0.8 0.2 0.8 0.2 0.8 0.5 0.5 0.2 0.8 0.2 0.8 1 1 0.2 0.8 1 1 1 1 1 1 1 1 1 1 1 0.5 0.5 0.5 0.5 1 0.5 0.5 1 1 1 1 0.5 0.5 0.5 0.5 1 1 1 0.5 0.5 1 1 0.2 0.8 1 1 1 1 1 1 1 1 1 1 1</float_array>
          <technique_common>
            <accessor source="#Armature_nodes_4_-skin-weights-array" count="88" stride="1">
              <param name="WEIGHT" type="float"/>
            </accessor>
          </technique_common>
        </source>
        <joints>
          <input semantic="JOINT" source="#Armature_nodes_4_-skin-joints"/>
          <input semantic="INV_BIND_MATRIX" source="#Armature_nodes_4_-skin-bind_poses"/>
        </joints>
        <vertex_weights count="63">
          <input semantic="JOINT" source="#Armature_nodes_4_-skin-joints" offset="0"/>
          <input semantic="WEIGHT" source="#Armature_nodes_4_-skin-weights" offset="1"/>
          <vcount>2 2 2 2 2 2 2 2 1 1 1 1 2 2 2 2 2 2 2 2 2 1 1 2 1 1 1 1 1 1 1 1 1 1 1 2 2 1 2 1 1 1 1 2 2 1 1 1 2 1 1 2 1 1 1 1 1 1 1 1 1 1 1 </vcount>
          <v>1 0 2 1 0 2 1 3 1 4 2 5 0 6 1 7 0 8 1 9 1 10 2 11 1 12 2 13 1 14 2 15 2 16 2 17 2 18 2 19 1 20 2 21 1 22 2 23 1 24 2 25 0 26 1 27 0 28 1 29 0 30 1 31 1 32 2 33 1 34 2 35 1 36 2 37 2 38 2 39 1 40 2 41 2 42 2 43 2 44 2 45 2 46 2 47 2 48 2 49 2 50 2 51 0 52 0 53 1 54 0 55 1 56 0 57 0 58 1 59 0 60 0 61 0 62 0 63 0 64 1 65 0 66 1 67 0 68 0 69 0 70 0 71 1 72 0 73 2 74 1 75 2 76 2 77 2 78 2 79 2 80 2 81 2 82 2 83 2 84 2 85 2 86 2 87</v>
        </vertex_weights>
      </skin>
    </controller>
  </library_controllers>
  <library_visual_scenes>
    <visual_scene id="Scene" name="Scene">
      <node id="Armature" name="Armature" type="NODE">
        <matrix sid="transform">1 0 0 0 0 1 0 0 0 0 1 0 0 0 0 1</matrix>
        <node id="Armature_nodes_1_" name="nodes[1]" sid="nodes_1_" type="JOINT">
          <matrix sid="transform">-1 -3.54033e-6 -4.35791e-5 0 4.35791e-5 3.38261e-8 -1 0 3.54034e-6 -1 -6.75104e-8 2166 0 0 0 1</matrix>
          <node id="Armature_nodes_2_" name="nodes[2]" sid="nodes_2_" type="JOINT">
            <matrix sid="transform">1 4.54747e-13 -2.39009e-13 0 -4.54747e-13 1 -7.10543e-15 200 -1.19209e-13 7.10543e-15 1 0 0 0 0 1</matrix>
            <node id="Armature_nodes_3_" name="nodes[3]" sid="nodes_3_" type="JOINT">
              <matrix sid="transform">1 0 -2.39009e-13 0 -2.27374e-13 1 -7.10543e-15 476 -1.19209e-13 3.55271e-15 1 0 0 0 0 1</matrix>
              <extra>
                <technique profile="blender">
                  <layer sid="layer" type="string">0</layer>
                  <roll sid="roll" type="float">-3.141546</roll>
                  <tip_x sid="tip_x" type="float">-0.001685142</tip_x>
                  <tip_y sid="tip_y" type="float">1.61012e-5</tip_y>
                  <tip_z sid="tip_z" type="float">-476</tip_z>
                </technique>
              </extra>
            </node>
            <extra>
              <technique profile="blender">
                <layer sid="layer" type="string">0</layer>
                <roll sid="roll" type="float">-3.141546</roll>
                <tip_x sid="tip_x" type="float">-0.001685082</tip_x>
                <tip_y sid="tip_y" type="float">1.61012e-5</tip_y>
                <tip_z sid="tip_z" type="float">-476</tip_z>
              </technique>
            </extra>
          </node>
          <extra>
            <technique profile="blender">
              <layer sid="layer" type="string">0</layer>
              <roll sid="roll" type="float">-3.141546</roll>
              <tip_x sid="tip_x" type="float">-7.08067e-4</tip_x>
              <tip_y sid="tip_y" type="float">6.76521e-6</tip_y>
              <tip_z sid="tip_z" type="float">-200</tip_z>
            </technique>
          </extra>
        </node>
      </node>
      <node id="nodes_4_" name="nodes_4_" type="NODE">
        <translate sid="location">0 0 0</translate>
        <rotate sid="rotationZ">0 0 1 0</rotate>
        <rotate sid="rotationY">0 1 0 0</rotate>
        <rotate sid="rotationX">1 0 0 0</rotate>
        <scale sid="scale">1 1 1</scale>
        <instance_controller url="#Armature_nodes_4_-skin">
          <skeleton>#Armature_nodes_1_</skeleton>
          <bind_material>
            <technique_common>
              <instance_material symbol="balinade_03r_png-material" target="#balinade_03r_png-material">
                <bind_vertex_input semantic="meshes_0_-mesh-map-0" input_semantic="TEXCOORD" input_set="0"/>
              </instance_material>
            </technique_common>
          </bind_material>
        </instance_controller>
      </node>
    </visual_scene>
  </library_visual_scenes>
  <scene>
    <instance_visual_scene url="#Scene"/>
  </scene>
</COLLADA>