<?xml version="1.0" encoding="utf-8"?>
<COLLADA xmlns="http://www.collada.org/2005/11/COLLADASchema" version="1.4.1" xmlns:xsi="http://www.w3.org/2001/XMLSchema-instance">
  <asset>
    <contributor>
      <author>Blender User</author>
      <authoring_tool>Blender 3.1.2 commit date:2022-03-31, commit time:17:40, hash:cc66d1020c3b</authoring_tool>
    </contributor>
    <created>2023-06-15T12:24:42</created>
    <modified>2023-06-15T12:24:42</modified>
    <unit name="meter" meter="1"/>
    <up_axis>Z_UP</up_axis>
  </asset>
  <library_effects>
    <effect id="Mt_Body-effect">
      <profile_COMMON>
        <newparam sid="Enemy_Drake_Icicle_Alb_png-surface">
          <surface type="2D">
            <init_from>Enemy_Drake_Icicle_Alb_png</init_from>
          </surface>
        </newparam>
        <newparam sid="Enemy_Drake_Icicle_Alb_png-sampler">
          <sampler2D>
            <source>Enemy_Drake_Icicle_Alb_png-surface</source>
          </sampler2D>
        </newparam>
        <technique sid="common">
          <lambert>
            <emission>
              <color sid="emission">0 0 0 1</color>
            </emission>
            <diffuse>
              <texture texture="Enemy_Drake_Icicle_Alb_png-sampler" texcoord="Drake_Icicle__Mt_Body-texcoord"/>
            </diffuse>
            <index_of_refraction>
              <float sid="ior">1.45</float>
            </index_of_refraction>
          </lambert>
        </technique>
      </profile_COMMON>
    </effect>
  </library_effects>
  <library_images>
    <image id="Enemy_Drake_Icicle_Alb_png" name="Enemy_Drake_Icicle_Alb_png">
      <init_from>Enemy_Drake_Icicle_Alb.png</init_from>
    </image>
  </library_images>
  <library_materials>
    <material id="Mt_Body-material" name="Mt_Body">
      <instance_effect url="#Mt_Body-effect"/>
    </material>
  </library_materials>
  <library_geometries>
    <geometry id="Drake_Icicle__Mt_Body-mesh" name="Drake_Icicle__Mt_Body">
      <mesh>
        <source id="Drake_Icicle__Mt_Body-mesh-positions">
          <float_array id="Drake_Icicle__Mt_Body-mesh-positions-array" count="549">0.01112365 0.09442138 -0.02447509 -0.005149841 0.05038452 -0.04241943 0.04232788 0.08795166 -0.07965087 0.04232788 0.08795166 -0.07965087 0.03704833 0 0 0.01112365 0.09442138 -0.02447509 -0.4143066 1.509766 0.6298828 -1.025391 2.759766 0.5961914 -0.4250488 1.53125 0.5400391 -0.2734375 0.4785156 0.3391113 -0.2729492 0.4846191 0.2651367 0.03704833 0 0 0.01112365 0.09442138 -0.02447509 1.594727 4.558594 0.8735352 1.199219 3.542969 0.5908203 1.751953 4.511719 0.7724609 1.889648 5.582031 1.119141 2.193359 5.648438 0.9667969 1.862305 5.785156 1.165039 2.166016 5.9375 0.9746094 2.396484 5.621094 0.1224365 2.142578 5.9375 -0.7944336 1.813477 4.261719 0.07244873 1.751953 4.511719 0.7724609 2.207031 5.621094 -0.8422852 1.679688 5.9375 -1.673828 1.199219 3.542969 0.5908203 1.707031 5.746094 -1.707031 0.8935547 5.9375 -2.1875 1.514648 3.763672 -0.4501953 0.9135742 5.730469 -2.224609 1.00293 3.458984 -1.036133 1.194336 3.208984 -0.3571777 0 5.683594 -2.421875 -0.01360321 5.9375 -2.40625 0.546875 3.431641 -1.332031 0.7407227 2.912109 -0.7324219 1.115234 2.525391 -0.2301025 1.009766 2.414063 0.3693848 0.7641602 1.601563 0.3422852 0.9599609 2.607422 -0.5786133 0.8081055 1.521484 -0.1816406 0.3647461 0.4401855 0.1109009 0.4396973 2.212891 -0.8735352 0.2624512 0.5756836 -0.4594727 0.03704833 0 0 0.494873 1.552734 -0.5878906 0.04232788 0.08795166 -0.07965087 -0.1359863 1.587891 -0.8569336 0.340332 2.931641 -1.098633 -0.06185913 0.5141602 -0.5083008 -0.01718139 3.21875 -1.234375 -0.2854004 0.4958496 -0.3149414 -0.005149841 0.05038452 -0.04241943 -0.6416016 1.641602 -0.5400391 -0.359375 0.5014648 0.02319335 -0.3398438 0.4943848 0.2614746 -0.7827148 1.65625 0.006561279 -0.5244141 1.525391 0.5493164 -1.025391 2.759766 0.5961914 -0.8417969 2.769531 -0.7299805 -1.126953 2.767578 0.01895141 -1.306641 3.628906 0.4724121 -1.802734 4.46875 -0.09606933 -1.632813 4.207031 -0.6704102 -2.248047 5.773438 -0.4975586 -0.3837891 2.980469 -1.083984 -2.121094 5.929688 -0.5849609 -2.146484 5.855469 -0.5097656 -0.5913086 3.708984 -1.439453 -2.220703 5.71875 -0.9121094 -1.764648 5.9375 -1.764648 -1.137695 3.955078 -1.129883 -0.8632813 3.847656 -1.233398 -1.335938 4.429688 -1.334961 -1.647461 5.542969 -1.647461 -0.9174805 5.753906 -2.234375 -0.918457 5.9375 -2.175781 -0.004871368 3.519531 -1.479492 1.199219 3.542969 0.5908203 1.230469 3.492188 0.6972656 1.009766 2.414063 0.3693848 1.62793 4.496094 0.9731445 1.594727 4.558594 0.8735352 1.922852 5.691406 1.450195 1.889648 5.582031 1.119141 1.862305 5.785156 1.165039 1.873047 5.933594 1.484375 1.702148 5.730469 1.702148 1.691406 5.9375 1.666016 0.9233398 5.789063 2.248047 0.918457 5.9375 2.1875 1.34668 4.53125 1.34668 1.62793 4.496094 0.9731445 0.7290039 4.570313 1.774414 1.003906 3.523438 1.003906 1.230469 3.492188 0.6972656 1.009766 2.414063 0.3693848 0.4150391 2.603516 1.010742 0.7641602 1.601563 0.3422852 0.5786133 3.804688 1.414063 5.73635e-4 4.039063 1.670898 0.1948242 1.700195 0.8549805 0.3647461 0.4401855 0.1109009 -0.5273438 2.898438 1.170898 0.1556396 0.4375 0.3520508 0.03704833 0 0 -0.2734375 0.4785156 0.3391113 -0.4143066 1.509766 0.6298828 -1.025391 2.759766 0.5961914 -0.9785156 3.583984 0.9765625 -1.323242 3.636719 0.5371094 -0.5810547 3.884766 1.422852 -1.78418 4.59375 0.7329102 -1.919922 4.503906 0 -1.412109 4.710938 1.412109 -0.7753906 4.851563 1.893555 0 5.085938 2.167969 0.6157227 5.824219 2.332031 0 5.808594 2.474609 0.5678711 5.957031 2.296875 -0.003131866 5.9375 2.423828 -0.9223633 5.785156 2.244141 -1.628906 5.933594 1.649414 -1.707031 5.757813 1.713867 -2.234375 5.753906 0.9174805 -2.216797 5.929688 0.828125 -2.445313 5.738281 0 -2.308594 5.878906 0.05221557 -2.455078 5.761719 -0.3586426 -2.146484 5.855469 -0.5097656 -2.248047 5.773438 -0.4975586 -1.919922 4.503906 0 -1.802734 4.46875 -0.09606933 -1.323242 3.636719 0.5371094 -1.306641 3.628906 0.4724121 -1.025391 2.759766 0.5961914 -2.308594 5.878906 0.05221557 -1.283203 5.871094 0.2722168 -2.146484 5.855469 -0.5097656 -2.216797 5.929688 0.828125 -0.310791 5.886719 0.5224609 -1.628906 5.933594 1.649414 0.05004882 5.933594 1.803711 -0.003131866 5.9375 2.423828 0.5678711 5.957031 2.296875 0.9448242 5.910156 0.3901367 1.862305 5.785156 1.165039 1.873047 5.933594 1.484375 1.691406 5.9375 1.666016 0.918457 5.9375 2.1875 -0.4250488 1.53125 0.5400391 -1.025391 2.759766 0.5961914 -0.5244141 1.525391 0.5493164 -0.3398438 0.4943848 0.2614746 -0.2729492 0.4846191 0.2651367 -0.005149841 0.05038452 -0.04241943 0.01112365 0.09442138 -0.02447509 2.166016 5.9375 0.9746094 1.598633 5.9375 0.8364258 1.862305 5.785156 1.165039 2.142578 5.9375 -0.7944336 0.9448242 5.910156 0.3901367 1.862305 5.785156 1.165039 0.953125 5.9375 0.3388672 -0.3271484 5.9375 0.4724121 1.679688 5.9375 -1.673828 0.8935547 5.9375 -2.1875 -0.01360321 5.9375 -2.40625 -0.918457 5.9375 -2.175781 -0.310791 5.886719 0.5224609 -1.764648 5.9375 -1.764648 -1.224609 5.933594 0.2277832 -1.283203 5.871094 0.2722168 -2.121094 5.929688 -0.5849609 -2.146484 5.855469 -0.5097656 0.05004882 5.933594 1.803711 0.5678711 5.957031 2.296875 0.7285156 5.835938 2.222656 0.918457 5.9375 2.1875 0.6157227 5.824219 2.332031 0.9233398 5.789063 2.248047 0.7290039 4.570313 1.774414</float_array>
          <technique_common>
            <accessor source="#Drake_Icicle__Mt_Body-mesh-positions-array" count="183" stride="3">
              <param name="X" type="float"/>
              <param name="Y" type="float"/>
              <param name="Z" type="float"/>
            </accessor>
          </technique_common>
        </source>
        <source id="Drake_Icicle__Mt_Body-mesh-normals">
          <float_array id="Drake_Icicle__Mt_Body-mesh-normals-array" count="543">0.7441398 -0.4688814 0.4758217 -0.8347868 -0.3412069 -0.4320983 -0.8347869 -0.3412069 -0.4320983 -0.8347868 -0.3412069 -0.4320983 -0.9564216 -0.2884416 0.04538083 -0.898415 -0.4391407 0.00240916 -0.9498929 -0.3103457 0.03726816 -0.9561704 -0.2915341 -0.0273146 -0.9288892 -0.3670857 -0.04912322 -0.8643759 -0.3619333 -0.3490825 -0.8579177 -0.3362502 -0.3884755 0.4274727 -0.3570375 0.8305369 0.4128895 -0.3899111 0.8230989 0.430848 -0.35782 0.8284534 0.4747021 -0.2394978 0.846935 0.8034995 -0.1576908 0.5740404 0.4922624 -0.06648385 0.8679041 0.8374184 0.1559253 0.523849 0.9978059 0.06454259 0.01475411 0.9112822 0.2867085 -0.2955726 0.8912135 -0.4497728 0.05867558 0.8706728 -0.4339721 0.2315106 0.9292135 -0.09173655 -0.3579757 0.7209305 0.2212033 -0.6567561 0.8925459 -0.4167221 0.1723502 0.7207828 -0.07541096 -0.6890468 0.3726943 0.1895726 -0.9083839 0.849842 -0.4601886 -0.2568951 0.3873172 -0.09295135 -0.9172489 0.6363305 -0.4897501 -0.5960105 0.8992277 -0.3695312 -0.2341715 0.01229834 -0.1694209 -0.9854671 0.008892953 0.07847458 -0.9968765 0.3357393 -0.4796723 -0.8106749 0.6337166 -0.278946 -0.7215209 0.9588167 -0.2327595 -0.1627689 0.9618441 -0.2439263 0.1239192 0.9418916 -0.3119494 0.1246117 0.7284522 -0.1490777 -0.6686804 0.9124867 -0.3348791 -0.2349981 0.8571876 -0.4697812 -0.2110331 0.4574838 -0.2467995 -0.8542825 0.571891 -0.4693892 -0.6727663 0.7073692 -0.588935 -0.3908768 0.5833524 -0.2872926 -0.7597124 0.05021131 -0.6595502 -0.7499816 -0.1242604 -0.291672 -0.9484128 0.3562676 -0.3440419 -0.8687397 -0.1760231 -0.520803 -0.8353324 -0.04157829 -0.4467154 -0.8937095 -0.7258808 -0.5078352 -0.4638971 -0.4963932 -0.6762319 -0.5443383 -0.7882837 -0.2817302 -0.5470255 -0.8773091 -0.4764291 -0.05783003 -0.8883545 -0.44545 0.1113593 -0.9496615 -0.3125133 0.02187907 -0.8858614 -0.3074394 0.3474631 -0.9348012 -0.3009028 0.1886908 -0.7216876 -0.3486602 -0.5979992 -0.9390884 -0.3387328 -0.05807954 -0.9098997 -0.3253248 0.2573837 -0.9311478 -0.3606577 -0.05375927 -0.8526805 -0.3883987 -0.349403 -0.9918804 0.1268106 -0.009613692 -0.3215171 -0.3481618 -0.8805739 -0.7555996 0.6536083 -0.04319149 -0.499166 0.6950266 0.5174663 -0.4234023 -0.4165891 -0.8044775 -0.9541573 0.09164911 -0.2849287 -0.691754 -0.2601668 -0.6736391 -0.6149583 -0.4376115 -0.6559897 -0.5604844 -0.3882815 -0.7315017 -0.6478611 -0.4672356 -0.6016368 -0.6550228 -0.3770211 -0.6548284 -0.3658847 -0.07381105 -0.9277287 -0.335977 0.2847449 -0.8977972 -0.03576618 -0.5172104 -0.8551106 0.9171218 -0.1780306 -0.3566409 0.9211985 -0.1683812 -0.3507724 0.942015 -0.09495699 -0.3218557 0.9029589 -0.1599571 -0.3988471 0.9153046 -0.1590324 -0.3700355 0.9467204 -0.08645677 0.310235 0.9895626 -0.133078 -0.0552842 0.9720859 0.183645 -0.1460256 0.8954092 0.1535463 0.4179306 0.6451507 -0.1190339 0.7547262 0.6397705 0.172778 0.7488936 0.5575066 -0.03582835 0.8293991 0.5268014 0.3358275 0.7808331 0.6092149 -0.4133008 0.6767863 0.7060884 -0.4196276 0.5703963 0.357894 -0.4169644 0.8354954 0.6196609 -0.3904345 0.6808681 0.7258295 -0.37787 0.574792 0.6666524 -0.2953047 0.6843755 0.3886522 -0.3182634 0.8646722 0.6216379 -0.3007951 0.7232487 0.3609013 -0.4022318 0.8414035 -0.009085655 -0.4122321 0.9110336 0.2295192 -0.3357184 0.9135722 0.6625676 -0.434437 0.6101382 -0.3833668 -0.3264399 0.8639832 0.3470924 -0.4905562 0.7993006 0.2484477 -0.647248 0.7206552 -0.1034291 -0.449369 0.8873388 -0.3077549 -0.3290297 0.8927633 -0.7057401 -0.2813228 0.6502219 -0.6825318 -0.3374319 0.648298 -0.7811216 -0.3851901 0.4914038 -0.4147809 -0.3730719 0.8299242 -0.8302225 -0.4247701 0.3609722 -0.8890173 -0.4138373 0.1959259 -0.6413604 -0.4233807 0.6398481 -0.3531952 -0.4150286 0.8384535 0.005043148 -0.4029315 0.9152163 0.2264264 -0.08133447 0.9706266 -0.00756812 -0.01305943 0.9998862 0.2041471 0.3247638 0.9235002 -0.03298836 0.4154698 0.9090087 -0.3956755 0.255891 0.8820208 -0.5990908 0.5266718 0.6030813 -0.7126355 0.06025886 0.6989418 -0.9053316 -0.03651785 0.4231328 -0.8902298 0.3026529 0.3404294 -0.9848956 0.1407446 0.1008549 -0.6668453 0.745079 0.01321548 -0.8611538 0.2498787 -0.4426905 -0.4298378 0.8255862 -0.3655774 -0.5618188 0.1483207 -0.8138554 -0.6188877 -0.53115 -0.578669 -0.6201645 -0.5741629 -0.5345401 -0.8697755 -0.4568567 -0.1864741 -0.8708394 -0.4620954 -0.1676506 -0.9240747 -0.3271687 -0.1976022 0.01857089 0.9985209 -0.05109864 0.01182842 0.996795 -0.07911938 0.0155881 0.9991873 -0.03717285 0.01898574 0.9985324 -0.0507214 -0.003663539 0.9992645 -0.03817421 0.01212006 0.9996674 -0.02276432 -0.008461713 0.999796 -0.01833814 -0.01826095 0.9998024 -0.00786364 -0.03627145 0.9992977 -0.009405553 0.02830016 0.9980294 -0.05600535 0.4400871 0.808533 -0.3906377 0.1431998 0.9790602 -0.1446896 -0.004246294 0.9997434 -0.02225244 -0.002717792 0.9999883 -0.00402832 0.09643602 -0.1487015 0.9841687 0.09296548 -7.96237e-5 0.9956693 0.09874713 -0.1083883 0.9891921 -0.1008644 -0.3926865 0.9141247 -0.1126427 -0.4984193 0.8595871 0.2238893 -0.4675847 0.8551247 0.2611709 -0.4454663 0.8563583 -0.04980456 0.9775993 0.2044974 -0.2434434 0.8922559 0.3802825 -0.120701 0.8601247 0.4955977 0 1 0 -0.1557034 0.8724726 0.4631933 -0.470396 0.5938439 0.6527459 -0.04706794 0.9828103 0.1785175 -0.05610406 0.9007791 0.4306383 0 1 -1.62285e-7 0 1 0 0 1 -1.71996e-7 0 1 0 -0.04690575 0.6942399 0.7182137 -0.002657413 0.9999955 0.001452326 -0.1853553 0.9068887 0.378413 -0.354112 0.7392321 0.5728356 -0.2068845 0.952467 0.2236191 -0.4801355 0.7021884 0.525739 0.1452924 0.9893777 -0.004674553 0.5591269 0.8193561 -0.126621 0.2191771 0.4135596 0.8837025 -0.1356061 0.5409391 0.8300578 0.6850915 0.1168637 0.7190219 -0.132984 -0.01591956 0.9909904 0.2035643 -0.3267872 0.9229149</float_array>
          <technique_common>
            <accessor source="#Drake_Icicle__Mt_Body-mesh-normals-array" count="181" stride="3">
              <param name="X" type="float"/>
              <param name="Y" type="float"/>
              <param name="Z" type="float"/>
            </accessor>
          </technique_common>
        </source>
        <source id="Drake_Icicle__Mt_Body-mesh-map">
          <float_array id="Drake_Icicle__Mt_Body-mesh-map-array" count="1356">0.5943236 0.4153048 0.5922637 0.4183566 0.5885405 0.4222476 0.5885405 0.4222476 0.585977 0.4126955 0.5943236 0.4153048 0.1471122 0.5101701 0.2630198 0.4359655 0.1548791 0.5156176 0.1471122 0.5101701 0.1548791 0.5156176 0.09979397 0.5943389 0.09979397 0.5943389 0.1548791 0.5156176 0.1037155 0.5996491 0.09979397 0.5943389 0.1037155 0.5996491 0.05864042 0.6381476 0.05864042 0.6381476 0.1037155 0.5996491 0.06836038 0.6380103 0.3418936 0.7809567 0.4057984 0.6980239 0.3571374 0.7898375 0.3418936 0.7809567 0.3571374 0.7898375 0.285481 0.8647287 0.285481 0.8647287 0.3571374 0.7898375 0.3062181 0.8881819 0.285481 0.8647287 0.3062181 0.8881819 0.2696117 0.8803692 0.2696117 0.8803692 0.3062181 0.8881819 0.2944381 0.9133593 0.2944381 0.9133593 0.3062181 0.8881819 0.3763638 0.9117418 0.2944381 0.9133593 0.3763638 0.9117418 0.4432593 0.9695125 0.3763638 0.9117418 0.3062181 0.8881819 0.423621 0.7937285 0.423621 0.7937285 0.3062181 0.8881819 0.3571374 0.7898375 0.4432593 0.9695125 0.3763638 0.9117418 0.4541695 0.940856 0.4541695 0.940856 0.3763638 0.9117418 0.423621 0.7937285 0.4432593 0.9695125 0.4541695 0.940856 0.5383993 0.9874571 0.423621 0.7937285 0.3571374 0.7898375 0.4057984 0.6980239 0.5383993 0.9874571 0.4541695 0.940856 0.5409628 0.9691615 0.5383993 0.9874571 0.5409628 0.9691615 0.6294041 0.9892729 0.4541695 0.940856 0.423621 0.7937285 0.4867323 0.7605707 0.6294041 0.9892729 0.5409628 0.9691615 0.6279393 0.9692531 0.5409628 0.9691615 0.4541695 0.940856 0.5607843 0.7414359 0.5607843 0.7414359 0.4541695 0.940856 0.4867323 0.7605707 0.5409628 0.9691615 0.5607843 0.7414359 0.6279393 0.9692531 0.4867323 0.7605707 0.423621 0.7937285 0.5005264 0.7009385 0.4867323 0.7605707 0.5005264 0.7009385 0.5607843 0.7414359 0.5005264 0.7009385 0.423621 0.7937285 0.4057984 0.6980239 0.6294041 0.9892729 0.6279393 0.9692531 0.7136034 0.954879 0.6294041 0.9892729 0.7136034 0.954879 0.7196612 0.9782864 0.6279393 0.9692531 0.5607843 0.7414359 0.6111391 0.737789 0.6279393 0.9692531 0.6111391 0.737789 0.7136034 0.954879 0.5607843 0.7414359 0.5005264 0.7009385 0.5622339 0.6778668 0.5607843 0.7414359 0.5622339 0.6778668 0.6111391 0.737789 0.5005264 0.7009385 0.4057984 0.6980239 0.5074998 0.6353704 0.5074998 0.6353704 0.4057984 0.6980239 0.4598459 0.6066682 0.5074998 0.6353704 0.4598459 0.6066682 0.486305 0.5362936 0.5005264 0.7009385 0.5074998 0.6353704 0.5391928 0.6485542 0.5005264 0.7009385 0.5391928 0.6485542 0.5622339 0.6778668 0.5074998 0.6353704 0.486305 0.5362936 0.530663 0.5469749 0.5074998 0.6353704 0.530663 0.5469749 0.5391928 0.6485542 0.530663 0.5469749 0.486305 0.5362936 0.5450523 0.4461433 0.5622339 0.6778668 0.5391928 0.6485542 0.591867 0.6144198 0.530663 0.5469749 0.5450523 0.4461433 0.5828488 0.474876 0.5828488 0.474876 0.5450523 0.4461433 0.585977 0.4126955 0.5391928 0.6485542 0.530663 0.5469749 0.5734188 0.5539483 0.5391928 0.6485542 0.5734188 0.5539483 0.591867 0.6144198 0.5734188 0.5539483 0.530663 0.5469749 0.5828488 0.474876 0.5828488 0.474876 0.585977 0.4126955 0.5885405 0.4222476 0.591867 0.6144198 0.5734188 0.5539483 0.6300145 0.5503624 0.6300145 0.5503624 0.5734188 0.5539483 0.5828488 0.474876 0.6158847 0.6808118 0.5622339 0.6778668 0.591867 0.6144198 0.6158847 0.6808118 0.591867 0.6144198 0.6300145 0.5503624 0.5622339 0.6778668 0.6158847 0.6808118 0.6111391 0.737789 0.5828488 0.474876 0.5885405 0.4222476 0.6045625 0.4676127 0.5828488 0.474876 0.6045625 0.4676127 0.6300145 0.5503624 0.6111391 0.737789 0.6158847 0.6808118 0.6577249 0.7008927 0.6577249 0.7008927 0.6158847 0.6808118 0.6300145 0.5503624 0.6045625 0.4676127 0.5885405 0.4222476 0.6213779 0.4555429 0.6213779 0.4555429 0.5885405 0.4222476 0.5922637 0.4183566 0.6300145 0.5503624 0.6045625 0.4676127 0.6768749 0.5338521 0.6768749 0.5338521 0.6045625 0.4676127 0.6213779 0.4555429 0.6213779 0.4555429 0.5922637 0.4183566 0.6388342 0.4362555 0.6388342 0.4362555 0.5922637 0.4183566 0.6492409 0.419852 0.6213779 0.4555429 0.6388342 0.4362555 0.7136797 0.5037766 0.7136797 0.5037766 0.6388342 0.4362555 0.6492409 0.419852 0.6213779 0.4555429 0.7136797 0.5037766 0.6768749 0.5338521 0.7136797 0.5037766 0.6492409 0.419852 0.7336233 0.4548409 0.7136797 0.5037766 0.7336233 0.4548409 0.8225223 0.5331502 0.6768749 0.5338521 0.7136797 0.5037766 0.7297475 0.6246281 0.6768749 0.5338521 0.7297475 0.6246281 0.6300145 0.5503624 0.7136797 0.5037766 0.8225223 0.5331502 0.7889677 0.5760281 0.7136797 0.5037766 0.7889677 0.5760281 0.7297475 0.6246281 0.7889677 0.5760281 0.8225223 0.5331502 0.8811475 0.5963988 0.7889677 0.5760281 0.8811475 0.5963988 0.9144274 0.6992599 0.7889677 0.5760281 0.9144274 0.6992599 0.8556039 0.7211719 0.7889677 0.5760281 0.8556039 0.7211719 0.7297475 0.6246281 0.8556039 0.7211719 0.9144274 0.6992599 0.9875181 0.8186771 0.6873121 0.667155 0.6300145 0.5503624 0.7297475 0.6246281 0.6300145 0.5503624 0.6873121 0.667155 0.6577249 0.7008927 0.9932555 0.8449836 0.9875181 0.8186771 0.9963989 0.8320745 0.6577249 0.7008927 0.6873121 0.667155 0.7219349 0.7394675 0.7219349 0.7394675 0.6873121 0.667155 0.7297475 0.6246281 0.9875181 0.8186771 0.9932555 0.8449836 0.9552606 0.8419471 0.9875181 0.8186771 0.9552606 0.8419471 0.8556039 0.7211719 0.9552606 0.8419471 0.9932555 0.8449836 0.8944839 0.9158312 0.7881743 0.7346303 0.7297475 0.6246281 0.8556039 0.7211719 0.7881743 0.7346303 0.8556039 0.7211719 0.9552606 0.8419471 0.7297475 0.6246281 0.7881743 0.7346303 0.7560846 0.7347219 0.7297475 0.6246281 0.7560846 0.7347219 0.7219349 0.7394675 0.7881743 0.7346303 0.9552606 0.8419471 0.8157015 0.7820249 0.7881743 0.7346303 0.8157015 0.7820249 0.7560846 0.7347219 0.9552606 0.8419471 0.8944839 0.9158312 0.8728618 0.8795453 0.9552606 0.8419471 0.8728618 0.8795453 0.8157015 0.7820249 0.8728618 0.8795453 0.8944839 0.9158312 0.8003815 0.9364767 0.8728618 0.8795453 0.8003815 0.9364767 0.8157015 0.7820249 0.8157015 0.7820249 0.8003815 0.9364767 0.7560846 0.7347219 0.7560846 0.7347219 0.8003815 0.9364767 0.7219349 0.7394675 0.8003815 0.9364767 0.8944839 0.9158312 0.8084993 0.9532311 0.8003815 0.9364767 0.8084993 0.9532311 0.7196612 0.9782864 0.8003815 0.9364767 0.7196612 0.9782864 0.7136034 0.954879 0.8003815 0.9364767 0.7136034 0.954879 0.7219349 0.7394675 0.7219349 0.7394675 0.7136034 0.954879 0.6646067 0.7381094 0.7219349 0.7394675 0.6646067 0.7381094 0.6577249 0.7008927 0.6646067 0.7381094 0.7136034 0.954879 0.6111391 0.737789 0.6646067 0.7381094 0.6111391 0.737789 0.6577249 0.7008927 0.01974517 0.2708018 0.03210496 0.2728161 0.01622033 0.3854429 0.03210496 0.2728161 0.01974517 0.2708018 0.03208971 0.1604944 0.03208971 0.1604944 0.01974517 0.2708018 0.01979094 0.1575189 0.03208971 0.1604944 0.01979094 0.1575189 0.0536049 0.0296483 0.0536049 0.0296483 0.01979094 0.1575189 0.02276641 0.04524302 0.0536049 0.0296483 0.02276641 0.04524302 0.02420079 0.02259862 0.0536049 0.0296483 0.02420079 0.02259862 0.05783164 0.00465399 0.0536049 0.0296483 0.05783164 0.00465399 0.08715951 0.02623027 0.08715951 0.02623027 0.05783164 0.00465399 0.08616769 0.004608213 0.1835355 0.03187608 0.08616769 0.004608213 0.1821927 0.01577782 0.08616769 0.004608213 0.1835355 0.03187608 0.08715951 0.02623027 0.0536049 0.0296483 0.08715951 0.02623027 0.08018612 0.1587854 0.08018612 0.1587854 0.08715951 0.02623027 0.1835355 0.03187608 0.0536049 0.0296483 0.08018612 0.1587854 0.03208971 0.1604944 0.08018612 0.1587854 0.1835355 0.03187608 0.1554894 0.1640803 0.03208971 0.1604944 0.08018612 0.1587854 0.07177841 0.2714275 0.07177841 0.2714275 0.08018612 0.1587854 0.1554894 0.1640803 0.03208971 0.1604944 0.07177841 0.2714275 0.03210496 0.2728161 0.03210496 0.2728161 0.07177841 0.2714275 0.01622033 0.3854429 0.01622033 0.3854429 0.07177841 0.2714275 0.1065385 0.3756008 0.01622033 0.3854429 0.1065385 0.3756008 0.02467381 0.4707714 0.07177841 0.2714275 0.1554894 0.1640803 0.1358968 0.2517586 0.07177841 0.2714275 0.1358968 0.2517586 0.1065385 0.3756008 0.1358968 0.2517586 0.1554894 0.1640803 0.2037385 0.2445411 0.1358968 0.2517586 0.2037385 0.2445411 0.1065385 0.3756008 0.02467381 0.4707714 0.1065385 0.3756008 0.09864956 0.4666666 0.02467381 0.4707714 0.09864956 0.4666666 0.03248643 0.5881742 0.1065385 0.3756008 0.2037385 0.2445411 0.2087587 0.3794766 0.1065385 0.3756008 0.2087587 0.3794766 0.09864956 0.4666666 0.03248643 0.5881742 0.09864956 0.4666666 0.06205838 0.5858549 0.03248643 0.5881742 0.06205838 0.5858549 0.05864042 0.6381476 0.05864042 0.6381476 0.06205838 0.5858549 0.09979397 0.5943389 0.09979397 0.5943389 0.06205838 0.5858549 0.09864956 0.4666666 0.09979397 0.5943389 0.09864956 0.4666666 0.1471122 0.5101701 0.1471122 0.5101701 0.09864956 0.4666666 0.2087587 0.3794766 0.1471122 0.5101701 0.2087587 0.3794766 0.2630198 0.4359655 0.2630198 0.4359655 0.2087587 0.3794766 0.2893721 0.350515 0.2630198 0.4359655 0.2893721 0.350515 0.3400473 0.382208 0.2893721 0.350515 0.2087587 0.3794766 0.2543526 0.290135 0.2543526 0.290135 0.2087587 0.3794766 0.2037385 0.2445411 0.3400473 0.382208 0.2893721 0.350515 0.4171359 0.3047227 0.3400473 0.382208 0.4171359 0.3047227 0.4636911 0.364538 0.2893721 0.350515 0.2543526 0.290135 0.3654383 0.2476081 0.2893721 0.350515 0.3654383 0.2476081 0.4171359 0.3047227 0.2543526 0.290135 0.2037385 0.2445411 0.3052567 0.1952544 0.2543526 0.290135 0.3052567 0.1952544 0.3654383 0.2476081 0.3052567 0.1952544 0.2037385 0.2445411 0.2478828 0.1331197 0.2478828 0.1331197 0.2037385 0.2445411 0.1554894 0.1640803 0.2478828 0.1331197 0.1554894 0.1640803 0.2259708 0.03331047 0.2478828 0.1331197 0.2259708 0.03331047 0.2823224 0.06071567 0.2478828 0.1331197 0.2823224 0.06071567 0.3052567 0.1952544 0.2823224 0.06071567 0.2259708 0.03331047 0.2365301 0.02220189 0.2823224 0.06071567 0.2365301 0.02220189 0.2905623 0.0485084 0.3052567 0.1952544 0.2823224 0.06071567 0.354696 0.1133898 0.354696 0.1133898 0.2823224 0.06071567 0.2905623 0.0485084 0.3052567 0.1952544 0.354696 0.1133898 0.3654383 0.2476081 0.354696 0.1133898 0.2905623 0.0485084 0.4428779 0.1349508 0.3654383 0.2476081 0.354696 0.1133898 0.432166 0.153582 0.432166 0.153582 0.354696 0.1133898 0.4428779 0.1349508 0.3654383 0.2476081 0.432166 0.153582 0.4171359 0.3047227 0.432166 0.153582 0.4428779 0.1349508 0.505394 0.2091249 0.432166 0.153582 0.505394 0.2091249 0.4171359 0.3047227 0.505394 0.2091249 0.4428779 0.1349508 0.5238117 0.200534 0.4171359 0.3047227 0.505394 0.2091249 0.5665522 0.2767529 0.5665522 0.2767529 0.505394 0.2091249 0.5238117 0.200534 0.4171359 0.3047227 0.5665522 0.2767529 0.4636911 0.364538 0.5665522 0.2767529 0.5238117 0.200534 0.5788815 0.2603037 0.4636911 0.364538 0.5665522 0.2767529 0.5859007 0.303914 0.5859007 0.303914 0.5665522 0.2767529 0.5788815 0.2603037 0.5859007 0.303914 0.5788815 0.2603037 0.6167697 0.3175707 0.5859007 0.303914 0.6167697 0.3175707 0.6022583 0.3212482 0.5859007 0.303914 0.6022583 0.3212482 0.4636911 0.364538 0.4636911 0.364538 0.6022583 0.3212482 0.4643931 0.3799801 0.4636911 0.364538 0.4643931 0.3799801 0.3400473 0.382208 0.3400473 0.382208 0.4643931 0.3799801 0.3432975 0.3883573 0.3400473 0.382208 0.3432975 0.3883573 0.2630198 0.4359655 0.1159228 0.9488823 0.1985656 0.8486305 0.1749598 0.9909972 0.1985656 0.8486305 0.1159228 0.9488823 0.06486606 0.8664836 0.1985656 0.8486305 0.06486606 0.8664836 0.2735027 0.7494164 0.2735027 0.7494164 0.06486606 0.8664836 0.05883878 0.7415427 0.2735027 0.7494164 0.05883878 0.7415427 0.2098726 0.5973449 0.2098726 0.5973449 0.05883878 0.7415427 0.1568779 0.5411307 0.2098726 0.5973449 0.1568779 0.5411307 0.2221408 0.5095292 0.2735027 0.7494164 0.2098726 0.5973449 0.4054475 0.665507 0.440528 0.5202106 0.4054475 0.665507 0.4111696 0.4879072 0.4111696 0.4879072 0.4054475 0.665507 0.2098726 0.5973449 0.4111696 0.4879072 0.2098726 0.5973449 0.3795987 0.4842298 0.3795987 0.4842298 0.2098726 0.5973449 0.2644846 0.4932021 0.7364767 0.446601 0.8225223 0.5331502 0.7336233 0.4548409 0.7364767 0.446601 0.7336233 0.4548409 0.6492409 0.419852 0.7364767 0.446601 0.6492409 0.419852 0.6480354 0.4144198 0.6480354 0.4144198 0.6492409 0.419852 0.5922637 0.4183566 0.6480354 0.4144198 0.5922637 0.4183566 0.5943236 0.4153048 0.9966888 0.0447852 0.9375753 0.04251164 0.9710689 0.01210039 0.9375753 0.04251164 0.9966888 0.0447852 0.9424887 0.2162966 0.8605936 0.06512552 0.9710689 0.01210039 0.9375753 0.04251164 0.9375753 0.04251164 0.9424887 0.2162966 0.8598611 0.07101547 0.9375753 0.04251164 0.8598611 0.07101547 0.8605936 0.06512552 0.8598611 0.07101547 0.9424887 0.2162966 0.73962 0.02229344 0.8598611 0.07101547 0.73962 0.02229344 0.8605936 0.06512552 0.73962 0.02229344 0.9424887 0.2162966 0.8715343 0.2887312 0.73962 0.02229344 0.8715343 0.2887312 0.779675 0.3158312 0.73962 0.02229344 0.779675 0.3158312 0.6848707 0.3103074 0.73962 0.02229344 0.6848707 0.3103074 0.6035249 0.2611887 0.8605936 0.06512552 0.73962 0.02229344 0.7431601 0.01568627 0.73962 0.02229344 0.6035249 0.2611887 0.5436942 0.1956053 0.7431601 0.01568627 0.73962 0.02229344 0.6459602 0.01815825 0.6459602 0.01815825 0.73962 0.02229344 0.5436942 0.1956053 0.7431601 0.01568627 0.6459602 0.01815825 0.6411994 0.009521603 0.6459602 0.01815825 0.5436942 0.1956053 0.5341421 0.07005417 0.6411994 0.009521603 0.6459602 0.01815825 0.5325551 0.05908292 0.5325551 0.05908292 0.6459602 0.01815825 0.5341421 0.07005417 0.9561914 0.5166552 0.8946212 0.4648661 0.9011521 0.4387426 0.9561914 0.5166552 0.9011521 0.4387426 0.9129626 0.4163882 0.9011521 0.4387426 0.8946212 0.4648661 0.890425 0.4539559 0.9129626 0.4163882 0.9011521 0.4387426 0.9029831 0.4139315 0.9011521 0.4387426 0.890425 0.4539559 0.7599146 0.3656672 0.9011521 0.4387426 0.7599146 0.3656672 0.9029831 0.4139315</float_array>
          <technique_common>
            <accessor source="#Drake_Icicle__Mt_Body-mesh-map-array" count="678" stride="2">
              <param name="S" type="float"/>
              <param name="T" type="float"/>
            </accessor>
          </technique_common>
        </source>
        <vertices id="Drake_Icicle__Mt_Body-mesh-vertices">
          <input semantic="POSITION" source="#Drake_Icicle__Mt_Body-mesh-positions"/>
        </vertices>
        <triangles material="Mt_Body-material" count="226">
          <input semantic="VERTEX" source="#Drake_Icicle__Mt_Body-mesh-vertices" offset="0"/>
          <input semantic="NORMAL" source="#Drake_Icicle__Mt_Body-mesh-normals" offset="1"/>
          <input semantic="TEXCOORD" source="#Drake_Icicle__Mt_Body-mesh-map" offset="2" set="0"/>
          <p>0 0 0 1 0 1 2 0 2 3 1 3 4 2 4 5 3 5 6 4 6 7 5 7 8 6 8 6 4 9 8 6 10 9 7 11 9 7 12 8 6 13 10 8 14 9 7 15 10 8 16 11 9 17 11 9 18 10 8 19 12 10 20 13 11 21 14 12 22 15 13 23 13 11 24 15 13 25 16 14 26 16 14 27 15 13 28 17 15 29 16 14 30 17 15 31 18 16 32 18 16 33 17 15 34 19 17 35 19 17 36 17 15 37 20 18 38 19 17 39 20 18 40 21 19 41 20 18 42 17 15 43 22 20 44 22 20 45 17 15 46 23 21 47 21 19 48 20 18 49 24 22 50 24 22 51 20 18 52 22 20 53 21 19 54 24 22 55 25 23 56 22 20 57 23 21 58 26 24 59 25 23 60 24 22 61 27 25 62 25 23 63 27 25 64 28 26 65 24 22 66 22 20 67 29 27 68 28 26 69 27 25 70 30 28 71 27 25 72 24 22 73 31 29 74 31 29 75 24 22 76 29 27 77 27 25 78 31 29 79 30 28 80 29 27 81 22 20 82 32 30 83 29 27 84 32 30 85 31 29 86 32 30 87 22 20 88 26 24 89 28 26 90 30 28 91 33 31 92 28 26 93 33 31 94 34 32 95 30 28 96 31 29 97 35 33 98 30 28 99 35 33 100 33 31 101 31 29 102 32 30 103 36 34 104 31 29 105 36 34 106 35 33 107 32 30 108 26 24 109 37 35 110 37 35 111 26 24 112 38 36 113 37 35 114 38 36 115 39 37 116 32 30 117 37 35 118 40 38 119 32 30 120 40 38 121 36 34 122 37 35 123 39 37 124 41 39 125 37 35 126 41 39 127 40 38 128 41 39 129 39 37 130 42 40 131 36 34 132 40 38 133 43 41 134 41 39 135 42 40 136 44 42 137 44 42 138 42 40 139 45 43 140 40 38 141 41 39 142 46 44 143 40 38 144 46 44 145 43 41 146 46 44 147 41 39 148 44 42 149 44 42 150 45 43 151 47 45 152 43 41 153 46 44 154 48 46 155 48 46 156 46 44 157 44 42 158 49 47 159 36 34 160 43 41 161 49 47 162 43 41 163 48 46 164 36 34 165 49 47 166 35 33 167 44 42 168 47 45 169 50 48 170 44 42 171 50 48 172 48 46 173 35 33 174 49 47 175 51 49 176 51 49 177 49 47 178 48 46 179 50 48 180 47 45 181 52 50 182 52 50 183 47 45 184 53 51 185 48 46 186 50 48 187 54 52 188 54 52 189 50 48 190 52 50 191 52 50 192 53 51 193 55 53 194 55 53 195 53 51 196 56 54 197 52 50 198 55 53 199 57 55 200 57 55 201 55 53 202 56 54 203 52 50 204 57 55 205 54 52 206 57 55 207 56 54 208 58 56 209 57 55 210 58 56 211 59 57 212 54 52 213 57 55 214 60 58 215 54 52 216 60 58 217 48 46 218 57 55 219 59 57 220 61 59 221 57 55 222 61 59 223 60 58 224 61 59 225 59 57 226 62 60 227 61 59 228 62 60 229 63 61 230 61 59 231 63 61 232 64 62 233 61 59 234 64 62 235 60 58 236 64 62 237 63 61 238 65 63 239 66 64 240 48 46 241 60 58 242 48 46 243 66 64 244 51 49 245 67 65 246 65 63 247 68 66 248 51 49 249 66 64 250 69 67 251 69 67 252 66 64 253 60 58 254 65 63 255 67 65 256 70 68 257 65 63 258 70 68 259 64 62 260 70 68 261 67 65 262 71 69 263 72 70 264 60 58 265 64 62 266 72 70 267 64 62 268 70 68 269 60 58 270 72 70 271 73 71 272 60 58 273 73 71 274 69 67 275 72 70 276 70 68 277 74 72 278 72 70 279 74 72 280 73 71 281 70 68 282 71 69 283 75 73 284 70 68 285 75 73 286 74 72 287 75 73 288 71 69 289 76 74 290 75 73 291 76 74 292 74 72 293 74 72 294 76 74 295 73 71 296 73 71 297 76 74 298 69 67 299 76 74 300 71 69 301 77 75 302 76 74 303 77 75 304 34 32 305 76 74 306 34 32 307 33 31 308 76 74 309 33 31 310 69 67 311 69 67 312 33 31 313 78 76 314 69 67 315 78 76 316 51 49 317 78 76 318 33 31 319 35 33 320 78 76 321 35 33 322 51 49 323 79 77 324 80 78 325 81 79 326 80 78 327 79 77 328 82 80 329 82 80 330 79 77 331 83 81 332 82 80 333 83 81 334 84 82 335 84 82 336 83 81 337 85 83 338 84 82 339 85 83 340 86 84 341 84 82 342 86 84 343 87 85 344 84 82 345 87 85 346 88 86 347 88 86 348 87 85 349 89 87 350 90 88 351 89 87 352 91 89 353 89 87 354 90 88 355 88 86 356 84 82 357 88 86 358 92 90 359 92 90 360 88 86 361 90 88 362 84 82 363 92 90 364 93 91 365 92 90 366 90 88 367 94 92 368 93 91 369 92 90 370 95 93 371 95 93 372 92 90 373 94 92 374 93 91 375 95 93 376 96 94 377 96 94 378 95 93 379 97 95 380 97 95 381 95 93 382 98 96 383 97 95 384 98 96 385 99 97 386 95 93 387 94 92 388 100 98 389 95 93 390 100 98 391 98 96 392 100 98 393 94 92 394 101 99 395 100 98 396 101 99 397 98 96 398 99 97 399 98 96 400 102 100 401 99 97 402 102 100 403 103 101 404 98 96 405 101 99 406 104 102 407 98 96 408 104 102 409 102 100 410 103 101 411 102 100 412 105 103 413 103 101 414 105 103 415 106 104 416 106 104 417 105 103 418 107 105 419 107 105 420 105 103 421 102 100 422 107 105 423 102 100 424 108 106 425 108 106 426 102 100 427 104 102 428 108 106 429 104 102 430 109 107 431 109 107 432 104 102 433 110 108 434 109 107 435 110 108 436 111 109 437 110 108 438 104 102 439 112 110 440 112 110 441 104 102 442 101 99 443 111 109 444 110 108 445 113 111 446 111 109 447 113 111 448 114 112 449 110 108 450 112 110 451 115 113 452 110 108 453 115 113 454 113 111 455 112 110 456 101 99 457 116 114 458 112 110 459 116 114 460 115 113 461 116 114 462 101 99 463 117 115 464 117 115 465 101 99 466 94 92 467 117 115 468 94 92 469 118 116 470 117 115 471 118 116 472 119 117 473 117 115 474 119 117 475 116 114 476 119 117 477 118 116 478 120 118 479 119 117 480 120 118 481 121 119 482 116 114 483 119 117 484 122 120 485 122 120 486 119 117 487 121 119 488 116 114 489 122 120 490 115 113 491 122 120 492 121 119 493 123 121 494 115 113 495 122 120 496 124 122 497 124 122 498 122 120 499 123 121 500 115 113 501 124 122 502 113 111 503 124 122 504 123 121 505 125 123 506 124 122 507 125 123 508 113 111 509 125 123 510 123 121 511 126 124 512 113 111 513 125 123 514 127 125 515 127 125 516 125 123 517 126 124 518 113 111 519 127 125 520 114 112 521 127 125 522 126 124 523 128 126 524 114 112 525 127 125 526 129 127 527 129 127 528 127 125 529 128 126 530 129 127 531 128 126 532 130 128 533 129 127 534 130 128 535 131 129 536 129 127 537 131 129 538 132 130 539 132 130 540 131 129 541 133 131 542 132 130 543 133 131 544 134 132 545 134 132 546 133 131 547 135 133 548 134 132 549 135 133 550 136 134 551 137 135 552 138 136 553 139 137 554 138 136 555 137 135 556 140 138 557 138 136 558 140 138 559 141 139 560 141 139 561 140 138 562 142 140 563 141 139 564 142 140 565 143 141 566 143 141 567 142 140 568 144 142 569 143 141 570 144 142 571 145 143 572 141 139 573 143 141 574 146 144 575 147 145 576 146 144 577 148 146 578 148 146 579 146 144 580 143 141 581 148 146 582 143 141 583 149 147 584 149 147 585 143 141 586 150 148 587 151 149 588 152 150 589 153 151 590 151 149 591 153 151 592 154 152 593 151 149 594 154 152 595 155 153 596 155 153 597 154 152 598 156 154 599 155 153 600 156 154 601 157 155 602 158 156 603 159 157 604 160 158 605 159 157 606 158 156 607 161 159 608 162 160 609 163 161 610 159 157 611 159 157 612 161 159 613 164 162 614 159 157 615 164 162 616 162 160 617 164 162 618 161 159 619 165 163 620 164 162 621 165 163 622 162 160 623 165 163 624 161 159 625 166 164 626 165 163 627 166 164 628 167 165 629 165 163 630 167 165 631 168 166 632 165 163 633 168 166 634 169 167 635 162 160 636 165 163 637 170 168 638 165 163 639 169 167 640 171 169 641 170 168 642 165 163 643 172 170 644 172 170 645 165 163 646 171 169 647 170 168 648 172 170 649 173 171 650 172 170 651 171 169 652 174 172 653 173 171 654 172 170 655 175 173 656 175 173 657 172 170 658 174 172 659 176 174 660 177 175 661 178 176 662 176 174 663 178 176 664 179 177 665 178 176 666 177 175 667 180 178 668 179 177 669 178 176 670 181 179 671 178 176 672 180 178 673 182 180 674 178 176 675 182 180 676 181 179 677</p>
        </triangles>
      </mesh>
    </geometry>
  </library_geometries>
  <library_controllers>
    <controller id="Armature_Drake_Icicle__Mt_Body-skin" name="Armature">
      <skin source="#Drake_Icicle__Mt_Body-mesh">
        <bind_shape_matrix>1 0 0 0 0 1 0 0 0 0 1 0 0 0 0 1</bind_shape_matrix>
        <source id="Armature_Drake_Icicle__Mt_Body-skin-joints">
          <Name_array id="Armature_Drake_Icicle__Mt_Body-skin-joints-array" count="1">Root</Name_array>
          <technique_common>
            <accessor source="#Armature_Drake_Icicle__Mt_Body-skin-joints-array" count="1" stride="1">
              <param name="JOINT" type="name"/>
            </accessor>
          </technique_common>
        </source>
        <source id="Armature_Drake_Icicle__Mt_Body-skin-bind_poses">
          <float_array id="Armature_Drake_Icicle__Mt_Body-skin-bind_poses-array" count="16">1 0 0 0 0 -1.62921e-7 1 0 0 -1 -1.62921e-7 0 0 0 0 1</float_array>
          <technique_common>
            <accessor source="#Armature_Drake_Icicle__Mt_Body-skin-bind_poses-array" count="1" stride="16">
              <param name="TRANSFORM" type="float4x4"/>
            </accessor>
          </technique_common>
        </source>
        <source id="Armature_Drake_Icicle__Mt_Body-skin-weights">
          <float_array id="Armature_Drake_Icicle__Mt_Body-skin-weights-array" count="183">1 1 1 1 1 1 1 1 1 1 1 1 1 1 1 1 1 1 1 1 1 1 1 1 1 1 1 1 1 1 1 1 1 1 1 1 1 1 1 1 1 1 1 1 1 1 1 1 1 1 1 1 1 1 1 1 1 1 1 1 1 1 1 1 1 1 1 1 1 1 1 1 1 1 1 1 1 1 1 1 1 1 1 1 1 1 1 1 1 1 1 1 1 1 1 1 1 1 1 1 1 1 1 1 1 1 1 1 1 1 1 1 1 1 1 1 1 1 1 1 1 1 1 1 1 1 1 1 1 1 1 1 1 1 1 1 1 1 1 1 1 1 1 1 1 1 1 1 1 1 1 1 1 1 1 1 1 1 1 1 1 1 1 1 1 1 1 1 1 1 1 1 1 1 1 1 1 1 1 1 1 1 1</float_array>
          <technique_common>
            <accessor source="#Armature_Drake_Icicle__Mt_Body-skin-weights-array" count="183" stride="1">
              <param name="WEIGHT" type="float"/>
            </accessor>
          </technique_common>
        </source>
        <joints>
          <input semantic="JOINT" source="#Armature_Drake_Icicle__Mt_Body-skin-joints"/>
          <input semantic="INV_BIND_MATRIX" source="#Armature_Drake_Icicle__Mt_Body-skin-bind_poses"/>
        </joints>
        <vertex_weights count="183">
          <input semantic="JOINT" source="#Armature_Drake_Icicle__Mt_Body-skin-joints" offset="0"/>
          <input semantic="WEIGHT" source="#Armature_Drake_Icicle__Mt_Body-skin-weights" offset="1"/>
          <vcount>1 1 1 1 1 1 1 1 1 1 1 1 1 1 1 1 1 1 1 1 1 1 1 1 1 1 1 1 1 1 1 1 1 1 1 1 1 1 1 1 1 1 1 1 1 1 1 1 1 1 1 1 1 1 1 1 1 1 1 1 1 1 1 1 1 1 1 1 1 1 1 1 1 1 1 1 1 1 1 1 1 1 1 1 1 1 1 1 1 1 1 1 1 1 1 1 1 1 1 1 1 1 1 1 1 1 1 1 1 1 1 1 1 1 1 1 1 1 1 1 1 1 1 1 1 1 1 1 1 1 1 1 1 1 1 1 1 1 1 1 1 1 1 1 1 1 1 1 1 1 1 1 1 1 1 1 1 1 1 1 1 1 1 1 1 1 1 1 1 1 1 1 1 1 1 1 1 1 1 1 1 1 1 </vcount>
          <v>0 0 0 1 0 2 0 3 0 4 0 5 0 6 0 7 0 8 0 9 0 10 0 11 0 12 0 13 0 14 0 15 0 16 0 17 0 18 0 19 0 20 0 21 0 22 0 23 0 24 0 25 0 26 0 27 0 28 0 29 0 30 0 31 0 32 0 33 0 34 0 35 0 36 0 37 0 38 0 39 0 40 0 41 0 42 0 43 0 44 0 45 0 46 0 47 0 48 0 49 0 50 0 51 0 52 0 53 0 54 0 55 0 56 0 57 0 58 0 59 0 60 0 61 0 62 0 63 0 64 0 65 0 66 0 67 0 68 0 69 0 70 0 71 0 72 0 73 0 74 0 75 0 76 0 77 0 78 0 79 0 80 0 81 0 82 0 83 0 84 0 85 0 86 0 87 0 88 0 89 0 90 0 91 0 92 0 93 0 94 0 95 0 96 0 97 0 98 0 99 0 100 0 101 0 102 0 103 0 104 0 105 0 106 0 107 0 108 0 109 0 110 0 111 0 112 0 113 0 114 0 115 0 116 0 117 0 118 0 119 0 120 0 121 0 122 0 123 0 124 0 125 0 126 0 127 0 128 0 129 0 130 0 131 0 132 0 133 0 134 0 135 0 136 0 137 0 138 0 139 0 140 0 141 0 142 0 143 0 144 0 145 0 146 0 147 0 148 0 149 0 150 0 151 0 152 0 153 0 154 0 155 0 156 0 157 0 158 0 159 0 160 0 161 0 162 0 163 0 164 0 165 0 166 0 167 0 168 0 169 0 170 0 171 0 172 0 173 0 174 0 175 0 176 0 177 0 178 0 179 0 180 0 181 0 182</v>
        </vertex_weights>
      </skin>
    </controller>
  </library_controllers>
  <library_visual_scenes>
    <visual_scene id="Scene" name="Scene">
      <node id="Armature" name="Armature" type="NODE">
        <matrix sid="transform">1 0 0 0 0 -1.62921e-7 -1 0 0 1 -1.62921e-7 0 0 0 0 1</matrix>
        <node id="Armature_Root" name="Root" sid="Root" type="JOINT">
          <matrix sid="transform">1 0 0 0 0 1 0 0 0 0 1 0 0 0 0 1</matrix>
          <extra>
            <technique profile="blender">
              <layer sid="layer" type="string">0</layer>
              <tip_x sid="tip_x" type="float">0</tip_x>
              <tip_y sid="tip_y" type="float">1</tip_y>
              <tip_z sid="tip_z" type="float">0</tip_z>
            </technique>
          </extra>
        </node>
        <node id="Drake_Icicle__Mt_Body" name="Drake_Icicle__Mt_Body" type="NODE">
          <matrix sid="transform">1 0 0 0 0 1 0 0 0 0 1 0 0 0 0 1</matrix>
          <instance_controller url="#Armature_Drake_Icicle__Mt_Body-skin">
            <skeleton>#Armature_Root</skeleton>
            <bind_material>
              <technique_common>
                <instance_material symbol="Mt_Body-material" target="#Mt_Body-material">
                  <bind_vertex_input semantic="Drake_Icicle__Mt_Body-texcoord" input_semantic="TEXCOORD" input_set="0"/>
                </instance_material>
              </technique_common>
            </bind_material>
          </instance_controller>
        </node>
      </node>
    </visual_scene>
  </library_visual_scenes>
  <scene>
    <instance_visual_scene url="#Scene"/>
  </scene>
</COLLADA>