mtllib bve_modelT.mtl
o nodes_2__meshes[0]
v 40.000000 120.000000 -70.000000
v -40.000000 120.000000 -70.000000
v 0.000000 2.000000 0.000000
v -40.000000 120.000000 70.000000
v 40.000000 120.000000 70.000000
v -80.000000 120.000000 0.000000
v 80.000000 120.000000 0.000000
vt 1.000000 1.000000
vt 0.000000 1.000000
vt 0.500015 0.000000
vt 0.000000 1.000000
vt 1.000000 1.000000
vt 1.000000 1.000000
vt 0.000000 1.000000
vn -0.4137 0.5641 0.7145
vn 0.4137 0.5641 0.7145
vn 0.0000 1.0000 0.0000
vn 0.4137 0.5641 -0.7145
vn -0.4137 0.5641 -0.7145
vn 0.8277 0.5611 0.0000
vn -0.8277 0.5611 0.0000
usemtl material0
s 1
f 1/1/1 2/2/2 3/3/3
f 4/4/4 5/5/5 3/3/3
f 2/2/2 6/6/6 3/3/3
f 7/7/7 1/1/1 3/3/3
f 5/5/5 7/7/7 3/3/3
f 6/6/6 4/4/4 3/3/3
