<?xml version="1.0" encoding="utf-8"?>
<COLLADA xmlns="http://www.collada.org/2005/11/COLLADASchema" version="1.4.1" xmlns:xsi="http://www.w3.org/2001/XMLSchema-instance">
  <asset>
    <contributor>
      <author>Blender User</author>
      <authoring_tool>Blender 2.79.0 commit date:2018-03-22, commit time:14:10, hash:f4dc9f9d68b</authoring_tool>
    </contributor>
    <created>2023-10-30T17:32:24</created>
    <modified>2023-10-30T17:32:24</modified>
    <unit name="meter" meter="1"/>
    <up_axis>Z_UP</up_axis>
  </asset>
  <library_images>
    <image id="balinade_04_png" name="balinade_04_png">
      <init_from>balinade_04.png</init_from>
    </image>
  </library_images>
  <library_effects>
    <effect id="balinade_04_png-effect">
      <profile_COMMON>
        <newparam sid="balinade_04_png-surface">
          <surface type="2D">
            <init_from>balinade_04_png</init_from>
          </surface>
        </newparam>
        <newparam sid="balinade_04_png-sampler">
          <sampler2D>
            <source>balinade_04_png-surface</source>
          </sampler2D>
        </newparam>
        <technique sid="common">
          <phong>
            <diffuse>
              <texture texture="balinade_04_png-sampler" texcoord="balinade_04_png"/>
            </diffuse>
            <specular>
              <color sid="specular">0 0 0 1</color>
            </specular>
          </phong>
        </technique>
      </profile_COMMON>
    </effect>
  </library_effects>
  <library_materials>
    <material id="balinade_04_png-material" name="balinade_04_png">
      <instance_effect url="#balinade_04_png-effect"/>
    </material>
  </library_materials>
  <library_geometries>
    <geometry id="meshes_0_-mesh" name="meshes[0]">
      <mesh>
        <source id="meshes_0_-mesh-positions">
          <float_array id="meshes_0_-mesh-positions-array" count="261">-95.5656 -155.0252 -69.1884 11.40396 -197.3336 -27.1852 -37.78396 -195.3396 21.21312 37.08448 -155.0252 -112.1048 118.04 -155.0252 0.06254315 25.73516 -192.7556 41.5872 37.08448 -155.0252 112.2296 108.0172 -114.344 134.8724 118.04 -155.0252 0.06254315 59.518 -37.00596 182.456 151.6644 -43.444 132.0432 162.3684 -100.79 73.35201 191.1924 -37.00596 0.06254315 155.104 37.12192 112.2296 104.2948 66.2612 167.0996 23.03848 86.3664 189.842 -59.4768 37.12192 182.456 -37.0434 155.1412 112.2296 68.5604 140.086 141.7872 95.6064 155.1412 69.3136 155.104 37.12192 112.2296 194.3756 74.2936 -45.2124 196.5636 57.0844 47.0404 155.104 37.12192 -112.1048 95.6064 155.1412 -69.1884 153.126 136.1404 13.78316 95.6064 155.1412 69.3136 155.104 37.12192 112.2296 -138.8232 128.2124 -70.5004 -134.08 83.47721 -134.024 -177.7164 65.4476 -71.4632 -37.0434 155.1412 -112.1048 -117.9988 155.1412 0.06254315 -191.1512 37.12192 0.06254315 -155.0628 -37.00596 -112.1048 -59.4768 37.12192 -182.3312 59.518 -37.00596 -182.3312 29.67468 74.09921 -184.764 102.7428 59.3076 -161.8524 70.74561 126.8112 -136.7896 95.6064 155.1412 -69.1884 -37.0434 155.1412 -112.1048 59.518 -37.00596 -182.3312 -62.2604 -69.54881 -186.7376 -14.97528 -127.8532 -166.6632 37.08448 -155.0252 -112.1048 -95.5656 -155.0252 -69.1884 -86.62801 -128.2496 -141.7684 -155.0628 -37.00596 -112.1048 -95.5656 -155.0252 -69.1884 -162.0508 -115.9748 -25.44068 -95.5656 -155.0252 69.3136 -175.1636 -92.50321 43.1448 -155.0628 -37.00596 112.2296 -194.8952 -54.6876 -18.69756 -191.1512 37.12192 0.06254315 -117.9988 155.1412 0.06254315 -121.528 135.1388 99.5952 -37.0434 155.1412 112.2296 -175.4968 84.8492 74.4868 -191.1512 37.12192 0.06254315 -155.0628 -37.00596 112.2296 -136.142 64.4616 139.088 -59.4768 37.12192 182.456 95.6064 155.1412 69.3136 47.3044 194.1964 -13.46368 -17.65592 199.358 44.3912 -37.0434 155.1412 112.2296 -39.02396 197.152 -39.57636 -37.0434 155.1412 -112.1048 37.08448 -155.0252 112.2296 -80.2264 -127.5668 146.0324 -95.5656 -155.0252 69.3136 -14.89696 -95.4484 176.888 59.518 -37.00596 182.456 -80.6232 -57.6284 181.3952 -59.4768 37.12192 182.456 -155.0628 -37.00596 112.2296 174.7104 -63.4228 -85.332 124.5724 -78.9284 -144.9416 155.104 37.12192 -112.1048 132.388 -129.3316 -84.0616 191.1924 -37.00596 0.06254315 59.518 -37.00596 -182.3312 37.08448 -155.0252 -112.1048 155.104 37.12192 -112.1048 -95.5656 -155.0252 69.3136</float_array>
          <technique_common>
            <accessor source="#meshes_0_-mesh-positions-array" count="87" stride="3">
              <param name="X" type="float"/>
              <param name="Y" type="float"/>
              <param name="Z" type="float"/>
            </accessor>
          </technique_common>
        </source>
        <source id="meshes_0_-mesh-normals">
          <float_array id="meshes_0_-mesh-normals-array" count="261">-0.3399861 -0.9036185 -0.2605441 0.08575928 -0.9695075 -0.2295663 -0.2719302 -0.9527936 0.1350495 0.1318113 -0.9025979 -0.4098084 0.4414207 -0.8972156 -0.01232945 0.1904419 -0.942016 0.2762933 0.2072852 -0.8360687 0.5079587 0.4166812 -0.613867 0.6704805 0.6643189 -0.747332 0.01324546 0.3230138 -0.144172 0.9353483 0.750171 -0.08392882 0.6558961 0.8241232 -0.5108081 0.2447373 0.976777 -0.2061593 0.0583533 0.8242026 0.1018121 0.5570677 0.6028569 0.2217565 0.7664122 -0.008880972 0.3549963 0.9348255 -0.2215707 0.2291395 0.9478405 -0.1584575 0.7639655 0.6254982 0.3400442 0.7567829 0.558256 0.5158954 0.7798554 0.3545103 0.775573 0.2230703 0.5905305 0.8955532 0.3039094 -0.3249981 0.9136222 0.2023726 0.3526186 0.7927863 0.199074 -0.5760725 0.556487 0.764811 -0.3246327 0.6472216 0.7531539 0.1177432 0.5729179 0.7466978 0.3379459 0.7912149 0.2505336 0.5578638 -0.6511247 0.7133836 -0.2590765 -0.5918666 0.3711488 -0.7155015 -0.9301816 0.2538246 -0.2652081 -0.3281104 0.7386834 -0.5888043 -0.6562801 0.7488746 -0.09210622 -0.9642771 0.2522087 -0.08099728 -0.8049828 -0.04376494 -0.5916819 -0.2917904 0.1975483 -0.9358596 0.2977485 -0.02621626 -0.9542844 0.0669592 0.3465766 -0.9356288 0.5791559 0.2444253 -0.7777113 0.3635172 0.6914183 -0.6243366 0.4250107 0.8139782 -0.3959869 -0.04788386 0.7110558 -0.7015034 0.1929743 -0.2254469 -0.9549527 -0.3138922 -0.184032 -0.9314526 0.06326574 -0.6613454 -0.7474088 0.1785388 -0.8021125 -0.5698593 -0.4791203 -0.8030811 -0.3542664 -0.4983749 -0.6657106 -0.5553844 -0.7888672 -0.2475433 -0.5625043 -0.6147856 -0.7394885 -0.274218 -0.7346546 -0.6503915 -0.1930635 -0.612223 -0.745258 0.2641471 -0.8409919 -0.4430803 0.3105041 -0.8627767 -0.2412234 0.4443284 -0.9785023 -0.1692587 -0.1178341 -0.9990683 0.03579866 0.02410995 -0.5865462 0.8092134 0.03372353 -0.4798523 0.7383494 0.473901 -0.2678062 0.7461341 0.6095605 -0.9002835 0.3524958 0.2554145 -0.9741856 0.2157125 0.06656324 -0.8139402 -0.06872862 0.576869 -0.6020156 0.2301734 0.7645898 -0.3944646 0.2671983 0.8792058 0.3864358 0.8765151 0.2870343 0.3270442 0.9393823 -0.1029719 -0.1022084 0.9469771 0.3046111 -0.1610804 0.8472443 0.5061919 -0.2356104 0.9308444 -0.2793143 -0.1225652 0.8573461 -0.4999355 0.1097465 -0.7518671 0.6501166 -0.4127125 -0.6768876 0.609501 -0.4827257 -0.7894764 0.3790817 0.07159763 -0.4506135 0.8898435 0.1507338 -0.2548649 0.9551562 -0.4082022 -0.1518054 0.9001812 -0.285326 0.05295115 0.9569668 -0.7467619 -0.2286155 0.6245651 0.9115749 -0.2450073 -0.3301556 0.532868 -0.3411148 -0.7743982 0.8052288 0.07104957 -0.5886924 0.6136515 -0.7197671 -0.3246033 0.9569819 -0.2721983 -0.1004683 0.3717815 -0.2260841 -0.9003691 0.2936238 -0.7546751 -0.5867288 0.7208723 0.2704949 -0.6381033 -0.3784046 -0.881052 0.2838264</float_array>
          <technique_common>
            <accessor source="#meshes_0_-mesh-normals-array" count="87" stride="3">
              <param name="X" type="float"/>
              <param name="Y" type="float"/>
              <param name="Z" type="float"/>
            </accessor>
          </technique_common>
        </source>
        <source id="meshes_0_-mesh-map-0">
          <float_array id="meshes_0_-mesh-map-0-array" count="648">0.984375 0.65625 0.5 0.640625 0.6875 0.3125 0.984375 0.65625 0.5 0.984375 0.5 0.640625 0.5 0.984375 0.015625 0.671875 0.5 0.640625 0.5 0.640625 0.015625 0.671875 0.3125 0.3125 0.5 0.640625 0.3125 0.3125 0.6875 0.3125 0.3125 0.3125 0.1875 0.015625 0.6875 0.3125 0.3125 0.3125 0.015625 0.671875 0.1875 0.015625 0.3125 0.3125 0.1875 0.015625 0.8125 0.015625 0.015625 0.671875 0.1875 0.015625 0.3125 0.3125 0.5 0.640625 0.015625 0.671875 0.3125 0.3125 0.6875 0.3125 0.5 0.640625 0.3125 0.3125 0.8125 0.015625 0.6875 0.3125 0.3125 0.3125 0.984375 0.65625 0.6875 0.3125 0.8125 0.015625 0.984375 0.65625 0.5 0.640625 0.6875 0.3125 0.984375 0.65625 0.5 0.984375 0.5 0.640625 0.5 0.984375 0.015625 0.671875 0.5 0.640625 0.015625 0.671875 0.3125 0.3125 0.5 0.640625 0.5 0.984375 0.015625 0.671875 0.5 0.640625 0.984375 0.65625 0.5 0.984375 0.5 0.640625 0.6875 0.3125 0.984375 0.65625 0.5 0.640625 0.8125 0.015625 0.984375 0.65625 0.6875 0.3125 0.1875 0.015625 0.8125 0.015625 0.6875 0.3125 0.1875 0.015625 0.6875 0.3125 0.3125 0.3125 0.1875 0.015625 0.3125 0.3125 0.015625 0.671875 0.3125 0.3125 0.6875 0.3125 0.5 0.640625 0.984375 0.65625 0.5 0.640625 0.6875 0.3125 0.984375 0.65625 0.5 0.984375 0.5 0.640625 0.5 0.984375 0.015625 0.671875 0.5 0.640625 0.015625 0.671875 0.3125 0.3125 0.5 0.640625 0.015625 0.671875 0.1875 0.015625 0.3125 0.3125 0.1875 0.015625 0.8125 0.015625 0.3125 0.3125 0.3125 0.3125 0.8125 0.015625 0.6875 0.3125 0.3125 0.3125 0.6875 0.3125 0.5 0.640625 0.984375 0.65625 0.6875 0.3125 0.8125 0.015625 0.6875 0.3125 0.5 0.640625 0.3125 0.3125 0.6875 0.3125 0.984375 0.65625 0.5 0.640625 0.8125 0.015625 0.984375 0.65625 0.6875 0.3125 0.8125 0.015625 0.6875 0.3125 0.1875 0.015625 0.1875 0.015625 0.6875 0.3125 0.3125 0.3125 0.015625 0.671875 0.1875 0.015625 0.3125 0.3125 0.015625 0.671875 0.3125 0.3125 0.5 0.640625 0.5 0.984375 0.015625 0.671875 0.5 0.640625 0.984375 0.65625 0.5 0.984375 0.5 0.640625 0.984375 0.65625 0.5 0.984375 0.5 0.640625 0.6875 0.3125 0.984375 0.65625 0.5 0.640625 0.6875 0.3125 0.5 0.640625 0.3125 0.3125 0.1875 0.015625 0.6875 0.3125 0.3125 0.3125 0.3125 0.3125 0.015625 0.671875 0.1875 0.015625 0.5 0.640625 0.015625 0.671875 0.3125 0.3125 0.5 0.984375 0.015625 0.671875 0.5 0.640625 0.015625 0.671875 0.5 0.640625 0.5 0.984375 0.015625 0.671875 0.3125 0.3125 0.5 0.640625 0.015625 0.671875 0.1875 0.015625 0.3125 0.3125 0.1875 0.015625 0.8125 0.015625 0.3125 0.3125 0.3125 0.3125 0.8125 0.015625 0.6875 0.3125 0.3125 0.3125 0.6875 0.3125 0.5 0.640625 0.5 0.640625 0.6875 0.3125 0.984375 0.65625 0.5 0.640625 0.984375 0.65625 0.5 0.984375 0.5 0.984375 0.5 0.640625 0.984375 0.65625 0.5 0.984375 0.015625 0.671875 0.5 0.640625 0.015625 0.671875 0.3125 0.3125 0.5 0.640625 0.015625 0.671875 0.1875 0.015625 0.3125 0.3125 0.1875 0.015625 0.6875 0.3125 0.3125 0.3125 0.1875 0.015625 0.8125 0.015625 0.6875 0.3125 0.984375 0.65625 0.6875 0.3125 0.8125 0.015625 0.5 0.640625 0.6875 0.3125 0.984375 0.65625 0.3125 0.3125 0.6875 0.3125 0.5 0.640625 0.984375 0.65625 0.6875 0.3125 0.8125 0.015625 0.984375 0.65625 0.5 0.640625 0.6875 0.3125 0.984375 0.65625 0.5 0.984375 0.5 0.640625 0.5 0.984375 0.015625 0.671875 0.5 0.640625 0.5 0.640625 0.015625 0.671875 0.3125 0.3125 0.5 0.640625 0.3125 0.3125 0.6875 0.3125 0.3125 0.3125 0.1875 0.015625 0.6875 0.3125 0.3125 0.3125 0.015625 0.671875 0.1875 0.015625 0.6875 0.3125 0.1875 0.015625 0.8125 0.015625 0.015625 0.671875 0.3125 0.3125 0.5 0.640625 0.5 0.640625 0.5 0.984375 0.015625 0.671875 0.984375 0.65625 0.5 0.984375 0.5 0.640625 0.6875 0.3125 0.984375 0.65625 0.5 0.640625 0.3125 0.3125 0.6875 0.3125 0.5 0.640625 0.1875 0.015625 0.6875 0.3125 0.3125 0.3125 0.1875 0.015625 0.8125 0.015625 0.6875 0.3125 0.8125 0.015625 0.984375 0.65625 0.6875 0.3125 0.015625 0.671875 0.5 0.640625 0.5 0.984375 0.015625 0.671875 0.3125 0.3125 0.5 0.640625 0.015625 0.671875 0.1875 0.015625 0.3125 0.3125 0.1875 0.015625 0.6875 0.3125 0.3125 0.3125 0.1875 0.015625 0.8125 0.015625 0.6875 0.3125 0.8125 0.015625 0.984375 0.65625 0.6875 0.3125 0.6875 0.3125 0.984375 0.65625 0.5 0.640625 0.3125 0.3125 0.6875 0.3125 0.5 0.640625 0.5 0.640625 0.984375 0.65625 0.5 0.984375 0.3125 0.3125 0.5 0.640625 0.015625 0.671875 0.3125 0.3125 0.6875 0.3125 0.5 0.640625 0.3125 0.3125 0.8125 0.015625 0.6875 0.3125 0.1875 0.015625 0.8125 0.015625 0.3125 0.3125 0.1875 0.015625 0.3125 0.3125 0.015625 0.671875 0.5 0.640625 0.5 0.984375 0.015625 0.671875 0.984375 0.65625 0.5 0.984375 0.5 0.640625 0.6875 0.3125 0.984375 0.65625 0.5 0.640625 0.8125 0.015625 0.984375 0.65625 0.6875 0.3125 0.8125 0.015625 0.984375 0.65625 0.6875 0.3125 0.8125 0.015625 0.6875 0.3125 0.1875 0.015625 0.1875 0.015625 0.3125 0.3125 0.015625 0.671875 0.6875 0.3125 0.1875 0.015625 0.8125 0.015625 0.984375 0.65625 0.6875 0.3125 0.8125 0.015625 0.984375 0.65625 0.6875 0.3125 0.8125 0.015625</float_array>
          <technique_common>
            <accessor source="#meshes_0_-mesh-map-0-array" count="324" stride="2">
              <param name="S" type="float"/>
              <param name="T" type="float"/>
            </accessor>
          </technique_common>
        </source>
        <source id="meshes_0_-mesh-colors-COLOR_0" name="COLOR_0">
          <float_array id="meshes_0_-mesh-colors-COLOR_0-array" count="972">1 1 1 1 1 1 1 1 1 1 1 1 1 1 1 1 1 1 1 1 1 1 1 1 1 1 1 1 1 1 1 1 1 1 1 1 1 1 1 1 1 1 1 1 1 1 1 1 1 1 1 1 1 1 1 1 1 1 1 1 1 1 1 1 1 1 1 1 1 1 1 1 1 1 1 1 1 1 1 1 1 1 1 1 1 1 1 1 1 1 1 1 1 1 1 1 1 1 1 1 1 1 1 1 1 1 1 1 1 1 1 1 1 1 1 1 1 1 1 1 1 1 1 1 1 1 1 1 1 1 1 1 1 1 1 1 1 1 1 1 1 1 1 1 1 1 1 1 1 1 1 1 1 1 1 1 1 1 1 1 1 1 1 1 1 1 1 1 1 1 1 1 1 1 1 1 1 1 1 1 1 1 1 1 1 1 1 1 1 1 1 1 1 1 1 1 1 1 1 1 1 1 1 1 1 1 1 1 1 1 1 1 1 1 1 1 1 1 1 1 1 1 1 1 1 1 1 1 1 1 1 1 1 1 1 1 1 1 1 1 1 1 1 1 1 1 1 1 1 1 1 1 1 1 1 1 1 1 1 1 1 1 1 1 1 1 1 1 1 1 1 1 1 1 1 1 1 1 1 1 1 1 1 1 1 1 1 1 1 1 1 1 1 1 1 1 1 1 1 1 1 1 1 1 1 1 1 1 1 1 1 1 1 1 1 1 1 1 1 1 1 1 1 1 1 1 1 1 1 1 1 1 1 1 1 1 1 1 1 1 1 1 1 1 1 1 1 1 1 1 1 1 1 1 1 1 1 1 1 1 1 1 1 1 1 1 1 1 1 1 1 1 1 1 1 1 1 1 1 1 1 1 1 1 1 1 1 1 1 1 1 1 1 1 1 1 1 1 1 1 1 1 1 1 1 1 1 1 1 1 1 1 1 1 1 1 1 1 1 1 1 1 1 1 1 1 1 1 1 1 1 1 1 1 1 1 1 1 1 1 1 1 1 1 1 1 1 1 1 1 1 1 1 1 1 1 1 1 1 1 1 1 1 1 1 1 1 1 1 1 1 1 1 1 1 1 1 1 1 1 1 1 1 1 1 1 1 1 1 1 1 1 1 1 1 1 1 1 1 1 1 1 1 1 1 1 1 1 1 1 1 1 1 1 1 1 1 1 1 1 1 1 1 1 1 1 1 1 1 1 1 1 1 1 1 1 1 1 1 1 1 1 1 1 1 1 1 1 1 1 1 1 1 1 1 1 1 1 1 1 1 1 1 1 1 1 1 1 1 1 1 1 1 1 1 1 1 1 1 1 1 1 1 1 1 1 1 1 1 1 1 1 1 1 1 1 1 1 1 1 1 1 1 1 1 1 1 1 1 1 1 1 1 1 1 1 1 1 1 1 1 1 1 1 1 1 1 1 1 1 1 1 1 1 1 1 1 1 1 1 1 1 1 1 1 1 1 1 1 1 1 1 1 1 1 1 1 1 1 1 1 1 1 1 1 1 1 1 1 1 1 1 1 1 1 1 1 1 1 1 1 1 1 1 1 1 1 1 1 1 1 1 1 1 1 1 1 1 1 1 1 1 1 1 1 1 1 1 1 1 1 1 1 1 1 1 1 1 1 1 1 1 1 1 1 1 1 1 1 1 1 1 1 1 1 1 1 1 1 1 1 1 1 1 1 1 1 1 1 1 1 1 1 1 1 1 1 1 1 1 1 1 1 1 1 1 1 1 1 1 1 1 1 1 1 1 1 1 1 1 1 1 1 1 1 1 1 1 1 1 1 1 1 1 1 1 1 1 1 1 1 1 1 1 1 1 1 1 1 1 1 1 1 1 1 1 1 1 1 1 1 1 1 1 1 1 1 1 1 1 1 1 1 1 1 1 1 1 1 1 1 1 1 1 1 1 1 1 1 1 1 1 1 1 1 1 1 1 1 1 1 1 1 1 1 1 1 1 1 1 1 1 1 1 1 1 1 1 1 1 1 1 1 1 1 1 1 1 1 1 1 1 1 1 1 1 1 1 1 1 1 1 1 1 1 1 1 1 1 1 1 1 1 1 1 1 1 1 1 1 1 1 1 1 1 1 1 1 1 1 1 1 1 1 1 1 1 1 1 1 1 1 1 1 1 1 1 1 1 1 1 1 1 1 1 1 1 1 1 1 1 1 1 1 1 1 1 1 1 1 1 1</float_array>
          <technique_common>
            <accessor source="#meshes_0_-mesh-colors-COLOR_0-array" count="324" stride="3">
              <param name="R" type="float"/>
              <param name="G" type="float"/>
              <param name="B" type="float"/>
            </accessor>
          </technique_common>
        </source>
        <vertices id="meshes_0_-mesh-vertices">
          <input semantic="POSITION" source="#meshes_0_-mesh-positions"/>
        </vertices>
        <triangles material="balinade_04_png-material" count="108">
          <input semantic="VERTEX" source="#meshes_0_-mesh-vertices" offset="0"/>
          <input semantic="NORMAL" source="#meshes_0_-mesh-normals" offset="1"/>
          <input semantic="TEXCOORD" source="#meshes_0_-mesh-map-0" offset="2" set="0"/>
          <input semantic="COLOR" source="#meshes_0_-mesh-colors-COLOR_0" offset="3" set="0"/>
          <p>0 0 0 0 1 1 1 1 2 2 2 2 0 0 3 3 3 3 4 4 1 1 5 5 3 3 6 6 4 4 7 7 1 1 8 8 1 1 9 9 4 4 10 10 5 5 11 11 1 1 12 12 5 5 13 13 2 2 14 14 5 5 15 15 6 6 16 16 2 2 17 17 5 5 18 18 4 4 19 19 6 6 20 20 7 7 21 21 6 6 22 22 8 8 23 23 9 9 24 24 6 6 25 25 7 7 26 26 10 10 27 27 9 9 28 28 7 7 29 29 11 11 30 30 10 10 31 31 7 7 32 32 8 8 33 33 11 11 34 34 7 7 35 35 12 12 36 36 11 11 37 37 8 8 38 38 12 12 39 39 10 10 40 40 11 11 41 41 12 12 42 42 13 13 43 43 10 10 44 44 13 13 45 45 9 9 46 46 10 10 47 47 9 9 48 48 14 14 49 49 15 15 50 50 16 16 51 51 9 9 52 52 15 15 53 53 17 17 54 54 16 16 55 55 15 15 56 56 18 18 57 57 17 17 58 58 15 15 59 59 19 19 60 60 17 17 61 61 18 18 62 62 20 20 63 63 19 19 64 64 18 18 65 65 20 20 66 66 18 18 67 67 14 14 68 68 20 20 69 69 14 14 70 70 9 9 71 71 14 14 72 72 18 18 73 73 15 15 74 74 12 12 75 75 21 21 76 76 22 22 77 77 12 12 78 78 23 23 79 79 21 21 80 80 23 23 81 81 24 24 82 82 21 21 83 83 24 24 84 84 25 25 85 85 21 21 86 86 24 24 87 87 26 26 88 88 25 25 89 89 26 26 90 90 27 27 91 91 25 25 92 92 25 25 93 93 27 27 94 94 22 22 95 95 25 25 96 96 22 22 97 97 21 21 98 98 12 12 99 99 22 22 100 100 27 27 101 101 28 28 102 102 29 29 103 103 30 30 104 104 28 28 105 105 31 31 106 106 29 29 107 107 32 32 108 108 31 31 109 109 28 28 110 110 32 32 111 111 28 28 112 112 33 33 113 113 33 33 114 114 28 28 115 115 30 30 116 116 34 34 117 117 33 33 118 118 30 30 119 119 34 34 120 120 30 30 121 121 29 29 122 122 35 35 123 123 34 34 124 124 29 29 125 125 31 31 126 126 35 35 127 127 29 29 128 128 36 36 129 129 35 35 130 130 37 37 131 131 38 38 132 132 36 36 133 133 37 37 134 134 38 38 135 135 37 37 136 136 39 39 137 137 40 40 138 138 38 38 139 139 39 39 140 140 39 39 141 141 41 41 142 142 40 40 143 143 37 37 144 144 41 41 145 145 39 39 146 146 35 35 147 147 41 41 148 148 37 37 149 149 42 42 150 150 43 43 151 151 35 35 152 152 42 42 153 153 44 44 154 154 43 43 155 155 42 42 156 156 45 45 157 157 44 44 158 158 45 45 159 159 46 46 160 160 44 44 161 161 44 44 162 162 46 46 163 163 47 47 164 164 44 44 165 165 47 47 166 166 43 43 167 167 43 43 168 168 47 47 169 169 48 48 170 170 43 43 171 171 48 48 172 172 35 35 173 173 49 49 174 174 50 50 175 175 48 48 176 176 49 49 177 177 51 51 178 178 50 50 179 179 51 51 180 180 52 52 181 181 50 50 182 182 51 51 183 183 53 53 184 184 52 52 185 185 53 53 186 186 54 54 187 187 52 52 188 188 53 53 189 189 55 55 190 190 54 54 191 191 48 48 192 192 54 54 193 193 55 55 194 194 50 50 195 195 54 54 196 196 48 48 197 197 52 52 198 198 54 54 199 199 50 50 200 200 56 56 201 201 57 57 202 202 58 58 203 203 56 56 204 204 59 59 205 205 57 57 206 206 56 56 207 207 60 60 208 208 59 59 209 209 60 60 210 210 61 61 211 211 59 59 212 212 59 59 213 213 61 61 214 214 62 62 215 215 59 59 216 216 62 62 217 217 57 57 218 218 62 62 219 219 63 63 220 220 57 57 221 221 62 62 222 222 61 61 223 223 63 63 224 224 57 57 225 225 63 63 226 226 58 58 227 227 64 64 228 228 65 65 229 229 66 66 230 230 66 66 231 231 67 67 232 232 64 64 233 233 56 56 234 234 67 67 235 235 66 66 236 236 68 68 237 237 56 56 238 238 66 66 239 239 65 65 240 240 68 68 241 241 66 66 242 242 40 40 243 243 68 68 244 244 65 65 245 245 40 40 246 246 69 69 247 247 68 68 248 248 69 69 249 249 56 56 250 250 68 68 251 251 70 70 252 252 71 71 253 253 72 72 254 254 70 70 255 255 73 73 256 256 71 71 257 257 70 70 258 258 74 74 259 259 73 73 260 260 74 74 261 261 75 75 262 262 73 73 263 263 74 74 264 264 76 76 265 265 75 75 266 266 76 76 267 267 77 77 268 268 75 75 269 269 75 75 270 270 77 77 271 271 71 71 272 272 73 73 273 273 75 75 274 274 71 71 275 275 71 71 276 276 77 77 277 277 72 72 278 278 78 78 279 279 79 79 280 280 80 80 281 281 78 78 282 282 81 81 283 283 79 79 284 284 78 78 285 285 8 8 286 286 81 81 287 287 82 82 288 288 8 8 289 289 78 78 290 290 82 82 291 291 78 78 292 292 80 80 293 293 79 79 294 294 83 83 295 295 80 80 296 296 84 84 297 297 83 83 298 298 79 79 299 299 81 81 300 300 84 84 301 301 79 79 302 302 8 8 303 303 84 84 304 304 81 81 305 305 85 85 306 306 36 36 307 307 38 38 308 308 85 85 309 309 38 38 310 310 40 40 311 311 40 40 312 312 65 65 313 313 64 64 314 314 2 2 315 315 6 6 316 316 86 86 317 317 0 0 318 318 2 2 319 319 86 86 320 320 48 48 321 321 47 47 322 322 46 46 323 323</p>
        </triangles>
      </mesh>
    </geometry>
  </library_geometries>
  <library_controllers>
    <controller id="Armature_nodes_2_-skin" name="Armature">
      <skin source="#meshes_0_-mesh">
        <bind_shape_matrix>1 0 0 0 0 1 0 0 0 0 1 0 0 0 0 1</bind_shape_matrix>
        <source id="Armature_nodes_2_-skin-joints">
          <Name_array id="Armature_nodes_2_-skin-joints-array" count="1">nodes_1_</Name_array>
          <technique_common>
            <accessor source="#Armature_nodes_2_-skin-joints-array" count="1" stride="1">
              <param name="JOINT" type="name"/>
            </accessor>
          </technique_common>
        </source>
        <source id="Armature_nodes_2_-skin-bind_poses">
          <float_array id="Armature_nodes_2_-skin-bind_poses-array" count="16">1 0 0 0 0 1 0 0 0 0 1 0 0 0 0 1</float_array>
          <technique_common>
            <accessor source="#Armature_nodes_2_-skin-bind_poses-array" count="1" stride="16">
              <param name="TRANSFORM" type="float4x4"/>
            </accessor>
          </technique_common>
        </source>
        <source id="Armature_nodes_2_-skin-weights">
          <float_array id="Armature_nodes_2_-skin-weights-array" count="87">1 1 1 1 1 1 1 1 1 1 1 1 1 1 1 1 1 1 1 1 1 1 1 1 1 1 1 1 1 1 1 1 1 1 1 1 1 1 1 1 1 1 1 1 1 1 1 1 1 1 1 1 1 1 1 1 1 1 1 1 1 1 1 1 1 1 1 1 1 1 1 1 1 1 1 1 1 1 1 1 1 1 1 1 1 1 1</float_array>
          <technique_common>
            <accessor source="#Armature_nodes_2_-skin-weights-array" count="87" stride="1">
              <param name="WEIGHT" type="float"/>
            </accessor>
          </technique_common>
        </source>
        <joints>
          <input semantic="JOINT" source="#Armature_nodes_2_-skin-joints"/>
          <input semantic="INV_BIND_MATRIX" source="#Armature_nodes_2_-skin-bind_poses"/>
        </joints>
        <vertex_weights count="87">
          <input semantic="JOINT" source="#Armature_nodes_2_-skin-joints" offset="0"/>
          <input semantic="WEIGHT" source="#Armature_nodes_2_-skin-weights" offset="1"/>
          <vcount>1 1 1 1 1 1 1 1 1 1 1 1 1 1 1 1 1 1 1 1 1 1 1 1 1 1 1 1 1 1 1 1 1 1 1 1 1 1 1 1 1 1 1 1 1 1 1 1 1 1 1 1 1 1 1 1 1 1 1 1 1 1 1 1 1 1 1 1 1 1 1 1 1 1 1 1 1 1 1 1 1 1 1 1 1 1 1 </vcount>
          <v>0 0 0 1 0 2 0 3 0 4 0 5 0 6 0 7 0 8 0 9 0 10 0 11 0 12 0 13 0 14 0 15 0 16 0 17 0 18 0 19 0 20 0 21 0 22 0 23 0 24 0 25 0 26 0 27 0 28 0 29 0 30 0 31 0 32 0 33 0 34 0 35 0 36 0 37 0 38 0 39 0 40 0 41 0 42 0 43 0 44 0 45 0 46 0 47 0 48 0 49 0 50 0 51 0 52 0 53 0 54 0 55 0 56 0 57 0 58 0 59 0 60 0 61 0 62 0 63 0 64 0 65 0 66 0 67 0 68 0 69 0 70 0 71 0 72 0 73 0 74 0 75 0 76 0 77 0 78 0 79 0 80 0 81 0 82 0 83 0 84 0 85 0 86</v>
        </vertex_weights>
      </skin>
    </controller>
  </library_controllers>
  <library_visual_scenes>
    <visual_scene id="Scene" name="Scene">
      <node id="Armature" name="Armature" type="NODE">
        <matrix sid="transform">1 0 0 0 0 1 0 0 0 0 1 0 0 0 0 1</matrix>
        <node id="Armature_nodes_1_" name="nodes[1]" sid="nodes_1_" type="JOINT">
          <matrix sid="transform">1 0 0 0 0 1 0 0 0 0 1 0 0 0 0 1</matrix>
          <extra>
            <technique profile="blender">
              <layer sid="layer" type="string">0</layer>
              <tip_x sid="tip_x" type="float">0</tip_x>
              <tip_y sid="tip_y" type="float">1</tip_y>
              <tip_z sid="tip_z" type="float">0</tip_z>
            </technique>
          </extra>
        </node>
      </node>
      <node id="nodes_2_" name="nodes_2_" type="NODE">
        <translate sid="location">0 0 0</translate>
        <rotate sid="rotationZ">0 0 1 0</rotate>
        <rotate sid="rotationY">0 1 0 0</rotate>
        <rotate sid="rotationX">1 0 0 0</rotate>
        <scale sid="scale">1 1 1</scale>
        <instance_controller url="#Armature_nodes_2_-skin">
          <skeleton>#Armature_nodes_1_</skeleton>
          <bind_material>
            <technique_common>
              <instance_material symbol="balinade_04_png-material" target="#balinade_04_png-material">
                <bind_vertex_input semantic="meshes_0_-mesh-map-0" input_semantic="TEXCOORD" input_set="0"/>
              </instance_material>
            </technique_common>
          </bind_material>
        </instance_controller>
      </node>
    </visual_scene>
  </library_visual_scenes>
  <scene>
    <instance_visual_scene url="#Scene"/>
  </scene>
</COLLADA>