mtllib balinade_death.mtl
o nodes_2__meshes[0]
v -95.565598 -69.188400 155.025192
v 11.403959 -27.185200 197.333588
v -37.783958 21.213120 195.339600
v 37.084480 -112.104797 155.025192
v 118.040001 0.062543 155.025192
v 25.735159 41.587200 192.755600
v 37.084480 112.229599 155.025192
v 108.017197 134.872391 114.344002
v 118.040001 0.062543 155.025192
v 59.518002 182.456009 37.005959
v 151.664398 132.043198 43.444000
v 162.368393 73.352005 100.790001
v 191.192398 0.062543 37.005959
v 155.104004 112.229599 -37.121918
v 104.294800 167.099594 -66.261200
v 23.038479 189.842010 -86.366394
v -59.476799 182.456009 -37.121918
v -37.043400 112.229599 -155.141190
v 68.560402 141.787201 -140.086014
v 95.606400 69.313599 -155.141190
v 155.104004 112.229599 -37.121918
v 194.375595 -45.212399 -74.293594
v 196.563599 47.040398 -57.084400
v 155.104004 -112.104797 -37.121918
v 95.606400 -69.188400 -155.141190
v 153.126007 13.783159 -136.140396
v 95.606400 69.313599 -155.141190
v 155.104004 112.229599 -37.121918
v -138.823196 -70.500397 -128.212402
v -134.080002 -134.024002 -83.477211
v -177.716400 -71.463196 -65.447601
v -37.043400 -112.104797 -155.141190
v -117.998795 0.062543 -155.141190
v -191.151199 0.062543 -37.121918
v -155.062790 -112.104797 37.005959
v -59.476799 -182.331192 -37.121918
v 59.518002 -182.331192 37.005959
v 29.674679 -184.764008 -74.099205
v 102.742798 -161.852402 -59.307598
v 70.745605 -136.789597 -126.811195
v 95.606400 -69.188400 -155.141190
v -37.043400 -112.104797 -155.141190
v 59.518002 -182.331192 37.005959
v -62.260399 -186.737595 69.548805
v -14.975280 -166.663193 127.853195
v 37.084480 -112.104797 155.025192
v -95.565598 -69.188400 155.025192
v -86.628006 -141.768402 128.249603
v -155.062790 -112.104797 37.005959
v -95.565598 -69.188400 155.025192
v -162.050797 -25.440680 115.974800
v -95.565598 69.313599 155.025192
v -175.163589 43.144798 92.503204
v -155.062790 112.229599 37.005959
v -194.895203 -18.697559 54.687599
v -191.151199 0.062543 -37.121918
v -117.998795 0.062543 -155.141190
v -121.528008 99.595200 -135.138794
v -37.043400 112.229599 -155.141190
v -175.496796 74.486801 -84.849197
v -191.151199 0.062543 -37.121918
v -155.062790 112.229599 37.005959
v -136.142014 139.088013 -64.461601
v -59.476799 182.456009 -37.121918
v 95.606400 69.313599 -155.141190
v 47.304398 -13.463679 -194.196396
v -17.655920 44.391197 -199.358017
v -37.043400 112.229599 -155.141190
v -39.023960 -39.576359 -197.152008
v -37.043400 -112.104797 -155.141190
v 37.084480 112.229599 155.025192
v -80.226395 146.032394 127.566795
v -95.565598 69.313599 155.025192
v -14.896959 176.888016 95.448395
v 59.518002 182.456009 37.005959
v -80.623199 181.395203 57.628399
v -59.476799 182.456009 -37.121918
v -155.062790 112.229599 37.005959
v 174.710388 -85.332001 63.422798
v 124.572395 -144.941589 78.928398
v 155.104004 -112.104797 -37.121918
v 132.388000 -84.061600 129.331604
v 191.192398 0.062543 37.005959
v 59.518002 -182.331192 37.005959
v 37.084480 -112.104797 155.025192
v 155.104004 -112.104797 -37.121918
v -95.565598 69.313599 155.025192
vt 0.984375 0.656250
vt 0.500000 0.640625
vt 0.687500 0.312500
vt 0.500000 0.984375
vt 0.015625 0.671875
vt 0.312500 0.312500
vt 0.187500 0.015625
vt 0.312500 0.312500
vt 0.812500 0.015625
vt 0.015625 0.671875
vt 0.500000 0.640625
vt 0.687500 0.312500
vt 0.984375 0.656250
vt 0.500000 0.984375
vt 0.312500 0.312500
vt 0.500000 0.640625
vt 0.500000 0.984375
vt 0.984375 0.656250
vt 0.687500 0.312500
vt 0.812500 0.015625
vt 0.187500 0.015625
vt 0.500000 0.640625
vt 0.687500 0.312500
vt 0.500000 0.984375
vt 0.015625 0.671875
vt 0.312500 0.312500
vt 0.187500 0.015625
vt 0.812500 0.015625
vt 0.687500 0.312500
vt 0.500000 0.640625
vt 0.312500 0.312500
vt 0.984375 0.656250
vt 0.812500 0.015625
vt 0.187500 0.015625
vt 0.015625 0.671875
vt 0.500000 0.984375
vt 0.984375 0.656250
vt 0.500000 0.640625
vt 0.687500 0.312500
vt 0.312500 0.312500
vt 0.187500 0.015625
vt 0.015625 0.671875
vt 0.015625 0.671875
vt 0.500000 0.640625
vt 0.312500 0.312500
vt 0.187500 0.015625
vt 0.812500 0.015625
vt 0.687500 0.312500
vt 0.984375 0.656250
vt 0.500000 0.984375
vt 0.500000 0.640625
vt 0.015625 0.671875
vt 0.312500 0.312500
vt 0.187500 0.015625
vt 0.687500 0.312500
vt 0.812500 0.015625
vt 0.984375 0.656250
vt 0.687500 0.312500
vt 0.812500 0.015625
vt 0.500000 0.640625
vt 0.500000 0.984375
vt 0.015625 0.671875
vt 0.312500 0.312500
vt 0.187500 0.015625
vt 0.015625 0.671875
vt 0.312500 0.312500
vt 0.500000 0.640625
vt 0.500000 0.984375
vt 0.687500 0.312500
vt 0.812500 0.015625
vt 0.015625 0.671875
vt 0.500000 0.640625
vt 0.500000 0.984375
vt 0.312500 0.312500
vt 0.187500 0.015625
vt 0.687500 0.312500
vt 0.812500 0.015625
vt 0.984375 0.656250
vt 0.312500 0.312500
vt 0.500000 0.640625
vt 0.015625 0.671875
vt 0.687500 0.312500
vt 0.187500 0.015625
vt 0.500000 0.984375
vt 0.984375 0.656250
vt 0.812500 0.015625
vt 0.812500 0.015625
vn -0.3400 -0.2605 0.9036
vn 0.0858 -0.2296 0.9695
vn -0.2719 0.1350 0.9528
vn 0.1318 -0.4098 0.9026
vn 0.4414 -0.0123 0.8972
vn 0.1904 0.2763 0.9420
vn 0.2073 0.5080 0.8361
vn 0.4167 0.6705 0.6138
vn 0.6643 0.0132 0.7473
vn 0.3230 0.9353 0.1442
vn 0.7501 0.6559 0.0839
vn 0.8241 0.2447 0.5108
vn 0.9767 0.0584 0.2062
vn 0.8242 0.5571 -0.1018
vn 0.6028 0.7664 -0.2217
vn -0.0089 0.9348 -0.3550
vn -0.2216 0.9478 -0.2291
vn -0.1585 0.6255 -0.7639
vn 0.3400 0.5582 -0.7568
vn 0.5159 0.3545 -0.7798
vn 0.7755 0.5905 -0.2231
vn 0.8955 -0.3250 -0.3039
vn 0.9136 0.3526 -0.2024
vn 0.7928 -0.5761 -0.1991
vn 0.5565 -0.3246 -0.7648
vn 0.6472 0.1177 -0.7531
vn 0.5729 0.3379 -0.7467
vn 0.7912 0.5578 -0.2505
vn -0.6511 -0.2591 -0.7134
vn -0.5918 -0.7155 -0.3711
vn -0.9302 -0.2652 -0.2538
vn -0.3281 -0.5888 -0.7387
vn -0.6563 -0.0921 -0.7489
vn -0.9643 -0.0810 -0.2522
vn -0.8050 -0.5917 0.0438
vn -0.2918 -0.9359 -0.1975
vn 0.2977 -0.9543 0.0262
vn 0.0670 -0.9356 -0.3466
vn 0.5791 -0.7777 -0.2444
vn 0.3635 -0.6243 -0.6914
vn 0.4250 -0.3960 -0.8140
vn -0.0479 -0.7015 -0.7111
vn 0.1930 -0.9549 0.2254
vn -0.3139 -0.9314 0.1840
vn 0.0633 -0.7474 0.6613
vn 0.1785 -0.5698 0.8021
vn -0.4791 -0.3543 0.8031
vn -0.4984 -0.5554 0.6657
vn -0.7888 -0.5625 0.2475
vn -0.6148 -0.2742 0.7395
vn -0.7346 -0.1931 0.6504
vn -0.6122 0.2641 0.7452
vn -0.8410 0.3105 0.4431
vn -0.8628 0.4443 0.2412
vn -0.9785 -0.1178 0.1693
vn -0.9991 0.0241 -0.0358
vn -0.5865 0.0337 -0.8092
vn -0.4798 0.4739 -0.7383
vn -0.2678 0.6095 -0.7461
vn -0.9003 0.2554 -0.3525
vn -0.9742 0.0666 -0.2157
vn -0.8139 0.5769 0.0687
vn -0.6020 0.7646 -0.2302
vn -0.3945 0.8792 -0.2672
vn 0.3864 0.2870 -0.8765
vn 0.3270 -0.1030 -0.9394
vn -0.1022 0.3046 -0.9470
vn -0.1611 0.5062 -0.8472
vn -0.2356 -0.2793 -0.9308
vn -0.1226 -0.4999 -0.8573
vn 0.1097 0.6501 0.7519
vn -0.4127 0.6095 0.6769
vn -0.4827 0.3791 0.7895
vn 0.0716 0.8898 0.4506
vn 0.1507 0.9551 0.2549
vn -0.4082 0.9001 0.1518
vn -0.2853 0.9569 -0.0529
vn -0.7468 0.6246 0.2286
vn 0.9116 -0.3301 0.2450
vn 0.5329 -0.7744 0.3411
vn 0.8052 -0.5887 -0.0710
vn 0.6136 -0.3246 0.7197
vn 0.9570 -0.1005 0.2722
vn 0.3718 -0.9004 0.2261
vn 0.2936 -0.5867 0.7547
vn 0.7208 -0.6381 -0.2705
vn -0.3784 0.2838 0.8810
usemtl material0
s 1
f 1/1/1 2/2/2 3/3/3
f 1/1/1 4/4/4 2/2/2
f 4/4/4 5/5/5 2/2/2
f 2/2/2 5/5/5 6/6/6
f 2/2/2 6/6/6 3/3/3
f 6/6/6 7/7/7 3/3/3
f 6/6/6 5/5/5 7/7/7
f 8/8/8 7/7/7 9/9/9
f 10/10/10 7/7/7 8/8/8
f 11/11/11 10/10/10 8/8/8
f 12/12/12 11/11/11 8/8/8
f 9/9/9 12/12/12 8/8/8
f 13/13/13 12/12/12 9/9/9
f 13/13/13 11/11/11 12/12/12
f 13/13/13 14/14/14 11/11/11
f 14/14/14 10/10/10 11/11/11
f 10/10/10 15/15/15 16/16/16
f 17/17/17 10/10/10 16/16/16
f 18/18/18 17/17/17 16/16/16
f 19/19/19 18/18/18 16/16/16
f 20/20/20 18/18/18 19/19/19
f 21/21/21 20/20/20 19/19/19
f 21/21/21 19/19/19 15/15/15
f 21/21/21 15/15/15 10/10/10
f 15/15/15 19/19/19 16/16/16
f 13/13/13 22/22/22 23/23/23
f 13/13/13 24/24/24 22/22/22
f 24/24/24 25/25/25 22/22/22
f 25/25/25 26/26/26 22/22/22
f 25/25/25 27/27/27 26/26/26
f 27/27/27 28/28/28 26/26/26
f 26/26/26 28/28/28 23/23/23
f 26/26/26 23/23/23 22/22/22
f 13/13/13 23/23/23 28/28/28
f 29/29/29 30/30/30 31/31/31
f 29/29/29 32/32/32 30/30/30
f 33/33/33 32/32/32 29/29/29
f 33/33/33 29/29/29 34/34/34
f 34/34/34 29/29/29 31/31/31
f 35/35/35 34/34/34 31/31/31
f 35/35/35 31/31/31 30/30/30
f 36/36/36 35/35/35 30/30/30
f 32/32/32 36/36/36 30/30/30
f 37/37/37 36/36/36 38/38/38
f 39/39/39 37/37/37 38/38/38
f 39/39/39 38/38/38 40/40/40
f 41/41/41 39/39/39 40/40/40
f 40/40/40 42/42/42 41/41/41
f 38/38/38 42/42/42 40/40/40
f 36/36/36 42/42/42 38/38/38
f 43/43/43 44/44/44 36/36/36
f 43/43/43 45/45/45 44/44/44
f 43/43/43 46/46/46 45/45/45
f 46/46/46 47/47/47 45/45/45
f 45/45/45 47/47/47 48/48/48
f 45/45/45 48/48/48 44/44/44
f 44/44/44 48/48/48 49/49/49
f 44/44/44 49/49/49 36/36/36
f 50/50/50 51/51/51 49/49/49
f 50/50/50 52/52/52 51/51/51
f 52/52/52 53/53/53 51/51/51
f 52/52/52 54/54/54 53/53/53
f 54/54/54 55/55/55 53/53/53
f 54/54/54 56/56/56 55/55/55
f 49/49/49 55/55/55 56/56/56
f 51/51/51 55/55/55 49/49/49
f 53/53/53 55/55/55 51/51/51
f 57/57/57 58/58/58 59/59/59
f 57/57/57 60/60/60 58/58/58
f 57/57/57 61/61/61 60/60/60
f 61/61/61 62/62/62 60/60/60
f 60/60/60 62/62/62 63/63/63
f 60/60/60 63/63/63 58/58/58
f 63/63/63 64/64/64 58/58/58
f 63/63/63 62/62/62 64/64/64
f 58/58/58 64/64/64 59/59/59
f 65/65/65 66/66/66 67/67/67
f 67/67/67 68/68/68 65/65/65
f 57/57/57 68/68/68 67/67/67
f 69/69/69 57/57/57 67/67/67
f 66/66/66 69/69/69 67/67/67
f 41/41/41 69/69/69 66/66/66
f 41/41/41 70/70/70 69/69/69
f 70/70/70 57/57/57 69/69/69
f 71/71/71 72/72/72 73/73/73
f 71/71/71 74/74/74 72/72/72
f 71/71/71 75/75/75 74/74/74
f 75/75/75 76/76/76 74/74/74
f 75/75/75 77/77/77 76/76/76
f 77/77/77 78/78/78 76/76/76
f 76/76/76 78/78/78 72/72/72
f 74/74/74 76/76/76 72/72/72
f 72/72/72 78/78/78 73/73/73
f 79/79/79 80/80/80 81/81/81
f 79/79/79 82/82/82 80/80/80
f 79/79/79 9/9/9 82/82/82
f 83/83/83 9/9/9 79/79/79
f 83/83/83 79/79/79 81/81/81
f 80/80/80 84/84/84 81/81/81
f 85/85/85 84/84/84 80/80/80
f 82/82/82 85/85/85 80/80/80
f 9/9/9 85/85/85 82/82/82
f 86/86/86 37/37/37 39/39/39
f 86/86/86 39/39/39 41/41/41
f 41/41/41 66/66/66 65/65/65
f 3/3/3 7/7/7 87/87/87
f 1/1/1 3/3/3 87/87/87
f 49/49/49 48/48/48 47/47/47
