mtllib balinadecore.mtl
o nodes_38__meshes[4]
v -85.719582 290.440521 398.168823
v -0.298378 458.004059 199.874802
v -245.180359 336.902466 336.525635
v -276.799622 87.014832 375.761200
v -104.297989 87.014809 421.504028
v -243.939987 -70.325172 330.533600
v -373.602051 87.014839 225.828430
v -353.066772 290.440369 203.915588
v -190.257599 458.008057 61.818398
v -190.257599 458.008057 61.818398
v 86.478035 290.440460 397.557190
v 245.936417 336.902435 335.929565
v 277.530792 87.014771 375.168030
v 105.022797 87.014763 420.899994
v 244.671188 -70.325226 329.940399
v 374.339996 87.014778 225.244385
v 353.838379 290.440399 203.321991
v 190.489594 458.000031 62.164001
v -0.298378 458.004059 199.874802
v -406.859985 290.440460 40.334789
v -397.510803 336.902466 -130.369980
v -448.660004 87.014839 -151.254791
v -438.859985 87.014832 26.938839
v -395.493195 -70.325165 -133.979599
v -335.980377 87.014832 -289.651184
v -304.729980 290.440430 -273.954773
v -117.724396 458.000031 -161.534012
v -117.724396 458.000031 -161.534012
v 129.192795 43.000034 -180.218002
v 100.001595 253.394424 -135.212006
v 209.343597 43.000034 66.459595
v 162.025589 253.394424 55.678398
v 117.560799 457.988037 -162.262802
v 190.489594 458.000031 62.164001
v 100.001595 253.394424 -135.212006
v 129.192795 43.000034 -180.218002
v -100.105194 253.394424 -134.579590
v -117.724396 458.000031 -161.534012
v 117.560799 457.988037 -162.262802
v -129.394394 43.000034 -179.400803
v -100.105194 253.394424 -134.579590
v -129.394394 43.000034 -179.400803
v -161.792801 253.394424 55.371597
v -190.257599 458.008057 61.818398
v -117.724396 458.000031 -161.534012
v -209.110397 43.000034 66.063599
v 209.343597 43.000034 66.459595
v 162.025589 253.394424 55.678398
v -0.338720 43.000034 217.792389
v -0.235764 253.394424 172.786392
v 190.489594 458.000031 62.164001
v -0.298378 458.004059 199.874802
v -161.792801 253.394424 55.371597
v -209.110397 43.000034 66.063599
v -0.235764 253.394424 172.786392
v -0.298378 458.004059 199.874802
v -190.257599 458.008057 61.818398
v -0.338720 43.000034 217.792389
v 304.359222 290.440430 -274.933228
v 117.560799 457.988037 -162.262802
v 397.132843 336.902435 -131.334412
v 448.264008 87.014809 -152.214783
v 335.593597 87.014801 -290.614807
v 395.096008 -70.325188 -134.939575
v 438.452026 87.014809 25.982367
v 406.468079 290.440430 39.363312
v 190.489594 458.000031 62.164001
v -165.778397 290.440338 -375.664795
v -117.725197 458.004059 -161.519196
v -0.539236 336.902344 -419.523987
v -0.547300 87.014801 -477.563995
v -166.990402 87.014793 -413.175995
v -0.547300 -70.325203 -421.655975
v 165.896011 87.014793 -413.164001
v 164.688797 290.440338 -375.653992
v 117.560799 457.988037 -162.262802
v -85.719582 290.440521 398.168823
v -245.180359 336.902466 336.525635
v 0.298405 458.004059 199.874802
v -276.799622 87.014832 375.761200
v -104.297989 87.014809 421.504028
v -243.939987 -70.325172 330.533600
v -373.602051 87.014839 225.828430
v -353.066772 290.440369 203.915588
v -190.489197 457.992065 62.178799
v -190.489197 457.992065 62.178799
v 353.838379 290.440399 203.321991
v 245.936417 336.902435 335.929565
v 190.184402 458.004059 61.480797
v 277.530792 87.014771 375.168030
v 374.339996 87.014778 225.244385
v 244.671188 -70.325226 329.940399
v 105.022797 87.014763 420.899994
v 86.478035 290.440460 397.557190
v 0.271301 457.992065 200.379990
v 0.271301 457.992065 200.379990
v -406.859985 290.440460 40.334789
v -397.510803 336.902466 -130.369980
v -190.000000 458.004059 62.048397
v -448.660004 87.014839 -151.254791
v -438.859985 87.014832 26.938839
v -395.493195 -70.325165 -133.979599
v -335.980377 87.014832 -289.651184
v -304.729980 290.440430 -273.954773
v -118.000000 457.992065 -161.951599
v -118.000000 457.992065 -161.951599
v 129.192795 43.000034 -180.218002
v 209.343597 43.000034 66.459595
v 100.001595 253.394424 -135.212006
v 162.025589 253.394424 55.678398
v 117.561600 458.000031 -162.285599
v 190.489594 458.000031 62.164001
v 100.001595 253.394424 -135.212006
v -100.105194 253.394424 -134.579590
v 129.192795 43.000034 -180.218002
v -117.724007 458.000031 -161.541595
v 117.561600 458.000031 -162.285599
v -129.394394 43.000034 -179.400803
v -100.105194 253.394424 -134.579590
v -161.792801 253.394424 55.371597
v -129.394394 43.000034 -179.400803
v -190.256790 458.000031 61.803600
v -117.724007 458.000031 -161.541595
v -209.110397 43.000034 66.063599
v 209.343597 43.000034 66.459595
v -0.338720 43.000034 217.792389
v 162.025589 253.394424 55.678398
v -0.235764 253.394424 172.786392
v 190.489594 458.000031 62.164001
v -0.297685 458.000031 199.859589
v -161.792801 253.394424 55.371597
v -0.235764 253.394424 172.786392
v -209.110397 43.000034 66.063599
v -0.297685 458.000031 199.859589
v -190.256790 458.000031 61.803600
v -0.338720 43.000034 217.792389
v 304.359222 290.440430 -274.933228
v 397.132843 336.902435 -131.334412
v 117.242004 458.004059 -161.877594
v 448.264008 87.014809 -152.214783
v 335.593597 87.014801 -290.614807
v 395.096008 -70.325188 -134.939575
v 438.452026 87.014809 25.982367
v 406.468079 290.440430 39.363312
v 190.656799 457.992065 61.662788
v 190.656799 457.992065 61.662788
v -165.778397 290.440338 -375.664795
v -0.539236 336.902344 -419.523987
v -117.724800 458.004059 -161.526794
v -0.547300 87.014801 -477.563995
v -166.990402 87.014793 -413.175995
v -0.547300 -70.325203 -421.655975
v 165.896011 87.014793 -413.164001
v 164.688797 290.440338 -375.653992
v 117.561195 457.992065 -162.270401
v 117.561195 457.992065 -162.270401
vt 0.742198 0.554696
vt 0.742198 0.992175
vt 0.445326 0.554696
vt 0.445326 0.203121
vt 0.742198 0.210930
vt 0.445326 0.007809
vt 0.742198 0.210930
vt 0.742198 0.554696
vt 0.742198 0.992175
vt 0.148455 0.992175
vt 0.742198 0.554696
vt 0.445326 0.554696
vt 0.445326 0.203121
vt 0.742198 0.210930
vt 0.445326 0.007809
vt 0.742198 0.210930
vt 0.742198 0.554696
vt 0.742198 0.992175
vt 0.148455 0.992175
vt 0.742198 0.554696
vt 0.445326 0.554696
vt 0.445326 0.203121
vt 0.742198 0.210930
vt 0.445326 0.007809
vt 0.742198 0.210930
vt 0.742198 0.554696
vt 0.742198 0.992175
vt 0.148455 0.992175
vt 1.242190 0.007809
vt 1.242190 0.499992
vt 0.757817 0.007809
vt 0.757817 0.499992
vt 1.242190 0.992175
vt 0.757817 0.992175
vt 0.757817 0.499992
vt 0.757817 0.007809
vt 1.242190 0.499992
vt 1.242190 0.992175
vt 0.757817 0.992175
vt 1.242190 0.007809
vt 0.757817 0.499992
vt 0.757817 0.007809
vt 1.242190 0.499992
vt 1.242190 0.992175
vt 0.757817 0.992175
vt 1.242190 0.007809
vt 1.242190 0.007809
vt 1.242190 0.499992
vt 0.757817 0.007809
vt 0.757817 0.499992
vt 1.242190 0.992175
vt 0.757817 0.992175
vt 0.757817 0.499992
vt 0.757817 0.007809
vt 1.242190 0.499992
vt 1.242190 0.992175
vt 0.757817 0.992175
vt 1.242190 0.007809
vt 0.742198 0.554696
vt 0.742198 0.992175
vt 0.445326 0.554696
vt 0.445326 0.203121
vt 0.742198 0.210930
vt 0.445326 0.007809
vt 0.742198 0.210930
vt 0.742198 0.554696
vt 0.148455 0.992175
vt 0.742198 0.554696
vt 0.742198 0.992175
vt 0.445326 0.554696
vt 0.445326 0.203121
vt 0.742198 0.210930
vt 0.445326 0.007809
vt 0.742198 0.210930
vt 0.742198 0.554696
vt 0.148455 0.992175
vt 0.742198 0.554696
vt 0.445326 0.554696
vt 0.742198 0.992175
vt 0.445326 0.203121
vt 0.742198 0.210930
vt 0.445326 0.007809
vt 0.742198 0.210930
vt 0.742198 0.554696
vt 0.742198 0.992175
vt 0.148455 0.992175
vt 0.742198 0.554696
vt 0.445326 0.554696
vt 0.742198 0.992175
vt 0.445326 0.203121
vt 0.742198 0.210930
vt 0.445326 0.007809
vt 0.742198 0.210930
vt 0.742198 0.554696
vt 0.742198 0.992175
vt 0.148455 0.992175
vt 0.742198 0.554696
vt 0.445326 0.554696
vt 0.742198 0.992175
vt 0.445326 0.203121
vt 0.742198 0.210930
vt 0.445326 0.007809
vt 0.742198 0.210930
vt 0.742198 0.554696
vt 0.742198 0.992175
vt 0.148455 0.992175
vt 1.242190 0.007809
vt 0.757817 0.007809
vt 1.242190 0.499992
vt 0.757817 0.499992
vt 1.242190 0.992175
vt 0.757817 0.992175
vt 0.757817 0.499992
vt 1.242190 0.499992
vt 0.757817 0.007809
vt 1.242190 0.992175
vt 0.757817 0.992175
vt 1.242190 0.007809
vt 0.757817 0.499992
vt 1.242190 0.499992
vt 0.757817 0.007809
vt 1.242190 0.992175
vt 0.757817 0.992175
vt 1.242190 0.007809
vt 1.242190 0.007809
vt 0.757817 0.007809
vt 1.242190 0.499992
vt 0.757817 0.499992
vt 1.242190 0.992175
vt 0.757817 0.992175
vt 0.757817 0.499992
vt 1.242190 0.499992
vt 0.757817 0.007809
vt 1.242190 0.992175
vt 0.757817 0.992175
vt 1.242190 0.007809
vt 0.742198 0.554696
vt 0.445326 0.554696
vt 0.742198 0.992175
vt 0.445326 0.203121
vt 0.742198 0.210930
vt 0.445326 0.007809
vt 0.742198 0.210930
vt 0.742198 0.554696
vt 0.742198 0.992175
vt 0.148455 0.992175
vt 0.742198 0.554696
vt 0.445326 0.554696
vt 0.742198 0.992175
vt 0.445326 0.203121
vt 0.742198 0.210930
vt 0.445326 0.007809
vt 0.742198 0.210930
vt 0.742198 0.554696
vt 0.742198 0.992175
vt 0.148455 0.992175
vn -0.1816 0.4653 0.8663
vn -0.1263 0.8523 0.5075
vn -0.4769 0.5834 0.6574
vn -0.5869 -0.0802 0.8056
vn -0.2563 -0.0157 0.9665
vn -0.5539 -0.3348 0.7623
vn -0.8401 -0.0113 0.5424
vn -0.7672 0.4668 0.4399
vn -0.5194 0.8537 0.0368
vn -0.2526 0.9030 0.3476
vn 0.1815 0.4654 0.8663
vn 0.4770 0.5833 0.6574
vn 0.5868 -0.0803 0.8057
vn 0.2562 -0.0157 0.9665
vn 0.5538 -0.3348 0.7623
vn 0.8400 -0.0113 0.5424
vn 0.7673 0.4664 0.4401
vn 0.4418 0.8531 0.2775
vn 0.2515 0.9029 0.3485
vn -0.8738 0.4765 0.0970
vn -0.7672 0.5913 -0.2484
vn -0.9481 -0.0703 -0.3102
vn -0.9985 -0.0020 0.0549
vn -0.8961 -0.3348 -0.2912
vn -0.7754 0.0050 -0.6314
vn -0.6488 0.4789 -0.5914
vn -0.3900 0.7720 -0.5018
vn -0.4060 0.9043 -0.1319
vn 0.9329 0.1943 -0.3031
vn 0.9503 0.0396 -0.3088
vn 0.9503 0.0389 -0.3088
vn 0.9440 -0.1216 -0.3067
vn -0.0031 0.0421 -0.9991
vn -0.0031 0.2087 -0.9779
vn -0.0031 -0.1308 -0.9914
vn -0.9503 0.0396 -0.3086
vn -0.9330 0.1944 -0.3030
vn -0.9504 0.0389 -0.3086
vn -0.9440 -0.1216 -0.3066
vn -0.9440 -0.1217 -0.3066
vn 0.5766 0.1706 0.7990
vn 0.5849 0.0347 0.8104
vn 0.5849 0.0343 0.8104
vn 0.5819 -0.1065 0.8062
vn -0.5875 0.0347 0.8084
vn -0.5792 0.1708 0.7970
vn -0.5875 0.0343 0.8084
vn -0.5846 -0.1066 0.8043
vn 0.6489 0.4788 -0.5913
vn 0.3979 0.8549 -0.3329
vn 0.7673 0.5911 -0.2487
vn 0.9481 -0.0703 -0.3101
vn 0.7755 0.0049 -0.6313
vn 0.8962 -0.3348 -0.2911
vn 0.9985 -0.0021 0.0550
vn 0.8740 0.4761 0.0969
vn 0.4062 0.9042 -0.1320
vn -0.3620 0.4850 -0.7960
vn -0.1242 0.8753 -0.4673
vn -0.0003 0.5961 -0.8029
vn 0.0000 -0.0643 -0.9979
vn -0.3608 0.0107 -0.9326
vn 0.0000 -0.3348 -0.9423
vn 0.3608 0.0107 -0.9326
vn 0.3620 0.4843 -0.7965
vn -0.0013 0.9050 -0.4254
vn 0.1814 -0.4656 -0.8662
vn 0.4768 -0.5834 -0.6575
vn 0.1763 -0.8722 -0.4563
vn 0.5869 0.0802 -0.8056
vn 0.2563 0.0157 -0.9665
vn 0.5539 0.3348 -0.7623
vn 0.8401 0.0113 -0.5424
vn 0.7673 -0.4664 -0.4401
vn 0.6008 -0.7686 -0.2195
vn 0.2515 -0.9030 -0.3484
vn -0.7671 -0.4671 -0.4397
vn -0.4773 -0.5833 -0.6572
vn -0.3787 -0.8727 -0.3081
vn -0.5868 0.0803 -0.8057
vn -0.8400 0.0113 -0.5424
vn -0.5538 0.3348 -0.7623
vn -0.2562 0.0157 -0.9665
vn -0.1817 -0.4648 -0.8665
vn -0.0243 -0.7670 -0.6411
vn -0.2536 -0.9029 -0.3469
vn 0.8737 -0.4767 -0.0970
vn 0.7673 -0.5913 0.2482
vn 0.4855 -0.8738 0.0264
vn 0.9481 0.0703 0.3102
vn 0.9985 0.0020 -0.0549
vn 0.8961 0.3348 0.2912
vn 0.7754 -0.0050 0.6314
vn 0.6490 -0.4786 0.5914
vn 0.3909 -0.7714 0.5022
vn 0.4065 -0.9042 0.1307
vn -0.9329 -0.1943 0.3031
vn -0.9503 -0.0395 0.3088
vn -0.9503 -0.0389 0.3088
vn -0.9440 0.1216 0.3067
vn 0.0031 -0.0421 0.9991
vn 0.0031 -0.2087 0.9779
vn 0.0031 0.1309 0.9914
vn 0.9503 -0.0395 0.3086
vn 0.9504 -0.0389 0.3086
vn 0.9330 -0.1944 0.3030
vn 0.9440 0.1217 0.3066
vn -0.5766 -0.1706 -0.7990
vn -0.5849 -0.0347 -0.8104
vn -0.5849 -0.0343 -0.8104
vn -0.5819 0.1065 -0.8062
vn 0.5875 -0.0347 -0.8084
vn 0.5875 -0.0343 -0.8084
vn 0.5792 -0.1708 -0.7970
vn 0.5846 0.1066 -0.8043
vn -0.6486 -0.4792 0.5913
vn -0.7671 -0.5912 0.2489
vn -0.4071 -0.8746 0.2631
vn -0.9481 0.0703 0.3101
vn -0.7755 -0.0049 0.6313
vn -0.8962 0.3348 0.2911
vn -0.9985 0.0021 -0.0550
vn -0.8741 -0.4759 -0.0969
vn -0.6150 -0.7687 -0.1756
vn -0.4057 -0.9042 0.1332
vn 0.3620 -0.4850 0.7960
vn 0.0003 -0.5961 0.8029
vn 0.1242 -0.8753 0.4673
vn 0.0000 0.0643 0.9979
vn 0.3608 -0.0107 0.9326
vn -0.0000 0.3348 0.9423
vn -0.3608 -0.0107 0.9326
vn -0.3620 -0.4843 0.7965
vn -0.3568 -0.7714 0.5269
vn 0.0013 -0.9050 0.4254
usemtl material2
s 1
f 1/1/1 2/2/2 3/3/3
f 4/4/4 1/1/1 3/3/3
f 5/5/5 1/1/1 4/4/4
f 4/4/4 6/6/6 5/5/5
f 7/7/7 6/6/6 4/4/4
f 7/7/7 4/4/4 8/8/8
f 8/8/8 4/4/4 3/3/3
f 8/8/8 3/3/3 9/9/9
f 3/3/3 2/2/2 10/10/10
f 11/11/11 12/12/12 2/2/2
f 11/11/11 13/13/13 12/12/12
f 14/14/14 13/13/13 11/11/11
f 14/14/14 15/15/15 13/13/13
f 13/13/13 15/15/15 16/16/16
f 16/16/16 17/17/17 13/13/13
f 13/13/13 17/17/17 12/12/12
f 17/17/17 18/18/18 12/12/12
f 12/12/12 18/18/18 19/19/19
f 20/20/20 9/9/9 21/21/21
f 22/22/22 20/20/20 21/21/21
f 23/23/23 20/20/20 22/22/22
f 22/22/22 24/24/24 23/23/23
f 25/25/25 24/24/24 22/22/22
f 25/25/25 22/22/22 26/26/26
f 26/26/26 22/22/22 21/21/21
f 26/26/26 21/21/21 27/27/27
f 21/21/21 9/9/9 28/28/28
f 29/29/29 30/30/30 31/31/29
f 31/31/29 30/30/30 32/32/31
f 33/33/32 32/32/31 30/30/30
f 34/34/32 32/32/31 33/33/32
f 35/35/33 36/36/34 37/37/33
f 38/38/35 35/35/33 37/37/33
f 39/39/35 35/35/33 38/38/35
f 37/37/33 36/36/34 40/40/34
f 41/41/36 42/42/37 43/43/38
f 43/43/38 44/44/39 41/41/36
f 41/41/36 44/44/39 45/45/40
f 43/43/38 42/42/37 46/46/37
f 47/47/41 48/48/42 49/49/41
f 49/49/41 48/48/42 50/50/43
f 51/51/44 50/50/43 48/48/42
f 52/52/44 50/50/43 51/51/44
f 53/53/45 54/54/46 55/55/47
f 55/55/47 56/56/48 53/53/45
f 53/53/45 56/56/48 57/57/48
f 55/55/47 54/54/46 58/58/46
f 59/59/49 60/60/50 61/61/51
f 62/62/52 59/59/49 61/61/51
f 63/63/53 59/59/49 62/62/52
f 62/62/52 64/64/54 63/63/53
f 65/65/55 64/64/54 62/62/52
f 65/65/55 62/62/52 66/66/56
f 66/66/56 62/62/52 61/61/51
f 66/66/56 61/61/51 18/18/18
f 61/61/51 60/60/50 67/67/57
f 68/68/58 69/69/59 70/70/60
f 71/71/61 68/68/58 70/70/60
f 72/72/62 68/68/58 71/71/61
f 71/71/61 73/73/63 72/72/62
f 74/74/64 73/73/63 71/71/61
f 74/74/64 71/71/61 75/75/65
f 75/75/65 71/71/61 70/70/60
f 75/75/65 70/70/60 60/60/50
f 70/70/60 69/69/59 76/76/66
f 77/77/67 78/78/68 79/79/69
f 80/80/70 78/78/68 77/77/67
f 81/81/71 80/80/70 77/77/67
f 80/80/70 81/81/71 82/82/72
f 83/83/73 80/80/70 82/82/72
f 83/83/73 84/84/74 80/80/70
f 84/84/74 78/78/68 80/80/70
f 84/84/74 85/85/75 78/78/68
f 78/78/68 86/86/76 79/79/69
f 87/87/77 88/88/78 89/89/79
f 90/90/80 88/88/78 87/87/77
f 91/91/81 90/90/80 87/87/77
f 90/90/80 91/91/81 92/92/82
f 93/93/83 90/90/80 92/92/82
f 93/93/83 94/94/84 90/90/80
f 94/94/84 88/88/78 90/90/80
f 94/94/84 95/95/85 88/88/78
f 88/88/78 96/96/86 89/89/79
f 97/97/87 98/98/88 99/99/89
f 100/100/90 98/98/88 97/97/87
f 101/101/91 100/100/90 97/97/87
f 100/100/90 101/101/91 102/102/92
f 103/103/93 100/100/90 102/102/92
f 103/103/93 104/104/94 100/100/90
f 104/104/94 98/98/88 100/100/90
f 104/104/94 105/105/95 98/98/88
f 98/98/88 106/106/96 99/99/89
f 107/107/97 108/108/97 109/109/98
f 108/108/97 110/110/99 109/109/98
f 111/111/100 109/109/98 110/110/99
f 112/112/100 111/111/100 110/110/99
f 113/113/101 114/114/101 115/115/102
f 116/116/103 114/114/101 113/113/101
f 117/117/103 116/116/103 113/113/101
f 114/114/101 118/118/102 115/115/102
f 119/119/104 120/120/105 121/121/106
f 120/120/105 119/119/104 122/122/107
f 119/119/104 123/123/107 122/122/107
f 120/120/105 124/124/106 121/121/106
f 125/125/108 126/126/108 127/127/109
f 126/126/108 128/128/110 127/127/109
f 129/129/111 127/127/109 128/128/110
f 130/130/111 129/129/111 128/128/110
f 131/131/112 132/132/113 133/133/114
f 132/132/113 131/131/112 134/134/115
f 131/131/112 135/135/115 134/134/115
f 132/132/113 136/136/114 133/133/114
f 137/137/116 138/138/117 139/139/118
f 140/140/119 138/138/117 137/137/116
f 141/141/120 140/140/119 137/137/116
f 140/140/119 141/141/120 142/142/121
f 143/143/122 140/140/119 142/142/121
f 143/143/122 144/144/123 140/140/119
f 144/144/123 138/138/117 140/140/119
f 144/144/123 145/145/124 138/138/117
f 138/138/117 146/146/125 139/139/118
f 147/147/126 148/148/127 149/149/128
f 150/150/129 148/148/127 147/147/126
f 151/151/130 150/150/129 147/147/126
f 150/150/129 151/151/130 152/152/131
f 153/153/132 150/150/129 152/152/131
f 153/153/132 154/154/133 150/150/129
f 154/154/133 148/148/127 150/150/129
f 154/154/133 155/155/134 148/148/127
f 148/148/127 156/156/135 149/149/128
o nodes_37__meshes[3]
v -244.217300 1007.953003 -17.742159
v -597.453369 1097.036987 -167.209991
v -207.858490 1007.953003 -129.140396
v -207.890198 1106.721924 -67.955200
v -589.021301 1145.916992 -195.044006
v -669.057373 1120.527954 -247.356400
v -579.273376 1097.035889 -222.908798
v -207.858490 1007.953003 -129.140396
v -657.389465 1083.019897 -277.276794
v -754.833191 1165.202881 -258.692383
v -671.409485 1083.019897 -234.322388
v -579.273376 1097.035889 -222.908798
v -657.389465 1083.019897 -277.276794
v -58.136528 1007.943970 -237.538788
v -26.564320 1097.724976 -599.896057
v 58.250668 1007.939941 -238.366791
v 0.768360 1106.710938 -218.265198
v 3.447693 1147.107910 -599.676025
v 26.544930 1121.703979 -670.479980
v 31.629240 1097.720947 -600.308044
v 58.250668 1007.939941 -238.366791
v 52.524120 1077.657959 -683.472046
v -2.022972 1172.735962 -750.084045
v -0.666616 1078.743896 -679.344055
v 52.524120 1077.657959 -683.472046
v 31.629240 1097.720947 -600.308044
v 683.902771 1147.553955 -168.946793
v 667.874756 1145.236938 -215.802017
v 772.506775 1164.844971 -249.950790
v 588.242615 1091.628906 -158.427597
v 570.266602 1091.629883 -213.759201
v 244.846695 1007.927002 -18.736040
v 208.889893 1007.930969 -129.399597
v 569.606812 1141.014893 -182.957596
v 207.571396 1106.699951 -67.796402
v 244.846695 1007.927002 -18.736040
v 588.242615 1091.628906 -158.427597
v 683.902771 1147.553955 -168.946793
v 661.218872 1182.163940 -187.752792
v 92.380264 1007.935974 225.704391
v 187.026291 1007.930969 157.963593
v 333.612579 1095.566895 512.288025
v 380.935791 1095.564941 478.416016
v 402.446503 1079.794922 571.440002
v 376.729492 1123.744873 579.168030
v 351.776398 1144.950928 487.179993
v 128.707794 1106.703979 175.491592
v 92.380264 1007.935974 225.704391
v 333.612579 1095.566895 512.288025
v 360.711395 1079.796875 601.308044
v 479.938782 1153.727905 634.088013
v 360.711395 1079.796875 601.308044
v -187.355698 1007.953003 157.260803
v -92.462135 1007.943970 226.012787
v -376.537018 1094.120972 470.756012
v -329.090179 1094.117920 505.132019
v -393.195892 1072.284912 550.004028
v -362.882690 1072.280884 571.968018
v -464.593201 1142.941895 600.992004
v -371.169281 1114.356934 557.328003
v -347.084381 1143.503906 480.396027
v -128.450592 1106.716919 176.534393
v -187.355698 1007.953003 157.260803
v -376.537018 1094.120972 470.756012
v -393.195892 1072.284912 550.004028
v -83.974464 917.292236 -216.341202
v -179.907303 917.300598 -148.182404
v -340.804291 864.281189 -501.284027
v -388.770599 864.281433 -467.204010
v -417.294189 882.625488 -554.356018
v -451.158203 882.625610 -530.296021
v -466.986389 826.557617 -615.640015
v -446.370087 916.653503 -543.296021
v -364.084900 908.405212 -489.168030
v -143.579697 1017.420959 -198.395599
v -83.974464 917.292236 -216.341202
v -340.804291 864.281189 -501.284027
v -417.294189 882.625488 -554.356018
v 179.934296 917.279297 -148.445602
v 85.041130 917.283630 -217.197601
v 375.785278 859.086487 -475.848022
v 328.338501 859.086731 -510.224030
v 386.853577 835.458496 -545.364014
v 347.102386 835.458740 -574.164001
v 450.553802 892.438293 -614.264038
v 371.778198 877.398499 -566.088013
v 357.791077 909.146606 -500.588013
v 143.946289 1017.403015 -197.924393
v 179.934296 917.279297 -148.445602
v 375.785278 859.086487 -475.848022
v 386.853577 835.458496 -545.364014
v 196.256302 917.279236 125.087593
v 232.615097 917.279114 13.689360
v 558.841675 866.302002 206.276398
v 577.021667 866.301819 150.577194
v 638.309875 891.929504 203.222397
v 577.005859 916.361816 181.169998
v 232.583893 1017.398987 74.874405
v 558.841675 866.302002 206.276398
v 196.256302 917.279236 125.087593
v 622.641907 891.933594 251.228012
v 638.294006 935.077515 229.589600
v 713.445801 866.909302 248.189987
v 622.641907 891.933594 251.228012
v 59.016327 917.287720 223.739594
v 26.337870 866.847839 609.736023
v -58.657269 917.292114 224.985596
v -3.342274 916.911987 612.299988
v 0.247668 1017.411987 244.259201
v -58.657269 917.292114 224.985596
v -32.499050 866.851990 610.359985
v 15.182520 893.719910 705.760010
v 29.725880 936.687805 713.044006
v 53.917038 893.719788 705.352112
v -1.762241 858.795959 796.868042
v 15.182520 893.719910 705.760010
v -32.499050 866.851990 610.359985
v -231.195694 917.300842 13.591280
v -195.239288 917.300598 124.254799
v -579.774170 866.257996 159.287201
v -561.794312 866.257996 214.619202
v -656.194214 888.174316 205.764008
v -647.654175 885.418335 252.467194
v -762.670288 856.930847 220.862793
v -656.206055 930.198303 222.223587
v -579.790100 916.317993 189.879990
v -231.227295 1017.424988 74.776398
v -231.195694 917.300842 13.591280
v -579.774170 866.257996 159.287201
v -656.194214 888.174316 205.764008
vt 0.429686 -0.492188
vt 0.429686 0.125003
vt 0.320319 -0.492188
vt 0.320319 -0.492188
vt 0.320319 0.125003
vt 0.320319 0.281250
vt 0.429686 0.125003
vt 0.429686 -0.492188
vt 0.429686 0.281250
vt 0.374995 0.492188
vt 0.429686 0.281250
vt 0.320319 0.125003
vt 0.320319 0.281250
vt 0.429686 -0.492188
vt 0.429686 0.125003
vt 0.320319 -0.492188
vt 0.320319 -0.492188
vt 0.320319 0.125003
vt 0.320319 0.281250
vt 0.429686 0.125003
vt 0.429686 -0.492188
vt 0.429686 0.281250
vt 0.374995 0.492188
vt 0.429686 0.281250
vt 0.320319 0.281250
vt 0.320319 0.125003
vt 0.320319 0.281250
vt 0.429686 0.281250
vt 0.374995 0.492188
vt 0.320319 0.125003
vt 0.429686 0.125003
vt 0.320319 -0.492188
vt 0.429686 -0.492188
vt 0.320319 0.125003
vt 0.320319 -0.492188
vt 0.429686 -0.492188
vt 0.429686 0.125003
vt 0.429686 0.281250
vt 0.320319 0.281250
vt 0.320319 -0.492188
vt 0.429686 -0.492188
vt 0.320319 0.125003
vt 0.429686 0.125003
vt 0.429686 0.281250
vt 0.320319 0.281250
vt 0.320319 0.125003
vt 0.320319 -0.492188
vt 0.429686 -0.492188
vt 0.429686 0.125003
vt 0.429686 0.281250
vt 0.374995 0.492188
vt 0.320319 0.281250
vt 0.320319 -0.492188
vt 0.429686 -0.492188
vt 0.320319 0.125003
vt 0.429686 0.125003
vt 0.320319 0.281250
vt 0.429686 0.281250
vt 0.374995 0.492188
vt 0.320319 0.281250
vt 0.320319 0.125003
vt 0.320319 -0.492188
vt 0.429686 -0.492188
vt 0.429686 0.125003
vt 0.429686 0.281250
vt 0.320319 -0.492188
vt 0.429686 -0.492188
vt 0.320319 0.125003
vt 0.429686 0.125003
vt 0.320319 0.281250
vt 0.429686 0.281250
vt 0.374995 0.492188
vt 0.320319 0.281250
vt 0.320319 0.125003
vt 0.320319 -0.492188
vt 0.429686 -0.492188
vt 0.429686 0.125003
vt 0.429686 0.281250
vt 0.320319 -0.492188
vt 0.429686 -0.492188
vt 0.320319 0.125003
vt 0.429686 0.125003
vt 0.320319 0.281250
vt 0.429686 0.281250
vt 0.374995 0.492188
vt 0.320319 0.281250
vt 0.320319 0.125003
vt 0.320319 -0.492188
vt 0.429686 -0.492188
vt 0.429686 0.125003
vt 0.429686 0.281250
vt 0.320319 -0.492188
vt 0.429686 -0.492188
vt 0.320319 0.125003
vt 0.429686 0.125003
vt 0.429686 0.281250
vt 0.320319 0.125003
vt 0.320319 -0.492188
vt 0.429686 0.125003
vt 0.429686 -0.492188
vt 0.429686 0.281250
vt 0.320319 0.281250
vt 0.374995 0.492188
vt 0.320319 0.281250
vt 0.429686 -0.492188
vt 0.429686 0.125003
vt 0.320319 -0.492188
vt 0.320319 0.125003
vt 0.320319 -0.492188
vt 0.429686 -0.492188
vt 0.429686 0.125003
vt 0.429686 0.281250
vt 0.320319 0.281250
vt 0.429686 0.281250
vt 0.374995 0.492188
vt 0.320319 0.281250
vt 0.320319 0.125003
vt 0.320319 -0.492188
vt 0.429686 -0.492188
vt 0.320319 0.125003
vt 0.429686 0.125003
vt 0.320319 0.281250
vt 0.429686 0.281250
vt 0.374995 0.492188
vt 0.320319 0.281250
vt 0.320319 0.125003
vt 0.320319 -0.492188
vt 0.429686 -0.492188
vt 0.429686 0.125003
vt 0.429686 0.281250
vn -0.4419 -0.4658 0.7666
vn -0.4828 -0.3843 0.7869
vn -0.2158 -0.9739 -0.0704
vn 0.0952 0.9949 0.0320
vn -0.1042 0.9942 0.0241
vn 0.1421 0.9854 0.0937
vn 0.3350 0.5346 -0.7758
vn 0.3227 0.4985 -0.8046
vn 0.3770 0.6464 -0.6633
vn -0.7931 0.6061 -0.0596
vn -0.5271 -0.7010 0.4803
vn -0.0246 -0.9997 -0.0080
vn -0.2667 -0.9598 -0.0870
vn -0.8654 -0.4635 -0.1902
vn -0.9086 -0.3562 -0.2183
vn -0.0017 -0.9706 -0.2406
vn -0.0017 0.9942 0.1077
vn -0.0427 0.9919 -0.1199
vn 0.2453 0.9631 0.1103
vn 0.8670 0.4915 0.0820
vn 0.8679 0.4932 0.0585
vn 0.8676 0.4931 0.0631
vn -0.2491 0.7068 -0.6620
vn -0.7122 -0.6368 -0.2953
vn -0.0436 -0.9487 -0.3130
vn -0.0006 -0.9999 0.0091
vn 0.3521 -0.9330 -0.0743
vn 0.0135 -0.3758 -0.9266
vn 0.8650 0.0629 -0.4978
vn 0.3520 -0.9295 -0.1098
vn 0.0440 -0.4615 -0.8860
vn 0.2099 -0.9753 -0.0682
vn -0.0990 -0.4612 -0.8817
vn -0.2667 0.9637 0.0063
vn -0.0865 0.9959 0.0248
vn 0.2193 0.4991 0.8383
vn 0.0580 0.4616 0.8852
vn 0.1667 0.5522 0.8168
vn -0.1541 0.9777 0.1425
vn 0.1329 -0.9735 0.1858
vn 0.8060 -0.4707 -0.3590
vn 0.0072 -0.9999 0.0101
vn 0.8775 -0.3625 -0.3139
vn 0.6925 -0.6878 -0.2176
vn -0.1986 0.9680 0.1531
vn 0.0858 0.9962 0.0172
vn -0.0545 0.9950 -0.0831
vn -0.7307 0.5033 0.4612
vn -0.7824 0.4854 0.3901
vn -0.6979 0.5084 0.5043
vn 0.7877 0.4634 0.4058
vn 0.1101 -0.9819 0.1539
vn -0.1349 -0.9732 0.1861
vn 0.5948 -0.4727 0.6502
vn -0.0107 -0.9998 0.0147
vn 0.7917 -0.4190 0.4444
vn -0.1089 -0.9826 0.1501
vn 0.4882 -0.5982 0.6354
vn -0.7862 0.4937 0.3715
vn 0.1603 0.9244 0.3461
vn -0.0959 0.9932 0.0661
vn 0.0584 0.9952 -0.0784
vn -0.6701 0.5057 -0.5434
vn -0.7947 0.5229 -0.3082
vn -0.7157 0.4653 -0.5208
vn 0.0797 -0.9904 0.1124
vn -0.6856 -0.5141 0.5155
vn -0.0041 -1.0000 -0.0057
vn -0.6724 -0.5453 0.5005
vn 0.0901 -0.9878 0.1268
vn -0.7357 -0.3627 0.5720
vn -0.2879 -0.6446 -0.7082
vn -0.4153 0.9038 -0.1031
vn 0.0239 0.9839 -0.1771
vn -0.1545 0.9579 -0.2420
vn 0.6056 0.4765 -0.6373
vn 0.5892 0.4877 -0.6441
vn 0.4301 0.5647 -0.7044
vn -0.0888 -0.9885 0.1225
vn -0.7117 -0.5022 -0.4912
vn -0.1372 -0.9723 0.1894
vn -0.8383 -0.4595 -0.2932
vn 0.0289 -0.9988 -0.0399
vn -0.6236 -0.5429 -0.5624
vn 0.7717 0.3898 -0.5025
vn -0.1246 0.9534 -0.2748
vn 0.2824 0.9198 -0.2725
vn 0.1716 0.9598 -0.2220
vn 0.7896 0.4755 0.3878
vn 0.8775 0.4251 0.2220
vn 0.8124 0.4655 0.3511
vn -0.1298 -0.9906 -0.0423
vn 0.2508 -0.5117 -0.8217
vn 0.1041 -0.9940 0.0340
vn 0.4424 -0.5478 -0.7100
vn 0.5704 -0.3932 -0.7211
vn 0.0873 0.9876 -0.1301
vn 0.2551 0.9628 0.0886
vn -0.3582 0.5192 0.7760
vn -0.1266 0.4810 0.8675
vn -0.3094 0.5136 0.8003
vn 0.1733 0.9748 0.1406
vn 0.8797 -0.4193 0.2243
vn 0.0281 -0.9995 0.0092
vn 0.8582 -0.5131 0.0087
vn 0.7864 -0.6176 -0.0116
vn -0.0014 -0.9915 -0.1297
vn -0.1179 0.9858 0.1192
vn 0.0120 0.9646 0.2635
vn -0.8649 0.4864 0.1240
vn -0.8515 0.4885 0.1906
vn -0.9361 0.3311 0.1187
vn 0.0501 0.9667 0.2510
vn 0.9448 -0.3208 0.0671
vn -0.3183 -0.4513 0.8336
vn -0.0002 -0.9997 -0.0241
vn 0.0003 -0.9994 0.0349
vn 0.1278 -0.9909 -0.0415
vn 0.2721 -0.5117 0.8149
vn -0.0344 -0.9993 0.0112
vn 0.2076 -0.5869 0.7826
vn -0.0030 -0.9991 -0.0418
vn 0.0811 -0.3371 0.9380
vn -0.9283 -0.3689 -0.0461
vn -0.1926 0.9811 0.0176
vn -0.0801 0.9962 -0.0339
vn -0.2533 0.9641 0.0798
vn -0.3974 0.4784 -0.7831
vn -0.3774 0.4828 -0.7902
vn -0.2814 0.3770 -0.8824
usemtl material0
s 1
f 157/157/136 158/158/137 159/159/138
f 157/157/136 160/160/139 158/158/137
f 158/158/137 160/160/139 161/161/140
f 161/161/140 162/162/141 158/158/137
f 161/161/140 163/163/142 162/162/141
f 160/160/139 163/163/142 161/161/140
f 164/164/143 163/163/142 160/160/139
f 162/162/141 163/163/142 165/165/144
f 162/162/141 165/165/144 166/166/145
f 167/167/146 162/162/141 166/166/145
f 158/158/137 162/162/141 167/167/146
f 158/158/137 167/167/146 168/168/147
f 159/159/138 158/158/137 168/168/147
f 168/168/147 167/167/146 169/169/148
f 169/169/148 167/167/146 166/166/145
f 170/170/149 171/171/150 172/172/151
f 170/170/149 173/173/152 171/171/150
f 171/171/150 173/173/152 174/174/153
f 174/174/153 175/175/154 171/171/150
f 174/174/153 176/176/155 175/175/154
f 173/173/152 176/176/155 174/174/153
f 177/177/156 176/176/155 173/173/152
f 175/175/154 176/176/155 178/178/157
f 175/175/154 178/178/157 179/179/158
f 180/180/159 175/175/154 179/179/158
f 181/181/160 180/180/159 179/179/158
f 182/182/161 180/180/159 181/181/160
f 171/171/150 180/180/159 182/182/161
f 172/172/151 171/171/150 182/182/161
f 171/171/150 175/175/154 180/180/159
f 183/183/162 184/184/163 185/185/164
f 186/186/165 184/184/163 183/183/162
f 187/187/166 184/184/163 186/186/165
f 188/188/167 187/187/166 186/186/165
f 189/189/168 187/187/166 188/188/167
f 189/189/168 190/190/169 187/187/166
f 191/191/170 190/190/169 189/189/168
f 191/191/170 192/192/171 190/190/169
f 190/190/169 192/192/171 193/193/172
f 193/193/172 194/194/173 190/190/169
f 190/190/169 194/194/173 195/195/174
f 184/184/163 190/190/169 195/195/174
f 184/184/163 195/195/174 185/185/164
f 195/195/174 194/194/173 185/185/164
f 196/196/175 197/197/176 198/198/177
f 198/198/177 197/197/176 199/199/178
f 199/199/178 200/200/179 198/198/177
f 199/199/178 201/201/180 200/200/179
f 202/202/181 201/201/180 199/199/178
f 197/197/176 202/202/181 199/199/178
f 203/203/182 202/202/181 197/197/176
f 203/203/182 204/204/183 202/202/181
f 202/202/181 204/204/183 205/205/184
f 202/202/181 205/205/184 201/201/180
f 201/201/180 205/205/184 206/206/185
f 201/201/180 206/206/185 207/207/186
f 200/200/179 201/201/180 207/207/186
f 208/208/187 200/200/179 207/207/186
f 198/198/177 200/200/179 208/208/187
f 209/209/188 210/210/189 211/211/190
f 211/211/190 210/210/189 212/212/191
f 211/211/190 212/212/191 213/213/192
f 213/213/192 212/212/191 214/214/193
f 213/213/192 214/214/193 215/215/194
f 214/214/193 216/216/195 215/215/194
f 212/212/191 216/216/195 214/214/193
f 217/217/196 216/216/195 212/212/191
f 210/210/189 217/217/196 212/212/191
f 218/218/197 217/217/196 210/210/189
f 218/218/197 219/219/198 217/217/196
f 217/217/196 219/219/198 220/220/199
f 217/217/196 220/220/199 216/216/195
f 216/216/195 220/220/199 221/221/200
f 216/216/195 221/221/200 215/215/194
f 222/222/201 223/223/202 224/224/203
f 224/224/203 223/223/202 225/225/204
f 224/224/203 225/225/204 226/226/205
f 226/226/205 225/225/204 227/227/206
f 226/226/205 227/227/206 228/228/207
f 227/227/206 229/229/208 228/228/207
f 227/227/206 230/230/209 229/229/208
f 225/225/204 230/230/209 227/227/206
f 223/223/202 230/230/209 225/225/204
f 231/231/210 230/230/209 223/223/202
f 231/231/210 232/232/211 230/230/209
f 230/230/209 232/232/211 233/233/212
f 233/233/212 234/234/213 230/230/209
f 230/230/209 234/234/213 229/229/208
f 229/229/208 234/234/213 228/228/207
f 235/235/214 236/236/215 237/237/216
f 237/237/216 236/236/215 238/238/217
f 237/237/216 238/238/217 239/239/218
f 239/239/218 238/238/217 240/240/219
f 239/239/218 240/240/219 241/241/220
f 240/240/219 242/242/221 241/241/220
f 238/238/217 242/242/221 240/240/219
f 243/243/222 242/242/221 238/238/217
f 236/236/215 243/243/222 238/238/217
f 244/244/223 243/243/222 236/236/215
f 244/244/223 245/245/224 243/243/222
f 243/243/222 245/245/224 246/246/225
f 246/246/225 247/247/226 243/243/222
f 243/243/222 247/247/226 242/242/221
f 242/242/221 247/247/226 241/241/220
f 248/248/227 249/249/228 250/250/229
f 250/250/229 249/249/228 251/251/230
f 251/251/230 252/252/231 250/250/229
f 251/251/230 253/253/232 252/252/231
f 249/249/228 253/253/232 251/251/230
f 254/254/233 253/253/232 249/249/228
f 254/254/233 255/255/234 253/253/232
f 256/256/235 255/255/234 254/254/233
f 255/255/234 257/257/236 253/253/232
f 253/253/232 257/257/236 258/258/237
f 252/252/231 253/253/232 258/258/237
f 252/252/231 258/258/237 259/259/238
f 260/260/239 252/252/231 259/259/238
f 250/250/229 252/252/231 260/260/239
f 261/261/240 262/262/241 263/263/242
f 261/261/240 264/264/243 262/262/241
f 265/265/244 264/264/243 261/261/240
f 265/265/244 266/266/245 264/264/243
f 264/264/243 266/266/245 267/267/246
f 267/267/246 268/268/247 264/264/243
f 264/264/243 268/268/247 269/269/248
f 270/270/249 264/264/243 269/269/248
f 270/270/249 269/269/248 271/271/250
f 272/272/251 270/270/249 271/271/250
f 272/272/251 262/262/241 270/270/249
f 273/273/252 262/262/241 272/272/251
f 263/263/242 262/262/241 273/273/252
f 262/262/241 264/264/243 270/270/249
f 274/274/253 275/275/254 276/276/255
f 276/276/255 275/275/254 277/277/256
f 276/276/255 277/277/256 278/278/257
f 278/278/257 277/277/256 279/279/258
f 278/278/257 279/279/258 280/280/259
f 279/279/258 281/281/260 280/280/259
f 279/279/258 282/282/261 281/281/260
f 277/277/256 282/282/261 279/279/258
f 277/277/256 283/283/262 282/282/261
f 275/275/254 283/283/262 277/277/256
f 284/284/263 285/285/264 283/283/262
f 283/283/262 285/285/264 282/282/261
f 285/285/264 286/286/265 282/282/261
f 282/282/261 286/286/265 281/281/260
f 281/281/260 286/286/265 280/280/259
f 269/269/248 268/268/247 271/271/250
f 258/258/237 257/257/236 259/259/238
f 187/187/166 190/190/169 184/184/163
o nodes_36__meshes[2]
v -355.790802 1477.016113 -26.082079
v -340.874390 1591.836060 234.558792
v -80.284409 1476.996094 -354.692017
v -129.947189 1591.836060 398.286804
v -120.620796 1772.792114 350.669189
v -308.693604 1772.792114 204.651199
v -374.571594 1772.792114 -7.092880
v -246.982788 1910.784058 1.107084
v -73.775200 1910.784058 245.119186
v 8.851321 2058.000000 -1.706044
v -73.775200 1910.784058 245.119186
v 211.818008 1910.784058 155.792389
v 105.937195 1772.792114 344.444794
v -120.620796 1772.792114 350.669189
v 128.590393 1591.832031 392.839203
v -129.947189 1591.836060 398.286804
v -355.790802 1477.016113 -26.082079
v -128.379593 1477.016113 336.503601
v 344.154785 1591.832031 249.999191
v 298.106384 1772.792114 219.701599
v 287.398804 1476.996094 231.544388
v 349.630798 1591.832031 -246.722015
v 424.196014 1591.832031 -4.736840
v -128.379593 1477.016113 336.503601
v 344.154785 1591.832031 249.999191
v 298.106384 1772.792114 219.701599
v 367.016785 1772.792114 -6.694720
v 211.818008 1910.784058 155.792389
v 215.116394 1910.784058 -143.426392
v 302.942383 1772.792114 -219.002792
v 287.398804 1476.996094 231.544388
v 137.426804 1591.832031 -408.732025
v 349.630798 1591.832031 -246.722015
v 316.194794 1476.984131 -194.938400
v -121.087196 1591.832031 -405.424011
v -112.795601 1772.792114 -359.169189
v 113.742004 1772.792114 -363.504395
v -68.438011 1910.784058 -239.026794
v 215.116394 1910.784058 -143.426392
v 302.942383 1772.792114 -219.002792
v 316.194794 1476.984131 -194.938400
v -335.413177 1591.832031 -260.840393
v -121.087196 1591.832031 -405.424011
v -80.284409 1476.996094 -354.692017
v -417.484009 1591.836060 -6.788120
v -374.571594 1772.792114 -7.092880
v -303.870392 1772.792114 -232.885193
v -246.982788 1910.784058 1.107084
v -68.438011 1910.784058 -239.026794
v -112.795601 1772.792114 -359.169189
v -417.484009 1591.836060 -6.788120
vt 0.304678 0.007812
vt 0.000000 0.249992
vt -0.304678 0.007812
vt 0.304678 0.249992
vt 0.304678 0.515640
vt 0.000000 0.515640
vt -0.304678 0.515640
vt -0.203119 0.773445
vt 0.203119 0.773445
vt 0.000000 0.992188
vt -0.203119 0.773445
vt 0.203119 0.773445
vt 0.000000 0.515640
vt -0.304678 0.515640
vt 0.000000 0.249992
vt -0.304678 0.249992
vt -0.304678 0.007812
vt 0.304678 0.007812
vt 0.304678 0.249992
vt 0.304678 0.515640
vt 0.304678 0.007812
vt 0.304678 0.249992
vt 0.000000 0.249992
vt -0.304678 0.007812
vt -0.304678 0.249992
vt -0.304678 0.515640
vt 0.000000 0.515640
vt -0.203119 0.773445
vt 0.203119 0.773445
vt 0.304678 0.515640
vt -0.304678 0.007812
vt 0.000000 0.249992
vt -0.304678 0.249992
vt 0.304678 0.007812
vt 0.304678 0.249992
vt 0.304678 0.515640
vt 0.000000 0.515640
vt 0.203119 0.773445
vt -0.203119 0.773445
vt -0.304678 0.515640
vt -0.304678 0.007812
vt 0.000000 0.249992
vt -0.304678 0.249992
vt 0.304678 0.007812
vt 0.304678 0.249992
vt 0.304678 0.515640
vt 0.000000 0.515640
vt 0.203119 0.773445
vt -0.203119 0.773445
vt -0.304678 0.515640
vt -0.304678 0.249992
vn -0.5465 0.7775 -0.3112
vn -0.7664 -0.3474 0.5403
vn -0.9038 -0.2425 -0.3524
vn -0.6125 -0.0453 0.7891
vn -0.5551 0.4248 0.7150
vn -0.7278 0.4718 0.4977
vn -0.8633 0.4259 0.2706
vn -0.5733 0.7577 0.3118
vn -0.4915 0.7486 0.4450
vn 0.0027 0.9999 -0.0117
vn 0.1304 0.7258 0.6754
vn 0.2788 0.7227 0.6324
vn 0.2572 0.4719 0.8433
vn 0.0228 0.4174 0.9084
vn 0.2872 -0.3217 0.9022
vn 0.0165 -0.6199 0.7844
vn -0.6036 -0.2342 0.7621
vn -0.4455 0.7970 0.4077
vn 0.5524 -0.0023 0.8336
vn 0.4965 0.4207 0.7592
vn 0.2409 0.8107 0.5335
vn 0.9557 0.0004 -0.2945
vn 0.9475 -0.3198 -0.0016
vn 0.5451 -0.2155 0.8102
vn 0.7484 -0.6201 0.2351
vn 0.8629 0.4299 0.2657
vn 0.8742 0.4855 -0.0012
vn 0.6860 0.7220 0.0898
vn 0.6792 0.7301 -0.0743
vn 0.8616 0.4346 -0.2620
vn 0.9447 -0.2027 -0.2576
vn 0.2929 -0.3430 -0.8925
vn 0.4688 -0.6350 -0.6140
vn 0.5915 0.8038 -0.0628
vn -0.0128 -0.0425 -0.9990
vn -0.0150 0.4458 -0.8950
vn 0.2638 0.4921 -0.8296
vn 0.1262 0.7592 -0.6385
vn 0.2902 0.7506 -0.5935
vn 0.5430 0.4468 -0.7110
vn 0.0597 -0.2199 -0.9737
vn -0.7473 -0.3602 -0.5583
vn -0.4274 -0.6448 -0.6337
vn 0.1287 0.7831 -0.6083
vn -0.9492 -0.0701 -0.3066
vn -0.8564 0.4392 -0.2713
vn -0.7013 0.4823 -0.5249
vn -0.5585 0.7683 -0.3125
vn -0.4583 0.7704 -0.4431
vn -0.4966 0.4441 -0.7457
vn -0.7354 -0.6362 0.2334
usemtl material1
s 1
f 287/287/266 288/288/267 289/289/268
f 287/287/266 290/290/269 288/288/267
f 291/291/270 288/288/267 290/290/269
f 292/292/271 288/288/267 291/291/270
f 293/293/272 288/288/267 292/292/271
f 293/293/272 292/292/271 294/294/273
f 294/294/273 292/292/271 295/295/274
f 296/296/275 294/294/273 295/295/274
f 297/297/276 298/298/277 296/296/275
f 299/299/278 298/298/277 297/297/276
f 300/300/279 299/299/278 297/297/276
f 300/300/279 301/301/280 299/299/278
f 300/300/279 302/302/281 301/301/280
f 303/303/282 301/301/280 302/302/281
f 304/304/283 301/301/280 303/303/282
f 304/304/283 305/305/284 301/301/280
f 306/306/285 301/301/280 305/305/284
f 299/299/278 301/301/280 306/306/285
f 299/299/278 306/306/285 298/298/277
f 307/307/286 308/308/287 309/309/288
f 307/307/286 309/309/288 310/310/289
f 310/310/289 309/309/288 311/311/290
f 312/312/291 311/311/290 309/309/288
f 312/312/291 309/309/288 313/313/292
f 312/312/291 313/313/292 314/314/293
f 313/313/292 315/315/294 314/314/293
f 313/313/292 316/316/295 315/315/294
f 313/313/292 309/309/288 316/316/295
f 316/316/295 309/309/288 308/308/287
f 317/317/296 318/318/297 319/319/298
f 320/320/299 318/318/297 317/317/296
f 320/320/299 321/321/300 318/318/297
f 322/322/301 318/318/297 321/321/300
f 322/322/301 323/323/302 318/318/297
f 324/324/303 323/323/302 322/322/301
f 325/325/304 323/323/302 324/324/303
f 326/326/305 323/323/302 325/325/304
f 326/326/305 318/318/297 323/323/302
f 326/326/305 319/319/298 318/318/297
f 327/327/306 328/328/307 329/329/308
f 330/330/309 328/328/307 327/327/306
f 330/330/309 331/331/310 328/328/307
f 332/332/311 328/328/307 331/331/310
f 332/332/311 333/333/312 328/328/307
f 334/334/313 333/333/312 332/332/311
f 335/335/314 333/333/312 334/334/313
f 336/336/315 333/333/312 335/335/314
f 336/336/315 328/328/307 333/333/312
f 336/336/315 329/329/308 328/328/307
f 289/289/268 288/288/267 337/337/316
f 293/293/272 337/337/316 288/288/267
f 314/314/293 315/315/294 296/296/275
f 296/296/275 335/335/314 334/334/313
f 296/296/275 325/325/304 324/324/303
f 295/295/274 292/292/271 291/291/270
o nodes_35__meshes[1]
v 301.640381 1255.979980 -411.344025
v -80.284409 1476.996094 -354.691589
v 316.194794 1476.984131 -194.938400
v -0.282764 1112.992065 -589.779968
v 346.707184 886.976013 -476.459991
v 560.156006 1112.972046 -182.005600
v 316.194794 1476.984131 -194.938400
v -486.000000 1256.024048 157.910797
v -128.379593 1477.016113 336.503204
v -355.790802 1477.016113 -26.082039
v -346.750397 1113.024048 476.472015
v -560.200012 887.028015 182.019592
v -560.592041 1113.024048 -181.659195
v -355.790802 1477.016113 -26.082039
v -2.281732 1256.008057 507.548035
v 287.398804 1476.996094 231.544388
v -128.379593 1477.016113 336.503204
v 346.434387 1112.992065 477.308014
v 0.239525 887.008057 589.792053
v 485.816010 1255.979980 155.484802
v 287.398804 1476.996094 231.544388
v 560.548035 886.976013 181.673203
v -300.174011 1256.008057 -409.272034
v -80.284409 1476.996094 -354.691589
v -346.477600 887.008057 -477.292023
v -301.683594 744.019958 411.359985
v 0.239525 887.008057 589.792053
v -346.750397 1113.024048 476.472015
v -0.592652 523.004028 363.998383
v 299.179993 743.992065 409.596008
v 346.434387 1112.992065 477.308014
v -485.856018 744.019958 -155.471191
v -346.477600 887.008057 -477.292023
v -214.432388 523.004028 -294.132385
v -560.592041 1113.024048 -181.659195
v 1.287536 743.992065 -507.224030
v -0.282764 1112.992065 -589.779968
v 214.388794 522.984009 -294.672028
v 485.956024 743.976013 -157.896790
v 560.548035 886.976013 181.673203
v 346.648010 522.984009 112.379997
v 560.156006 1112.972046 -182.005600
v -0.592652 523.004028 363.998383
v 346.707184 886.976013 -476.459991
v 214.388794 522.984009 -294.672028
v 346.648010 522.984009 112.379997
v -560.200012 887.028015 182.019592
v -346.227600 523.016052 112.496399
v -214.432388 523.004028 -294.132385
v -346.227600 523.016052 112.496399
v 346.648010 522.984009 112.379997
v 190.489197 457.992065 62.178799
v 214.388794 522.984009 -294.672028
v 117.560799 457.988037 -162.262802
v -0.592652 523.004028 363.998383
v -0.298378 458.004059 199.874802
v 346.648010 522.984009 112.379997
v 190.489197 457.992065 62.178799
v -346.227600 523.016052 112.496399
v -190.257599 458.008057 61.818398
v -0.592652 523.004028 363.998383
v -0.298378 458.004059 199.874802
v -214.432388 523.004028 -294.132385
v -117.724800 458.004059 -161.526794
v -346.227600 523.016052 112.496399
v -190.257599 458.008057 61.818398
v 214.388794 522.984009 -294.672028
v 117.560799 457.988037 -162.262802
v -214.432388 523.004028 -294.132385
v -117.724800 458.004059 -161.526794
vt 0.445297 1.289067
vt 0.601554 1.148432
vt 0.445297 0.710946
vt 0.601554 0.851581
vt 0.445297 1.289067
vt 0.601554 1.148432
vt 0.445297 0.710946
vt 0.601554 0.851581
vt 0.445297 1.289067
vt 0.601554 1.148432
vt 0.445297 0.710946
vt 0.601554 0.851581
vt 0.445297 1.289067
vt 0.601554 1.148432
vt 0.445297 0.710946
vt 0.601554 0.851581
vt 0.445297 1.289067
vt 0.601554 1.148432
vt 0.445297 0.710946
vt 0.601554 0.851581
vt 0.000000 0.546878
vt 0.351568 0.992176
vt -0.367189 0.992176
vt 0.492203 0.382811
vt 0.000000 0.007811
vt 0.492203 0.382811
vt 0.351568 0.992176
vt 0.000000 0.546878
vt 0.351568 0.992176
vt -0.367189 0.992176
vt 0.492203 0.382811
vt 0.000000 0.007811
vt 0.492203 0.382811
vt 0.351568 0.992176
vt 0.000000 0.546878
vt 0.351568 0.992176
vt -0.367189 0.992176
vt 0.492203 0.382811
vt 0.000000 0.007811
vt 0.000000 0.546878
vt -0.367189 0.992176
vt 0.000000 0.007811
vt 0.000000 0.546878
vt -0.367189 0.992176
vt 0.000000 0.007811
vt 0.999987 0.453108
vt 0.507824 0.617176
vt 0.999987 0.992176
vt 0.687513 0.007811
vt 0.999987 0.453108
vt 0.999987 0.992176
vt 0.999987 0.453108
vt 0.507824 0.617176
vt 0.687513 0.007811
vt 0.999987 0.992176
vt 0.999987 0.453108
vt 0.999987 0.992176
vt 1.312500 0.007811
vt 0.999987 0.453108
vt 0.507824 0.617176
vt 0.687513 0.007811
vt 0.999987 0.992176
vt 1.312500 0.007811
vt 0.507824 0.617176
vt 0.687513 0.007811
vt 1.312500 0.007811
vt 0.507824 0.617176
vt 0.687513 0.007811
vt 1.312500 0.007811
vt 1.312500 0.007811
vn 0.4175 -0.8985 -0.1357
vn 0.4176 -0.8985 -0.1357
vn 0.2580 -0.8981 0.3561
vn 0.2583 -0.8973 0.3580
vn -0.2588 -0.8981 0.3556
vn -0.2583 -0.8984 0.3553
vn -0.4180 -0.8983 -0.1355
vn -0.4184 -0.8980 -0.1359
vn -0.0006 -0.8975 -0.4410
vn -0.0014 -0.8983 -0.4393
vn 0.5049 0.4382 -0.7436
vn 0.0448 0.5793 -0.8139
vn 0.2801 0.6621 -0.6951
vn 0.0049 0.3995 -0.9167
vn 0.5752 0.2098 -0.7907
vn 0.8783 0.3900 -0.2765
vn 0.7947 0.5687 -0.2119
vn -0.8393 0.4532 0.3004
vn -0.5062 0.5934 0.6258
vn -0.6168 0.6855 0.3868
vn -0.5428 0.4036 0.7364
vn -0.9305 0.2069 0.3023
vn -0.8666 0.4049 -0.2915
vn -0.7474 0.5943 -0.2969
vn 0.0240 0.4470 0.8942
vn 0.4468 0.5762 0.6844
vn 0.1828 0.6648 0.7242
vn 0.5291 0.3992 0.7487
vn -0.0006 0.2175 0.9760
vn 0.8650 0.4360 0.2483
vn 0.7518 0.6574 0.0507
vn 0.9301 0.2098 0.3016
vn -0.5513 0.4512 -0.7017
vn -0.5636 0.6775 -0.4725
vn -0.5742 0.2175 -0.7893
vn -0.5277 -0.4476 0.7219
vn 0.0030 -0.3900 0.9208
vn -0.5752 -0.2098 0.7907
vn -0.1453 -0.6043 0.7833
vn 0.5263 -0.4493 0.7219
vn 0.5742 -0.2183 0.7890
vn -0.8513 -0.4476 -0.2738
vn -0.5388 -0.3900 -0.7467
vn -0.3404 -0.6021 -0.7222
vn -0.9301 -0.2098 -0.3016
vn 0.0015 -0.4493 -0.8934
vn 0.0007 -0.2183 -0.9759
vn -0.0009 -0.6936 -0.7203
vn 0.8509 -0.4468 -0.2764
vn 0.8759 -0.3874 0.2874
vn 0.6989 -0.6016 0.3866
vn 0.9305 -0.2069 -0.3023
vn 0.4226 -0.6936 0.5833
vn 0.5398 -0.3874 -0.7474
vn 0.5779 -0.6041 -0.5487
vn 0.6801 -0.6990 -0.2210
vn -0.8775 -0.3856 0.2851
vn -0.7906 -0.6040 0.1008
vn -0.6812 -0.6980 -0.2207
vn -0.4213 -0.6980 0.5790
usemtl material3
s off
f 388/338/317 389/339/317 390/340/317
f 390/340/318 389/339/318 391/341/318
f 392/342/319 393/343/319 394/344/319
f 394/344/320 393/343/320 395/345/320
f 396/346/321 397/347/321 398/348/321
f 398/348/322 397/347/322 399/349/322
f 400/350/323 401/351/323 402/352/323
f 402/352/324 401/351/324 403/353/324
f 404/354/325 405/355/325 406/356/325
f 406/356/326 405/355/326 407/357/326
s 1
f 338/358/327 339/359/328 340/360/329
f 338/358/327 341/361/330 339/359/328
f 341/361/330 338/358/327 342/362/331
f 338/358/327 343/363/332 342/362/331
f 343/363/332 338/358/327 344/364/333
f 345/365/334 346/366/335 347/367/336
f 345/365/334 348/368/337 346/366/335
f 348/368/337 345/365/334 349/369/338
f 345/365/334 350/370/339 349/369/338
f 350/370/339 345/365/334 351/371/340
f 352/372/341 353/373/342 354/374/343
f 353/373/342 352/372/341 355/375/344
f 355/375/344 352/372/341 356/376/345
f 352/372/341 348/368/337 356/376/345
f 348/368/337 352/372/341 346/366/335
f 357/377/346 344/364/333 358/378/347
f 357/377/346 343/363/332 344/364/333
f 343/363/332 357/377/346 359/379/348
f 357/377/346 355/375/344 359/379/348
f 355/375/344 357/377/346 353/373/342
f 360/380/349 351/371/340 361/381/350
f 360/380/349 350/370/339 351/371/340
f 350/370/339 360/380/349 362/382/351
f 360/380/349 341/361/330 362/382/351
f 341/361/330 360/380/349 339/359/328
f 363/383/352 364/384/353 365/385/354
f 364/384/353 363/383/352 366/386/355
f 367/387/356 364/384/353 366/386/355
f 364/384/353 367/387/356 368/388/357
f 369/389/358 370/390/359 371/391/360
f 370/390/359 369/389/358 372/392/361
f 373/393/362 370/390/359 374/394/363
f 370/390/359 373/393/362 371/391/360
f 371/391/360 373/393/362 375/395/364
f 376/396/365 377/397/366 378/398/367
f 377/397/366 376/396/365 379/399/368
f 367/387/356 377/397/366 368/388/357
f 377/397/366 367/387/356 378/398/367
f 378/398/367 367/387/356 380/400/369
f 381/401/370 373/393/362 374/394/363
f 373/393/362 381/401/370 382/402/371
f 381/401/370 376/396/365 382/402/371
f 376/396/365 381/401/370 379/399/368
f 382/402/371 376/396/365 383/403/372
f 369/389/358 384/404/373 372/392/361
f 384/404/373 369/389/358 385/405/374
f 363/383/352 384/404/373 385/405/374
f 384/404/373 363/383/352 365/385/354
f 385/405/374 369/389/358 386/406/375
f 366/386/355 363/383/352 387/407/376
o nodes_34__meshes[0]
v 45.653797 339.085052 -18.608320
v -0.006020 -152.000000 0.000000
v -42.903797 339.089813 -22.080080
v -1.589429 339.087616 55.273598
v -42.903797 339.089813 -22.080080
v 45.653797 339.085052 -18.608320
v -1.589429 339.087616 55.273598
v 117.557007 457.988037 -162.262802
v 190.485397 457.991730 62.178799
v 45.653797 339.085052 -18.608320
v -117.728600 458.003204 -161.526794
v 117.557007 457.988037 -162.262802
v 45.653797 339.085052 -18.608320
v -42.903797 339.089813 -22.080080
v 190.485397 457.991730 62.178799
v -0.302144 458.002808 199.874802
v -1.589429 339.087616 55.273598
v 45.653797 339.085052 -18.608320
v -190.261398 458.010315 61.818398
v -117.728600 458.003204 -161.526794
v -42.903797 339.089813 -22.080080
v -0.302144 458.002808 199.874802
v -190.261398 458.010315 61.818398
v -1.589429 339.087616 55.273598
v -42.903797 339.089813 -22.080080
vt 0.601576 0.851578
vt 0.601576 1.148440
vt 0.804683 1.000009
vt 0.601576 0.851578
vt 0.601576 1.148440
vt 0.804683 1.000009
vt 0.617172 0.007816
vt 0.070308 0.007816
vt 0.617172 0.117203
vt 0.617172 0.117203
vt 0.617172 0.007816
vt 0.617172 0.117203
vt 0.617172 0.007816
vt 0.601576 0.851578
vt 0.601576 1.148440
vt 0.804683 1.085948
vt 0.804683 0.914070
vt 0.601576 0.851578
vt 0.601576 1.148440
vt 0.804683 1.085948
vt 0.804683 0.914070
vt 0.601576 0.851578
vt 0.601576 1.148440
vt 0.804683 0.914070
vt 0.804683 1.085948
vn 0.6900 -0.6882 -0.2242
vn -0.6859 -0.6928 -0.2227
vn 0.0391 -0.0414 -0.9984
vn -0.0008 -0.9999 -0.0098
vn -0.8807 -0.0558 0.4704
vn 0.8411 -0.0578 0.5378
vn 0.0057 -0.7654 -0.6435
vn -0.0020 -0.7698 -0.6382
vn 0.0099 -0.7631 -0.6462
vn 0.0257 -0.7538 -0.6566
vn 0.4441 -0.7462 0.4959
vn 0.4154 -0.7044 0.5755
vn 0.4571 -0.7648 0.4540
vn 0.4915 -0.8122 0.3143
vn -0.4205 -0.6989 0.5785
vn -0.4542 -0.7474 0.4848
vn -0.4701 -0.7696 0.4321
vn -0.5066 -0.8186 0.2705
usemtl material4
s off
f 415/408/377 416/409/377 417/410/377
f 426/411/378 427/412/378 428/413/378
s 1
f 408/414/379 409/415/380 410/416/379
f 411/417/381 412/418/381 409/415/380
f 413/419/382 414/420/382 409/415/380
f 418/421/383 419/422/384 420/423/385
f 418/421/383 420/423/385 421/424/386
f 422/425/387 423/426/388 424/427/389
f 425/428/390 422/425/387 424/427/389
f 429/429/391 430/430/392 431/431/393
f 431/431/393 430/430/392 432/432/394
