mtllib balinade_meat.mtl
o nodes_3__meshes[0]
v 237.675598 -172.682800 0.000000
v 280.000000 0.000000 0.000000
v 222.000000 0.000000 60.000000
v -111.000000 -180.500000 0.000000
v 0.000000 -195.000000 0.000000
v 41.092003 -80.589211 91.000404
v -222.000000 -130.359192 0.000000
v -164.376007 -94.000000 64.707199
v -242.376007 0.000000 60.000000
v -222.000000 166.000000 0.000000
v -280.000000 0.000000 0.000000
v -164.376007 94.000000 119.000000
v -111.000000 229.948395 0.000000
v 144.000000 94.000000 119.000000
v 209.916397 151.191193 0.000000
v 159.793198 182.316010 0.000000
v 0.000000 183.281189 0.000000
v 0.000000 117.000000 60.000000
v 216.598389 -85.107605 -63.661598
v 141.146790 114.188797 -61.861599
v -1.100876 74.122002 -46.031200
v 243.032394 41.500000 0.000000
v 182.175598 -193.448013 0.000000
v -92.376007 47.000000 134.279190
v 0.000000 0.000000 108.000000
v 63.605598 87.379196 131.536011
v 144.000000 -94.000000 119.000000
v 54.344002 6.940440 156.319199
v 161.793198 10.032760 141.237595
v 180.971191 -123.571198 38.633919
v 111.000000 -151.557190 0.000000
v -165.553192 -62.119598 -85.286400
v -107.319199 110.866798 -65.714798
v -6.870640 -135.225189 -49.514400
vt 0.921890 0.093760
vt 0.984376 0.468741
vt 0.874995 0.437497
vt 0.312494 0.031243
vt 0.500014 0.031243
vt 0.562501 0.250007
vt 0.015622 0.125004
vt 0.203112 0.218764
vt 0.093760 0.437497
vt 0.015622 0.874995
vt 0.015622 0.468741
vt 0.218764 0.656261
vt 0.312494 0.968755
vt 0.749991 0.656261
vt 0.890616 0.843751
vt 0.781264 0.937511
vt 0.500014 0.937511
vt 0.500014 0.718748
vt 0.874995 0.312494
vt 0.749991 0.687504
vt 0.500014 0.624988
vt 0.937511 0.531257
vt 0.812508 0.062487
vt 0.343737 0.562501
vt 0.500014 0.468741
vt 0.609366 0.593744
vt 0.749991 0.250007
vt 0.593744 0.437497
vt 0.781264 0.437497
vt 0.812508 0.187490
vt 0.687504 0.093760
vt 0.187490 0.312494
vt 0.312494 0.687504
vt 0.500014 0.156247
vn 0.6815 -0.7293 0.0608
vn 0.9584 0.2730 -0.0826
vn 0.7709 0.0406 0.6356
vn -0.2238 -0.9746 -0.0010
vn 0.0963 -0.9953 0.0013
vn -0.1750 -0.5929 0.7860
vn -0.6913 -0.7221 -0.0254
vn -0.2905 -0.4892 0.8224
vn -0.7012 -0.0948 0.7066
vn -0.7520 0.6315 -0.1888
vn -0.9832 0.0085 -0.1820
vn -0.3365 0.3233 0.8845
vn -0.0312 0.9948 -0.0972
vn 0.3517 0.5583 0.7514
vn 0.7851 0.6073 -0.1210
vn 0.2478 0.9657 -0.0779
vn 0.1928 0.9716 -0.1373
vn 0.0202 0.6374 0.7703
vn 0.3887 -0.2003 -0.8993
vn 0.1781 0.3352 -0.9251
vn 0.0462 0.1783 -0.9829
vn 0.8833 0.4261 -0.1952
vn -0.0974 -0.9952 0.0045
vn 0.0518 0.0579 0.9969
vn -0.2649 -0.0964 0.9594
vn -0.2200 0.5908 0.7762
vn 0.2706 -0.6196 0.7367
vn -0.3131 -0.0525 0.9482
vn 0.5196 0.0391 0.8535
vn 0.3023 -0.5671 0.7661
vn 0.0210 -0.9984 -0.0524
vn -0.2708 -0.1909 -0.9435
vn -0.0508 0.2853 -0.9571
vn 0.0520 -0.4196 -0.9062
usemtl material0
s 1
f 1/1/1 2/2/2 3/3/3
f 4/4/4 5/5/5 6/6/6
f 7/7/7 8/8/8 9/9/9
f 10/10/10 11/11/11 9/9/9
f 10/10/10 12/12/12 13/13/13
f 14/14/14 3/3/3 15/15/15
f 16/16/16 17/17/17 18/18/18
f 19/19/19 2/2/2 1/1/1
f 20/20/20 21/21/21 17/17/17
f 19/19/19 22/22/22 2/2/2
f 20/20/20 17/17/17 16/16/16
f 1/1/1 23/23/23 19/19/19
f 18/18/18 24/24/24 25/25/25
f 18/18/18 25/25/25 26/26/26
f 25/25/25 24/24/24 8/8/8
f 6/6/6 27/27/27 28/28/28
f 9/9/9 12/12/12 10/10/10
f 6/6/6 25/25/25 8/8/8
f 18/18/18 14/14/14 16/16/16
f 29/29/29 27/27/27 3/3/3
f 9/9/9 11/11/11 7/7/7
f 3/3/3 27/27/27 30/30/30
f 4/4/4 6/6/6 8/8/8
f 14/14/14 29/29/29 3/3/3
f 25/25/25 28/28/28 26/26/26
f 31/31/31 6/6/6 5/5/5
f 31/31/31 27/27/27 6/6/6
f 30/30/30 27/27/27 31/31/31
f 23/23/23 30/30/30 31/31/31
f 1/1/1 30/30/30 23/23/23
f 3/3/3 30/30/30 1/1/1
f 28/28/28 27/27/27 29/29/29
f 26/26/26 28/28/28 29/29/29
f 18/18/18 26/26/26 14/14/14
f 25/25/25 6/6/6 28/28/28
f 3/3/3 2/2/2 22/22/22
f 15/15/15 3/3/3 22/22/22
f 8/8/8 7/7/7 4/4/4
f 13/13/13 18/18/18 17/17/17
f 13/13/13 12/12/12 18/18/18
f 18/18/18 12/12/12 24/24/24
f 9/9/9 8/8/8 12/12/12
f 12/12/12 8/8/8 24/24/24
f 26/26/26 29/29/29 14/14/14
f 7/7/7 11/11/11 32/32/32
f 33/33/33 32/32/32 11/11/11
f 14/14/14 15/15/15 16/16/16
f 13/13/13 17/17/17 33/33/33
f 7/7/7 32/32/32 4/4/4
f 34/34/34 32/32/32 21/21/21
f 33/33/33 21/21/21 32/32/32
f 34/34/34 20/20/20 19/19/19
f 19/19/19 23/23/23 31/31/31
f 16/16/16 15/15/15 20/20/20
f 20/20/20 15/15/15 22/22/22
f 20/20/20 34/34/34 21/21/21
f 10/10/10 33/33/33 11/11/11
f 13/13/13 33/33/33 10/10/10
f 33/33/33 17/17/17 21/21/21
f 34/34/34 19/19/19 31/31/31
f 31/31/31 5/5/5 34/34/34
f 4/4/4 34/34/34 5/5/5
f 4/4/4 32/32/32 34/34/34
f 20/20/20 22/22/22 19/19/19
