mtllib balinade_medusan_parts.mtl
o nodes_5__meshes[1]
v 256.850006 83.599998 -41.250000
v 194.935593 203.152802 -81.490395
v 211.062393 223.849991 -41.250000
v 211.649597 69.326797 117.972794
v 132.384399 187.188400 117.972794
v 109.253593 35.917721 214.193192
v 0.000000 115.558395 214.193192
v 0.000000 0.000000 240.074799
v 214.235199 -65.480797 117.972794
v 302.637604 -56.649998 -41.250000
v 274.364807 -41.305199 -81.490395
v -274.364807 -41.305199 -81.490395
v -249.049591 -119.525597 -81.490395
v -302.637604 -56.649998 -41.250000
v -256.850006 83.599998 -41.250000
v -211.649597 69.326797 117.972794
v -214.235199 -65.480797 117.972794
v -109.253593 35.917721 214.193192
v -67.526398 -93.078011 214.193192
v -132.384399 187.188400 117.972794
v -211.062393 223.849991 -41.250000
v -194.935593 203.152802 -81.490395
v -128.519196 251.507187 -81.490395
v -194.935593 203.152802 -81.490395
v -146.849991 270.600006 -41.250000
v 0.000000 270.600006 -41.250000
v 0.000000 222.943192 117.972794
v 0.000000 115.558395 214.193192
v -109.253593 35.917721 214.193192
v 146.849991 270.600006 -41.250000
v 128.519196 251.507187 -81.490395
v 249.049591 -119.525597 -81.490395
v 274.364807 -41.305199 -81.490395
v 278.162384 -132.274796 -41.250000
v 158.949997 -218.900009 -41.250000
v 130.858398 -181.011200 117.972794
v 67.526398 -93.078011 214.193192
v 109.253593 35.917721 214.193192
v 0.000000 -222.064789 117.972794
v 39.737480 -305.524780 -41.250000
v 41.101200 -270.609192 -81.490395
v -41.101200 -270.609192 -81.490395
v 41.101200 -270.609192 -81.490395
v -39.737518 -305.524780 -41.250000
v -158.949997 -218.900009 -41.250000
v -130.858398 -181.011200 117.972794
v 39.737480 -305.524780 -41.250000
v 302.637604 -56.649998 -41.250000
v -278.162384 -132.274796 -41.250000
v -278.162384 -132.274796 -41.250000
v -67.526398 -93.078011 214.193192
v 67.526398 -93.078011 214.193192
v -211.062393 223.849991 -41.250000
v 128.519196 251.507187 -81.490395
v 146.849991 270.600006 -41.250000
v -249.049591 -119.525597 -81.490395
vt 0.359388 0.109382
vt 0.093760 0.015622
vt 0.093760 0.109382
vt 0.359388 0.453118
vt 0.000000 0.453118
vt 0.187490 0.796885
vt -0.187490 0.796885
vt 0.000000 0.984375
vt 0.000000 0.453118
vt 0.093760 0.109382
vt 0.093760 0.015622
vt 0.093760 0.015622
vt -0.093760 0.015622
vt 0.093760 0.109382
vt 0.359388 0.109382
vt 0.359388 0.453118
vt 0.000000 0.453118
vt 0.187490 0.796885
vt -0.187490 0.796885
vt 0.000000 0.453118
vt 0.093760 0.109382
vt 0.093760 0.015622
vt 0.093760 0.015622
vt -0.093760 0.015622
vt 0.093760 0.109382
vt 0.359388 0.109382
vt 0.359388 0.453118
vt 0.187490 0.796885
vt -0.187490 0.796885
vt 0.093760 0.109382
vt 0.093760 0.015622
vt 0.093760 0.015622
vt -0.093760 0.015622
vt 0.093760 0.109382
vt 0.359388 0.109382
vt 0.359388 0.453118
vt 0.187490 0.796885
vt -0.187490 0.796885
vt 0.000000 0.453118
vt 0.093760 0.109382
vt 0.093760 0.015622
vt 0.093760 0.015622
vt -0.093760 0.015622
vt 0.093760 0.109382
vt 0.359388 0.109382
vt 0.359388 0.453118
vt -0.093760 0.109382
vt -0.093760 0.109382
vt -0.093760 0.109382
vt 0.093760 0.109382
vt 0.187490 0.796885
vt -0.187490 0.796885
vt -0.093760 0.109382
vt -0.093760 0.015622
vt -0.093760 0.109382
vt 0.093760 0.015622
vn 0.9391 0.3066 0.1553
vn 0.6876 0.4957 -0.5305
vn 0.7876 0.6131 -0.0625
vn 0.7822 0.2496 0.5708
vn 0.4547 0.6376 0.6218
vn 0.4383 0.2961 0.8486
vn 0.2630 0.3608 0.8948
vn 0.0000 -0.0006 1.0000
vn 0.7435 -0.2300 0.6279
vn 0.9703 0.2416 0.0115
vn 0.8331 0.2720 -0.4816
vn -0.8240 0.0351 -0.5655
vn -0.7480 -0.2421 -0.6179
vn -0.9954 -0.0476 -0.0828
vn -0.9391 0.3066 0.1553
vn -0.7822 0.2496 0.5708
vn -0.7435 -0.2300 0.6279
vn -0.5347 0.0128 0.8449
vn -0.4306 -0.1393 0.8917
vn -0.4547 0.6376 0.6218
vn -0.9279 0.3726 -0.0118
vn -0.8362 0.2730 -0.4755
vn -0.2458 0.8276 -0.5046
vn -0.4931 0.6773 -0.5460
vn -0.3471 0.9362 -0.0541
vn 0.0000 0.9858 0.1678
vn 0.0000 0.8231 0.5678
vn -0.1505 0.5077 0.8482
vn -0.2615 0.3588 0.8960
vn 0.0626 0.9978 0.0197
vn 0.0000 0.9034 -0.4287
vn 0.6416 -0.4636 -0.6111
vn 0.7480 -0.2421 -0.6179
vn 0.8259 -0.5553 -0.0970
vn 0.5826 -0.8018 0.1328
vn 0.4787 -0.6627 0.5758
vn 0.4221 -0.3266 0.8456
vn 0.4331 -0.1401 0.8904
vn 0.0000 -0.7765 0.6301
vn 0.5216 -0.8525 -0.0335
vn 0.4856 -0.6683 -0.5634
vn -0.2567 -0.7343 -0.6284
vn 0.0000 -0.7553 -0.6554
vn -0.2645 -0.9583 -0.1084
vn -0.5826 -0.8018 0.1328
vn -0.4787 -0.6627 0.5758
vn 0.0000 -0.9852 -0.1712
vn 0.9390 -0.3039 -0.1611
vn -0.9425 -0.3050 -0.1366
vn -0.6479 -0.7600 -0.0505
vn -0.1802 -0.5043 0.8445
vn 0.0000 -0.4570 0.8894
vn -0.5851 0.8037 -0.1079
vn 0.4931 0.6773 -0.5460
vn 0.5844 0.8027 -0.1188
vn -0.4857 -0.6684 -0.5632
usemtl material0_001
s 1
f 1/1/1 2/2/2 3/3/3
f 3/3/3 4/4/4 1/1/1
f 5/5/5 4/4/4 3/3/3
f 5/5/5 6/6/6 4/4/4
f 6/6/6 5/5/5 7/7/7
f 6/6/6 7/7/7 8/8/8
f 4/4/4 6/6/6 9/9/9
f 10/10/10 4/4/4 9/9/9
f 1/1/1 4/4/4 10/10/10
f 11/11/11 1/1/1 10/10/10
f 12/12/12 13/13/13 14/14/14
f 15/15/15 12/12/12 14/14/14
f 14/14/14 16/16/16 15/15/15
f 17/17/17 16/16/16 14/14/14
f 17/17/17 18/18/18 16/16/16
f 17/17/17 19/19/19 18/18/18
f 18/18/18 19/19/19 8/8/8
f 16/16/16 18/18/18 20/20/20
f 16/16/16 20/20/20 21/21/21
f 15/15/15 16/16/16 21/21/21
f 22/22/22 15/15/15 21/21/21
f 23/23/23 24/24/24 25/25/25
f 26/26/26 23/23/23 25/25/25
f 25/25/25 27/27/27 26/26/26
f 20/20/20 27/27/27 25/25/25
f 20/20/20 28/28/28 27/27/27
f 20/20/20 29/29/29 28/28/28
f 28/28/28 29/29/29 8/8/8
f 28/28/28 5/5/5 27/27/27
f 27/27/27 5/5/5 30/30/30
f 26/26/26 27/27/27 30/30/30
f 31/31/31 26/26/26 30/30/30
f 32/32/32 33/33/33 34/34/34
f 35/35/35 32/32/32 34/34/34
f 34/34/34 36/36/36 35/35/35
f 9/9/9 36/36/36 34/34/34
f 9/9/9 37/37/37 36/36/36
f 9/9/9 38/38/38 37/37/37
f 37/37/37 38/38/38 8/8/8
f 37/37/37 39/39/39 36/36/36
f 40/40/40 36/36/36 39/39/39
f 35/35/35 36/36/36 40/40/40
f 41/41/41 35/35/35 40/40/40
f 42/42/42 43/43/43 44/44/44
f 45/45/45 42/42/42 44/44/44
f 44/44/44 46/46/46 45/45/45
f 44/44/44 39/39/39 46/46/46
f 44/44/44 47/47/47 39/39/39
f 47/47/47 44/44/44 43/43/43
f 33/33/33 48/48/48 34/34/34
f 34/34/34 48/48/48 9/9/9
f 49/49/49 14/14/14 13/13/13
f 14/14/14 49/49/49 17/17/17
f 46/46/46 17/17/17 50/50/50
f 46/46/46 51/51/51 17/17/17
f 39/39/39 51/51/51 46/46/46
f 51/51/51 39/39/39 52/52/52
f 51/51/51 52/52/52 8/8/8
f 53/53/53 25/25/25 24/24/24
f 53/53/53 20/20/20 25/25/25
f 54/54/54 55/55/55 3/3/3
f 2/2/2 54/54/54 3/3/3
f 3/3/3 55/55/55 5/5/5
f 45/45/45 46/46/46 50/50/50
f 56/56/56 45/45/45 50/50/50
o nodes_4__meshes[0]
v 144.615204 196.821198 -2.926808
v 81.219200 103.424797 -75.075211
v -144.615204 196.821198 -2.926808
v 131.415192 -51.063198 -75.075211
v 233.449997 -76.914810 -2.926812
v 103.219597 137.487198 95.054794
v -103.219597 137.487198 95.054794
v 0.000000 0.000000 142.079590
v 167.012802 -58.848003 95.054794
v -81.219200 103.425194 -75.075211
v -233.449997 -76.914810 -2.926804
v -131.415192 -51.063198 -75.075211
v 0.000000 -1.508284 -108.074799
v 0.000000 -146.542007 -75.074799
v -131.415192 -51.063198 -75.075211
v 0.000000 -246.320801 -2.926808
v -233.449997 -76.914810 -2.926804
v 0.000000 -180.190002 95.054794
v -167.012802 -58.848003 95.054794
v -167.012802 -58.848003 95.054794
v 0.000000 -246.320801 -2.926808
v 0.000000 -146.542007 -75.074799
v 233.449997 -76.914810 -2.926812
v 167.012802 -58.848003 95.054794
v 0.000000 -180.190002 95.054794
v 131.415192 -51.063198 -75.075211
vt 1.609380 0.609381
vt 1.296856 0.796856
vt 0.390619 0.609381
vt 0.671856 0.796856
vt 0.390619 0.609381
vt 1.296856 0.796856
vt 0.671856 0.796856
vt 0.999999 0.999999
vt 0.671856 0.796856
vt 0.671856 0.796856
vt 1.609380 0.609381
vt 1.296856 0.796856
vt 0.999999 0.999999
vt 1.296856 0.796856
vt 0.671856 0.796856
vt 1.609380 0.609381
vt 0.390619 0.609381
vt 1.296856 0.796856
vt 0.671856 0.796856
vt 1.296856 0.796856
vt 0.390619 0.609381
vt 0.671856 0.796856
vt 1.609380 0.609381
vt 1.296856 0.796856
vt 0.671856 0.796856
vt 1.296856 0.796856
vn 0.5778 0.8029 -0.1466
vn 0.2686 0.3568 -0.8947
vn -0.5777 0.8029 -0.1467
vn 0.5056 0.1641 -0.8470
vn 0.9431 0.3062 -0.1297
vn 0.3797 0.5160 0.7678
vn -0.3796 0.5160 0.7678
vn 0.0000 0.0085 0.9999
vn 0.6859 0.2228 0.6927
vn -0.2687 0.3568 -0.8947
vn -0.9431 0.3061 -0.1299
vn -0.5057 0.1643 -0.8469
vn 0.0000 0.0148 -0.9999
vn -0.3252 -0.4476 -0.8330
vn -0.3239 -0.4462 -0.8343
vn -0.5835 -0.8039 -0.1153
vn -0.5843 -0.8049 -0.1034
vn -0.4299 -0.5922 0.6814
vn -0.4294 -0.5910 0.6828
vn -0.6859 0.2227 0.6928
vn 0.5836 -0.8038 -0.1151
vn 0.3249 -0.4475 -0.8332
vn 0.5843 -0.8050 -0.1032
vn 0.4293 -0.5914 0.6826
vn 0.4303 -0.5922 0.6812
vn 0.3239 -0.4458 -0.8344
usemtl material0
s 1
f 57/57/57 58/58/58 59/59/59
f 57/57/57 60/60/60 58/58/58
f 61/61/61 60/60/60 57/57/57
f 57/57/57 62/62/62 61/61/61
f 62/62/62 57/57/57 63/63/63
f 62/62/62 63/63/63 64/64/64
f 65/65/65 62/62/62 64/64/64
f 61/61/61 62/62/62 65/65/65
f 59/59/59 58/58/58 66/66/66
f 66/66/66 67/67/67 59/59/59
f 68/68/68 67/67/67 66/66/66
f 68/68/68 66/66/66 69/69/69
f 66/66/66 58/58/58 69/69/69
f 58/58/58 60/60/60 69/69/69
f 70/70/70 71/71/71 69/69/69
f 70/70/70 72/72/72 71/71/71
f 71/71/71 72/72/72 73/73/73
f 74/74/74 73/73/73 72/72/72
f 75/75/75 73/73/73 74/74/74
f 75/75/75 74/74/74 64/64/64
f 63/63/63 76/76/76 64/64/64
f 63/63/63 59/59/59 76/76/76
f 63/63/63 57/57/57 59/59/59
f 76/76/76 59/59/59 67/67/67
f 77/77/77 78/78/78 79/79/79
f 79/79/79 80/80/80 77/77/77
f 77/77/77 80/80/80 81/81/81
f 81/81/81 80/80/80 64/64/64
f 79/79/79 78/78/78 82/82/82
f 82/82/82 78/78/78 69/69/69
