<?xml version="1.0" encoding="utf-8"?>
<COLLADA xmlns="http://www.collada.org/2005/11/COLLADASchema" version="1.4.1" xmlns:xsi="http://www.w3.org/2001/XMLSchema-instance">
  <asset>
    <contributor>
      <author>Blender User</author>
      <authoring_tool>Blender 2.79.0 commit date:2018-03-22, commit time:14:10, hash:f4dc9f9d68b</authoring_tool>
    </contributor>
    <created>2023-10-30T17:44:02</created>
    <modified>2023-10-30T17:44:02</modified>
    <unit name="meter" meter="1"/>
    <up_axis>Z_UP</up_axis>
  </asset>
  <library_images>
    <image id="balinade_01_png" name="balinade_01_png">
      <init_from>balinade_01.png</init_from>
    </image>
  </library_images>
  <library_effects>
    <effect id="balinade_01_png-effect">
      <profile_COMMON>
        <newparam sid="balinade_01_png-surface">
          <surface type="2D">
            <init_from>balinade_01_png</init_from>
          </surface>
        </newparam>
        <newparam sid="balinade_01_png-sampler">
          <sampler2D>
            <source>balinade_01_png-surface</source>
          </sampler2D>
        </newparam>
        <technique sid="common">
          <phong>
            <diffuse>
              <texture texture="balinade_01_png-sampler" texcoord="balinade_01_png"/>
            </diffuse>
            <specular>
              <color sid="specular">0 0 0 1</color>
            </specular>
          </phong>
        </technique>
      </profile_COMMON>
    </effect>
  </library_effects>
  <library_materials>
    <material id="balinade_01_png-material" name="balinade_01_png">
      <instance_effect url="#balinade_01_png-effect"/>
    </material>
  </library_materials>
  <library_geometries>
    <geometry id="meshes_0_-mesh" name="meshes[0]">
      <mesh>
        <source id="meshes_0_-mesh-positions">
          <float_array id="meshes_0_-mesh-positions-array" count="78">144.6152 2.926808 196.8212 81.2192 75.07521 103.4248 -144.6152 2.926808 196.8212 131.4152 75.07521 -51.0632 233.45 2.926812 -76.91481 103.2196 -95.0548 137.4872 -103.2196 -95.0548 137.4872 0 -142.0796 0 167.0128 -95.0548 -58.848 -81.2192 75.07521 103.4252 -233.45 2.926804 -76.91481 -131.4152 75.07521 -51.0632 0 108.0748 -1.508284 0 75.0748 -146.542 -131.4152 75.07521 -51.0632 0 2.926808 -246.3208 -233.45 2.926804 -76.91481 0 -95.0548 -180.19 -167.0128 -95.0548 -58.848 -167.0128 -95.0548 -58.848 0 2.926808 -246.3208 0 75.0748 -146.542 233.45 2.926812 -76.91481 167.0128 -95.0548 -58.848 0 -95.0548 -180.19 131.4152 75.07521 -51.0632</float_array>
          <technique_common>
            <accessor source="#meshes_0_-mesh-positions-array" count="26" stride="3">
              <param name="X" type="float"/>
              <param name="Y" type="float"/>
              <param name="Z" type="float"/>
            </accessor>
          </technique_common>
        </source>
        <source id="meshes_0_-mesh-normals">
          <float_array id="meshes_0_-mesh-normals-array" count="78">0.5777943 0.1466155 0.8029058 0.2686 0.8947331 0.3568006 -0.5777689 0.1466777 0.8029128 0.5056141 0.8470035 0.164133 0.9430843 0.1297385 0.3062025 0.3797494 -0.7677999 0.5160172 -0.37963 -0.767836 0.5160514 0 -0.9999638 0.008514821 0.6859445 -0.6926892 0.2228495 -0.2686952 0.8947148 0.356775 -0.9430904 0.1298573 0.3061336 -0.5056729 0.8469389 0.1642849 0 0.9998909 0.0147711 -0.325185 0.8330291 -0.4475681 -0.3238989 0.8342693 -0.4461888 -0.5835027 0.1153028 -0.8038842 -0.5843548 0.1033691 -0.8048879 -0.4299503 -0.6814566 -0.5922498 -0.4294101 -0.6828445 -0.5910417 -0.6858822 -0.6928099 0.222666 0.5835878 0.1151489 -0.8038447 0.3248797 0.8331813 -0.4475068 0.5842825 0.1031841 -0.804964 0.4293129 -0.6826218 -0.5913696 0.4302865 -0.6812437 -0.5922505 0.3239335 0.8344323 -0.4458587</float_array>
          <technique_common>
            <accessor source="#meshes_0_-mesh-normals-array" count="26" stride="3">
              <param name="X" type="float"/>
              <param name="Y" type="float"/>
              <param name="Z" type="float"/>
            </accessor>
          </technique_common>
        </source>
        <source id="meshes_0_-mesh-map-0">
          <float_array id="meshes_0_-mesh-map-0-array" count="180">1.60938 0.6093807 1.296856 0.7968561 0.3906186 0.6093807 1.60938 0.6093807 0.6718561 0.7968561 1.296856 0.7968561 0.3906186 0.6093807 0.6718561 0.7968561 1.60938 0.6093807 1.60938 0.6093807 1.296856 0.7968561 0.3906186 0.6093807 1.296856 0.7968561 1.60938 0.6093807 0.6718561 0.7968561 1.296856 0.7968561 0.6718561 0.7968561 0.9999993 0.9999993 0.6718561 0.7968561 1.296856 0.7968561 0.9999993 0.9999993 0.3906186 0.6093807 1.296856 0.7968561 0.6718561 0.7968561 0.3906186 0.6093807 1.296856 0.7968561 0.6718561 0.7968561 0.6718561 0.7968561 1.60938 0.6093807 0.3906186 0.6093807 1.296856 0.7968561 1.60938 0.6093807 0.6718561 0.7968561 1.296856 0.7968561 0.6718561 0.7968561 0.9999993 0.9999993 0.6718561 0.7968561 1.296856 0.7968561 0.9999993 0.9999993 1.296856 0.7968561 0.6718561 0.7968561 0.9999993 0.9999993 1.296856 0.7968561 0.6718561 0.7968561 0.9999993 0.9999993 1.296856 0.7968561 1.60938 0.6093807 0.6718561 0.7968561 0.6718561 0.7968561 1.60938 0.6093807 0.3906186 0.6093807 1.296856 0.7968561 0.3906186 0.6093807 1.60938 0.6093807 0.6718561 0.7968561 0.3906186 0.6093807 1.296856 0.7968561 0.6718561 0.7968561 1.296856 0.7968561 0.9999993 0.9999993 0.6718561 0.7968561 1.296856 0.7968561 0.9999993 0.9999993 0.6718561 0.7968561 0.3906186 0.6093807 1.296856 0.7968561 0.6718561 0.7968561 1.60938 0.6093807 0.3906186 0.6093807 1.296856 0.7968561 0.3906186 0.6093807 1.60938 0.6093807 0.3906186 0.6093807 0.6718561 0.7968561 1.60938 0.6093807 1.60938 0.6093807 1.296856 0.7968561 0.3906186 0.6093807 0.3906186 0.6093807 1.296856 0.7968561 0.6718561 0.7968561 0.6718561 0.7968561 1.296856 0.7968561 0.9999993 0.9999993 1.60938 0.6093807 0.6718561 0.7968561 1.296856 0.7968561 1.296856 0.7968561 0.6718561 0.7968561 0.9999993 0.9999993</float_array>
          <technique_common>
            <accessor source="#meshes_0_-mesh-map-0-array" count="90" stride="2">
              <param name="S" type="float"/>
              <param name="T" type="float"/>
            </accessor>
          </technique_common>
        </source>
        <source id="meshes_0_-mesh-colors-COLOR_0" name="COLOR_0">
          <float_array id="meshes_0_-mesh-colors-COLOR_0-array" count="270">1 1 1 1 1 1 1 1 1 1 1 1 1 1 1 1 1 1 1 1 1 1 1 1 1 1 1 1 1 1 1 1 1 1 1 1 1 1 1 1 1 1 1 1 1 1 1 1 1 1 1 1 1 1 1 1 1 1 1 1 1 1 1 1 1 1 1 1 1 1 1 1 1 1 1 1 1 1 1 1 1 1 1 1 1 1 1 1 1 1 1 1 1 1 1 1 1 1 1 1 1 1 1 1 1 1 1 1 1 1 1 1 1 1 1 1 1 1 1 1 1 1 1 1 1 1 1 1 1 1 1 1 1 1 1 1 1 1 1 1 1 1 1 1 1 1 1 1 1 1 1 1 1 1 1 1 1 1 1 1 1 1 1 1 1 1 1 1 1 1 1 1 1 1 1 1 1 1 1 1 1 1 1 1 1 1 1 1 1 1 1 1 1 1 1 1 1 1 1 1 1 1 1 1 1 1 1 1 1 1 1 1 1 1 1 1 1 1 1 1 1 1 1 1 1 1 1 1 1 1 1 1 1 1 1 1 1 1 1 1 1 1 1 1 1 1 1 1 1 1 1 1 1 1 1 1 1 1 1 1 1 1 1 1 1 1 1 1 1 1</float_array>
          <technique_common>
            <accessor source="#meshes_0_-mesh-colors-COLOR_0-array" count="90" stride="3">
              <param name="R" type="float"/>
              <param name="G" type="float"/>
              <param name="B" type="float"/>
            </accessor>
          </technique_common>
        </source>
        <vertices id="meshes_0_-mesh-vertices">
          <input semantic="POSITION" source="#meshes_0_-mesh-positions"/>
        </vertices>
        <triangles material="balinade_01_png-material" count="30">
          <input semantic="VERTEX" source="#meshes_0_-mesh-vertices" offset="0"/>
          <input semantic="NORMAL" source="#meshes_0_-mesh-normals" offset="1"/>
          <input semantic="TEXCOORD" source="#meshes_0_-mesh-map-0" offset="2" set="0"/>
          <input semantic="COLOR" source="#meshes_0_-mesh-colors-COLOR_0" offset="3" set="0"/>
          <p>0 0 0 0 1 1 1 1 2 2 2 2 0 0 3 3 3 3 4 4 1 1 5 5 4 4 6 6 3 3 7 7 0 0 8 8 0 0 9 9 5 5 10 10 4 4 11 11 5 5 12 12 0 0 13 13 6 6 14 14 5 5 15 15 6 6 16 16 7 7 17 17 8 8 18 18 5 5 19 19 7 7 20 20 4 4 21 21 5 5 22 22 8 8 23 23 2 2 24 24 1 1 25 25 9 9 26 26 9 9 27 27 10 10 28 28 2 2 29 29 11 11 30 30 10 10 31 31 9 9 32 32 11 11 33 33 9 9 34 34 12 12 35 35 9 9 36 36 1 1 37 37 12 12 38 38 1 1 39 39 3 3 40 40 12 12 41 41 13 13 42 42 14 14 43 43 12 12 44 44 13 13 45 45 15 15 46 46 14 14 47 47 14 14 48 48 15 15 49 49 16 16 50 50 17 17 51 51 16 16 52 52 15 15 53 53 18 18 54 54 16 16 55 55 17 17 56 56 18 18 57 57 17 17 58 58 7 7 59 59 6 6 60 60 19 19 61 61 7 7 62 62 6 6 63 63 2 2 64 64 19 19 65 65 6 6 66 66 0 0 67 67 2 2 68 68 19 19 69 69 2 2 70 70 10 10 71 71 20 20 72 72 21 21 73 73 22 22 74 74 22 22 75 75 23 23 76 76 20 20 77 77 20 20 78 78 23 23 79 79 24 24 80 80 24 24 81 81 23 23 82 82 7 7 83 83 22 22 84 84 21 21 85 85 25 25 86 86 25 25 87 87 21 21 88 88 12 12 89 89</p>
        </triangles>
      </mesh>
    </geometry>
    <geometry id="meshes_1_-mesh" name="meshes[1]">
      <mesh>
        <source id="meshes_1_-mesh-positions">
          <float_array id="meshes_1_-mesh-positions-array" count="168">256.85 41.25 83.6 194.9356 81.4904 203.1528 211.0624 41.25 223.85 211.6496 -117.9728 69.3268 132.3844 -117.9728 187.1884 109.2536 -214.1932 35.91772 0 -214.1932 115.5584 0 -240.0748 0 214.2352 -117.9728 -65.4808 302.6376 41.25 -56.65 274.3648 81.4904 -41.3052 -274.3648 81.4904 -41.3052 -249.0496 81.4904 -119.5256 -302.6376 41.25 -56.65 -256.85 41.25 83.6 -211.6496 -117.9728 69.3268 -214.2352 -117.9728 -65.4808 -109.2536 -214.1932 35.91772 -67.5264 -214.1932 -93.07801 -132.3844 -117.9728 187.1884 -211.0624 41.25 223.85 -194.9356 81.4904 203.1528 -128.5192 81.4904 251.5072 -194.9356 81.4904 203.1528 -146.85 41.25 270.6 0 41.25 270.6 0 -117.9728 222.9432 0 -214.1932 115.5584 -109.2536 -214.1932 35.91772 146.85 41.25 270.6 128.5192 81.4904 251.5072 249.0496 81.4904 -119.5256 274.3648 81.4904 -41.3052 278.1624 41.25 -132.2748 158.95 41.25 -218.9 130.8584 -117.9728 -181.0112 67.5264 -214.1932 -93.07801 109.2536 -214.1932 35.91772 0 -117.9728 -222.0648 39.73748 41.25 -305.5248 41.1012 81.4904 -270.6092 -41.1012 81.4904 -270.6092 41.1012 81.4904 -270.6092 -39.73752 41.25 -305.5248 -158.95 41.25 -218.9 -130.8584 -117.9728 -181.0112 39.73748 41.25 -305.5248 302.6376 41.25 -56.65 -278.1624 41.25 -132.2748 -278.1624 41.25 -132.2748 -67.5264 -214.1932 -93.07801 67.5264 -214.1932 -93.07801 -211.0624 41.25 223.85 128.5192 81.4904 251.5072 146.85 41.25 270.6 -249.0496 81.4904 -119.5256</float_array>
          <technique_common>
            <accessor source="#meshes_1_-mesh-positions-array" count="56" stride="3">
              <param name="X" type="float"/>
              <param name="Y" type="float"/>
              <param name="Z" type="float"/>
            </accessor>
          </technique_common>
        </source>
        <source id="meshes_1_-mesh-normals">
          <float_array id="meshes_1_-mesh-normals-array" count="168">0.9390947 -0.1553103 0.3065615 0.6875938 0.5305429 0.4957207 0.7875639 0.06247162 0.6130583 0.7822384 -0.5707707 0.2496473 0.4547362 -0.6217983 0.6376378 0.4383173 -0.8486485 0.2960976 0.2629883 -0.8948072 0.3607734 0 -0.9999999 -5.79869e-4 0.7434843 -0.6279376 -0.2300556 0.970318 -0.01153612 0.2415571 0.8331066 0.4816197 0.2719849 -0.8239864 0.5655198 0.03512752 -0.7480636 0.6178979 -0.2420807 -0.9954271 0.08279711 -0.0476396 -0.9390947 -0.1553103 0.3065615 -0.7822384 -0.5707707 0.2496473 -0.7434843 -0.6279376 -0.2300556 -0.5346714 -0.8449634 0.01278764 -0.4305691 -0.8917494 -0.1392605 -0.4547362 -0.6217983 0.6376378 -0.9279123 0.01181101 0.3726115 -0.8362571 0.4755505 0.2729944 -0.2458329 0.5046366 0.8275918 -0.4930982 0.545988 0.6773119 -0.3470674 0.05414152 0.9362761 0 -0.1677634 0.9858274 0 -0.5677872 0.8231754 -0.1504615 -0.8482612 0.5077543 -0.2615501 -0.8960153 0.358815 0.06256371 -0.0197457 0.9978457 0 0.4286727 0.9034599 0.6416245 0.6110754 -0.4635786 0.7480636 0.6178979 -0.2420807 0.8259378 0.09698963 -0.5553556 0.5826228 -0.1328221 -0.801816 0.4787222 -0.5758339 -0.6627522 0.4221423 -0.845658 -0.3265865 0.4330603 -0.8904136 -0.1400808 0 -0.6301065 -0.7765088 0.5215708 0.03350991 -0.8525499 0.4856504 0.5634435 -0.6683377 -0.2566982 0.6284238 -0.7342954 0 0.6553639 -0.7553134 -0.2645379 0.1084032 -0.9582633 -0.5826228 -0.1328221 -0.801816 -0.4787222 -0.5758339 -0.6627522 0 0.1712446 -0.9852285 0.9389931 0.1610819 -0.3038825 -0.9425006 0.1366049 -0.305011 -0.6478949 0.05050945 -0.7600533 -0.1802167 -0.8445311 -0.504271 0 -0.8894346 -0.4570625 -0.5851396 0.1079455 0.8037161 0.4930982 0.545988 0.6773119 0.5844124 0.1187807 0.8027163 -0.4857475 0.5632058 -0.6684674</float_array>
          <technique_common>
            <accessor source="#meshes_1_-mesh-normals-array" count="56" stride="3">
              <param name="X" type="float"/>
              <param name="Y" type="float"/>
              <param name="Z" type="float"/>
            </accessor>
          </technique_common>
        </source>
        <source id="meshes_1_-mesh-map-0">
          <float_array id="meshes_1_-mesh-map-0-array" count="390">0.3593884 0.1093816 0.09376001 0.01562166 0.09376001 0.1093816 0.09376001 0.1093816 0.3593884 0.4531183 0.3593884 0.1093816 0 0.4531183 0.3593884 0.4531183 0.09376001 0.1093816 0 0.4531183 0.18749 0.7968851 0.3593884 0.4531183 0.18749 0.7968851 0 0.4531183 -0.18749 0.7968851 0.18749 0.7968851 -0.18749 0.7968851 0 0.9843751 0.3593884 0.4531183 0.18749 0.7968851 0 0.4531183 0.09376001 0.1093816 0.3593884 0.4531183 0 0.4531183 0.3593884 0.1093816 0.3593884 0.4531183 0.09376001 0.1093816 0.09376001 0.01562166 0.3593884 0.1093816 0.09376001 0.1093816 0.09376001 0.01562166 -0.09376001 0.01562166 0.09376001 0.1093816 0.3593884 0.1093816 0.09376001 0.01562166 0.09376001 0.1093816 0.09376001 0.1093816 0.3593884 0.4531183 0.3593884 0.1093816 0 0.4531183 0.3593884 0.4531183 0.09376001 0.1093816 0 0.4531183 0.18749 0.7968851 0.3593884 0.4531183 0 0.4531183 -0.18749 0.7968851 0.18749 0.7968851 0.18749 0.7968851 -0.18749 0.7968851 0 0.9843751 0.3593884 0.4531183 0.18749 0.7968851 0 0.4531183 0.3593884 0.4531183 0 0.4531183 0.09376001 0.1093816 0.3593884 0.1093816 0.3593884 0.4531183 0.09376001 0.1093816 0.09376001 0.01562166 0.3593884 0.1093816 0.09376001 0.1093816 0.09376001 0.01562166 -0.09376001 0.01562166 0.09376001 0.1093816 0.3593884 0.1093816 0.09376001 0.01562166 0.09376001 0.1093816 0.09376001 0.1093816 0.3593884 0.4531183 0.3593884 0.1093816 0 0.4531183 0.3593884 0.4531183 0.09376001 0.1093816 0 0.4531183 0.18749 0.7968851 0.3593884 0.4531183 0 0.4531183 -0.18749 0.7968851 0.18749 0.7968851 0.18749 0.7968851 -0.18749 0.7968851 0 0.9843751 0.18749 0.7968851 0 0.4531183 0.3593884 0.4531183 0.3593884 0.4531183 0 0.4531183 0.09376001 0.1093816 0.3593884 0.1093816 0.3593884 0.4531183 0.09376001 0.1093816 0.09376001 0.01562166 0.3593884 0.1093816 0.09376001 0.1093816 0.09376001 0.01562166 -0.09376001 0.01562166 0.09376001 0.1093816 0.3593884 0.1093816 0.09376001 0.01562166 0.09376001 0.1093816 0.09376001 0.1093816 0.3593884 0.4531183 0.3593884 0.1093816 0 0.4531183 0.3593884 0.4531183 0.09376001 0.1093816 0 0.4531183 0.18749 0.7968851 0.3593884 0.4531183 0 0.4531183 -0.18749 0.7968851 0.18749 0.7968851 0.18749 0.7968851 -0.18749 0.7968851 0 0.9843751 0.18749 0.7968851 0 0.4531183 0.3593884 0.4531183 0.09376001 0.1093816 0.3593884 0.4531183 0 0.4531183 0.3593884 0.1093816 0.3593884 0.4531183 0.09376001 0.1093816 0.09376001 0.01562166 0.3593884 0.1093816 0.09376001 0.1093816 0.09376001 0.01562166 -0.09376001 0.01562166 0.09376001 0.1093816 0.3593884 0.1093816 0.09376001 0.01562166 0.09376001 0.1093816 0.09376001 0.1093816 0.3593884 0.4531183 0.3593884 0.1093816 0.09376001 0.1093816 0 0.4531183 0.3593884 0.4531183 0.09376001 0.1093816 -0.09376001 0.1093816 0 0.4531183 -0.09376001 0.1093816 0.09376001 0.1093816 -0.09376001 0.01562166 -0.09376001 0.01562166 -0.09376001 0.1093816 0.09376001 0.1093816 0.09376001 0.1093816 -0.09376001 0.1093816 0 0.4531183 -0.09376001 0.1093816 0.09376001 0.1093816 -0.09376001 0.01562166 0.09376001 0.1093816 -0.09376001 0.1093816 0 0.4531183 0.3593884 0.4531183 0 0.4531183 0.09376001 0.1093816 0.3593884 0.4531183 0.18749 0.7968851 0 0.4531183 0 0.4531183 0.18749 0.7968851 0.3593884 0.4531183 0.18749 0.7968851 0 0.4531183 -0.18749 0.7968851 0.18749 0.7968851 -0.18749 0.7968851 0 0.9843751 -0.09376001 0.1093816 0.09376001 0.1093816 -0.09376001 0.01562166 -0.09376001 0.1093816 0 0.4531183 0.09376001 0.1093816 -0.09376001 0.01562166 -0.09376001 0.1093816 0.09376001 0.1093816 0.09376001 0.01562166 -0.09376001 0.01562166 0.09376001 0.1093816 0.09376001 0.1093816 -0.09376001 0.1093816 0 0.4531183 0.3593884 0.1093816 0.3593884 0.4531183 0.09376001 0.1093816 0.09376001 0.01562166 0.3593884 0.1093816 0.09376001 0.1093816</float_array>
          <technique_common>
            <accessor source="#meshes_1_-mesh-map-0-array" count="195" stride="2">
              <param name="S" type="float"/>
              <param name="T" type="float"/>
            </accessor>
          </technique_common>
        </source>
        <source id="meshes_1_-mesh-colors-COLOR_0" name="COLOR_0">
          <float_array id="meshes_1_-mesh-colors-COLOR_0-array" count="585">1 1 1 1 1 1 1 1 1 1 1 1 1 1 1 1 1 1 1 1 1 1 1 1 1 1 1 1 1 1 1 1 1 1 1 1 1 1 1 1 1 1 1 1 1 1 1 1 1 1 1 1 1 1 1 1 1 1 1 1 1 1 1 1 1 1 1 1 1 1 1 1 1 1 1 1 1 1 1 1 1 1 1 1 1 1 1 1 1 1 1 1 1 1 1 1 1 1 1 1 1 1 1 1 1 1 1 1 1 1 1 1 1 1 1 1 1 1 1 1 1 1 1 1 1 1 1 1 1 1 1 1 1 1 1 1 1 1 1 1 1 1 1 1 1 1 1 1 1 1 1 1 1 1 1 1 1 1 1 1 1 1 1 1 1 1 1 1 1 1 1 1 1 1 1 1 1 1 1 1 1 1 1 1 1 1 1 1 1 1 1 1 1 1 1 1 1 1 1 1 1 1 1 1 1 1 1 1 1 1 1 1 1 1 1 1 1 1 1 1 1 1 1 1 1 1 1 1 1 1 1 1 1 1 1 1 1 1 1 1 1 1 1 1 1 1 1 1 1 1 1 1 1 1 1 1 1 1 1 1 1 1 1 1 1 1 1 1 1 1 1 1 1 1 1 1 1 1 1 1 1 1 1 1 1 1 1 1 1 1 1 1 1 1 1 1 1 1 1 1 1 1 1 1 1 1 1 1 1 1 1 1 1 1 1 1 1 1 1 1 1 1 1 1 1 1 1 1 1 1 1 1 1 1 1 1 1 1 1 1 1 1 1 1 1 1 1 1 1 1 1 1 1 1 1 1 1 1 1 1 1 1 1 1 1 1 1 1 1 1 1 1 1 1 1 1 1 1 1 1 1 1 1 1 1 1 1 1 1 1 1 1 1 1 1 1 1 1 1 1 1 1 1 1 1 1 1 1 1 1 1 1 1 1 1 1 1 1 1 1 1 1 1 1 1 1 1 1 1 1 1 1 1 1 1 1 1 1 1 1 1 1 1 1 1 1 1 1 1 1 1 1 1 1 1 1 1 1 1 1 1 1 1 1 1 1 1 1 1 1 1 1 1 1 1 1 1 1 1 1 1 1 1 1 1 1 1 1 1 1 1 1 1 1 1 1 1 1 1 1 1 1 1 1 1 1 1 1 1 1 1 1 1 1 1 1 1 1 1 1 1 1 1 1 1 1 1 1 1 1 1 1 1 1 1 1 1 1 1 1 1 1 1 1 1 1 1 1 1 1 1 1 1 1 1 1 1 1 1 1 1 1 1 1 1 1 1 1 1 1 1 1 1 1 1 1 1 1 1 1 1 1 1 1 1</float_array>
          <technique_common>
            <accessor source="#meshes_1_-mesh-colors-COLOR_0-array" count="195" stride="3">
              <param name="R" type="float"/>
              <param name="G" type="float"/>
              <param name="B" type="float"/>
            </accessor>
          </technique_common>
        </source>
        <vertices id="meshes_1_-mesh-vertices">
          <input semantic="POSITION" source="#meshes_1_-mesh-positions"/>
        </vertices>
        <triangles material="balinade_01_png-material" count="65">
          <input semantic="VERTEX" source="#meshes_1_-mesh-vertices" offset="0"/>
          <input semantic="NORMAL" source="#meshes_1_-mesh-normals" offset="1"/>
          <input semantic="TEXCOORD" source="#meshes_1_-mesh-map-0" offset="2" set="0"/>
          <input semantic="COLOR" source="#meshes_1_-mesh-colors-COLOR_0" offset="3" set="0"/>
          <p>0 0 0 0 1 1 1 1 2 2 2 2 2 2 3 3 3 3 4 4 0 0 5 5 4 4 6 6 3 3 7 7 2 2 8 8 4 4 9 9 5 5 10 10 3 3 11 11 5 5 12 12 4 4 13 13 6 6 14 14 5 5 15 15 6 6 16 16 7 7 17 17 3 3 18 18 5 5 19 19 8 8 20 20 9 9 21 21 3 3 22 22 8 8 23 23 0 0 24 24 3 3 25 25 9 9 26 26 10 10 27 27 0 0 28 28 9 9 29 29 11 11 30 30 12 12 31 31 13 13 32 32 14 14 33 33 11 11 34 34 13 13 35 35 13 13 36 36 15 15 37 37 14 14 38 38 16 16 39 39 15 15 40 40 13 13 41 41 16 16 42 42 17 17 43 43 15 15 44 44 16 16 45 45 18 18 46 46 17 17 47 47 17 17 48 48 18 18 49 49 7 7 50 50 15 15 51 51 17 17 52 52 19 19 53 53 15 15 54 54 19 19 55 55 20 20 56 56 14 14 57 57 15 15 58 58 20 20 59 59 21 21 60 60 14 14 61 61 20 20 62 62 22 22 63 63 23 23 64 64 24 24 65 65 25 25 66 66 22 22 67 67 24 24 68 68 24 24 69 69 26 26 70 70 25 25 71 71 19 19 72 72 26 26 73 73 24 24 74 74 19 19 75 75 27 27 76 76 26 26 77 77 19 19 78 78 28 28 79 79 27 27 80 80 27 27 81 81 28 28 82 82 7 7 83 83 27 27 84 84 4 4 85 85 26 26 86 86 26 26 87 87 4 4 88 88 29 29 89 89 25 25 90 90 26 26 91 91 29 29 92 92 30 30 93 93 25 25 94 94 29 29 95 95 31 31 96 96 32 32 97 97 33 33 98 98 34 34 99 99 31 31 100 100 33 33 101 101 33 33 102 102 35 35 103 103 34 34 104 104 8 8 105 105 35 35 106 106 33 33 107 107 8 8 108 108 36 36 109 109 35 35 110 110 8 8 111 111 37 37 112 112 36 36 113 113 36 36 114 114 37 37 115 115 7 7 116 116 36 36 117 117 38 38 118 118 35 35 119 119 39 39 120 120 35 35 121 121 38 38 122 122 34 34 123 123 35 35 124 124 39 39 125 125 40 40 126 126 34 34 127 127 39 39 128 128 41 41 129 129 42 42 130 130 43 43 131 131 44 44 132 132 41 41 133 133 43 43 134 134 43 43 135 135 45 45 136 136 44 44 137 137 43 43 138 138 38 38 139 139 45 45 140 140 43 43 141 141 46 46 142 142 38 38 143 143 46 46 144 144 43 43 145 145 42 42 146 146 32 32 147 147 47 47 148 148 33 33 149 149 33 33 150 150 47 47 151 151 8 8 152 152 48 48 153 153 13 13 154 154 12 12 155 155 13 13 156 156 48 48 157 157 16 16 158 158 45 45 159 159 16 16 160 160 49 49 161 161 45 45 162 162 50 50 163 163 16 16 164 164 38 38 165 165 50 50 166 166 45 45 167 167 50 50 168 168 38 38 169 169 51 51 170 170 50 50 171 171 51 51 172 172 7 7 173 173 52 52 174 174 24 24 175 175 23 23 176 176 52 52 177 177 19 19 178 178 24 24 179 179 53 53 180 180 54 54 181 181 2 2 182 182 1 1 183 183 53 53 184 184 2 2 185 185 2 2 186 186 54 54 187 187 4 4 188 188 44 44 189 189 45 45 190 190 49 49 191 191 55 55 192 192 44 44 193 193 49 49 194 194</p>
        </triangles>
      </mesh>
    </geometry>
  </library_geometries>
  <library_controllers>
    <controller id="Armature_nodes_4_-skin" name="Armature">
      <skin source="#meshes_0_-mesh">
        <bind_shape_matrix>1 0 0 0 0 1 0 0 0 0 1 0 0 0 0 1</bind_shape_matrix>
        <source id="Armature_nodes_4_-skin-joints">
          <Name_array id="Armature_nodes_4_-skin-joints-array" count="3">nodes_1_ nodes_2_ nodes_3_</Name_array>
          <technique_common>
            <accessor source="#Armature_nodes_4_-skin-joints-array" count="3" stride="1">
              <param name="JOINT" type="name"/>
            </accessor>
          </technique_common>
        </source>
        <source id="Armature_nodes_4_-skin-bind_poses">
          <float_array id="Armature_nodes_4_-skin-bind_poses-array" count="48">1 0 0 0 0 1 0 0 0 0 1 0 0 0 0 1 1 0 0 0 0 1 0 0 0 0 1 0 0 0 0 1 1 0 0 0 0 1 0 0 0 0 1 0 0 0 0 1</float_array>
          <technique_common>
            <accessor source="#Armature_nodes_4_-skin-bind_poses-array" count="3" stride="16">
              <param name="TRANSFORM" type="float4x4"/>
            </accessor>
          </technique_common>
        </source>
        <source id="Armature_nodes_4_-skin-weights">
          <float_array id="Armature_nodes_4_-skin-weights-array" count="26">1 1 1 1 1 1 1 1 1 1 1 1 1 1 1 1 1 1 1 1 1 1 1 1 1 1</float_array>
          <technique_common>
            <accessor source="#Armature_nodes_4_-skin-weights-array" count="26" stride="1">
              <param name="WEIGHT" type="float"/>
            </accessor>
          </technique_common>
        </source>
        <joints>
          <input semantic="JOINT" source="#Armature_nodes_4_-skin-joints"/>
          <input semantic="INV_BIND_MATRIX" source="#Armature_nodes_4_-skin-bind_poses"/>
        </joints>
        <vertex_weights count="26">
          <input semantic="JOINT" source="#Armature_nodes_4_-skin-joints" offset="0"/>
          <input semantic="WEIGHT" source="#Armature_nodes_4_-skin-weights" offset="1"/>
          <vcount>1 1 1 1 1 1 1 1 1 1 1 1 1 1 1 1 1 1 1 1 1 1 1 1 1 1 </vcount>
          <v>1 0 1 1 1 2 1 3 1 4 1 5 1 6 1 7 1 8 1 9 1 10 1 11 1 12 1 13 1 14 1 15 1 16 1 17 1 18 1 19 1 20 1 21 1 22 1 23 1 24 1 25</v>
        </vertex_weights>
      </skin>
    </controller>
    <controller id="Armature_nodes_5_-skin" name="Armature">
      <skin source="#meshes_1_-mesh">
        <bind_shape_matrix>1 0 0 0 0 1 0 0 0 0 1 0 0 0 0 1</bind_shape_matrix>
        <source id="Armature_nodes_5_-skin-joints">
          <Name_array id="Armature_nodes_5_-skin-joints-array" count="3">nodes_1_ nodes_2_ nodes_3_</Name_array>
          <technique_common>
            <accessor source="#Armature_nodes_5_-skin-joints-array" count="3" stride="1">
              <param name="JOINT" type="name"/>
            </accessor>
          </technique_common>
        </source>
        <source id="Armature_nodes_5_-skin-bind_poses">
          <float_array id="Armature_nodes_5_-skin-bind_poses-array" count="48">1 0 0 0 0 1 0 0 0 0 1 0 0 0 0 1 1 0 0 0 0 1 0 0 0 0 1 0 0 0 0 1 1 0 0 0 0 1 0 0 0 0 1 0 0 0 0 1</float_array>
          <technique_common>
            <accessor source="#Armature_nodes_5_-skin-bind_poses-array" count="3" stride="16">
              <param name="TRANSFORM" type="float4x4"/>
            </accessor>
          </technique_common>
        </source>
        <source id="Armature_nodes_5_-skin-weights">
          <float_array id="Armature_nodes_5_-skin-weights-array" count="56">1 1 1 1 1 1 1 1 1 1 1 1 1 1 1 1 1 1 1 1 1 1 1 1 1 1 1 1 1 1 1 1 1 1 1 1 1 1 1 1 1 1 1 1 1 1 1 1 1 1 1 1 1 1 1 1</float_array>
          <technique_common>
            <accessor source="#Armature_nodes_5_-skin-weights-array" count="56" stride="1">
              <param name="WEIGHT" type="float"/>
            </accessor>
          </technique_common>
        </source>
        <joints>
          <input semantic="JOINT" source="#Armature_nodes_5_-skin-joints"/>
          <input semantic="INV_BIND_MATRIX" source="#Armature_nodes_5_-skin-bind_poses"/>
        </joints>
        <vertex_weights count="56">
          <input semantic="JOINT" source="#Armature_nodes_5_-skin-joints" offset="0"/>
          <input semantic="WEIGHT" source="#Armature_nodes_5_-skin-weights" offset="1"/>
          <vcount>1 1 1 1 1 1 1 1 1 1 1 1 1 1 1 1 1 1 1 1 1 1 1 1 1 1 1 1 1 1 1 1 1 1 1 1 1 1 1 1 1 1 1 1 1 1 1 1 1 1 1 1 1 1 1 1 </vcount>
          <v>2 0 2 1 2 2 2 3 2 4 2 5 2 6 2 7 2 8 2 9 2 10 2 11 2 12 2 13 2 14 2 15 2 16 2 17 2 18 2 19 2 20 2 21 2 22 2 23 2 24 2 25 2 26 2 27 2 28 2 29 2 30 2 31 2 32 2 33 2 34 2 35 2 36 2 37 2 38 2 39 2 40 2 41 2 42 2 43 2 44 2 45 2 46 2 47 2 48 2 49 2 50 2 51 2 52 2 53 2 54 2 55</v>
        </vertex_weights>
      </skin>
    </controller>
  </library_controllers>
  <library_visual_scenes>
    <visual_scene id="Scene" name="Scene">
      <node id="Armature" name="Armature" type="NODE">
        <matrix sid="transform">1 0 0 0 0 1 0 0 0 0 1 0 0 0 0 1</matrix>
        <node id="Armature_nodes_1_" name="nodes[1]" sid="nodes_1_" type="JOINT">
          <matrix sid="transform">1 0 0 0 0 1 0 0 0 0 1 0 0 0 0 1</matrix>
          <node id="Armature_nodes_2_" name="nodes[2]" sid="nodes_2_" type="JOINT">
            <matrix sid="transform">1 0 0 0 0 1 0 0 0 0 1 0 0 0 0 1</matrix>
            <extra>
              <technique profile="blender">
                <layer sid="layer" type="string">0</layer>
                <tip_x sid="tip_x" type="float">0</tip_x>
                <tip_y sid="tip_y" type="float">1</tip_y>
                <tip_z sid="tip_z" type="float">0</tip_z>
              </technique>
            </extra>
          </node>
          <node id="Armature_nodes_3_" name="nodes[3]" sid="nodes_3_" type="JOINT">
            <matrix sid="transform">1 0 0 0 0 1 0 0 0 0 1 0 0 0 0 1</matrix>
            <extra>
              <technique profile="blender">
                <layer sid="layer" type="string">0</layer>
                <tip_x sid="tip_x" type="float">0</tip_x>
                <tip_y sid="tip_y" type="float">1</tip_y>
                <tip_z sid="tip_z" type="float">0</tip_z>
              </technique>
            </extra>
          </node>
          <extra>
            <technique profile="blender">
              <layer sid="layer" type="string">0</layer>
              <tip_x sid="tip_x" type="float">0</tip_x>
              <tip_y sid="tip_y" type="float">1</tip_y>
              <tip_z sid="tip_z" type="float">0</tip_z>
            </technique>
          </extra>
        </node>
      </node>
      <node id="nodes_4_" name="nodes_4_" type="NODE">
        <translate sid="location">0 0 0</translate>
        <rotate sid="rotationZ">0 0 1 0</rotate>
        <rotate sid="rotationY">0 1 0 0</rotate>
        <rotate sid="rotationX">1 0 0 0</rotate>
        <scale sid="scale">1 1 1</scale>
        <instance_controller url="#Armature_nodes_4_-skin">
          <skeleton>#Armature_nodes_1_</skeleton>
          <bind_material>
            <technique_common>
              <instance_material symbol="balinade_01_png-material" target="#balinade_01_png-material">
                <bind_vertex_input semantic="meshes_0_-mesh-map-0" input_semantic="TEXCOORD" input_set="0"/>
              </instance_material>
            </technique_common>
          </bind_material>
        </instance_controller>
      </node>
      <node id="nodes_5_" name="nodes_5_" type="NODE">
        <translate sid="location">0 0 0</translate>
        <rotate sid="rotationZ">0 0 1 0</rotate>
        <rotate sid="rotationY">0 1 0 0</rotate>
        <rotate sid="rotationX">1 0 0 0</rotate>
        <scale sid="scale">1 1 1</scale>
        <instance_controller url="#Armature_nodes_5_-skin">
          <skeleton>#Armature_nodes_1_</skeleton>
          <bind_material>
            <technique_common>
              <instance_material symbol="balinade_01_png-material" target="#balinade_01_png-material">
                <bind_vertex_input semantic="meshes_1_-mesh-map-0" input_semantic="TEXCOORD" input_set="0"/>
              </instance_material>
            </technique_common>
          </bind_material>
        </instance_controller>
      </node>
    </visual_scene>
  </library_visual_scenes>
  <scene>
    <instance_visual_scene url="#Scene"/>
  </scene>
</COLLADA>