<?xml version="1.0" encoding="utf-8"?>
<COLLADA xmlns="http://www.collada.org/2005/11/COLLADASchema" version="1.4.1" xmlns:xsi="http://www.w3.org/2001/XMLSchema-instance">
  <asset>
    <contributor>
      <author>Blender User</author>
      <authoring_tool>Blender 2.79.0 commit date:2018-03-22, commit time:14:10, hash:f4dc9f9d68b</authoring_tool>
    </contributor>
    <created>2023-10-30T17:57:06</created>
    <modified>2023-10-30T17:57:06</modified>
    <unit name="meter" meter="1"/>
    <up_axis>Z_UP</up_axis>
  </asset>
  <library_images>
    <image id="balinade_03r_png" name="balinade_03r_png">
      <init_from>balinade_03r.png</init_from>
    </image>
  </library_images>
  <library_effects>
    <effect id="balinade_03r_png-effect">
      <profile_COMMON>
        <newparam sid="balinade_03r_png-surface">
          <surface type="2D">
            <init_from>balinade_03r_png</init_from>
          </surface>
        </newparam>
        <newparam sid="balinade_03r_png-sampler">
          <sampler2D>
            <source>balinade_03r_png-surface</source>
          </sampler2D>
        </newparam>
        <technique sid="common">
          <phong>
            <diffuse>
              <texture texture="balinade_03r_png-sampler" texcoord="balinade_03r_png"/>
            </diffuse>
            <specular>
              <color sid="specular">0 0 0 1</color>
            </specular>
          </phong>
        </technique>
      </profile_COMMON>
    </effect>
  </library_effects>
  <library_materials>
    <material id="balinade_03r_png-material" name="balinade_03r_png">
      <instance_effect url="#balinade_03r_png-effect"/>
    </material>
  </library_materials>
  <library_geometries>
    <geometry id="meshes_0_-mesh" name="meshes[0]">
      <mesh>
        <source id="meshes_0_-mesh-positions">
          <float_array id="meshes_0_-mesh-positions-array" count="252">59.6536 0 1241.152 0 -74.86721 1470.98 0 -61.5488 1241.152 73.4972 0 1470.98 0 74.86721 1470.98 0 61.5488 1241.152 67.61321 0 1014.4 0 -68.3188 1014.4 101.4308 0 801.3881 0 -107.1028 801.3881 122.3156 0 539.4 0 -126.204 539.4 156.1116 -90.1312 351.4356 0 -180.262 351.4352 0 -151.478 184.6656 131.1836 -75.7392 184.6656 0 0 73.9356 131.1836 75.7392 184.6656 0 151.478 184.6656 156.1116 90.1312 351.4356 0 126.204 539.4 0 180.262 351.4352 -59.6536 0 1241.152 0 -61.5488 1241.152 0 -74.86721 1470.98 -73.4972 0 1470.98 0 74.86721 1470.98 0 61.5488 1241.152 -67.61321 0 1014.4 0 -68.3188 1014.4 -101.4308 0 801.3881 0 -107.1028 801.3881 -122.3156 0 539.4 0 -126.204 539.4 -156.1116 -90.1312 351.4352 0 -180.262 351.4352 0 -151.478 184.6656 -131.1836 -75.7392 184.6656 -131.1836 75.7392 184.6656 0 151.478 184.6656 -156.1116 90.1312 351.4356 0 126.204 539.4 0 180.262 351.4352 73.4972 0 1470.98 0 -108.2172 1750.324 0 -74.86721 1470.98 102.4704 0 1750.324 73.4972 0 1470.98 0 74.86721 1470.98 0 108.2172 1750.324 102.4704 0 1750.324 -73.4972 0 1470.98 0 -74.86721 1470.98 0 -108.2172 1750.324 -102.4704 0 1750.324 -73.4972 0 1470.98 0 108.2172 1750.324 0 74.86721 1470.98 -102.4704 0 1750.324 0 68.3188 1014.4 0 107.1028 801.3881 0 68.3188 1014.4 0 107.1028 801.3881 0 0 1241.152 0 -74.86721 1470.98 73.4972 0 1470.98 0 74.86721 1470.98 -73.4972 0 1470.98 73.4972 0 1470.98 0 -74.86721 1470.98 0 -108.2172 1750.324 102.4704 0 1750.324 73.4972 0 1470.98 0 108.2172 1750.324 0 74.86721 1470.98 102.4704 0 1750.324 -73.4972 0 1470.98 0 -108.2172 1750.324 0 -74.86721 1470.98 -102.4704 0 1750.324 -73.4972 0 1470.98 0 74.86721 1470.98 0 108.2172 1750.324 -102.4704 0 1750.324</float_array>
          <technique_common>
            <accessor source="#meshes_0_-mesh-positions-array" count="84" stride="3">
              <param name="X" type="float"/>
              <param name="Y" type="float"/>
              <param name="Z" type="float"/>
            </accessor>
          </technique_common>
        </source>
        <source id="meshes_0_-mesh-normals">
          <float_array id="meshes_0_-mesh-normals-array" count="252">0.9999366 0 -0.01126164 0.7140012 -0.6988636 -0.04233038 0.7171424 -0.6968776 -0.00827068 0.998191 0 -0.06012278 0.7140012 0.6988636 -0.04233038 0.7171424 0.6968776 -0.00827068 0.9953093 0 0.09674453 0.7119839 -0.6985859 0.07110989 0.9926851 0 0.1207324 0.7217152 -0.6866182 0.08765077 0.9567784 0 0.2908179 0.6542403 -0.7259604 0.2120169 0.8590959 -0.5081511 0.0611307 0.4995046 -0.8651834 0.04419147 0.4519543 -0.7828097 -0.4277223 0.7599707 -0.4387816 -0.4794948 0 0 -1 0.7599707 0.4387816 -0.4794948 0.4519543 0.7828097 -0.4277223 0.8590959 0.5081511 0.0611307 0.6542403 0.7259604 0.2120169 0.4995046 0.8651834 0.04419147 -0.9999366 0 -0.01126164 -0.7171424 -0.6968776 -0.00827068 -0.7140012 -0.6988636 -0.04233038 -0.998191 0 -0.06012278 -0.7140012 0.6988636 -0.04233038 -0.7171424 0.6968776 -0.00827068 -0.9953093 0 0.09674453 -0.7119839 -0.6985859 0.07110989 -0.9926851 0 0.1207324 -0.7217152 -0.6866182 0.08765077 -0.9567784 0 0.2908179 -0.6542403 -0.7259604 0.2120169 -0.8590959 -0.5081511 0.0611307 -0.4995046 -0.8651834 0.04419147 -0.4519543 -0.7828097 -0.4277223 -0.7599707 -0.4387816 -0.4794948 -0.7599707 0.4387816 -0.4794948 -0.4519543 0.7828097 -0.4277223 -0.8590959 0.5081511 0.0611307 -0.6542403 0.7259604 0.2120169 -0.4995046 0.8651834 0.04419147 0.7151242 -0.6943101 -0.08081465 0.7210867 -0.6885528 -0.07700091 0.711134 -0.6981022 -0.08331811 0.7240763 -0.6856216 -0.07507807 0.7151242 0.6943101 -0.08081465 0.711134 0.6981022 -0.08331811 0.7210867 0.6885528 -0.07700091 0.7240763 0.6856216 -0.07507807 -0.7151242 -0.6943101 -0.08081465 -0.711134 -0.6981022 -0.08331811 -0.7210867 -0.6885528 -0.07700091 -0.7240763 -0.6856216 -0.07507807 -0.7151242 0.6943101 -0.08081465 -0.7210867 0.6885528 -0.07700091 -0.711134 0.6981022 -0.08331811 -0.7240763 0.6856216 -0.07507807 0.7119839 0.6985859 0.07110989 0.7217152 0.6866182 0.08765077 -0.7119839 0.6985859 0.07110989 -0.7217152 0.6866182 0.08765077 0 0 1 0 0.950822 0.3097382 -0.9524851 0 0.3045852 0 -0.950822 0.3097382 0.9524851 0 0.3045852 -0.7151242 0.6943101 0.08081465 -0.711134 0.6981022 0.08331811 -0.7210867 0.6885528 0.07700091 -0.7240763 0.6856216 0.07507807 -0.7151242 -0.6943101 0.08081465 -0.7210867 -0.6885528 0.07700091 -0.711134 -0.6981022 0.08331811 -0.7240763 -0.6856216 0.07507807 0.7151242 0.6943101 0.08081465 0.7210867 0.6885528 0.07700091 0.711134 0.6981022 0.08331811 0.7240763 0.6856216 0.07507807 0.7151242 -0.6943101 0.08081465 0.711134 -0.6981022 0.08331811 0.7210867 -0.6885528 0.07700091 0.7240763 -0.6856216 0.07507807</float_array>
          <technique_common>
            <accessor source="#meshes_0_-mesh-normals-array" count="84" stride="3">
              <param name="X" type="float"/>
              <param name="Y" type="float"/>
              <param name="Z" type="float"/>
            </accessor>
          </technique_common>
        </source>
        <source id="meshes_0_-mesh-map-0">
          <float_array id="meshes_0_-mesh-map-0-array" count="480">0.499985 0.007812201 0.265617 0.1874943 0.265617 0.007812201 0.499985 0.007812201 0.499985 0.1874943 0.265617 0.1874943 0.499985 0.007812201 0.7343833 0.1874943 0.499985 0.1874943 0.499985 0.007812201 0.7343833 0.007812201 0.7343833 0.1874943 0.499985 0.1874943 0.7343833 0.007812201 0.499985 0.007812201 0.499985 0.1874943 0.499985 0.007812201 0.265617 0.007812201 0.499985 0.1874943 0.265617 0.007812201 0.265617 0.1874943 0.499985 0.3749888 0.499985 0.1874943 0.265617 0.1874943 0.499985 0.3749888 0.265617 0.1874943 0.265617 0.3749888 0.499985 0.5625134 0.499985 0.3749888 0.265617 0.3749888 0.499985 0.5625134 0.265617 0.3749888 0.2343679 0.5625134 0.3437397 0.7500078 0.499985 0.5625134 0.2343679 0.5625134 0.3437397 0.7500078 0.2343679 0.5625134 0.09374719 0.7500078 0.2031189 0.9062531 0.3437397 0.7500078 0.09374719 0.7500078 0.3749887 0.9062531 0.3437397 0.7500078 0.2031189 0.9062531 0.499985 0.992188 0.3749887 0.9062531 0.2031189 0.9062531 0.499985 0.992188 0.6250116 0.9062531 0.3749887 0.9062531 0.499985 0.992188 0.7968814 0.9062531 0.6250116 0.9062531 0.6250116 0.9062531 0.7968814 0.9062531 0.6562606 0.7500078 0.3437397 0.7500078 0.6250116 0.9062531 0.6562606 0.7500078 0.3437397 0.7500078 0.6562606 0.7500078 0.499985 0.5625134 0.6562606 0.7500078 0.7656323 0.5625134 0.499985 0.5625134 0.6562606 0.7500078 0.9062531 0.7500078 0.7656323 0.5625134 0.6562606 0.7500078 0.7968814 0.9062531 0.9062531 0.7500078 0.499985 0.007812201 0.7343833 0.007812201 0.7343833 0.1874943 0.499985 0.007812201 0.7343833 0.1874943 0.499985 0.1874943 0.499985 0.007812201 0.499985 0.1874943 0.265617 0.1874943 0.499985 0.007812201 0.265617 0.1874943 0.265617 0.007812201 0.499985 0.1874943 0.499985 0.007812201 0.265617 0.007812201 0.499985 0.1874943 0.7343833 0.007812201 0.499985 0.007812201 0.499985 0.1874943 0.7343833 0.1874943 0.7343833 0.007812201 0.499985 0.3749888 0.7343833 0.1874943 0.499985 0.1874943 0.499985 0.3749888 0.7343833 0.3749888 0.7343833 0.1874943 0.499985 0.5625134 0.7343833 0.3749888 0.499985 0.3749888 0.499985 0.5625134 0.7656323 0.5625134 0.7343833 0.3749888 0.6562606 0.7500078 0.7656323 0.5625134 0.499985 0.5625134 0.6562606 0.7500078 0.9062531 0.7500078 0.7656323 0.5625134 0.7968814 0.9062531 0.9062531 0.7500078 0.6562606 0.7500078 0.6250116 0.9062531 0.7968814 0.9062531 0.6562606 0.7500078 0.499985 0.992188 0.7968814 0.9062531 0.6250116 0.9062531 0.499985 0.992188 0.6250116 0.9062531 0.3749887 0.9062531 0.499985 0.992188 0.3749887 0.9062531 0.2031189 0.9062531 0.3749887 0.9062531 0.3437397 0.7500078 0.2031189 0.9062531 0.6562606 0.7500078 0.3437397 0.7500078 0.3749887 0.9062531 0.6562606 0.7500078 0.499985 0.5625134 0.3437397 0.7500078 0.3437397 0.7500078 0.499985 0.5625134 0.2343679 0.5625134 0.3437397 0.7500078 0.2343679 0.5625134 0.09374719 0.7500078 0.3437397 0.7500078 0.09374719 0.7500078 0.2031189 0.9062531 0.9843758 0.2499924 0.7656323 0.007812201 0.7656323 0.2499924 0.9843758 0.2499924 0.9843758 0.007812201 0.7656323 0.007812201 0.01562452 0.2499924 0.2343679 0.2499924 0.2343679 0.007812201 0.01562452 0.2499924 0.2343679 0.007812201 0.01562452 0.007812201 0.2343679 0.2499924 0.01562452 0.2499924 0.01562452 0.007812201 0.2343679 0.2499924 0.01562452 0.007812201 0.2343679 0.007812201 0.7656323 0.2499924 0.9843758 0.007812201 0.9843758 0.2499924 0.7656323 0.2499924 0.7656323 0.007812201 0.9843758 0.007812201 0.499985 0.1874943 0.7343833 0.1874943 0.7343833 0.007812201 0.499985 0.3749888 0.7343833 0.1874943 0.499985 0.1874943 0.499985 0.3749888 0.7343833 0.3749888 0.7343833 0.1874943 0.499985 0.5625134 0.7343833 0.3749888 0.499985 0.3749888 0.499985 0.5625134 0.7656323 0.5625134 0.7343833 0.3749888 0.499985 0.1874943 0.265617 0.007812201 0.265617 0.1874943 0.499985 0.3749888 0.499985 0.1874943 0.265617 0.1874943 0.499985 0.3749888 0.265617 0.1874943 0.265617 0.3749888 0.499985 0.5625134 0.499985 0.3749888 0.265617 0.3749888 0.499985 0.5625134 0.265617 0.3749888 0.2343679 0.5625134 0.3749887 0.9062531 0.6250116 0.9062531 0.3437397 0.7500078 0.6250116 0.9062531 0.6562606 0.7500078 0.3749887 0.9062531 0.8750041 0.492203 0.9843758 0.2578048 0.7656323 0.2578048 0.8750041 0.492203 0.7656323 0.2578048 0.9843758 0.2578048 0.7656323 0.2578048 0.8750041 0.492203 0.9843758 0.2578048 0.7656323 0.2578048 0.9843758 0.2578048 0.8750041 0.492203 0.9843758 0.2499924 0.7656323 0.2499924 0.7656323 0.007812201 0.9843758 0.2499924 0.7656323 0.007812201 0.9843758 0.007812201 0.01562452 0.2499924 0.2343679 0.007812201 0.2343679 0.2499924 0.01562452 0.2499924 0.01562452 0.007812201 0.2343679 0.007812201 0.2343679 0.2499924 0.01562452 0.007812201 0.01562452 0.2499924 0.2343679 0.2499924 0.2343679 0.007812201 0.01562452 0.007812201 0.7656323 0.2499924 0.9843758 0.2499924 0.9843758 0.007812201 0.7656323 0.2499924 0.9843758 0.007812201 0.7656323 0.007812201</float_array>
          <technique_common>
            <accessor source="#meshes_0_-mesh-map-0-array" count="240" stride="2">
              <param name="S" type="float"/>
              <param name="T" type="float"/>
            </accessor>
          </technique_common>
        </source>
        <source id="meshes_0_-mesh-colors-COLOR_0" name="COLOR_0">
          <float_array id="meshes_0_-mesh-colors-COLOR_0-array" count="720">1 1 1 1 1 1 1 1 1 1 1 1 1 1 1 1 1 1 1 1 1 1 1 1 1 1 1 1 1 1 1 1 1 1 1 1 1 1 1 1 1 1 1 1 1 1 1 1 1 1 1 1 1 1 1 1 1 1 1 1 1 1 1 1 1 1 1 1 1 1 1 1 1 1 1 1 1 1 1 1 1 1 1 1 1 1 1 1 1 1 1 1 1 1 1 1 1 1 1 1 1 1 1 1 1 1 1 1 1 1 1 1 1 1 1 1 1 1 1 1 1 1 1 1 1 1 1 1 1 1 1 1 1 1 1 1 1 1 1 1 1 1 1 1 1 1 1 1 1 1 1 1 1 1 1 1 1 1 1 1 1 1 1 1 1 1 1 1 1 1 1 1 1 1 1 1 1 1 1 1 1 1 1 1 1 1 1 1 1 1 1 1 1 1 1 1 1 1 1 1 1 1 1 1 1 1 1 1 1 1 1 1 1 1 1 1 1 1 1 1 1 1 1 1 1 1 1 1 1 1 1 1 1 1 1 1 1 1 1 1 1 1 1 1 1 1 1 1 1 1 1 1 1 1 1 1 1 1 1 1 1 1 1 1 1 1 1 1 1 1 1 1 1 1 1 1 1 1 1 1 1 1 1 1 1 1 1 1 1 1 1 1 1 1 1 1 1 1 1 1 1 1 1 1 1 1 1 1 1 1 1 1 1 1 1 1 1 1 1 1 1 1 1 1 1 1 1 1 1 1 1 1 1 1 1 1 1 1 1 1 1 1 1 1 1 1 1 1 1 1 1 1 1 1 1 1 1 1 1 1 1 1 1 1 1 1 1 1 1 1 1 1 1 1 1 1 1 1 1 1 1 1 1 1 1 1 1 1 1 1 1 1 1 1 1 1 1 1 1 1 1 1 1 1 1 1 1 1 1 1 1 1 1 1 1 1 1 1 1 1 1 1 1 1 1 1 1 1 1 1 1 1 1 1 1 1 1 1 1 1 1 1 1 1 1 1 1 1 1 1 1 1 1 1 1 1 1 1 1 1 1 1 1 1 1 1 1 1 1 1 1 1 1 1 1 1 1 1 1 1 1 1 1 1 1 1 1 1 1 1 1 1 1 1 1 1 1 1 1 1 1 1 1 1 1 1 1 1 1 1 1 1 1 1 1 1 1 1 1 1 1 1 1 1 1 1 1 1 1 1 1 1 1 1 1 1 1 1 1 1 1 1 1 1 1 1 1 1 1 1 1 1 1 1 1 1 1 1 1 1 1 1 1 1 1 1 1 1 1 1 1 1 1 1 1 1 1 1 1 1 1 1 1 1 1 1 1 1 1 1 1 1 1 1 1 1 1 1 1 1 1 1 1 1 1 1 1 1 1 1 1 1 1 1 1 1 1 1 1 1 1 1 1 1 1 1 1 1 1 1 1 1 1 1 1 1 1 1 1 1 1 1 1 1 1 1 1 1 1 1 1 1 1 1 1 1 1 1 1 1 1 1 1 1 1 1 1 1 1 1 1 1 1 1 1 1 1 1 1 1 1 1 1 1 1 1 1 1 1 1 1 1 1 1 1 1 1 1 1 1 1 1 1 1 1 1 1 1 1 1 1 1 1 1 1 1 1 1 1 1</float_array>
          <technique_common>
            <accessor source="#meshes_0_-mesh-colors-COLOR_0-array" count="240" stride="3">
              <param name="R" type="float"/>
              <param name="G" type="float"/>
              <param name="B" type="float"/>
            </accessor>
          </technique_common>
        </source>
        <vertices id="meshes_0_-mesh-vertices">
          <input semantic="POSITION" source="#meshes_0_-mesh-positions"/>
        </vertices>
        <triangles material="balinade_03r_png-material" count="80">
          <input semantic="VERTEX" source="#meshes_0_-mesh-vertices" offset="0"/>
          <input semantic="NORMAL" source="#meshes_0_-mesh-normals" offset="1"/>
          <input semantic="TEXCOORD" source="#meshes_0_-mesh-map-0" offset="2" set="0"/>
          <input semantic="COLOR" source="#meshes_0_-mesh-colors-COLOR_0" offset="3" set="0"/>
          <p>0 0 0 0 1 1 1 1 2 2 2 2 0 0 3 3 3 3 4 4 1 1 5 5 0 0 6 6 4 4 7 7 3 3 8 8 0 0 9 9 5 5 10 10 4 4 11 11 6 6 12 12 5 5 13 13 0 0 14 14 6 6 15 15 0 0 16 16 2 2 17 17 6 6 18 18 2 2 19 19 7 7 20 20 8 8 21 21 6 6 22 22 7 7 23 23 8 8 24 24 7 7 25 25 9 9 26 26 10 10 27 27 8 8 28 28 9 9 29 29 10 10 30 30 9 9 31 31 11 11 32 32 12 12 33 33 10 10 34 34 11 11 35 35 12 12 36 36 11 11 37 37 13 13 38 38 14 14 39 39 12 12 40 40 13 13 41 41 15 15 42 42 12 12 43 43 14 14 44 44 16 16 45 45 15 15 46 46 14 14 47 47 16 16 48 48 17 17 49 49 15 15 50 50 16 16 51 51 18 18 52 52 17 17 53 53 17 17 54 54 18 18 55 55 19 19 56 56 12 12 57 57 17 17 58 58 19 19 59 59 12 12 60 60 19 19 61 61 10 10 62 62 19 19 63 63 20 20 64 64 10 10 65 65 19 19 66 66 21 21 67 67 20 20 68 68 19 19 69 69 18 18 70 70 21 21 71 71 22 22 72 72 23 23 73 73 24 24 74 74 22 22 75 75 24 24 76 76 25 25 77 77 22 22 78 78 25 25 79 79 26 26 80 80 22 22 81 81 26 26 82 82 27 27 83 83 28 28 84 84 22 22 85 85 27 27 86 86 28 28 87 87 23 23 88 88 22 22 89 89 28 28 90 90 29 29 91 91 23 23 92 92 30 30 93 93 29 29 94 94 28 28 95 95 30 30 96 96 31 31 97 97 29 29 98 98 32 32 99 99 31 31 100 100 30 30 101 101 32 32 102 102 33 33 103 103 31 31 104 104 34 34 105 105 33 33 106 106 32 32 107 107 34 34 108 108 35 35 109 109 33 33 110 110 36 36 111 111 35 35 112 112 34 34 113 113 37 37 114 114 36 36 115 115 34 34 116 116 16 16 117 117 36 36 118 118 37 37 119 119 16 16 120 120 37 37 121 121 38 38 122 122 16 16 123 123 38 38 124 124 39 39 125 125 38 38 126 126 40 40 127 127 39 39 128 128 34 34 129 129 40 40 130 130 38 38 131 131 34 34 132 132 32 32 133 133 40 40 134 134 40 40 135 135 32 32 136 136 41 41 137 137 40 40 138 138 41 41 139 139 42 42 140 140 40 40 141 141 42 42 142 142 39 39 143 143 43 43 144 144 44 44 145 145 45 45 146 146 43 43 147 147 46 46 148 148 44 44 149 149 47 47 150 150 48 48 151 151 49 49 152 152 47 47 153 153 49 49 154 154 50 50 155 155 51 51 156 156 52 52 157 157 53 53 158 158 51 51 159 159 53 53 160 160 54 54 161 161 55 55 162 162 56 56 163 163 57 57 164 164 55 55 165 165 58 58 166 166 56 56 167 167 6 6 168 168 59 59 169 169 5 5 170 170 8 8 171 171 59 59 172 172 6 6 173 173 8 8 174 174 60 60 175 175 59 59 176 176 10 10 177 177 60 60 178 178 8 8 179 179 10 10 180 180 20 20 181 181 60 60 182 182 28 28 183 183 27 27 184 184 61 61 185 185 30 30 186 186 28 28 187 187 61 61 188 188 30 30 189 189 61 61 190 190 62 62 191 191 32 32 192 192 30 30 193 193 62 62 194 194 32 32 195 195 62 62 196 196 41 41 197 197 15 15 198 198 17 17 199 199 12 12 200 200 37 37 201 201 34 34 202 202 38 38 203 203 63 63 204 204 64 64 205 205 65 65 206 206 63 63 207 207 65 65 208 208 66 66 209 209 67 67 210 210 63 63 211 211 66 66 212 212 67 67 213 213 64 64 214 214 63 63 215 215 68 68 216 216 69 69 217 217 70 70 218 218 68 68 219 219 70 70 220 220 71 71 221 221 72 72 222 222 73 73 223 223 74 74 224 224 72 72 225 225 75 75 226 226 73 73 227 227 76 76 228 228 77 77 229 229 78 78 230 230 76 76 231 231 79 79 232 232 77 77 233 233 80 80 234 234 81 81 235 235 82 82 236 236 80 80 237 237 82 82 238 238 83 83 239 239</p>
        </triangles>
      </mesh>
    </geometry>
  </library_geometries>
  <library_controllers>
    <controller id="Armature_nodes_5_-skin" name="Armature">
      <skin source="#meshes_0_-mesh">
        <bind_shape_matrix>1 0 0 0 0 1 0 0 0 0 1 0 0 0 0 1</bind_shape_matrix>
        <source id="Armature_nodes_5_-skin-joints">
          <Name_array id="Armature_nodes_5_-skin-joints-array" count="4">nodes_1_ nodes_2_ nodes_3_ nodes_4_</Name_array>
          <technique_common>
            <accessor source="#Armature_nodes_5_-skin-joints-array" count="4" stride="1">
              <param name="JOINT" type="name"/>
            </accessor>
          </technique_common>
        </source>
        <source id="Armature_nodes_5_-skin-bind_poses">
          <float_array id="Armature_nodes_5_-skin-bind_poses-array" count="64">1 4.36642e-5 3.54033e-6 -2.69065e-4 -3.54033e-6 0 1 -76 4.36642e-5 -1 0 -2.57078e-6 0 0 0 1 1 4.36641e-5 3.54033e-6 -2.69066e-4 -3.54033e-6 0 1 -540 4.36641e-5 -1 0 -2.57078e-6 0 0 0 1 1 4.36642e-5 3.54033e-6 -2.69066e-4 -3.54033e-6 0 1 -1016 4.36642e-5 -1 0 -2.57078e-6 0 0 0 1 1 4.36642e-5 3.54033e-6 -2.69065e-4 -3.54033e-6 0 1 -1490 4.36642e-5 -1 0 -2.57077e-6 0 0 0 1</float_array>
          <technique_common>
            <accessor source="#Armature_nodes_5_-skin-bind_poses-array" count="4" stride="16">
              <param name="TRANSFORM" type="float4x4"/>
            </accessor>
          </technique_common>
        </source>
        <source id="Armature_nodes_5_-skin-weights">
          <float_array id="Armature_nodes_5_-skin-weights-array" count="135">0.2 0.8 0.5 0.5 0.2 0.8 0.5 0.5 0.5 0.5 0.2 0.8 0.5 0.5 0.5 0.5 0.2 0.8 0.2 0.8 0.5 0.5 0.5 0.5 1 1 1 1 1 1 1 1 0.5 0.5 1 0.2 0.8 0.2 0.8 0.5 0.5 0.5 0.5 0.5 0.5 0.2 0.8 0.5 0.5 0.5 0.5 0.2 0.8 0.2 0.8 0.5 0.5 0.5 0.5 1 1 1 1 1 1 1 0.5 0.5 1 0.5 0.5 1 0.5 0.5 1 0.5 0.5 0.5 0.5 1 1 0.5 0.5 0.5 0.5 1 1 0.5 0.5 1 0.5 0.5 1 0.5 0.5 0.2 0.8 0.5 0.5 0.2 0.8 0.2 0.8 0.5 0.5 0.5 0.5 0.5 0.5 0.5 0.5 0.5 0.5 0.5 0.5 1 1 0.5 0.5 1 0.5 0.5 1 0.5 0.5 1 0.5 0.5 1 0.5 0.5 0.5 0.5 1 1</float_array>
          <technique_common>
            <accessor source="#Armature_nodes_5_-skin-weights-array" count="135" stride="1">
              <param name="WEIGHT" type="float"/>
            </accessor>
          </technique_common>
        </source>
        <joints>
          <input semantic="JOINT" source="#Armature_nodes_5_-skin-joints"/>
          <input semantic="INV_BIND_MATRIX" source="#Armature_nodes_5_-skin-bind_poses"/>
        </joints>
        <vertex_weights count="84">
          <input semantic="JOINT" source="#Armature_nodes_5_-skin-joints" offset="0"/>
          <input semantic="WEIGHT" source="#Armature_nodes_5_-skin-weights" offset="1"/>
          <vcount>2 2 2 2 2 2 2 2 2 2 2 2 1 1 1 1 1 1 1 1 2 1 2 2 2 2 2 2 2 2 2 2 2 2 1 1 1 1 1 1 1 2 1 2 1 2 1 2 2 1 1 2 2 1 1 2 1 2 1 2 2 2 2 2 2 2 2 2 2 2 1 1 2 1 2 1 2 1 2 1 2 2 1 1 </vcount>
          <v>1 0 2 1 2 2 3 3 1 4 2 5 2 6 3 7 2 8 3 9 1 10 2 11 1 12 2 13 1 14 2 15 0 16 1 17 0 18 1 19 0 20 1 21 0 22 1 23 0 24 0 25 0 26 0 27 0 28 0 29 0 30 0 31 0 32 1 33 0 34 1 35 2 36 1 37 2 38 2 39 3 40 2 41 3 42 2 43 3 44 1 45 2 46 1 47 2 48 1 49 2 50 0 51 1 52 0 53 1 54 0 55 1 56 0 57 1 58 0 59 0 60 0 61 0 62 0 63 0 64 0 65 0 66 1 67 0 68 2 69 3 70 3 71 2 72 3 73 3 74 2 75 3 76 2 77 3 78 3 79 3 80 2 81 3 82 2 83 3 84 3 85 3 86 2 87 3 88 3 89 2 90 3 91 3 92 1 93 2 94 0 95 1 96 1 97 2 98 0 99 1 100 1 101 2 102 2 103 3 104 2 105 3 106 2 107 3 108 2 109 3 110 2 111 3 112 2 113 3 114 3 115 3 116 2 117 3 118 3 119 2 120 3 121 3 122 2 123 3 124 3 125 2 126 3 127 3 128 2 129 3 130 2 131 3 132 3 133 3 134</v>
        </vertex_weights>
      </skin>
    </controller>
  </library_controllers>
  <library_visual_scenes>
    <visual_scene id="Scene" name="Scene">
      <node id="Armature" name="Armature" type="NODE">
        <matrix sid="transform">1 0 0 0 0 1 0 0 0 0 1 0 0 0 0 1</matrix>
        <node id="Armature_nodes_1_" name="nodes[1]" sid="nodes_1_" type="JOINT">
          <matrix sid="transform">1 -3.54034e-6 4.36642e-5 0 4.36642e-5 3.36715e-8 -1 0 3.54033e-6 1 1.42052e-10 76 0 0 0 1</matrix>
          <node id="Armature_nodes_2_" name="nodes[2]" sid="nodes_2_" type="JOINT">
            <matrix sid="transform">1 -2.27374e-13 -7.27545e-12 1.16415e-10 2.27374e-13 1 7.64666e-15 463.9999 7.39571e-12 -7.10543e-15 1 -1.13687e-12 0 0 0 1</matrix>
            <node id="Armature_nodes_3_" name="nodes[3]" sid="nodes_3_" type="JOINT">
              <matrix sid="transform">1 2.27374e-13 6.91221e-11 2.91038e-11 -2.27374e-13 0.9999999 -7.67442e-15 475.9999 -6.90018e-11 7.10543e-15 1 1.36424e-12 0 0 0 1</matrix>
              <node id="Armature_nodes_4_" name="nodes[4]" sid="nodes_4_" type="JOINT">
                <matrix sid="transform">1 0 5.02911e-16 8.73115e-11 0 1 0 474 1.19756e-13 3.55271e-15 1 6.82121e-13 0 0 0 1</matrix>
                <extra>
                  <technique profile="blender">
                    <layer sid="layer" type="string">0</layer>
                    <roll sid="roll" type="float">4.01239e-5</roll>
                    <tip_x sid="tip_x" type="float">-0.001678109</tip_x>
                    <tip_y sid="tip_y" type="float">1.59603e-5</tip_y>
                    <tip_z sid="tip_z" type="float">474</tip_z>
                  </technique>
                </extra>
              </node>
              <extra>
                <technique profile="blender">
                  <layer sid="layer" type="string">0</layer>
                  <roll sid="roll" type="float">4.01239e-5</roll>
                  <tip_x sid="tip_x" type="float">-0.001678109</tip_x>
                  <tip_y sid="tip_y" type="float">1.59603e-5</tip_y>
                  <tip_z sid="tip_z" type="float">474</tip_z>
                </technique>
              </extra>
            </node>
            <extra>
              <technique profile="blender">
                <layer sid="layer" type="string">0</layer>
                <roll sid="roll" type="float">4.01238e-5</roll>
                <tip_x sid="tip_x" type="float">-0.001685142</tip_x>
                <tip_y sid="tip_y" type="float">1.60276e-5</tip_y>
                <tip_z sid="tip_z" type="float">476</tip_z>
              </technique>
            </extra>
          </node>
          <extra>
            <technique profile="blender">
              <layer sid="layer" type="string">0</layer>
              <roll sid="roll" type="float">4.01238e-5</roll>
              <tip_x sid="tip_x" type="float">-0.001642704</tip_x>
              <tip_y sid="tip_y" type="float">1.56236e-5</tip_y>
              <tip_z sid="tip_z" type="float">464</tip_z>
            </technique>
          </extra>
        </node>
      </node>
      <node id="nodes_5_" name="nodes_5_" type="NODE">
        <translate sid="location">0 0 0</translate>
        <rotate sid="rotationZ">0 0 1 0</rotate>
        <rotate sid="rotationY">0 1 0 0</rotate>
        <rotate sid="rotationX">1 0 0 0</rotate>
        <scale sid="scale">1 1 1</scale>
        <instance_controller url="#Armature_nodes_5_-skin">
          <skeleton>#Armature_nodes_1_</skeleton>
          <bind_material>
            <technique_common>
              <instance_material symbol="balinade_03r_png-material" target="#balinade_03r_png-material">
                <bind_vertex_input semantic="meshes_0_-mesh-map-0" input_semantic="TEXCOORD" input_set="0"/>
              </instance_material>
            </technique_common>
          </bind_material>
        </instance_controller>
      </node>
    </visual_scene>
  </library_visual_scenes>
  <scene>
    <instance_visual_scene url="#Scene"/>
  </scene>
</COLLADA>