mtllib balinadearm3.mtl
o nodes_5__meshes[0]
v 59.653599 1241.152100 0.000000
v -0.000000 1470.979980 74.867210
v -0.000000 1241.152100 61.548798
v 73.497200 1470.979980 0.000000
v -0.000000 1470.979980 -74.867210
v -0.000000 1241.152100 -61.548798
v 67.613205 1014.400024 0.000000
v -0.000000 1014.400024 68.318802
v 101.430794 801.388062 -0.000000
v -0.000000 801.388062 107.102798
v 122.315598 539.400024 0.000000
v 0.000000 539.400024 126.204002
v 156.111603 351.435577 90.131195
v 0.000000 351.435181 180.262009
v 0.000000 184.665588 151.478012
v 131.183594 184.665588 75.739197
v 0.000000 73.935600 0.000000
v 131.183594 184.665588 -75.739197
v 0.000000 184.665588 -151.478012
v 156.111603 351.435577 -90.131195
v 0.000000 539.400024 -126.204002
v 0.000000 351.435181 -180.262009
v -59.653599 1241.152100 0.000000
v -0.000000 1241.152100 61.548798
v -0.000000 1470.979980 74.867210
v -73.497200 1470.979980 0.000000
v -0.000000 1470.979980 -74.867210
v -0.000000 1241.152100 -61.548798
v -67.613205 1014.400024 0.000000
v -0.000000 1014.400024 68.318802
v -101.430794 801.388062 -0.000000
v -0.000000 801.388062 107.102798
v -122.315598 539.400024 0.000000
v 0.000000 539.400024 126.204002
v -156.111603 351.435181 90.131195
v 0.000000 351.435181 180.262009
v 0.000000 184.665588 151.478012
v -131.183594 184.665588 75.739197
v -131.183594 184.665588 -75.739197
v 0.000000 184.665588 -151.478012
v -156.111603 351.435577 -90.131195
v 0.000000 539.400024 -126.204002
v 0.000000 351.435181 -180.262009
v 73.497200 1470.979980 0.000000
v -0.000000 1750.324097 108.217194
v -0.000000 1470.979980 74.867210
v 102.470398 1750.324097 0.000000
v 73.497200 1470.979980 0.000000
v -0.000000 1470.979980 -74.867210
v -0.000000 1750.324097 -108.217194
v 102.470398 1750.324097 0.000000
v -73.497200 1470.979980 0.000000
v -0.000000 1470.979980 74.867210
v -0.000000 1750.324097 108.217194
v -102.470398 1750.324097 0.000000
v -73.497200 1470.979980 0.000000
v -0.000000 1750.324097 -108.217194
v -0.000000 1470.979980 -74.867210
v -102.470398 1750.324097 0.000000
v -0.000000 1014.400024 -68.318802
v -0.000000 801.388062 -107.102798
v -0.000000 1014.400024 -68.318802
v -0.000000 801.388062 -107.102798
v -0.000000 1241.152100 0.000000
v -0.000000 1470.979980 74.867210
v 73.497200 1470.979980 0.000000
v -0.000000 1470.979980 -74.867210
v -73.497200 1470.979980 0.000000
v 73.497200 1470.979980 0.000000
v -0.000000 1470.979980 74.867210
v -0.000000 1750.324097 108.217194
v 102.470398 1750.324097 0.000000
v 73.497200 1470.979980 0.000000
v -0.000000 1750.324097 -108.217194
v -0.000000 1470.979980 -74.867210
v 102.470398 1750.324097 0.000000
v -73.497200 1470.979980 0.000000
v -0.000000 1750.324097 108.217194
v -0.000000 1470.979980 74.867210
v -102.470398 1750.324097 0.000000
v -73.497200 1470.979980 0.000000
v -0.000000 1470.979980 -74.867210
v -0.000000 1750.324097 -108.217194
v -102.470398 1750.324097 0.000000
vt 0.499985 0.007812
vt 0.265617 0.187494
vt 0.265617 0.007812
vt 0.499985 0.187494
vt 0.734383 0.187494
vt 0.734383 0.007812
vt 0.499985 0.187494
vt 0.265617 0.187494
vt 0.499985 0.374989
vt 0.265617 0.374989
vt 0.499985 0.562513
vt 0.234368 0.562513
vt 0.343740 0.750008
vt 0.093747 0.750008
vt 0.203119 0.906253
vt 0.374989 0.906253
vt 0.499985 0.992188
vt 0.625012 0.906253
vt 0.796881 0.906253
vt 0.656261 0.750008
vt 0.765632 0.562513
vt 0.906253 0.750008
vt 0.499985 0.007812
vt 0.734383 0.007812
vt 0.734383 0.187494
vt 0.499985 0.187494
vt 0.265617 0.187494
vt 0.265617 0.007812
vt 0.499985 0.187494
vt 0.734383 0.187494
vt 0.499985 0.374989
vt 0.734383 0.374989
vt 0.499985 0.562513
vt 0.765632 0.562513
vt 0.656261 0.750008
vt 0.906253 0.750008
vt 0.796881 0.906253
vt 0.625012 0.906253
vt 0.374989 0.906253
vt 0.203119 0.906253
vt 0.343740 0.750008
vt 0.234368 0.562513
vt 0.093747 0.750008
vt 0.984376 0.249992
vt 0.765632 0.007812
vt 0.765632 0.249992
vt 0.984376 0.007812
vt 0.015625 0.249992
vt 0.234368 0.249992
vt 0.234368 0.007812
vt 0.015625 0.007812
vt 0.234368 0.249992
vt 0.015625 0.249992
vt 0.015625 0.007812
vt 0.234368 0.007812
vt 0.765632 0.249992
vt 0.984376 0.007812
vt 0.984376 0.249992
vt 0.765632 0.007812
vt 0.734383 0.187494
vt 0.734383 0.374989
vt 0.265617 0.187494
vt 0.265617 0.374989
vt 0.875004 0.492203
vt 0.984376 0.257805
vt 0.765632 0.257805
vt 0.984376 0.257805
vt 0.765632 0.257805
vt 0.984376 0.249992
vt 0.765632 0.249992
vt 0.765632 0.007812
vt 0.984376 0.007812
vt 0.015625 0.249992
vt 0.234368 0.007812
vt 0.234368 0.249992
vt 0.015625 0.007812
vt 0.234368 0.249992
vt 0.015625 0.007812
vt 0.015625 0.249992
vt 0.234368 0.007812
vt 0.765632 0.249992
vt 0.984376 0.249992
vt 0.984376 0.007812
vt 0.765632 0.007812
vn 0.9999 -0.0113 0.0000
vn 0.7140 -0.0423 0.6988
vn 0.7171 -0.0083 0.6969
vn 0.9982 -0.0601 0.0000
vn 0.7140 -0.0423 -0.6988
vn 0.7171 -0.0083 -0.6969
vn 0.9953 0.0967 0.0000
vn 0.7120 0.0711 0.6986
vn 0.9927 0.1207 0.0000
vn 0.7217 0.0876 0.6866
vn 0.9568 0.2908 0.0000
vn 0.6542 0.2120 0.7259
vn 0.8591 0.0611 0.5081
vn 0.4995 0.0442 0.8652
vn 0.4519 -0.4277 0.7828
vn 0.7599 -0.4795 0.4388
vn 0.0000 -1.0000 0.0000
vn 0.7599 -0.4795 -0.4388
vn 0.4519 -0.4277 -0.7828
vn 0.8591 0.0611 -0.5081
vn 0.6542 0.2120 -0.7259
vn 0.4995 0.0442 -0.8652
vn -0.9999 -0.0113 0.0000
vn -0.7171 -0.0083 0.6969
vn -0.7140 -0.0423 0.6988
vn -0.9982 -0.0601 0.0000
vn -0.7140 -0.0423 -0.6988
vn -0.7171 -0.0083 -0.6969
vn -0.9953 0.0967 0.0000
vn -0.7120 0.0711 0.6986
vn -0.9927 0.1207 0.0000
vn -0.7217 0.0876 0.6866
vn -0.9568 0.2908 0.0000
vn -0.6542 0.2120 0.7259
vn -0.8591 0.0611 0.5081
vn -0.4995 0.0442 0.8652
vn -0.4519 -0.4277 0.7828
vn -0.7599 -0.4795 0.4388
vn -0.7599 -0.4795 -0.4388
vn -0.4519 -0.4277 -0.7828
vn -0.8591 0.0611 -0.5081
vn -0.6542 0.2120 -0.7259
vn -0.4995 0.0442 -0.8652
vn 0.7151 -0.0808 0.6943
vn 0.7211 -0.0770 0.6885
vn 0.7111 -0.0833 0.6981
vn 0.7241 -0.0751 0.6856
vn 0.7151 -0.0808 -0.6943
vn 0.7111 -0.0833 -0.6981
vn 0.7211 -0.0770 -0.6885
vn 0.7241 -0.0751 -0.6856
vn -0.7151 -0.0808 0.6943
vn -0.7111 -0.0833 0.6981
vn -0.7211 -0.0770 0.6885
vn -0.7241 -0.0751 0.6856
vn -0.7151 -0.0808 -0.6943
vn -0.7211 -0.0770 -0.6885
vn -0.7111 -0.0833 -0.6981
vn -0.7241 -0.0751 -0.6856
vn 0.7120 0.0711 -0.6986
vn 0.7217 0.0876 -0.6866
vn -0.7120 0.0711 -0.6986
vn -0.7217 0.0876 -0.6866
vn 0.0000 1.0000 0.0000
vn 0.0000 0.3097 -0.9508
vn -0.9525 0.3046 0.0000
vn 0.0000 0.3097 0.9508
vn 0.9525 0.3046 0.0000
vn -0.7151 0.0808 -0.6943
vn -0.7111 0.0833 -0.6981
vn -0.7211 0.0770 -0.6885
vn -0.7241 0.0751 -0.6856
vn -0.7151 0.0808 0.6943
vn -0.7211 0.0770 0.6885
vn -0.7111 0.0833 0.6981
vn -0.7241 0.0751 0.6856
vn 0.7151 0.0808 -0.6943
vn 0.7211 0.0770 -0.6885
vn 0.7111 0.0833 -0.6981
vn 0.7241 0.0751 -0.6856
vn 0.7151 0.0808 0.6943
vn 0.7111 0.0833 0.6981
vn 0.7211 0.0770 0.6885
vn 0.7241 0.0751 0.6856
usemtl material0
s 1
f 1/1/1 2/2/2 3/3/3
f 1/1/1 4/4/4 2/2/2
f 1/1/1 5/5/5 4/4/4
f 1/1/1 6/6/6 5/5/5
f 7/7/7 6/6/6 1/1/1
f 7/7/7 1/1/1 3/3/3
f 7/7/7 3/3/3 8/8/8
f 9/9/9 7/7/7 8/8/8
f 9/9/9 8/8/8 10/10/10
f 11/11/11 9/9/9 10/10/10
f 11/11/11 10/10/10 12/12/12
f 13/13/13 11/11/11 12/12/12
f 13/13/13 12/12/12 14/14/14
f 15/15/15 13/13/13 14/14/14
f 16/16/16 13/13/13 15/15/15
f 17/17/17 16/16/16 15/15/15
f 17/17/17 18/18/18 16/16/16
f 17/17/17 19/19/19 18/18/18
f 18/18/18 19/19/19 20/20/20
f 13/13/13 18/18/18 20/20/20
f 13/13/13 20/20/20 11/11/11
f 20/20/20 21/21/21 11/11/11
f 20/20/20 22/22/22 21/21/21
f 20/20/20 19/19/19 22/22/22
f 23/23/23 24/24/24 25/25/25
f 23/23/23 25/25/25 26/26/26
f 23/23/23 26/26/26 27/27/27
f 23/23/23 27/27/27 28/28/28
f 29/29/29 23/23/23 28/28/28
f 29/29/29 24/24/24 23/23/23
f 29/29/29 30/30/30 24/24/24
f 31/31/31 30/30/30 29/29/29
f 31/31/31 32/32/32 30/30/30
f 33/33/33 32/32/32 31/31/31
f 33/33/33 34/34/34 32/32/32
f 35/35/35 34/34/34 33/33/33
f 35/35/35 36/36/36 34/34/34
f 37/37/37 36/36/36 35/35/35
f 38/38/38 37/37/37 35/35/35
f 17/17/17 37/37/37 38/38/38
f 17/17/17 38/38/38 39/39/39
f 17/17/17 39/39/39 40/40/40
f 39/39/39 41/41/41 40/40/40
f 35/35/35 41/41/41 39/39/39
f 35/35/35 33/33/33 41/41/41
f 41/41/41 33/33/33 42/42/42
f 41/41/41 42/42/42 43/43/43
f 41/41/41 43/43/43 40/40/40
f 44/44/44 45/45/45 46/46/46
f 44/44/44 47/47/47 45/45/45
f 48/48/48 49/49/49 50/50/50
f 48/48/48 50/50/50 51/51/51
f 52/52/52 53/53/53 54/54/54
f 52/52/52 54/54/54 55/55/55
f 56/56/56 57/57/57 58/58/58
f 56/56/56 59/59/59 57/57/57
f 7/7/7 60/60/60 6/6/6
f 9/9/9 60/60/60 7/7/7
f 9/9/9 61/61/61 60/60/60
f 11/11/11 61/61/61 9/9/9
f 11/11/11 21/21/21 61/61/61
f 29/29/29 28/28/28 62/62/62
f 31/31/31 29/29/29 62/62/62
f 31/31/31 62/62/62 63/63/63
f 33/33/33 31/31/31 63/63/63
f 33/33/33 63/63/63 42/42/42
f 16/16/16 18/18/18 13/13/13
f 38/38/38 35/35/35 39/39/39
f 64/64/64 65/65/65 66/66/66
f 64/64/64 66/66/66 67/67/67
f 68/68/68 64/64/64 67/67/67
f 68/68/68 65/65/65 64/64/64
f 69/69/69 70/70/70 71/71/71
f 69/69/69 71/71/71 72/72/72
f 73/73/73 74/74/74 75/75/75
f 73/73/73 76/76/76 74/74/74
f 77/77/77 78/78/78 79/79/79
f 77/77/77 80/80/80 78/78/78
f 81/81/81 82/82/82 83/83/83
f 81/81/81 83/83/83 84/84/84
