mtllib balinadeelec.mtl
o nodes_6__meshes[1]
v -0.005861 1715.892090 0.077329
v -0.004713 1337.314087 47.479240
v 42.105087 1337.314087 0.000205
v -0.004325 1337.314087 -47.479160
v -42.114109 1337.314087 -0.000127
v 149.921295 1510.155029 156.433502
v 219.597290 1510.156128 0.000916
v 42.105087 1337.314087 0.000205
v 149.922394 1510.155029 -156.432495
v 42.105087 1337.314087 0.000205
v -0.004325 1337.314087 -47.479160
v -0.004282 1510.155029 -218.165588
v -149.931595 1510.154053 -156.433395
v -42.114109 1337.314087 -0.000127
v -0.004713 1337.314087 47.479240
v -149.932693 1510.154053 156.432602
v -0.006014 1510.155029 218.165588
v -42.114109 1337.314087 -0.000127
v -219.607498 1510.154053 -0.000831
vt 0.984376 0.468736
vt 0.390613 0.523452
vt 0.390613 0.468736
vt 0.390613 0.414050
vt 0.390613 0.468736
vt 0.906253 0.992188
vt 0.390613 0.992188
vt 0.828130 0.570326
vt 0.906253 0.992188
vt 0.984376 0.570326
vt 0.828130 0.570326
vt 0.390613 0.992188
vt 0.906253 0.992188
vt 0.984376 0.570326
vt 0.828130 0.570326
vt 0.906253 0.992188
vt 0.390613 0.992188
vt 0.828130 0.570326
vt 0.390613 0.992188
vn 0.0000 1.0000 0.0002
vn 0.0000 0.1242 0.9922
vn 0.9939 0.1105 -0.0001
vn 0.0000 0.1246 -0.9922
vn -0.9939 0.1105 -0.0001
vn -0.4942 0.7085 -0.5039
vn -0.6977 0.7164 0.0000
vn -0.4942 0.7085 0.5038
vn -0.5740 0.8188 0.0000
vn 0.0000 0.8057 0.5924
vn 0.0000 0.7027 0.7115
vn 0.4941 0.7085 0.5039
vn 0.5740 0.8188 0.0000
vn 0.0000 0.8057 -0.5924
vn 0.4942 0.7085 -0.5038
vn 0.0000 0.7026 -0.7115
vn 0.6976 0.7164 0.0000
usemtl material0_001
s 1
f 1/1/1 2/2/2 3/3/3
f 3/3/3 4/4/4 1/1/1
f 5/5/5 1/1/1 4/4/4
f 1/1/1 5/5/5 2/2/2
f 6/6/6 7/7/7 8/8/7
f 7/7/7 9/9/8 8/8/7
f 10/10/9 9/9/8 11/11/10
f 9/9/8 12/12/11 11/11/10
f 13/13/12 11/11/10 12/12/11
f 14/14/13 11/11/10 13/13/12
f 15/15/14 14/14/13 16/16/15
f 17/17/16 15/15/14 16/16/15
f 17/17/16 6/6/6 15/15/14
f 15/15/14 6/6/6 10/10/9
f 16/16/15 18/18/17 19/19/17
f 19/19/17 18/18/17 13/13/12
o nodes_5__meshes[0]
v 71.197601 683.059998 0.000000
v 40.896797 842.796021 -0.000000
v 0.000000 683.059998 73.770798
v 0.000000 683.059998 -73.770798
v -0.000000 842.796021 -46.256001
v 58.832798 1033.836060 -0.000000
v -0.000000 842.796021 46.256001
v -40.896797 842.796021 -0.000000
v -71.197601 683.059998 0.000000
v -58.832798 1033.836060 -0.000000
v -0.000000 1033.836060 66.272011
v -64.065598 1141.244019 -0.000000
v -0.000000 1033.836060 -66.272011
v -0.000000 1141.244019 -72.186798
v -58.647198 1245.244019 -0.000000
v -0.000000 1141.244019 72.186798
v 0.000000 1245.244019 66.098396
v -42.109600 1337.312012 -0.000000
v 0.000000 1337.312012 47.479198
v 42.109600 1337.312012 -0.000000
v 58.647198 1245.244019 -0.000000
v 64.065598 1141.244019 -0.000000
v 0.000000 1245.244019 -66.098396
v 0.000000 1337.312012 -47.479198
v 109.296005 541.464050 0.000000
v 71.197601 683.059998 0.000000
v 0.000000 541.464050 126.280396
v 156.111603 353.500000 90.207596
v 0.000000 353.500000 180.338791
v 0.000000 186.729996 151.554398
v 131.184006 186.729996 75.815598
v 0.000000 76.000000 0.000000
v 131.184006 186.729996 -75.815598
v 156.111603 353.500000 -90.207596
v 0.000000 541.464050 -126.280396
v 0.000000 683.059998 -73.770798
v -71.197601 683.059998 0.000000
v -109.296005 541.464050 0.000000
v -156.111603 353.500000 90.207596
v -131.184006 186.729996 75.815598
v -131.184006 186.729996 -75.815598
v -156.111603 353.500000 -90.207596
v 0.000000 683.059998 73.770798
v 156.111603 353.500000 -90.207596
v 0.000000 353.500000 -180.338791
v 0.000000 541.464050 -126.280396
v 0.000000 186.729996 -151.554398
v 131.184006 186.729996 -75.815598
v -131.184006 186.729996 -75.815598
v -156.111603 353.500000 -90.207596
v 219.602402 1510.156128 -0.000000
v 149.926804 1510.156128 156.433197
v 42.109600 1337.312012 -0.000000
v 149.926804 1510.156128 -156.433197
v 42.109600 1337.312012 -0.000000
v 0.000000 1337.312012 -47.479198
v 0.000000 1510.156128 -218.165588
v -149.926804 1510.156128 -156.433197
v -42.109600 1337.312012 -0.000000
v 0.000000 1337.312012 47.479198
v -149.926804 1510.156128 156.433197
v 0.000000 1510.156128 218.165588
v -219.602402 1510.156128 -0.000000
v -42.109600 1337.312012 -0.000000
vt 0.187494 0.351552
vt 0.187494 0.515640
vt 0.359364 0.351552
vt 0.015625 0.351552
vt 0.015625 0.515640
vt 0.187494 0.718759
vt 0.359364 0.515640
vt 0.187494 0.515640
vt 0.187494 0.351552
vt 0.187494 0.718759
vt 0.359364 0.718759
vt 0.187494 0.812506
vt 0.015625 0.718759
vt 0.015625 0.812506
vt 0.187494 0.906253
vt 0.359364 0.812506
vt 0.359364 0.906253
vt 0.187494 0.992188
vt 0.359364 0.992188
vt 0.187494 0.992188
vt 0.187494 0.906253
vt 0.187494 0.812506
vt 0.015625 0.906253
vt 0.015625 0.992188
vt 0.750008 0.249992
vt 0.984376 0.249992
vt 0.750008 0.093747
vt 0.437487 0.179682
vt 0.437487 0.007812
vt 0.124996 0.007812
vt 0.124996 0.179682
vt 0.015625 0.249992
vt 0.124996 0.320303
vt 0.437487 0.320303
vt 0.750008 0.406238
vt 0.984376 0.335927
vt 0.984376 0.249992
vt 0.750008 0.249992
vt 0.437487 0.179682
vt 0.124996 0.179682
vt 0.124996 0.320303
vt 0.437487 0.320303
vt 0.984376 0.164058
vt 0.437487 0.179682
vt 0.437487 0.007812
vt 0.750008 0.093747
vt 0.124996 0.007812
vt 0.124996 0.179682
vt 0.124996 0.179682
vt 0.437487 0.179682
vt 0.390613 0.992188
vt 0.906253 0.992188
vt 0.828130 0.570326
vt 0.906253 0.992188
vt 0.984376 0.570326
vt 0.828130 0.570326
vt 0.390613 0.992188
vt 0.906253 0.992188
vt 0.984376 0.570326
vt 0.828130 0.570326
vt 0.906253 0.992188
vt 0.390613 0.992188
vt 0.390613 0.992188
vt 0.828130 0.570326
vn 0.9825 0.1863 0.0000
vn 0.9993 0.0368 0.0000
vn 0.0000 0.1875 0.9822
vn 0.0000 0.1875 -0.9822
vn 0.0000 0.0349 -0.9994
vn 0.9975 -0.0701 0.0000
vn 0.0000 0.0349 0.9994
vn -0.9993 0.0368 0.0000
vn -0.9825 0.1863 0.0000
vn -0.9975 -0.0701 0.0000
vn 0.0000 -0.0786 0.9969
vn -1.0000 0.0016 0.0000
vn 0.0000 -0.0786 -0.9969
vn 0.0000 0.0017 -1.0000
vn -0.9937 0.1117 0.0000
vn 0.0000 0.0017 1.0000
vn 0.0000 0.1246 0.9922
vn -0.9843 0.1766 0.0000
vn 0.0000 0.1982 0.9801
vn 0.9843 0.1766 0.0000
vn 0.9937 0.1117 0.0000
vn 1.0000 0.0016 0.0000
vn 0.0000 0.1246 -0.9922
vn 0.0000 0.1982 -0.9801
vn 0.9218 0.3877 0.0000
vn 0.9555 0.2948 0.0000
vn 0.0000 0.4035 0.9149
vn 0.8625 0.0774 0.5002
vn 0.0000 0.0510 0.9987
vn 0.0000 -0.4796 0.8775
vn 0.7599 -0.4795 0.4388
vn 0.0000 -1.0000 0.0000
vn 0.9039 -0.4277 0.0000
vn 0.9830 0.1225 -0.1367
vn 0.0000 0.4564 -0.8897
vn 0.0000 0.3477 -0.9376
vn -0.9555 0.2948 0.0000
vn -0.9218 0.3877 0.0000
vn -0.8625 0.0774 0.5002
vn -0.7599 -0.4795 0.4388
vn -0.9039 -0.4277 0.0000
vn -0.9830 0.1225 -0.1367
vn 0.0000 0.3477 0.9376
vn 0.5000 -0.0007 -0.8660
vn 0.0000 0.0510 -0.9987
vn 0.0000 0.2764 -0.9610
vn 0.0000 -0.4796 -0.8775
vn 0.4519 -0.4279 -0.7827
vn -0.4519 -0.4279 -0.7827
vn -0.5000 -0.0007 -0.8660
vn 0.6977 -0.7164 0.0000
vn 0.4942 -0.7085 0.5039
vn 0.4942 -0.7085 -0.5039
vn 0.5740 -0.8188 0.0000
vn 0.0000 -0.8057 -0.5924
vn 0.0000 -0.7026 -0.7115
vn -0.4942 -0.7085 -0.5039
vn -0.5740 -0.8188 0.0000
vn 0.0000 -0.8057 0.5924
vn -0.4942 -0.7085 0.5039
vn 0.0000 -0.7026 0.7115
vn -0.6977 -0.7164 0.0000
usemtl material0
s 1
f 20/20/18 21/21/19 22/22/20
f 20/20/18 23/23/21 21/21/19
f 21/21/19 23/23/21 24/24/22
f 21/21/19 24/24/22 25/25/23
f 21/21/19 25/25/23 26/26/24
f 21/21/19 26/26/24 22/22/20
f 27/27/25 22/22/20 26/26/24
f 28/28/26 22/22/20 27/27/25
f 28/28/26 27/27/25 23/23/21
f 27/27/25 24/24/22 23/23/21
f 27/27/25 29/29/27 24/24/22
f 27/27/25 26/26/24 29/29/27
f 29/29/27 26/26/24 30/30/28
f 31/31/29 29/29/27 30/30/28
f 31/31/29 32/32/30 29/29/27
f 31/31/29 33/33/31 32/32/30
f 34/34/32 33/33/31 31/31/29
f 34/34/32 31/31/29 35/35/33
f 34/34/32 35/35/33 36/36/34
f 36/36/34 37/37/35 34/34/32
f 38/38/36 37/37/35 36/36/34
f 38/38/36 36/36/34 39/39/37
f 36/36/34 40/40/38 39/39/37
f 40/40/38 36/36/34 35/35/33
f 40/40/38 35/35/33 41/41/39
f 40/40/38 41/41/39 33/33/31
f 40/40/38 33/33/31 42/42/40
f 42/42/40 39/39/37 40/40/38
f 43/43/41 39/39/37 42/42/40
f 43/43/41 42/42/40 37/37/35
f 42/42/40 34/34/32 37/37/35
f 34/34/32 42/42/40 33/33/31
f 33/33/31 41/41/39 32/32/30
f 32/32/30 41/41/39 25/25/23
f 25/25/23 24/24/22 32/32/30
f 29/29/27 32/32/30 24/24/22
f 25/25/23 30/30/28 26/26/24
f 41/41/39 30/30/28 25/25/23
f 41/41/39 35/35/33 30/30/28
f 31/31/29 30/30/28 35/35/33
f 44/44/42 45/45/43 46/46/44
f 47/47/45 44/44/42 46/46/44
f 47/47/45 46/46/44 48/48/46
f 49/49/47 47/47/45 48/48/46
f 50/50/48 47/47/45 49/49/47
f 51/51/49 50/50/48 49/49/47
f 51/51/49 52/52/50 50/50/48
f 50/50/48 52/52/50 47/47/45
f 47/47/45 52/52/50 53/53/51
f 47/47/45 53/53/51 44/44/42
f 53/53/51 54/54/52 44/44/42
f 44/44/42 54/54/52 45/45/43
f 45/45/43 54/54/52 55/55/53
f 56/56/54 55/55/53 54/54/52
f 57/57/55 56/56/54 54/54/52
f 57/57/55 46/46/44 56/56/54
f 58/58/56 46/46/44 57/57/55
f 58/58/56 48/48/46 46/46/44
f 49/49/47 48/48/46 58/58/56
f 59/59/57 49/49/47 58/58/56
f 51/51/49 49/49/47 59/59/57
f 51/51/49 59/59/57 60/60/58
f 59/59/57 58/58/56 60/60/58
f 58/58/56 61/61/59 60/60/58
f 58/58/56 57/57/55 61/61/59
f 61/61/59 57/57/55 54/54/52
f 45/45/43 62/62/60 46/46/44
f 56/56/54 46/46/44 62/62/60
f 63/63/61 64/64/62 65/65/63
f 63/63/61 66/66/64 64/64/62
f 67/67/65 66/66/64 63/63/61
f 51/51/49 66/66/64 67/67/65
f 51/51/49 68/68/66 66/66/64
f 68/68/66 69/69/67 66/66/64
f 69/69/67 64/64/62 66/66/64
f 69/69/67 65/65/63 64/64/62
f 70/70/68 71/71/69 72/72/68
f 70/70/68 72/72/68 73/73/70
f 74/74/71 75/75/72 73/73/70
f 73/73/70 75/75/72 76/76/73
f 77/77/74 76/76/73 75/75/72
f 78/78/75 77/77/74 75/75/72
f 78/78/75 79/79/76 80/80/77
f 80/80/77 79/79/76 81/81/78
f 71/71/69 81/81/78 79/79/76
f 74/74/71 71/71/69 79/79/76
f 82/82/79 83/83/79 80/80/77
f 82/82/79 77/77/74 83/83/79
