# Blender v2.93.11 OBJ File: ''
# www.blender.org
mtllib skybox.mtl
o Cube
v 1.000000 1.000000 -1.000000
v 1.000000 -1.000000 -1.000000
v 1.000000 1.000000 1.000000
v 1.000000 -1.000000 1.000000
v -1.000000 1.000000 -1.000000
v -1.000000 -1.000000 -1.000000
v -1.000000 1.000000 1.000000
v -1.000000 -1.000000 1.000000
vt 0.625000 0.500000
vt 0.875000 0.500000
vt 0.875000 0.750000
vt 0.625000 0.750000
vt 0.499532 -0.001437
vt 0.502413 0.498555
vt 0.002422 0.501437
vt -0.000460 0.001445
vt 0.491389 0.001491
vt 0.489990 0.501490
vt 0.000101 0.500119
vt 0.001500 0.000121
vt 0.203318 0.097849
vt 0.296682 0.097849
vt 0.296682 0.191214
vt 0.203318 0.191214
vt 0.500775 0.000777
vt 0.499223 0.500775
vt -0.000775 0.499223
vt 0.000777 -0.000775
vt 0.499939 -0.000061
vt 0.500061 0.499939
vt 0.000061 0.500061
vt -0.000061 0.000061
vn 0.0000 1.0000 0.0000
vn 0.0000 0.0000 1.0000
vn -1.0000 0.0000 0.0000
vn 0.0000 -1.0000 0.0000
vn 1.0000 0.0000 0.0000
vn 0.0000 0.0000 -1.0000
usemtl Material
s off
f 1/1/1 5/2/1 7/3/1 3/4/1
f 4/5/2 3/6/2 7/7/2 8/8/2
f 8/9/3 7/10/3 5/11/3 6/12/3
f 6/13/4 2/14/4 4/15/4 8/16/4
f 2/17/5 1/18/5 3/19/5 4/20/5
f 6/21/6 5/22/6 1/23/6 2/24/6
