# Blender 3.6.0
# www.blender.org
mtllib Shark.mtl
o Cube
v 0.000000 -0.008151 0.040614
v 0.000000 -0.008959 0.043958
v 0.000785 -0.007894 0.040377
v 0.000000 -0.008151 0.040614
v -0.000785 -0.007894 0.040377
v 0.000000 -0.008959 0.043958
v 0.004634 -0.012080 -0.033051
v 0.007326 -0.010893 -0.031804
v 0.007352 -0.008797 -0.034027
v 0.003076 -0.009144 -0.038004
v 0.000000 -0.012663 -0.033632
v 0.007794 -0.004686 -0.035910
v 0.000000 -0.009203 -0.038811
v 0.003279 -0.005219 -0.039906
v 0.000000 -0.005198 -0.040668
v 0.004145 -0.007565 0.010366
v 0.004665 -0.003529 0.021241
v 0.008445 -0.006275 0.009296
v 0.002343 -0.004338 0.023036
v 0.002570 -0.002345 0.030211
v 0.001795 -0.003389 0.030529
v 0.000000 -0.005164 0.023025
v 0.000000 -0.002665 0.030625
v 0.001295 -0.005556 0.036124
v 0.000000 -0.005760 0.036175
v 0.000000 -0.008595 0.010769
v 0.000000 -0.014363 -0.000979
v 0.005127 -0.013435 -0.002075
v 0.008445 -0.006275 0.009296
v 0.000000 -0.015943 -0.009711
v 0.008422 -0.011104 -0.002791
v 0.004802 -0.014519 -0.010298
v 0.000000 -0.015947 -0.018340
v 0.008422 -0.011270 -0.010721
v 0.004916 -0.014861 -0.018106
v 0.000000 -0.012663 -0.033632
v 0.008180 -0.011194 -0.018694
v 0.004634 -0.012080 -0.033051
v 0.007326 -0.010893 -0.031804
v 0.003279 -0.005219 -0.039906
v 0.007794 -0.004686 -0.035910
v 0.007310 -0.000979 -0.034567
v 0.003483 -0.001311 -0.038450
v 0.006976 0.001568 -0.032197
v 0.003396 0.001618 -0.035730
v 0.006431 0.004222 -0.026738
v 0.000000 -0.001210 -0.039167
v 0.000000 -0.005198 -0.040668
v 0.003279 -0.005219 -0.039906
v 0.000000 0.001765 -0.036552
v 0.003133 0.006054 -0.027844
v 0.000000 0.006146 -0.028148
v 0.000000 0.008465 -0.010528
v 0.002264 0.008443 -0.010687
v 0.007770 0.005610 -0.009768
v 0.000000 0.013303 -0.006800
v 0.003951 0.007748 -0.004915
v 0.001634 0.012755 -0.007426
v 0.007924 0.005329 -0.004302
v 0.000000 0.018240 -0.002256
v 0.000868 0.017312 -0.003482
v 0.000000 0.018625 -0.000573
v 0.001358 0.017118 -0.002168
v 0.004447 0.007280 0.000847
v 0.008078 0.005047 0.001164
v 0.005000 0.005546 0.005809
v 0.007932 0.002701 0.006103
v 0.000000 0.005546 0.005809
v 0.000000 0.007716 0.001178
v 0.000000 0.003902 0.022037
v 0.003076 0.003619 0.020369
v 0.007932 0.002701 0.006103
v 0.000000 0.005580 0.028434
v 0.005658 0.001997 0.017087
v 0.001867 0.004387 0.028866
v 0.000000 0.008708 0.032663
v 0.003033 0.003465 0.029353
v 0.001405 0.007677 0.033098
v 0.000000 0.011476 0.036074
v 0.002440 0.006474 0.033497
v 0.000935 0.010816 0.036150
v 0.000000 0.013678 0.039282
v 0.002000 0.009178 0.035928
v 0.001063 -0.006984 0.041963
v 0.000000 -0.008959 0.043958
v 0.000000 -0.005916 0.042502
v 0.001270 -0.005016 0.041191
v 0.000000 -0.002631 0.040355
v 0.001497 -0.002289 0.039469
v 0.000000 0.001965 0.037146
v 0.001069 0.001812 0.036303
v 0.000000 0.007560 0.038445
v 0.001232 0.006600 0.037508
v 0.000000 0.013678 0.039282
v 0.001128 0.010328 0.037739
v 0.006976 0.001568 -0.032197
v 0.007770 0.005610 -0.009768
v 0.006431 0.004222 -0.026738
v 0.009414 0.001416 -0.013803
v 0.007310 -0.000979 -0.034567
v 0.007924 0.005329 -0.004302
v 0.010219 -0.001986 -0.016519
v 0.007794 -0.004686 -0.035910
v 0.009378 0.001470 -0.007985
v 0.008078 0.005047 0.001164
v 0.009771 -0.004415 -0.018795
v 0.007352 -0.008797 -0.034027
v 0.010464 -0.007282 -0.016706
v 0.007326 -0.010893 -0.031804
v 0.008180 -0.011194 -0.018694
v 0.010232 -0.007879 -0.010353
v 0.008422 -0.011270 -0.010721
v 0.010046 -0.008420 -0.006927
v 0.009861 -0.001119 -0.009992
v 0.008422 -0.011104 -0.002791
v 0.009343 0.001524 -0.002167
v 0.007932 0.002701 0.006103
v 0.010954 -0.002530 -0.005874
v 0.009686 -0.004085 0.007798
v 0.008445 -0.006275 0.009296
v 0.010764 -0.004615 -0.006376
v 0.009034 0.000586 0.005961
v 0.005658 0.001997 0.017087
v 0.010000 -0.001709 0.006502
v 0.005795 -0.000058 0.020103
v 0.003033 0.003465 0.029353
v 0.005726 -0.001918 0.020082
v 0.004665 -0.003529 0.021241
v 0.003535 0.001094 0.028543
v 0.003088 -0.000634 0.030194
v 0.002570 -0.002345 0.030211
v 0.002665 0.004630 0.033673
v 0.002440 0.006474 0.033497
v 0.002000 0.009178 0.035928
v 0.002692 0.001642 0.033364
v 0.002204 0.005799 0.035921
v 0.002604 -0.002693 0.035593
v 0.002777 -0.000814 0.034683
v 0.002087 0.001768 0.035228
v 0.001986 -0.004264 0.035806
v 0.001795 -0.003389 0.030529
v 0.001295 -0.005556 0.036124
v 0.002457 -0.001618 0.037675
v 0.001627 -0.006247 0.039683
v 0.000785 -0.007894 0.040377
v 0.002185 -0.004270 0.039221
v 0.001063 -0.006984 0.041963
v 0.000000 -0.008959 0.043958
v 0.001270 -0.005016 0.041191
v 0.001497 -0.002289 0.039469
v 0.001069 0.001812 0.036303
v 0.001232 0.006600 0.037508
v 0.001128 0.010328 0.037739
v 0.000000 0.013678 0.039282
v 0.000935 0.010816 0.036150
v 0.001358 0.017118 -0.002168
v 0.001033 0.016541 -0.001261
v 0.000000 0.018625 -0.000573
v 0.002670 0.012734 -0.002012
v 0.002684 0.012579 -0.004651
v 0.004447 0.007280 0.000847
v 0.000868 0.017312 -0.003482
v 0.003951 0.007748 -0.004915
v 0.001634 0.012755 -0.007426
v 0.002264 0.008443 -0.010687
v 0.000000 -0.005760 0.036175
v 0.000000 -0.008151 0.040614
v 0.000785 -0.007894 0.040377
v 0.001295 -0.005556 0.036124
v 0.014473 -0.003209 -0.007074
v 0.018597 -0.004094 -0.006985
v 0.014457 -0.004713 -0.006927
v 0.010954 -0.002530 -0.005874
v 0.010764 -0.004615 -0.006376
v 0.019629 -0.005627 -0.007221
v 0.018597 -0.004094 -0.006985
v 0.022298 -0.004550 -0.005847
v 0.014457 -0.004713 -0.006927
v 0.013721 -0.007453 -0.007380
v 0.010764 -0.004615 -0.006376
v 0.010046 -0.008420 -0.006927
v 0.000000 0.007716 0.001178
v 0.002670 0.012734 -0.002012
v 0.004447 0.007280 0.000847
v 0.000000 0.013054 -0.001131
v 0.001033 0.016541 -0.001261
v 0.000000 0.017209 -0.000771
v 0.000000 0.018625 -0.000573
v 0.010464 -0.007282 -0.016706
v 0.015308 -0.004184 -0.015426
v 0.009771 -0.004415 -0.018795
v 0.015905 -0.006347 -0.013830
v 0.020807 -0.003825 -0.011210
v 0.020295 -0.005747 -0.009938
v 0.022298 -0.004550 -0.005847
v 0.009861 -0.001119 -0.009992
v 0.014473 -0.003209 -0.007074
v 0.010954 -0.002530 -0.005874
v 0.014197 -0.001734 -0.009751
v 0.010219 -0.001986 -0.016519
v 0.018597 -0.004094 -0.006985
v 0.014167 -0.002779 -0.013879
v 0.009771 -0.004415 -0.018795
v 0.015308 -0.004184 -0.015426
v 0.018529 -0.002866 -0.008982
v 0.022298 -0.004550 -0.005847
v 0.019346 -0.003195 -0.010375
v 0.020807 -0.003825 -0.011210
v 0.010232 -0.007879 -0.010353
v 0.015905 -0.006347 -0.013830
v 0.010464 -0.007282 -0.016706
v 0.014824 -0.007290 -0.009801
v 0.010046 -0.008420 -0.006927
v 0.013721 -0.007453 -0.007380
v 0.020295 -0.005747 -0.009938
v 0.019629 -0.005627 -0.007221
v 0.022298 -0.004550 -0.005847
v -0.004634 -0.012080 -0.033051
v -0.007352 -0.008797 -0.034027
v -0.007326 -0.010893 -0.031804
v -0.003076 -0.009144 -0.038004
v 0.000000 -0.012663 -0.033632
v -0.007794 -0.004686 -0.035910
v 0.000000 -0.009203 -0.038811
v -0.003279 -0.005219 -0.039906
v 0.000000 -0.005198 -0.040668
v -0.004145 -0.007565 0.010366
v -0.008445 -0.006275 0.009296
v -0.004665 -0.003529 0.021241
v -0.002343 -0.004338 0.023036
v -0.002570 -0.002345 0.030211
v -0.001795 -0.003389 0.030529
v 0.000000 -0.005164 0.023025
v 0.000000 -0.002665 0.030625
v -0.001295 -0.005556 0.036124
v 0.000000 -0.005760 0.036175
v 0.000000 -0.008595 0.010769
v 0.000000 -0.014363 -0.000979
v -0.005127 -0.013435 -0.002075
v -0.008445 -0.006275 0.009296
v 0.000000 -0.015943 -0.009711
v -0.008422 -0.011104 -0.002791
v -0.004802 -0.014519 -0.010298
v 0.000000 -0.015947 -0.018340
v -0.008422 -0.011270 -0.010721
v -0.004916 -0.014861 -0.018106
v -0.008180 -0.011194 -0.018694
v 0.000000 -0.012663 -0.033632
v -0.004634 -0.012080 -0.033051
v -0.008180 -0.011194 -0.018694
v -0.007326 -0.010893 -0.031804
v -0.003279 -0.005219 -0.039906
v -0.007310 -0.000979 -0.034567
v -0.007794 -0.004686 -0.035910
v -0.003483 -0.001311 -0.038450
v -0.006976 0.001568 -0.032197
v -0.003396 0.001618 -0.035730
v -0.006431 0.004222 -0.026738
v 0.000000 -0.001210 -0.039167
v 0.000000 -0.005198 -0.040668
v -0.003279 -0.005219 -0.039906
v 0.000000 0.001765 -0.036552
v -0.003133 0.006054 -0.027844
v 0.000000 0.006146 -0.028148
v 0.000000 0.008465 -0.010528
v -0.002264 0.008443 -0.010687
v -0.007770 0.005610 -0.009768
v 0.000000 0.013303 -0.006800
v -0.003951 0.007748 -0.004915
v -0.001634 0.012755 -0.007426
v -0.007924 0.005329 -0.004302
v 0.000000 0.018240 -0.002256
v -0.000868 0.017312 -0.003482
v 0.000000 0.018625 -0.000573
v -0.001358 0.017118 -0.002168
v -0.004447 0.007280 0.000847
v -0.008078 0.005047 0.001164
v -0.005000 0.005546 0.005809
v -0.007932 0.002701 0.006103
v 0.000000 0.005546 0.005809
v 0.000000 0.007716 0.001178
v 0.000000 0.003902 0.022037
v -0.003076 0.003619 0.020369
v -0.007932 0.002701 0.006103
v 0.000000 0.005580 0.028434
v -0.005658 0.001997 0.017087
v -0.001867 0.004387 0.028866
v 0.000000 0.008708 0.032663
v -0.003033 0.003465 0.029353
v -0.001405 0.007677 0.033098
v 0.000000 0.011476 0.036074
v -0.002440 0.006474 0.033497
v -0.000935 0.010816 0.036150
v 0.000000 0.013678 0.039282
v -0.002000 0.009178 0.035928
v -0.001063 -0.006984 0.041963
v 0.000000 -0.005916 0.042502
v 0.000000 -0.008959 0.043958
v -0.001270 -0.005016 0.041191
v 0.000000 -0.002631 0.040355
v -0.001497 -0.002289 0.039469
v 0.000000 0.001965 0.037146
v -0.001069 0.001812 0.036303
v 0.000000 0.007560 0.038445
v -0.001232 0.006600 0.037508
v 0.000000 0.013678 0.039282
v -0.001128 0.010328 0.037739
v -0.006976 0.001568 -0.032197
v -0.006431 0.004222 -0.026738
v -0.007770 0.005610 -0.009768
v -0.009414 0.001416 -0.013803
v -0.007310 -0.000979 -0.034567
v -0.007924 0.005329 -0.004302
v -0.010219 -0.001986 -0.016519
v -0.007794 -0.004686 -0.035910
v -0.009378 0.001470 -0.007985
v -0.008078 0.005047 0.001164
v -0.009771 -0.004415 -0.018795
v -0.007352 -0.008797 -0.034027
v -0.010464 -0.007282 -0.016706
v -0.007326 -0.010893 -0.031804
v -0.008180 -0.011194 -0.018694
v -0.010232 -0.007879 -0.010353
v -0.008422 -0.011270 -0.010721
v -0.010046 -0.008420 -0.006927
v -0.009861 -0.001119 -0.009992
v -0.008422 -0.011104 -0.002791
v -0.009343 0.001524 -0.002167
v -0.007932 0.002701 0.006103
v -0.010954 -0.002530 -0.005874
v -0.009686 -0.004085 0.007798
v -0.008445 -0.006275 0.009296
v -0.010764 -0.004615 -0.006376
v -0.009034 0.000586 0.005961
v -0.005658 0.001997 0.017087
v -0.010000 -0.001709 0.006502
v -0.005795 -0.000058 0.020103
v -0.003033 0.003465 0.029353
v -0.005726 -0.001918 0.020082
v -0.004665 -0.003529 0.021241
v -0.003535 0.001094 0.028543
v -0.003088 -0.000634 0.030194
v -0.002570 -0.002345 0.030211
v -0.002665 0.004630 0.033673
v -0.002440 0.006474 0.033497
v -0.002000 0.009178 0.035928
v -0.002692 0.001642 0.033364
v -0.002204 0.005799 0.035921
v -0.002604 -0.002693 0.035593
v -0.002777 -0.000814 0.034683
v -0.002087 0.001768 0.035228
v -0.001986 -0.004264 0.035806
v -0.001795 -0.003389 0.030529
v -0.001295 -0.005556 0.036124
v -0.002457 -0.001618 0.037675
v -0.001627 -0.006247 0.039683
v -0.000785 -0.007894 0.040377
v -0.002185 -0.004270 0.039221
v -0.001063 -0.006984 0.041963
v 0.000000 -0.008959 0.043958
v -0.001270 -0.005016 0.041191
v -0.001497 -0.002289 0.039469
v -0.001069 0.001812 0.036303
v -0.001232 0.006600 0.037508
v -0.001128 0.010328 0.037739
v 0.000000 0.013678 0.039282
v -0.000935 0.010816 0.036150
v -0.001358 0.017118 -0.002168
v 0.000000 0.018625 -0.000573
v -0.001033 0.016541 -0.001261
v -0.002670 0.012734 -0.002012
v -0.002684 0.012579 -0.004651
v -0.004447 0.007280 0.000847
v -0.000868 0.017312 -0.003482
v -0.003951 0.007748 -0.004915
v -0.001634 0.012755 -0.007426
v -0.002264 0.008443 -0.010687
v 0.000000 -0.005760 0.036175
v -0.001295 -0.005556 0.036124
v -0.000785 -0.007894 0.040377
v 0.000000 -0.008151 0.040614
v -0.014473 -0.003209 -0.007074
v -0.014457 -0.004713 -0.006927
v -0.018597 -0.004094 -0.006985
v -0.010954 -0.002530 -0.005874
v -0.010764 -0.004615 -0.006376
v -0.019629 -0.005627 -0.007221
v -0.022298 -0.004550 -0.005847
v -0.018597 -0.004094 -0.006985
v -0.014457 -0.004713 -0.006927
v -0.013721 -0.007453 -0.007380
v -0.010764 -0.004615 -0.006376
v -0.010046 -0.008420 -0.006927
v 0.000000 0.007716 0.001178
v -0.004447 0.007280 0.000847
v -0.002670 0.012734 -0.002012
v 0.000000 0.013054 -0.001131
v -0.001033 0.016541 -0.001261
v 0.000000 0.017209 -0.000771
v 0.000000 0.018625 -0.000573
v -0.010464 -0.007282 -0.016706
v -0.009771 -0.004415 -0.018795
v -0.015308 -0.004184 -0.015426
v -0.015905 -0.006347 -0.013830
v -0.020807 -0.003825 -0.011210
v -0.020295 -0.005747 -0.009938
v -0.022298 -0.004550 -0.005847
v -0.009861 -0.001119 -0.009992
v -0.010954 -0.002530 -0.005874
v -0.014473 -0.003209 -0.007074
v -0.014197 -0.001734 -0.009751
v -0.010219 -0.001986 -0.016519
v -0.018597 -0.004094 -0.006985
v -0.014167 -0.002779 -0.013879
v -0.009771 -0.004415 -0.018795
v -0.015308 -0.004184 -0.015426
v -0.018529 -0.002866 -0.008982
v -0.022298 -0.004550 -0.005847
v -0.019346 -0.003195 -0.010375
v -0.020807 -0.003825 -0.011210
v -0.010232 -0.007879 -0.010353
v -0.010464 -0.007282 -0.016706
v -0.015905 -0.006347 -0.013830
v -0.014824 -0.007290 -0.009801
v -0.010046 -0.008420 -0.006927
v -0.013721 -0.007453 -0.007380
v -0.020295 -0.005747 -0.009938
v -0.019629 -0.005627 -0.007221
v -0.022298 -0.004550 -0.005847
vn 0.6011 -0.7695 -0.2159
vn -0.0000 -0.6157 0.7880
vn -0.0000 -0.9444 -0.3289
vn -0.6011 -0.7695 -0.2159
vn 0.8207 -0.3810 -0.4258
vn 0.7691 -0.5943 -0.2352
vn 0.4089 -0.8281 -0.3833
vn 0.3877 -0.5962 -0.7031
vn 0.8207 -0.3810 -0.4257
vn 0.3877 -0.5961 -0.7031
vn 0.4090 -0.8281 -0.3833
vn -0.0000 -0.9208 -0.3901
vn 0.8596 -0.0114 -0.5109
vn 0.8207 -0.3811 -0.4257
vn -0.0000 -0.6378 -0.7702
vn 0.4458 -0.0527 -0.8936
vn -0.0000 -0.0428 -0.9991
vn 0.7407 -0.5918 0.3181
vn 0.7232 -0.6202 0.3039
vn 0.3543 -0.8697 0.3436
vn 0.7232 -0.6202 0.3040
vn 0.3592 -0.9009 0.2436
vn 0.3543 -0.8697 0.3435
vn 0.8509 -0.5155 0.1010
vn 0.3591 -0.9009 0.2435
vn 0.4068 -0.9123 -0.0469
vn 0.3591 -0.9010 0.2435
vn 0.4068 -0.9123 -0.0468
vn -0.0000 -0.9677 0.2519
vn -0.0000 -0.9937 -0.1117
vn 0.4780 -0.8070 -0.3468
vn -0.0000 -0.9937 -0.1116
vn 0.4779 -0.8070 -0.3469
vn -0.0000 -0.8910 -0.4540
vn 0.3592 -0.9009 0.2435
vn -0.0000 -0.9677 0.2520
vn -0.0000 -0.9323 0.3616
vn -0.0000 -0.9497 0.3132
vn 0.4106 -0.8774 0.2481
vn 0.4106 -0.8774 0.2480
vn -0.0000 -0.9959 0.0905
vn 0.7485 -0.6420 0.1662
vn 0.4690 -0.8814 0.0563
vn -0.0000 -0.9959 -0.0908
vn 0.7833 -0.6216 0.0063
vn 0.7484 -0.6420 0.1662
vn 0.4590 -0.8858 -0.0678
vn 0.8086 -0.5845 -0.0674
vn 0.4089 -0.8282 -0.3833
vn 0.4090 -0.8282 -0.3833
vn 0.8241 0.3525 -0.4433
vn 0.4458 -0.0528 -0.8936
vn 0.4163 0.4717 -0.7773
vn 0.7520 0.5723 -0.3271
vn 0.3467 0.7402 -0.5761
vn 0.7520 0.5723 -0.3272
vn 0.6963 0.6924 -0.1891
vn 0.3466 0.7402 -0.5762
vn -0.0000 0.5103 -0.8600
vn -0.0000 0.7770 -0.6295
vn 0.2787 0.9163 -0.2875
vn -0.0000 0.9482 -0.3176
vn -0.0000 0.8557 -0.5174
vn 0.2788 0.9163 -0.2875
vn 0.3814 0.8737 -0.3020
vn 0.3814 0.8737 -0.3021
vn 0.7417 0.6695 -0.0416
vn -0.0000 0.6397 -0.7686
vn 0.7690 0.6352 -0.0720
vn 0.7417 0.6694 -0.0416
vn 0.4890 0.5835 -0.6484
vn 0.7644 0.6447 0.0057
vn -0.0000 0.9441 -0.3295
vn -0.0000 0.9442 -0.3295
vn 0.4212 0.7075 -0.5675
vn -0.0001 0.7590 0.6510
vn 0.4212 0.7076 -0.5674
vn -0.0000 0.7590 0.6511
vn 0.8716 0.4900 0.0163
vn 0.4875 0.8026 0.3439
vn 0.4874 0.8026 0.3439
vn 0.7691 0.6241 0.1382
vn 0.3799 0.8877 0.2600
vn 0.7691 0.6240 0.1382
vn 0.8101 0.5523 0.1969
vn -0.0000 0.9686 0.2486
vn -0.0000 0.7388 0.6739
vn -0.0000 0.9987 -0.0504
vn -0.0000 0.9987 -0.0505
vn 0.3774 0.9247 0.0503
vn -0.0000 0.9333 -0.3592
vn 0.8078 0.5572 0.1923
vn 0.5595 0.7943 -0.2366
vn 0.5595 0.7944 -0.2365
vn -0.0000 0.7867 -0.6173
vn 0.5595 0.7943 -0.2365
vn 0.9066 0.4220 0.0025
vn 0.6597 0.6011 -0.4510
vn -0.0000 0.8009 -0.5987
vn 0.9294 0.3423 -0.1382
vn -0.0000 0.8010 -0.5987
vn 0.7588 0.5684 -0.3181
vn 0.6598 0.6011 -0.4510
vn -0.0000 0.8009 -0.5988
vn -0.0000 0.8438 0.5366
vn 0.7588 0.5683 -0.3181
vn 0.9497 0.3130 0.0075
vn -0.0000 0.4214 0.9069
vn -0.0000 -0.6156 0.7880
vn 0.9012 -0.0779 0.4264
vn 0.7494 0.2409 0.6167
vn -0.0000 0.4215 0.9068
vn 0.9012 -0.0779 0.4265
vn -0.0000 0.5571 0.8305
vn 0.6366 0.4199 0.6469
vn -0.0000 0.5570 0.8305
vn 0.7495 0.2409 0.6166
vn -0.0000 0.2175 0.9761
vn 0.6670 0.1928 0.7197
vn -0.0000 -0.1441 0.9896
vn 0.6669 0.1929 0.7197
vn 0.7245 -0.1059 0.6811
vn -0.0001 0.8438 0.5367
vn -0.0000 -0.1442 0.9896
vn 0.8836 0.1512 0.4431
vn -0.0000 0.8438 0.5367
vn 0.9450 0.3226 -0.0542
vn 0.7901 0.5391 -0.2916
vn 0.7902 0.5391 -0.2915
vn 0.9439 0.3296 -0.0178
vn 0.7901 0.5392 -0.2915
vn 0.9439 0.3296 -0.0179
vn 0.9307 0.0559 -0.3614
vn 0.8596 -0.0114 -0.5108
vn 0.8207 -0.3811 -0.4258
vn 0.7808 -0.5415 -0.3118
vn 0.7807 -0.5415 -0.3118
vn 0.7691 -0.5943 -0.2353
vn 0.5796 -0.8125 -0.0628
vn 0.7903 -0.5765 0.2073
vn 0.7833 -0.6217 0.0063
vn 0.7583 0.6514 0.0264
vn 0.9383 0.3447 0.0295
vn 0.9383 0.3446 0.0295
vn 0.8101 0.5522 0.1969
vn 0.8677 0.3520 0.3511
vn 0.7903 -0.5765 0.2074
vn 0.9574 -0.1921 0.2158
vn 0.7485 -0.6420 0.1663
vn 0.7140 -0.1883 0.6744
vn 0.9147 0.3775 0.1447
vn 0.9146 0.3775 0.1447
vn 0.8677 0.3520 0.3510
vn 0.9748 0.1578 0.1579
vn 0.9748 0.1579 0.1579
vn 0.7139 -0.1883 0.6744
vn 0.9606 0.1352 0.2429
vn 0.9748 0.1578 0.1578
vn 0.9748 0.1579 0.1578
vn 0.9606 0.1352 0.2428
vn 0.9066 0.4221 0.0025
vn 0.9393 -0.1594 0.3039
vn 0.9774 0.0830 0.1946
vn 0.9606 0.1351 0.2428
vn 0.9773 0.0831 0.1947
vn 0.9771 -0.1516 0.1493
vn 0.9874 0.0482 0.1509
vn 0.9293 0.3424 -0.1382
vn 0.9066 0.4220 0.0024
vn 0.9841 0.0496 0.1707
vn 0.9773 0.0830 0.1947
vn 0.9774 0.0830 0.1947
vn 0.9213 -0.0298 0.3877
vn 0.9817 -0.1884 0.0268
vn 0.9895 0.0526 0.1344
vn 0.9071 0.1169 0.4043
vn 0.8979 -0.4307 -0.0910
vn 0.8979 -0.4306 -0.0910
vn 0.4780 -0.8070 -0.3469
vn 0.9024 0.2373 0.3596
vn 0.9406 -0.3372 0.0402
vn 0.9817 -0.1885 0.0268
vn 0.9682 -0.0488 0.2455
vn 0.9024 0.2373 0.3597
vn 0.9682 -0.0487 0.2455
vn 0.6011 -0.7695 -0.2160
vn 0.6010 -0.7695 -0.2160
vn 0.9406 -0.3372 0.0401
vn 0.9682 -0.0487 0.2454
vn 0.6366 0.4198 0.6469
vn 0.7495 0.2410 0.6166
vn 0.6644 0.1941 0.7217
vn 0.7245 -0.1060 0.6811
vn 0.8837 0.1512 0.4430
vn 0.9497 0.3130 0.0074
vn 0.7177 0.1224 0.6855
vn 0.8013 0.3357 0.4952
vn 0.9336 0.3249 -0.1511
vn 0.9336 0.3250 -0.1511
vn 0.4211 0.7076 -0.5674
vn 0.4875 0.8025 0.3440
vn 0.4890 0.5834 -0.6484
vn 0.7690 0.6352 -0.0719
vn 0.0984 -0.0950 0.9906
vn -0.0239 0.4164 0.9089
vn 0.1794 0.5498 0.8158
vn 0.7140 -0.1882 0.6744
vn 0.7114 0.0127 0.7026
vn 0.1090 -0.8121 0.5733
vn -0.0239 0.4163 0.9089
vn 0.2226 -0.7680 0.6005
vn 0.1089 -0.8121 0.5733
vn 0.7903 -0.5766 0.2074
vn 0.2227 -0.7680 0.6005
vn -0.0000 0.1986 0.9801
vn -0.0000 -0.1157 0.9933
vn 0.9308 0.0559 -0.3614
vn 0.5679 0.2026 -0.7978
vn 0.7808 -0.5415 -0.3117
vn 0.5678 0.2026 -0.7978
vn 0.4394 -0.7704 -0.4619
vn 0.7797 0.3237 -0.5361
vn 0.7797 0.3237 -0.5360
vn 0.5871 -0.7595 -0.2803
vn 0.5871 -0.7594 -0.2803
vn 0.7115 0.0128 0.7026
vn 0.8676 0.3521 0.3511
vn 0.2170 0.9706 0.1040
vn 0.3062 0.8825 -0.3570
vn 0.9308 0.0559 -0.3613
vn 0.9308 0.0558 -0.3614
vn 0.2346 0.9585 0.1620
vn 0.7115 0.0127 0.7026
vn 0.3338 0.9250 -0.1818
vn 0.7114 0.0127 0.7027
vn 0.4394 -0.7705 -0.4618
vn 0.2369 -0.9705 -0.0454
vn 0.5870 -0.7595 -0.2804
vn 0.5870 -0.7595 -0.2803
vn -0.7691 -0.5943 -0.2352
vn -0.8207 -0.3810 -0.4258
vn -0.4089 -0.8281 -0.3833
vn -0.8207 -0.3810 -0.4257
vn -0.3877 -0.5962 -0.7031
vn -0.4090 -0.8281 -0.3833
vn -0.3877 -0.5961 -0.7031
vn -0.8207 -0.3811 -0.4257
vn -0.8596 -0.0114 -0.5109
vn -0.4458 -0.0527 -0.8936
vn -0.7232 -0.6202 0.3039
vn -0.7407 -0.5918 0.3181
vn -0.3543 -0.8697 0.3436
vn -0.3592 -0.9009 0.2436
vn -0.7232 -0.6202 0.3040
vn -0.3543 -0.8697 0.3435
vn -0.8509 -0.5155 0.1010
vn -0.3591 -0.9009 0.2435
vn -0.4068 -0.9123 -0.0469
vn -0.3591 -0.9010 0.2435
vn -0.4068 -0.9123 -0.0468
vn -0.4780 -0.8070 -0.3468
vn -0.4779 -0.8070 -0.3469
vn -0.3592 -0.9009 0.2435
vn -0.4106 -0.8774 0.2481
vn -0.4106 -0.8774 0.2480
vn -0.7485 -0.6420 0.1662
vn -0.4690 -0.8814 0.0563
vn -0.7484 -0.6420 0.1662
vn -0.7833 -0.6216 0.0063
vn -0.4590 -0.8858 -0.0678
vn -0.8086 -0.5845 -0.0674
vn -0.4089 -0.8282 -0.3833
vn -0.4090 -0.8282 -0.3833
vn -0.8241 0.3525 -0.4433
vn -0.4458 -0.0528 -0.8936
vn -0.4163 0.4717 -0.7773
vn -0.7520 0.5723 -0.3271
vn -0.7520 0.5723 -0.3272
vn -0.3467 0.7402 -0.5761
vn -0.6963 0.6924 -0.1891
vn -0.3466 0.7402 -0.5762
vn -0.2787 0.9163 -0.2875
vn -0.2788 0.9163 -0.2875
vn -0.3814 0.8737 -0.3020
vn -0.3814 0.8737 -0.3021
vn -0.7417 0.6695 -0.0416
vn -0.7690 0.6352 -0.0720
vn -0.7417 0.6694 -0.0416
vn -0.4890 0.5835 -0.6484
vn -0.7644 0.6447 0.0057
vn -0.4212 0.7075 -0.5675
vn 0.0001 0.7590 0.6510
vn -0.4212 0.7076 -0.5674
vn -0.8716 0.4900 0.0163
vn -0.4875 0.8026 0.3439
vn -0.7691 0.6241 0.1382
vn -0.4874 0.8026 0.3439
vn -0.3799 0.8877 0.2600
vn -0.7691 0.6240 0.1382
vn -0.8101 0.5523 0.1969
vn -0.3774 0.9247 0.0503
vn -0.8078 0.5573 0.1923
vn -0.5595 0.7943 -0.2366
vn -0.5595 0.7944 -0.2365
vn -0.8078 0.5572 0.1923
vn -0.5595 0.7943 -0.2365
vn -0.9066 0.4220 0.0025
vn -0.6597 0.6011 -0.4510
vn -0.9294 0.3423 -0.1382
vn -0.7588 0.5684 -0.3181
vn -0.6598 0.6011 -0.4510
vn -0.7588 0.5683 -0.3181
vn -0.9497 0.3130 0.0075
vn -0.9012 -0.0779 0.4264
vn -0.7494 0.2409 0.6167
vn -0.9012 -0.0779 0.4265
vn -0.6366 0.4199 0.6469
vn -0.7495 0.2409 0.6166
vn -0.6670 0.1928 0.7197
vn -0.6669 0.1929 0.7197
vn -0.7245 -0.1059 0.6811
vn 0.0001 0.8438 0.5367
vn -0.8836 0.1512 0.4431
vn -0.9450 0.3226 -0.0542
vn -0.7901 0.5391 -0.2916
vn -0.7902 0.5391 -0.2915
vn -0.9439 0.3296 -0.0178
vn -0.7901 0.5392 -0.2915
vn -0.9439 0.3296 -0.0179
vn -0.9307 0.0559 -0.3614
vn -0.8596 -0.0114 -0.5108
vn -0.8207 -0.3811 -0.4258
vn -0.7808 -0.5415 -0.3118
vn -0.7807 -0.5415 -0.3118
vn -0.7691 -0.5943 -0.2353
vn -0.5796 -0.8125 -0.0628
vn -0.7903 -0.5765 0.2073
vn -0.5797 -0.8122 -0.0660
vn -0.7583 0.6514 0.0264
vn -0.9383 0.3447 0.0295
vn -0.9383 0.3446 0.0295
vn -0.8101 0.5522 0.1969
vn -0.8677 0.3520 0.3511
vn -0.9574 -0.1921 0.2158
vn -0.7903 -0.5765 0.2074
vn -0.7485 -0.6420 0.1663
vn -0.7140 -0.1883 0.6744
vn -0.9147 0.3775 0.1447
vn -0.9146 0.3775 0.1447
vn -0.9748 0.1578 0.1579
vn -0.8677 0.3520 0.3510
vn -0.9748 0.1579 0.1579
vn -0.7139 -0.1883 0.6744
vn -0.9606 0.1352 0.2429
vn -0.9748 0.1578 0.1578
vn -0.9606 0.1352 0.2428
vn -0.9748 0.1579 0.1578
vn -0.9066 0.4221 0.0025
vn -0.9393 -0.1594 0.3039
vn -0.9774 0.0830 0.1946
vn -0.9606 0.1351 0.2428
vn -0.9773 0.0831 0.1947
vn -0.9771 -0.1516 0.1493
vn -0.9874 0.0482 0.1509
vn -0.9293 0.3424 -0.1382
vn -0.9066 0.4220 0.0024
vn -0.9841 0.0496 0.1707
vn -0.9773 0.0830 0.1947
vn -0.9774 0.0830 0.1947
vn -0.9213 -0.0298 0.3877
vn -0.9497 0.3130 0.0074
vn -0.9817 -0.1884 0.0268
vn -0.9895 0.0526 0.1344
vn -0.9071 0.1169 0.4043
vn -0.8979 -0.4307 -0.0910
vn -0.8979 -0.4306 -0.0910
vn -0.4780 -0.8070 -0.3469
vn -0.9024 0.2373 0.3596
vn -0.9406 -0.3372 0.0402
vn -0.9682 -0.0488 0.2455
vn -0.9817 -0.1885 0.0268
vn -0.9682 -0.0487 0.2455
vn -0.9024 0.2373 0.3597
vn -0.6011 -0.7695 -0.2160
vn -0.6010 -0.7695 -0.2160
vn -0.9406 -0.3372 0.0401
vn -0.9682 -0.0487 0.2454
vn -0.7495 0.2410 0.6166
vn -0.6366 0.4198 0.6469
vn -0.6670 0.1929 0.7197
vn -0.6660 0.1926 0.7206
vn -0.7245 -0.1060 0.6811
vn -0.8837 0.1512 0.4430
vn -0.7177 0.1224 0.6855
vn -0.8013 0.3357 0.4952
vn -0.9336 0.3249 -0.1511
vn -0.9336 0.3250 -0.1511
vn -0.4211 0.7076 -0.5674
vn -0.4875 0.8025 0.3440
vn -0.4890 0.5834 -0.6484
vn -0.7690 0.6352 -0.0719
vn 0.0239 0.4164 0.9089
vn -0.0984 -0.0950 0.9906
vn -0.1794 0.5498 0.8158
vn -0.7140 -0.1882 0.6744
vn -0.7114 0.0127 0.7026
vn -0.1090 -0.8121 0.5733
vn -0.1089 -0.8121 0.5733
vn -0.2226 -0.7680 0.6005
vn -0.7139 -0.1882 0.6744
vn -0.2227 -0.7680 0.6005
vn -0.7903 -0.5766 0.2074
vn -0.5679 0.2026 -0.7978
vn -0.9308 0.0559 -0.3614
vn -0.7808 -0.5415 -0.3117
vn -0.4394 -0.7704 -0.4619
vn -0.5678 0.2026 -0.7978
vn -0.7797 0.3237 -0.5361
vn -0.5871 -0.7595 -0.2803
vn -0.7797 0.3237 -0.5360
vn -0.5871 -0.7594 -0.2803
vn -0.7115 0.0128 0.7026
vn -0.8676 0.3521 0.3511
vn -0.2170 0.9706 0.1040
vn -0.1794 0.5497 0.8158
vn -0.3062 0.8825 -0.3570
vn -0.9308 0.0559 -0.3613
vn -0.9308 0.0558 -0.3614
vn -0.2346 0.9585 0.1620
vn 0.0239 0.4163 0.9089
vn -0.7115 0.0127 0.7026
vn -0.3338 0.9250 -0.1818
vn -0.7114 0.0127 0.7027
vn -0.4394 -0.7705 -0.4618
vn -0.2369 -0.9705 -0.0454
vn -0.5870 -0.7595 -0.2804
vn -0.5870 -0.7595 -0.2803
vt 0.685547 0.580078
vt 0.685547 0.624512
vt 0.676758 0.585449
vt 0.682129 0.531738
vt 0.687988 0.567383
vt 0.650879 0.573730
vt 0.616699 0.511719
vt 0.596680 0.580078
vt 0.686523 0.479004
vt 0.581055 0.509766
vt 0.619141 0.466553
vt 0.580566 0.464355
vt 0.579102 0.530762
vt 0.535645 0.677734
vt 0.523926 0.540527
vt 0.504395 0.697266
vt 0.508789 0.787109
vt 0.496094 0.789062
vt 0.474365 0.695312
vt 0.477295 0.790527
vt 0.479492 0.854004
vt 0.463623 0.854004
vt 0.472168 0.542480
vt 0.461914 0.393066
vt 0.524902 0.382812
vt 0.577148 0.530762
vt 0.461914 0.285400
vt 0.571777 0.378174
vt 0.523438 0.281738
vt 0.467773 0.180908
vt 0.576660 0.281982
vt 0.528809 0.186890
vt 0.488525 0.004265
vt 0.579102 0.185547
vt 0.544434 0.013641
vt 0.579102 0.031189
vt 0.436768 0.914551
vt 0.461182 0.939941
vt 0.411621 0.990234
vt 0.393555 0.962402
vt 0.421143 0.879883
vt 0.378906 0.922852
vt 0.405762 0.808105
vt 0.354736 0.971680
vt 0.381348 0.998047
vt 0.411133 0.989746
vt 0.340576 0.933105
vt 0.358887 0.817383
vt 0.324219 0.821777
vt 0.327881 0.605957
vt 0.352295 0.607422
vt 0.428467 0.602051
vt 0.304688 0.549316
vt 0.379883 0.540039
vt 0.324707 0.557617
vt 0.436768 0.538086
vt 0.281494 0.482666
vt 0.294922 0.499268
vt 0.281006 0.461670
vt 0.302490 0.484131
vt 0.393311 0.472656
vt 0.445068 0.473633
vt 0.413574 0.417725
vt 0.461182 0.420898
vt 0.359375 0.419189
vt 0.343018 0.468750
vt 0.383789 0.230347
vt 0.416992 0.250000
vt 0.456543 0.421387
vt 0.380615 0.149902
vt 0.450928 0.292480
vt 0.407715 0.147339
vt 0.367188 0.091553
vt 0.425781 0.143555
vt 0.388428 0.088623
vt 0.354980 0.043823
vt 0.406738 0.086670
vt 0.368896 0.044373
vt 0.345703 0.000000
vt 0.389160 0.050903
vt 0.736328 0.395020
vt 0.737793 0.431152
vt 0.722656 0.407959
vt 0.719238 0.384521
vt 0.734375 0.356689
vt 0.714844 0.352539
vt 0.730469 0.302979
vt 0.716309 0.304932
vt 0.734375 0.234009
vt 0.717773 0.245850
vt 0.737793 0.159180
vt 0.720703 0.200439
vt 0.281006 0.126953
vt 0.268799 0.331543
vt 0.258301 0.056213
vt 0.225220 0.274170
vt 0.231812 0.023026
vt 0.255859 0.396484
vt 0.188965 0.234863
vt 0.189453 0.000000
vt 0.215942 0.344238
vt 0.243164 0.461670
vt 0.163574 0.203857
vt 0.136597 0.016022
vt 0.125488 0.223267
vt 0.107483 0.039154
vt 0.081482 0.195068
vt 0.107361 0.298828
vt 0.066895 0.290527
vt 0.094910 0.339111
vt 0.188232 0.315186
vt 0.055298 0.385986
vt 0.206543 0.414062
vt 0.206421 0.517090
vt 0.164185 0.360840
vt 0.121887 0.523926
vt 0.092773 0.539551
vt 0.139893 0.351562
vt 0.181274 0.510254
vt 0.178833 0.650391
vt 0.152832 0.512207
vt 0.148926 0.682617
vt 0.175171 0.802734
vt 0.126465 0.679199
vt 0.104980 0.691406
vt 0.148071 0.788574
vt 0.124329 0.805664
vt 0.103638 0.803711
vt 0.181763 0.856934
vt 0.204346 0.858398
vt 0.232666 0.892578
vt 0.146240 0.848145
vt 0.192017 0.886719
vt 0.090210 0.867676
vt 0.114441 0.859863
vt 0.144531 0.871582
vt 0.070801 0.868164
vt 0.090393 0.806641
vt 0.054626 0.870605
vt 0.099548 0.894531
vt 0.040222 0.911621
vt 0.019058 0.917969
vt 0.064880 0.909180
vt 0.027359 0.938477
vt 0.000000 0.959961
vt 0.052429 0.932129
vt 0.088318 0.916016
vt 0.143066 0.885742
vt 0.198730 0.908203
vt 0.243286 0.917480
vt 0.281006 0.942871
vt 0.251953 0.899414
vt 0.714844 0.159180
vt 0.703125 0.183594
vt 0.692383 0.175659
vt 0.687988 0.228882
vt 0.656250 0.227905
vt 0.714844 0.298096
vt 0.677246 0.171875
vt 0.646484 0.286133
vt 0.624023 0.222778
vt 0.579102 0.271484
vt 0.700195 0.300781
vt 0.708984 0.298096
vt 0.711426 0.355225
vt 0.696777 0.355225
vt 0.729980 0.506348
vt 0.740723 0.456543
vt 0.748535 0.506836
vt 0.754395 0.551758
vt 0.728516 0.551758
vt 0.666504 0.733887
vt 0.651367 0.693359
vt 0.672363 0.701172
vt 0.645996 0.643066
vt 0.676758 0.626465
vt 0.633301 0.599121
vt 0.676758 0.580078
vt 0.579102 0.715332
vt 0.597656 0.651367
vt 0.633301 0.711426
vt 0.631348 0.647949
vt 0.619629 0.605469
vt 0.632812 0.597168
vt 0.633301 0.580078
vt 0.728516 0.456543
vt 0.728516 0.535645
vt 0.689453 0.475830
vt 0.699219 0.550781
vt 0.725098 0.619629
vt 0.696289 0.621582
vt 0.690918 0.668945
vt 0.712891 0.159180
vt 0.671875 0.144653
vt 0.735840 0.113159
vt 0.685547 0.116272
vt 0.732422 0.033386
vt 0.622559 0.145142
vt 0.683105 0.064514
vt 0.725586 0.000000
vt 0.664062 0.043030
vt 0.631836 0.124451
vt 0.579102 0.159180
vt 0.622070 0.107361
vt 0.603516 0.096436
vt 0.579102 0.456543
vt 0.607422 0.386963
vt 0.655762 0.454590
vt 0.656738 0.398438
vt 0.696777 0.455078
vt 0.687500 0.409424
vt 0.649414 0.329590
vt 0.683105 0.334229
vt 0.696777 0.298096
vt 0.686035 0.479248
vt 0.574707 0.281494
vt 0.578125 0.185181
s 0
usemtl Material.001
f 3/1/1 2/2/2 1/3/3
f 6/2/2 5/1/4 4/3/3
f 9/4/5 8/5/6 7/6/7
f 10/7/8 9/4/9 7/6/7
f 10/7/10 7/6/11 11/8/12
f 12/9/13 9/4/14 10/7/8
f 13/10/15 10/7/8 11/8/12
f 14/11/16 12/9/13 10/7/10
f 14/11/16 10/7/10 13/10/15
f 15/12/17 14/11/16 13/10/15
f 18/13/18 17/14/19 16/15/20
f 17/14/21 19/16/22 16/15/23
f 17/14/21 20/17/24 19/16/25
f 20/17/24 21/18/26 19/16/27
f 19/16/25 21/18/28 22/19/29
f 21/18/26 23/20/30 22/19/29
f 21/18/28 24/21/31 23/20/32
f 24/21/33 25/22/34 23/20/32
f 19/16/35 22/19/36 26/23/37
f 16/15/23 19/16/35 26/23/37
f 16/15/23 26/23/37 27/24/38
f 28/25/39 16/15/20 27/24/38
f 29/26/18 16/15/23 28/25/39
f 28/25/40 27/24/38 30/27/41
f 31/28/42 29/26/18 28/25/40
f 32/29/43 28/25/40 30/27/41
f 31/28/42 28/25/40 32/29/43
f 32/29/43 30/27/41 33/30/44
f 34/31/45 31/28/46 32/29/43
f 35/32/47 32/29/43 33/30/44
f 34/31/45 32/29/43 35/32/47
f 35/32/47 33/30/44 36/33/12
f 37/34/48 34/31/45 35/32/47
f 38/35/49 35/32/47 36/33/12
f 37/34/48 35/32/47 38/35/49
f 39/36/6 37/34/48 38/35/50
f 42/37/51 41/38/13 40/39/52
f 43/40/53 42/37/51 40/39/16
f 44/41/54 42/37/51 43/40/53
f 45/42/55 44/41/56 43/40/53
f 46/43/57 44/41/56 45/42/58
f 45/42/55 43/40/53 47/44/59
f 47/44/59 43/40/53 48/45/17
f 43/40/53 49/46/16 48/45/17
f 50/47/60 45/42/55 47/44/59
f 51/48/61 45/42/55 50/47/60
f 51/48/61 46/43/57 45/42/55
f 52/49/62 51/48/61 50/47/60
f 52/49/62 53/50/63 51/48/64
f 51/48/64 54/51/65 46/43/57
f 53/50/63 54/51/66 51/48/64
f 54/51/65 55/52/67 46/43/57
f 53/50/63 56/53/68 54/51/65
f 54/51/66 57/54/69 55/52/70
f 56/53/68 58/55/71 54/51/65
f 57/54/69 59/56/72 55/52/70
f 56/53/68 60/57/73 58/55/71
f 60/57/74 61/58/75 58/55/71
f 60/57/74 62/59/76 61/58/77
f 62/59/78 63/60/79 61/58/77
f 57/54/69 64/61/80 59/56/72
f 64/61/81 65/62/82 59/56/72
f 64/61/81 66/63/83 65/62/84
f 66/63/83 67/64/85 65/62/82
f 68/65/86 66/63/83 64/61/80
f 69/66/87 68/65/86 64/61/80
f 68/65/86 70/67/88 66/63/83
f 70/67/89 71/68/90 66/63/83
f 66/63/83 71/68/90 72/69/85
f 70/67/88 73/70/91 71/68/90
f 71/68/90 74/71/92 72/69/85
f 73/70/91 75/72/93 71/68/90
f 71/68/90 75/72/94 74/71/92
f 73/70/91 76/73/95 75/72/96
f 75/72/94 77/74/97 74/71/92
f 76/73/95 78/75/98 75/72/94
f 75/72/94 78/75/98 77/74/97
f 76/73/95 79/76/99 78/75/98
f 78/75/98 80/77/100 77/74/97
f 79/76/101 81/78/102 78/75/103
f 78/75/98 81/78/102 80/77/100
f 79/76/104 82/79/105 81/78/106
f 81/78/102 83/80/107 80/77/100
f 86/81/108 85/82/109 84/83/110
f 87/84/111 86/81/112 84/83/113
f 88/85/114 86/81/108 87/84/111
f 89/86/115 88/85/116 87/84/117
f 90/87/118 88/85/114 89/86/115
f 91/88/119 90/87/118 89/86/115
f 92/89/120 90/87/118 91/88/121
f 93/90/122 92/89/120 91/88/119
f 94/91/123 92/89/124 93/90/122
f 95/92/125 94/91/126 93/90/122
f 98/93/57 97/94/70 96/95/56
f 97/94/70 99/96/127 96/95/56
f 96/95/54 99/96/127 100/97/51
f 97/94/67 101/98/72 99/96/127
f 99/96/127 102/99/128 100/97/51
f 100/97/51 102/99/129 103/100/13
f 101/98/72 104/101/130 99/96/127
f 99/96/127 104/101/130 102/99/131
f 101/98/72 105/102/84 104/101/132
f 102/99/131 106/103/133 103/100/13
f 103/100/134 106/103/133 107/104/135
f 106/103/133 108/105/136 107/104/14
f 107/104/14 108/105/137 109/106/6
f 108/105/136 110/107/48 109/106/138
f 108/105/137 111/108/139 110/107/48
f 111/108/139 112/109/45 110/107/48
f 111/108/139 113/110/140 112/109/141
f 104/101/130 114/111/142 102/99/128
f 113/110/140 115/112/46 112/109/45
f 105/102/82 116/113/143 104/101/130
f 104/101/132 116/113/144 114/111/142
f 105/102/84 117/114/145 116/113/144
f 116/113/143 118/115/146 114/111/142
f 113/110/147 119/116/148 115/112/46
f 119/116/148 120/117/18 115/112/149
f 121/118/150 119/116/148 113/110/140
f 117/114/85 122/119/151 116/113/144
f 116/113/143 122/119/152 118/115/146
f 117/114/85 123/120/92 122/119/151
f 118/115/153 124/121/154 121/118/150
f 122/119/152 124/121/154 118/115/146
f 122/119/152 123/120/92 124/121/154
f 124/121/155 119/116/148 121/118/156
f 123/120/92 125/122/157 124/121/158
f 124/121/159 125/122/160 119/116/148
f 123/120/92 126/123/161 125/122/160
f 119/116/148 127/124/162 120/117/18
f 125/122/160 127/124/162 119/116/148
f 127/124/162 128/125/21 120/117/18
f 126/123/97 129/126/163 125/122/164
f 125/122/160 129/126/165 127/124/162
f 127/124/162 130/127/166 128/125/21
f 129/126/165 130/127/166 127/124/162
f 130/127/166 131/128/24 128/125/21
f 126/123/97 132/129/167 129/126/165
f 133/130/168 132/129/167 126/123/169
f 133/130/100 134/131/107 132/129/167
f 132/129/167 135/132/170 129/126/171
f 129/126/172 135/132/170 130/127/166
f 134/131/107 136/133/173 132/129/167
f 132/129/167 136/133/173 135/132/170
f 130/127/166 137/134/174 131/128/24
f 135/132/170 138/135/175 130/127/166
f 138/135/175 137/134/174 130/127/166
f 135/132/170 139/136/176 138/135/175
f 136/133/173 139/136/176 135/132/170
f 137/134/174 140/137/177 131/128/24
f 131/128/24 140/137/178 141/138/26
f 140/137/177 142/139/179 141/138/28
f 138/135/175 143/140/180 137/134/174
f 139/136/176 143/140/180 138/135/175
f 140/137/178 144/141/181 142/139/33
f 144/141/181 145/142/1 142/139/31
f 137/134/182 146/143/183 140/137/177
f 143/140/184 146/143/185 137/134/182
f 146/143/185 144/141/181 140/137/177
f 144/141/181 147/144/110 145/142/186
f 147/144/110 148/145/2 145/142/187
f 149/146/111 147/144/110 144/141/188
f 146/143/189 149/146/111 144/141/181
f 150/147/190 149/146/191 146/143/189
f 143/140/180 150/147/115 146/143/185
f 151/148/192 150/147/115 143/140/184
f 139/136/176 151/148/119 143/140/184
f 152/149/122 151/148/119 139/136/176
f 136/133/173 152/149/193 139/136/176
f 153/150/194 152/149/122 136/133/173
f 134/131/107 153/150/194 136/133/173
f 154/151/126 153/150/125 134/131/107
f 155/152/102 154/151/126 134/131/195
f 158/153/78 157/154/196 156/155/79
f 156/155/79 157/154/196 159/156/197
f 160/157/198 156/155/79 159/156/197
f 160/157/199 159/156/197 161/158/81
f 162/159/200 156/155/79 160/157/198
f 163/160/69 160/157/199 161/158/201
f 164/161/71 162/159/77 160/157/199
f 164/161/71 160/157/198 163/160/69
f 165/162/65 164/161/202 163/160/203
f 168/163/187 167/164/3 166/165/34
f 169/166/33 168/163/186 166/165/34
f 172/167/204 171/168/205 170/169/206
f 172/167/204 170/169/206 173/170/153
f 174/171/207 172/167/204 173/170/146
f 177/172/208 176/173/205 175/174/209
f 175/174/209 176/173/210 178/175/204
f 179/176/211 175/174/212 178/175/204
f 179/176/211 178/175/204 180/177/156
f 181/178/213 179/176/214 180/177/207
f 184/179/201 183/180/197 182/181/87
f 183/180/197 185/182/215 182/181/87
f 183/180/197 186/183/196 185/182/215
f 186/183/196 187/184/216 185/182/215
f 188/185/78 187/184/216 186/183/196
f 191/186/217 190/187/218 189/188/219
f 190/187/220 192/189/221 189/188/136
f 190/187/218 193/190/222 192/189/221
f 193/190/223 194/191/224 192/189/221
f 194/191/225 193/190/223 195/192/226
f 198/193/227 197/194/206 196/195/142
f 197/194/206 199/196/228 196/195/142
f 196/195/142 199/196/228 200/197/129
f 197/194/206 201/198/205 199/196/228
f 199/196/228 202/199/229 200/197/128
f 200/197/128 202/199/229 203/200/230
f 202/199/229 204/201/220 203/200/231
f 201/198/205 205/202/232 199/196/228
f 199/196/228 205/202/232 202/199/229
f 205/202/232 201/198/210 206/203/233
f 202/199/229 207/204/234 204/201/218
f 205/202/232 207/204/234 202/199/229
f 207/204/234 205/202/232 206/203/233
f 207/204/234 208/205/223 204/201/220
f 207/204/234 206/203/235 208/205/223
f 211/206/219 210/207/236 209/208/139
f 210/207/221 212/209/237 209/208/139
f 209/208/139 212/209/237 213/210/147
f 212/209/237 214/211/211 213/210/140
f 210/207/221 215/212/238 212/209/237
f 212/209/237 216/213/212 214/211/214
f 215/212/239 216/213/209 212/209/237
f 217/214/233 216/213/209 215/212/224
f 220/5/240 219/4/241 218/6/242
f 219/4/243 221/7/244 218/6/242
f 218/6/245 221/7/246 222/8/12
f 219/4/247 223/215/248 221/7/246
f 221/7/244 224/10/15 222/8/12
f 223/215/248 225/11/249 221/7/246
f 221/7/246 225/11/249 224/10/15
f 225/11/249 226/12/17 224/10/15
f 229/14/250 228/13/251 227/15/252
f 230/16/253 229/14/254 227/15/255
f 231/17/256 229/14/254 230/16/257
f 232/18/258 231/17/256 230/16/259
f 232/18/260 230/16/257 233/19/29
f 234/20/30 232/18/258 233/19/29
f 235/21/261 232/18/260 234/20/32
f 236/22/34 235/21/262 234/20/32
f 233/19/36 230/16/263 237/23/37
f 230/16/263 227/15/255 237/23/37
f 237/23/37 227/15/255 238/24/38
f 227/15/252 239/25/264 238/24/38
f 227/15/255 240/26/251 239/25/264
f 238/24/38 239/25/265 241/27/41
f 240/26/251 242/28/266 239/25/265
f 239/25/265 243/29/267 241/27/41
f 239/25/265 242/28/266 243/29/267
f 241/27/41 243/29/267 244/30/44
f 242/28/268 245/216/269 243/29/267
f 243/29/267 246/32/270 244/30/44
f 243/29/267 245/216/269 246/32/270
f 245/216/269 247/217/271 246/32/270
f 244/30/44 246/32/270 248/33/12
f 246/32/270 249/35/272 248/33/12
f 246/32/270 250/34/271 249/35/272
f 250/34/271 251/36/240 249/35/273
f 254/38/248 253/37/274 252/39/275
f 253/37/274 255/40/276 252/39/249
f 253/37/274 256/41/277 255/40/276
f 256/41/278 257/42/279 255/40/276
f 256/41/278 258/43/280 257/42/281
f 255/40/276 257/42/279 259/44/59
f 255/40/276 259/44/59 260/45/17
f 261/46/249 255/40/276 260/45/17
f 257/42/279 262/47/60 259/44/59
f 257/42/279 263/48/282 262/47/60
f 258/43/280 263/48/282 257/42/279
f 263/48/282 264/49/62 262/47/60
f 265/50/63 264/49/62 263/48/283
f 266/51/284 263/48/283 258/43/280
f 266/51/285 265/50/63 263/48/283
f 267/52/286 266/51/284 258/43/280
f 268/53/68 265/50/63 266/51/284
f 269/54/287 266/51/285 267/52/288
f 270/55/289 268/53/68 266/51/284
f 271/56/290 269/54/287 267/52/288
f 272/57/73 268/53/68 270/55/289
f 273/58/291 272/57/74 270/55/289
f 274/59/292 272/57/74 273/58/293
f 275/60/294 274/59/78 273/58/293
f 276/61/295 269/54/287 271/56/290
f 277/62/296 276/61/297 271/56/290
f 278/63/298 276/61/297 277/62/299
f 279/64/300 278/63/298 277/62/296
f 278/63/298 280/65/86 276/61/295
f 280/65/86 281/66/87 276/61/295
f 282/67/88 280/65/86 278/63/298
f 283/68/301 282/67/89 278/63/298
f 283/68/301 278/63/298 284/69/300
f 285/70/91 282/67/88 283/68/301
f 286/71/302 283/68/301 284/69/300
f 287/72/303 285/70/91 283/68/301
f 287/72/304 283/68/301 286/71/305
f 288/73/95 285/70/91 287/72/306
f 289/74/307 287/72/304 286/71/305
f 290/75/308 288/73/95 287/72/304
f 290/75/308 287/72/304 289/74/307
f 291/76/99 288/73/95 290/75/308
f 292/77/309 290/75/308 289/74/307
f 293/78/310 291/76/101 290/75/311
f 293/78/310 290/75/308 292/77/309
f 294/79/126 291/76/104 293/78/312
f 295/80/313 293/78/310 292/77/309
f 298/82/109 297/81/108 296/83/314
f 297/81/112 299/84/315 296/83/316
f 297/81/108 300/85/114 299/84/315
f 300/85/116 301/86/317 299/84/318
f 300/85/114 302/87/118 301/86/317
f 302/87/118 303/88/319 301/86/317
f 302/87/118 304/89/120 303/88/320
f 304/89/120 305/90/321 303/88/319
f 304/89/124 306/91/322 305/90/321
f 306/91/126 307/92/323 305/90/321
f 310/94/288 309/93/280 308/95/278
f 311/96/324 310/94/288 308/95/278
f 311/96/324 308/95/277 312/97/274
f 313/98/290 310/94/286 311/96/324
f 314/99/325 311/96/324 312/97/274
f 314/99/326 312/97/274 315/100/248
f 316/101/327 313/98/290 311/96/324
f 316/101/327 311/96/324 314/99/328
f 317/102/299 313/98/290 316/101/329
f 318/103/330 314/99/328 315/100/248
f 318/103/330 315/100/331 319/104/332
f 320/105/333 318/103/330 319/104/247
f 320/105/334 319/104/247 321/106/240
f 322/107/271 320/105/333 321/106/335
f 323/108/336 320/105/334 322/107/271
f 324/109/269 323/108/336 322/107/271
f 325/110/337 323/108/338 324/109/269
f 326/111/339 316/101/327 314/99/325
f 327/112/268 325/110/337 324/109/269
f 328/113/340 317/102/296 316/101/327
f 328/113/341 316/101/329 326/111/339
f 329/114/342 317/102/299 328/113/341
f 330/115/343 328/113/340 326/111/339
f 331/116/344 325/110/345 327/112/268
f 332/117/251 331/116/344 327/112/346
f 331/116/344 333/118/347 325/110/337
f 334/119/348 329/114/300 328/113/341
f 334/119/349 328/113/340 330/115/343
f 335/120/305 329/114/300 334/119/348
f 336/121/350 330/115/351 333/118/347
f 336/121/352 334/119/349 330/115/343
f 335/120/305 334/119/349 336/121/350
f 331/116/344 336/121/352 333/118/353
f 337/122/354 335/120/305 336/121/355
f 337/122/356 336/121/357 331/116/344
f 338/123/358 335/120/305 337/122/356
f 339/124/359 331/116/344 332/117/251
f 339/124/359 337/122/356 331/116/344
f 340/125/254 339/124/359 332/117/251
f 341/126/360 338/123/307 337/122/361
f 341/126/362 337/122/356 339/124/359
f 342/127/363 339/124/359 340/125/254
f 342/127/363 341/126/362 339/124/359
f 343/128/256 342/127/363 340/125/254
f 344/129/364 338/123/307 341/126/362
f 344/129/364 345/130/365 338/123/366
f 346/131/313 345/130/309 344/129/364
f 347/132/367 344/129/364 341/126/368
f 347/132/367 341/126/369 342/127/363
f 348/133/370 346/131/371 344/129/364
f 348/133/370 344/129/364 347/132/367
f 349/134/372 342/127/363 343/128/256
f 350/135/373 347/132/367 342/127/363
f 349/134/372 350/135/373 342/127/363
f 351/136/374 347/132/367 350/135/373
f 351/136/374 348/133/370 347/132/367
f 352/137/375 349/134/372 343/128/256
f 352/137/376 343/128/256 353/138/258
f 354/139/377 352/137/375 353/138/260
f 355/140/378 350/135/373 349/134/372
f 355/140/378 351/136/374 350/135/373
f 356/141/379 352/137/376 354/139/262
f 357/142/4 356/141/379 354/139/261
f 358/143/380 349/134/381 352/137/375
f 358/143/382 355/140/383 349/134/381
f 356/141/379 358/143/382 352/137/375
f 359/144/314 356/141/379 357/142/384
f 360/145/2 359/144/314 357/142/385
f 359/144/314 361/146/315 356/141/386
f 361/146/315 358/143/387 356/141/379
f 361/146/388 362/147/389 358/143/387
f 362/147/317 355/140/378 358/143/382
f 362/147/317 363/148/390 355/140/383
f 363/148/319 351/136/374 355/140/383
f 363/148/391 364/149/321 351/136/374
f 364/149/392 348/133/370 351/136/374
f 364/149/321 365/150/393 348/133/370
f 365/150/393 346/131/313 348/133/370
f 365/150/323 366/151/126 346/131/313
f 366/151/126 367/152/310 346/131/371
f 370/154/394 369/153/78 368/155/294
f 370/154/394 368/155/294 371/156/395
f 368/155/294 372/157/396 371/156/395
f 371/156/395 372/157/397 373/158/297
f 368/155/294 374/159/398 372/157/396
f 372/157/397 375/160/287 373/158/399
f 374/159/293 376/161/289 372/157/397
f 372/157/396 376/161/289 375/160/287
f 376/161/400 377/162/284 375/160/401
f 380/163/384 379/166/262 378/165/34
f 381/164/3 380/163/385 378/165/34
f 384/168/402 383/167/403 382/169/404
f 382/169/404 383/167/403 385/170/351
f 383/167/403 386/171/405 385/170/343
f 389/173/402 388/172/406 387/174/407
f 389/173/402 387/174/407 390/175/403
f 387/174/408 391/176/409 390/175/403
f 390/175/403 391/176/409 392/177/410
f 391/176/411 393/178/412 392/177/405
f 396/180/395 395/179/399 394/181/87
f 397/182/215 396/180/395 394/181/87
f 398/183/394 396/180/395 397/182/215
f 399/184/216 398/183/394 397/182/215
f 399/184/216 400/185/78 398/183/394
f 403/187/413 402/186/414 401/188/415
f 404/189/416 403/187/417 401/188/333
f 405/190/418 403/187/413 404/189/416
f 406/191/419 405/190/420 404/189/416
f 405/190/420 406/191/421 407/192/422
f 410/194/404 409/193/423 408/195/339
f 411/196/424 410/194/404 408/195/339
f 411/196/424 408/195/339 412/197/326
f 413/198/402 410/194/425 411/196/424
f 414/199/426 411/196/424 412/197/325
f 414/199/426 412/197/325 415/200/427
f 416/201/417 414/199/426 415/200/428
f 417/202/429 413/198/402 411/196/424
f 417/202/429 411/196/424 414/199/426
f 413/198/430 417/202/429 418/203/431
f 419/204/432 414/199/426 416/201/413
f 419/204/432 417/202/429 414/199/426
f 417/202/429 419/204/432 418/203/431
f 420/205/420 419/204/432 416/201/417
f 418/203/433 419/204/432 420/205/420
f 423/207/434 422/206/415 421/208/336
f 424/209/435 423/207/416 421/208/336
f 424/209/435 421/208/336 425/210/345
f 426/211/409 424/209/435 425/210/337
f 427/212/436 423/207/416 424/209/435
f 428/213/408 424/209/435 426/211/411
f 428/213/407 427/212/437 424/209/435
f 428/213/407 429/214/431 427/212/419
