mtllib bv_blood_model.mtl
o nodes_5__meshes[1]
v 16.000000 16.000000 0.000000
v -14.000000 16.000000 0.000000
v -14.000000 -14.000000 0.000000
v 16.000000 -14.000000 0.000000
vt 1.000000 1.000000
vt 0.000000 1.000000
vt 0.000000 0.000000
vt 1.000000 0.000000
vn 0.0000 0.0000 1.0000
usemtl material1
s off
f 1/1/1 2/2/1 3/3/1
f 1/1/1 3/3/1 4/4/1
o nodes_4__meshes[0]
v -4.850440 -5.838840 0.000000
v 5.850440 -5.838840 0.000000
v -4.850440 7.838840 0.000000
v 5.850440 7.838840 0.000000
vt 0.000000 0.000000
vt 1.000000 0.000000
vt 0.000000 1.000000
vt 1.000000 1.000000
vn 0.0000 0.0000 1.0000
usemtl material0
s off
f 5/5/2 6/6/2 7/7/2
f 6/6/2 8/8/2 7/7/2
